<svg width="150" height="45" viewBox="0 0 150 45" fill="none" xmlns="http://www.w3.org/2000/svg">
<path d="M17.5571 12.6832C17.5451 10.7159 18.4734 9.23329 20.3481 8.14007C19.2996 6.69782 17.7133 5.90458 15.6223 5.7517C13.6425 5.6017 11.4764 6.85935 10.6833 6.85935C9.84506 6.85935 7.92833 5.80362 6.42017 5.80362C3.30773 5.84977 0 8.18622 0 12.9399C0 14.3446 0.267382 15.7955 0.802146 17.2897C1.51717 19.2569 4.09485 24.0769 6.78369 23.9991C8.1897 23.9673 9.18412 23.0414 11.0137 23.0414C12.7893 23.0414 13.7086 23.9991 15.2768 23.9991C17.9897 23.9616 20.321 19.58 21 17.607C17.3618 15.96 17.5571 12.7841 17.5571 12.6832ZM14.3996 3.88543C15.9227 2.14895 15.7845 0.568247 15.7395 0C14.3936 0.0749971 12.8373 0.879773 11.9511 1.86916C10.9747 2.93066 10.4009 4.2431 10.524 5.72285C11.9781 5.82958 13.306 5.11134 14.3996 3.88543Z" fill="currentColor"/>
<path d="M44.952 15.872H40.504L39.768 18H37.416L41.432 6.816H44.04L48.056 18H45.688L44.952 15.872ZM44.344 14.08L42.728 9.408L41.112 14.08H44.344ZM51.7971 10.416C52.0851 10.0107 52.4798 9.67467 52.9811 9.408C53.4931 9.13067 54.0745 8.992 54.7251 8.992C55.4825 8.992 56.1651 9.17867 56.7731 9.552C57.3918 9.92533 57.8771 10.4587 58.2291 11.152C58.5918 11.8347 58.7731 12.6293 58.7731 13.536C58.7731 14.4427 58.5918 15.248 58.2291 15.952C57.8771 16.6453 57.3918 17.184 56.7731 17.568C56.1651 17.952 55.4825 18.144 54.7251 18.144C54.0745 18.144 53.4985 18.0107 52.9971 17.744C52.5065 17.4773 52.1065 17.1413 51.7971 16.736V22.224H49.5571V9.136H51.7971V10.416ZM56.4851 13.536C56.4851 13.0027 56.3731 12.544 56.1491 12.16C55.9358 11.7653 55.6478 11.4667 55.2851 11.264C54.9331 11.0613 54.5491 10.96 54.1331 10.96C53.7278 10.96 53.3438 11.0667 52.9811 11.28C52.6291 11.4827 52.3411 11.7813 52.1171 12.176C51.9038 12.5707 51.7971 13.0347 51.7971 13.568C51.7971 14.1013 51.9038 14.5653 52.1171 14.96C52.3411 15.3547 52.6291 15.6587 52.9811 15.872C53.3438 16.0747 53.7278 16.176 54.1331 16.176C54.5491 16.176 54.9331 16.0693 55.2851 15.856C55.6478 15.6427 55.9358 15.3387 56.1491 14.944C56.3731 14.5493 56.4851 14.08 56.4851 13.536ZM62.6409 10.416C62.9289 10.0107 63.3235 9.67467 63.8249 9.408C64.3369 9.13067 64.9182 8.992 65.5689 8.992C66.3262 8.992 67.0089 9.17867 67.6169 9.552C68.2355 9.92533 68.7209 10.4587 69.0729 11.152C69.4355 11.8347 69.6169 12.6293 69.6169 13.536C69.6169 14.4427 69.4355 15.248 69.0729 15.952C68.7209 16.6453 68.2355 17.184 67.6169 17.568C67.0089 17.952 66.3262 18.144 65.5689 18.144C64.9182 18.144 64.3422 18.0107 63.8409 17.744C63.3502 17.4773 62.9502 17.1413 62.6409 16.736V22.224H60.4009V9.136H62.6409V10.416ZM67.3289 13.536C67.3289 13.0027 67.2169 12.544 66.9929 12.16C66.7795 11.7653 66.4915 11.4667 66.1289 11.264C65.7769 11.0613 65.3929 10.96 64.9769 10.96C64.5715 10.96 64.1875 11.0667 63.8249 11.28C63.4729 11.4827 63.1849 11.7813 62.9609 12.176C62.7475 12.5707 62.6409 13.0347 62.6409 13.568C62.6409 14.1013 62.7475 14.5653 62.9609 14.96C63.1849 15.3547 63.4729 15.6587 63.8249 15.872C64.1875 16.0747 64.5715 16.176 64.9769 16.176C65.3929 16.176 65.7769 16.0693 66.1289 15.856C66.4915 15.6427 66.7795 15.3387 66.9929 14.944C67.2169 14.5493 67.3289 14.08 67.3289 13.536ZM78.9131 18.112C78.1345 18.112 77.4305 17.9787 76.8011 17.712C76.1825 17.4453 75.6918 17.0613 75.3291 16.56C74.9665 16.0587 74.7798 15.4667 74.7691 14.784H77.1691C77.2011 15.2427 77.3611 15.6053 77.6491 15.872C77.9478 16.1387 78.3531 16.272 78.8651 16.272C79.3878 16.272 79.7985 16.1493 80.0971 15.904C80.3958 15.648 80.5451 15.3173 80.5451 14.912C80.5451 14.5813 80.4438 14.3093 80.2411 14.096C80.0385 13.8827 79.7825 13.7173 79.4731 13.6C79.1745 13.472 78.7585 13.3333 78.2251 13.184C77.4998 12.9707 76.9078 12.7627 76.4491 12.56C76.0011 12.3467 75.6118 12.032 75.2811 11.616C74.9611 11.1893 74.8011 10.624 74.8011 9.92C74.8011 9.25867 74.9665 8.68267 75.2971 8.192C75.6278 7.70133 76.0918 7.328 76.6891 7.072C77.2865 6.80533 77.9691 6.672 78.7371 6.672C79.8891 6.672 80.8225 6.95467 81.5371 7.52C82.2625 8.07467 82.6625 8.85333 82.7371 9.856H80.2731C80.2518 9.472 80.0865 9.15733 79.7771 8.912C79.4785 8.656 79.0785 8.528 78.5771 8.528C78.1398 8.528 77.7878 8.64 77.5211 8.864C77.2651 9.088 77.1371 9.41333 77.1371 9.84C77.1371 10.1387 77.2331 10.3893 77.4251 10.592C77.6278 10.784 77.8731 10.944 78.1611 11.072C78.4598 11.1893 78.8758 11.328 79.4091 11.488C80.1345 11.7013 80.7265 11.9147 81.1851 12.128C81.6438 12.3413 82.0385 12.6613 82.3691 13.088C82.6998 13.5147 82.8651 14.0747 82.8651 14.768C82.8651 15.3653 82.7105 15.92 82.4011 16.432C82.0918 16.944 81.6385 17.3547 81.0411 17.664C80.4438 17.9627 79.7345 18.112 78.9131 18.112ZM87.4151 10.976V15.264C87.4151 15.5627 87.4845 15.7813 87.6231 15.92C87.7725 16.048 88.0178 16.112 88.3591 16.112H89.3991V18H87.9911C86.1031 18 85.1591 17.0827 85.1591 15.248V10.976H84.1031V9.136H85.1591V6.944H87.4151V9.136H89.3991V10.976H87.4151ZM94.9463 18.144C94.0929 18.144 93.3249 17.9573 92.6423 17.584C91.9596 17.2 91.4209 16.6613 91.0263 15.968C90.6423 15.2747 90.4503 14.4747 90.4503 13.568C90.4503 12.6613 90.6476 11.8613 91.0423 11.168C91.4476 10.4747 91.9969 9.94133 92.6903 9.568C93.3836 9.184 94.1569 8.992 95.0103 8.992C95.8636 8.992 96.6369 9.184 97.3303 9.568C98.0236 9.94133 98.5676 10.4747 98.9623 11.168C99.3676 11.8613 99.5703 12.6613 99.5703 13.568C99.5703 14.4747 99.3623 15.2747 98.9462 15.968C98.5409 16.6613 97.9863 17.2 97.2823 17.584C96.5889 17.9573 95.8103 18.144 94.9463 18.144ZM94.9463 16.192C95.3516 16.192 95.7303 16.096 96.0823 15.904C96.4449 15.7013 96.7329 15.4027 96.9463 15.008C97.1596 14.6133 97.2663 14.1333 97.2663 13.568C97.2663 12.7253 97.0423 12.08 96.5943 11.632C96.1569 11.1733 95.6183 10.944 94.9783 10.944C94.3383 10.944 93.7996 11.1733 93.3623 11.632C92.9356 12.08 92.7223 12.7253 92.7223 13.568C92.7223 14.4107 92.9303 15.0613 93.3463 15.52C93.7729 15.968 94.3063 16.192 94.9463 16.192ZM103.453 10.512C103.741 10.0427 104.115 9.67467 104.573 9.408C105.043 9.14133 105.576 9.008 106.173 9.008V11.36H105.581C104.877 11.36 104.344 11.5253 103.981 11.856C103.629 12.1867 103.453 12.7627 103.453 13.584V18H101.213V9.136H103.453V10.512ZM115.922 13.376C115.922 13.696 115.901 13.984 115.858 14.24H109.378C109.431 14.88 109.655 15.3813 110.05 15.744C110.445 16.1067 110.93 16.288 111.506 16.288C112.338 16.288 112.93 15.9307 113.282 15.216H115.698C115.442 16.0693 114.951 16.7733 114.226 17.328C113.501 17.872 112.61 18.144 111.554 18.144C110.701 18.144 109.933 17.9573 109.25 17.584C108.578 17.2 108.05 16.6613 107.666 15.968C107.293 15.2747 107.106 14.4747 107.106 13.568C107.106 12.6507 107.293 11.8453 107.666 11.152C108.039 10.4587 108.562 9.92533 109.234 9.552C109.906 9.17867 110.679 8.992 111.554 8.992C112.397 8.992 113.149 9.17333 113.81 9.536C114.482 9.89867 114.999 10.416 115.362 11.088C115.735 11.7493 115.922 12.512 115.922 13.376ZM113.602 12.736C113.591 12.16 113.383 11.7013 112.978 11.36C112.573 11.008 112.077 10.832 111.49 10.832C110.935 10.832 110.466 11.0027 110.082 11.344C109.709 11.6747 109.479 12.1387 109.394 12.736H113.602ZM118.005 6.832H120.357L118.629 10.864H117.093L118.005 6.832ZM121.377 14.108C121.377 13.3333 121.536 12.6473 121.853 12.05C122.18 11.4527 122.619 10.9907 123.169 10.664C123.729 10.328 124.35 10.16 125.031 10.16C125.535 10.16 126.03 10.272 126.515 10.496C127.01 10.7107 127.402 11 127.691 11.364V7.64H129.301V18H127.691V16.838C127.43 17.2113 127.066 17.5193 126.599 17.762C126.142 18.0047 125.615 18.126 125.017 18.126C124.345 18.126 123.729 17.958 123.169 17.622C122.619 17.2767 122.18 16.8007 121.853 16.194C121.536 15.578 121.377 14.8827 121.377 14.108ZM127.691 14.136C127.691 13.604 127.579 13.142 127.355 12.75C127.141 12.358 126.856 12.0593 126.501 11.854C126.147 11.6487 125.764 11.546 125.353 11.546C124.943 11.546 124.56 11.6487 124.205 11.854C123.851 12.05 123.561 12.344 123.337 12.736C123.123 13.1187 123.015 13.576 123.015 14.108C123.015 14.64 123.123 15.1067 123.337 15.508C123.561 15.9093 123.851 16.2173 124.205 16.432C124.569 16.6373 124.952 16.74 125.353 16.74C125.764 16.74 126.147 16.6373 126.501 16.432C126.856 16.2267 127.141 15.928 127.355 15.536C127.579 15.1347 127.691 14.668 127.691 14.136ZM131.066 14.108C131.066 13.3333 131.224 12.6473 131.542 12.05C131.868 11.4527 132.307 10.9907 132.858 10.664C133.418 10.328 134.034 10.16 134.706 10.16C135.312 10.16 135.84 10.2813 136.288 10.524C136.745 10.7573 137.109 11.0513 137.38 11.406V10.286H138.99V18H137.38V16.852C137.109 17.216 136.74 17.5193 136.274 17.762C135.807 18.0047 135.275 18.126 134.678 18.126C134.015 18.126 133.408 17.958 132.858 17.622C132.307 17.2767 131.868 16.8007 131.542 16.194C131.224 15.578 131.066 14.8827 131.066 14.108ZM137.38 14.136C137.38 13.604 137.268 13.142 137.044 12.75C136.829 12.358 136.544 12.0593 136.19 11.854C135.835 11.6487 135.452 11.546 135.042 11.546C134.631 11.546 134.248 11.6487 133.894 11.854C133.539 12.05 133.25 12.344 133.026 12.736C132.811 13.1187 132.704 13.576 132.704 14.108C132.704 14.64 132.811 15.1067 133.026 15.508C133.25 15.9093 133.539 16.2173 133.894 16.432C134.258 16.6373 134.64 16.74 135.042 16.74C135.452 16.74 135.835 16.6373 136.19 16.432C136.544 16.2267 136.829 15.928 137.044 15.536C137.268 15.1347 137.38 14.668 137.38 14.136ZM145.178 10.16C145.785 10.16 146.326 10.286 146.802 10.538C147.287 10.79 147.665 11.1633 147.936 11.658C148.207 12.1527 148.342 12.75 148.342 13.45V18H146.76V13.688C146.76 12.9973 146.587 12.47 146.242 12.106C145.897 11.7327 145.425 11.546 144.828 11.546C144.231 11.546 143.755 11.7327 143.4 12.106C143.055 12.47 142.882 12.9973 142.882 13.688V18H141.286V10.286H142.882V11.168C143.143 10.8507 143.475 10.6033 143.876 10.426C144.287 10.2487 144.721 10.16 145.178 10.16ZM38.862 30.264C38.5727 30.264 38.33 30.166 38.134 29.97C37.938 29.774 37.84 29.5313 37.84 29.242C37.84 28.9527 37.938 28.71 38.134 28.514C38.33 28.318 38.5727 28.22 38.862 28.22C39.142 28.22 39.38 28.318 39.576 28.514C39.772 28.71 39.87 28.9527 39.87 29.242C39.87 29.5313 39.772 29.774 39.576 29.97C39.38 30.166 39.142 30.264 38.862 30.264ZM39.646 31.286V39H38.05V31.286H39.646ZM45.8334 31.16C46.4401 31.16 46.9814 31.286 47.4574 31.538C47.9427 31.79 48.3207 32.1633 48.5914 32.658C48.8621 33.1527 48.9974 33.75 48.9974 34.45V39H47.4154V34.688C47.4154 33.9973 47.2427 33.47 46.8974 33.106C46.5521 32.7327 46.0807 32.546 45.4834 32.546C44.8861 32.546 44.4101 32.7327 44.0554 33.106C43.7101 33.47 43.5374 33.9973 43.5374 34.688V39H41.9414V31.286H43.5374V32.168C43.7987 31.8507 44.1301 31.6033 44.5314 31.426C44.9421 31.2487 45.3761 31.16 45.8334 31.16ZM50.7012 35.108C50.7012 34.3333 50.8599 33.6473 51.1772 33.05C51.5039 32.4527 51.9425 31.9907 52.4932 31.664C53.0532 31.328 53.6739 31.16 54.3552 31.16C54.8592 31.16 55.3539 31.272 55.8392 31.496C56.3339 31.7107 56.7259 32 57.0152 32.364V28.64H58.6252V39H57.0152V37.838C56.7539 38.2113 56.3899 38.5193 55.9232 38.762C55.4659 39.0047 54.9385 39.126 54.3412 39.126C53.6692 39.126 53.0532 38.958 52.4932 38.622C51.9425 38.2767 51.5039 37.8007 51.1772 37.194C50.8599 36.578 50.7012 35.8827 50.7012 35.108ZM57.0152 35.136C57.0152 34.604 56.9032 34.142 56.6792 33.75C56.4645 33.358 56.1799 33.0593 55.8252 32.854C55.4705 32.6487 55.0879 32.546 54.6772 32.546C54.2665 32.546 53.8839 32.6487 53.5292 32.854C53.1745 33.05 52.8852 33.344 52.6612 33.736C52.4465 34.1187 52.3392 34.576 52.3392 35.108C52.3392 35.64 52.4465 36.1067 52.6612 36.508C52.8852 36.9093 53.1745 37.2173 53.5292 37.432C53.8932 37.6373 54.2759 37.74 54.6772 37.74C55.0879 37.74 55.4705 37.6373 55.8252 37.432C56.1799 37.2267 56.4645 36.928 56.6792 36.536C56.9032 36.1347 57.0152 35.668 57.0152 35.136ZM61.7335 30.264C61.4442 30.264 61.2015 30.166 61.0055 29.97C60.8095 29.774 60.7115 29.5313 60.7115 29.242C60.7115 28.9527 60.8095 28.71 61.0055 28.514C61.2015 28.318 61.4442 28.22 61.7335 28.22C62.0135 28.22 62.2515 28.318 62.4475 28.514C62.6435 28.71 62.7415 28.9527 62.7415 29.242C62.7415 29.5313 62.6435 29.774 62.4475 29.97C62.2515 30.166 62.0135 30.264 61.7335 30.264ZM62.5175 31.286V39H60.9215V31.286H62.5175ZM66.4089 32.406C66.6422 32.014 66.9502 31.7107 67.3329 31.496C67.7249 31.272 68.1869 31.16 68.7189 31.16V32.812H68.3129C67.6876 32.812 67.2116 32.9707 66.8849 33.288C66.5676 33.6053 66.4089 34.156 66.4089 34.94V39H64.8129V31.286H66.4089V32.406ZM71.1979 30.264C70.9086 30.264 70.6659 30.166 70.4699 29.97C70.2739 29.774 70.1759 29.5313 70.1759 29.242C70.1759 28.9527 70.2739 28.71 70.4699 28.514C70.6659 28.318 70.9086 28.22 71.1979 28.22C71.4779 28.22 71.7159 28.318 71.9119 28.514C72.1079 28.71 72.2059 28.9527 72.2059 29.242C72.2059 29.5313 72.1079 29.774 71.9119 29.97C71.7159 30.166 71.4779 30.264 71.1979 30.264ZM71.9819 31.286V39H70.3859V31.286H71.9819ZM78.1693 31.16C78.776 31.16 79.3173 31.286 79.7933 31.538C80.2787 31.79 80.6567 32.1633 80.9273 32.658C81.198 33.1527 81.3333 33.75 81.3333 34.45V39H79.7513V34.688C79.7513 33.9973 79.5787 33.47 79.2333 33.106C78.888 32.7327 78.4167 32.546 77.8193 32.546C77.222 32.546 76.746 32.7327 76.3913 33.106C76.046 33.47 75.8733 33.9973 75.8733 34.688V39H74.2773V31.286H75.8733V32.168C76.1347 31.8507 76.466 31.6033 76.8673 31.426C77.278 31.2487 77.712 31.16 78.1693 31.16Z" fill="currentColor"/>
</svg>
