<svg width="16" height="16" viewBox="0 0 16 16" fill="none" xmlns="http://www.w3.org/2000/svg">
<path d="M15.7382 7.43564L10.1733 1.17477C9.81502 0.747489 9.10682 0.709431 8.69134 1.08135C8.27586 1.45327 8.23396 2.16279 8.61907 2.56608L12.6406 7.08781L1.04341 7.08781C0.467171 7.08781 -3.44469e-07 7.55501 -3.19279e-07 8.13129C-2.94088e-07 8.7076 0.467171 9.17477 1.04341 9.17477L12.6406 9.17477L8.61907 13.6965C8.23396 14.0998 8.28605 14.8081 8.70153 15.18C9.11701 15.5519 9.81502 15.5151 10.1733 15.0878L15.7382 8.82694C16.1016 8.32075 16.0726 7.86632 15.7382 7.43564V7.43564Z" fill="currentColor"/>
</svg>
