<svg width="46" height="44" viewBox="0 0 46 44" fill="none" xmlns="http://www.w3.org/2000/svg">
<circle cx="15.0083" cy="4.54445" r="4.54445" fill="#147E5F"/>
<circle cx="44.0927" cy="23.3295" r="1.81778" fill="#147E5F"/>
<path d="M43.7725 5.38849C45.2653 9.06641 43.4938 13.258 39.8159 14.7508C39.4102 14.9154 38.9982 15.0404 38.5843 15.1274C36.2811 15.6118 33.7089 16.2705 32.4765 18.2757C31.0376 20.6168 31.824 23.657 33.9487 25.3996C38.1851 28.8741 41.6131 33.4537 43.7427 38.923C50.354 55.9018 41.9495 75.0253 24.9707 81.6365C7.992 88.2478 -11.1315 79.8433 -17.7427 62.8645C-24.354 45.8858 -15.9495 26.7623 1.02925 20.151C8.44523 17.2634 16.2704 17.2404 23.2834 19.5453C25.8235 20.3801 28.7195 19.5891 30.1196 17.3111L30.6402 16.4641C31.6726 14.7843 31.1951 12.621 30.4536 10.7941C28.9609 7.11618 30.7323 2.92454 34.4103 1.43182C38.0882 -0.0608931 42.2798 1.71056 43.7725 5.38849Z" fill="#147E5F"/>
</svg>
