<svg width="16" height="16" viewBox="0 0 16 16" fill="none" xmlns="http://www.w3.org/2000/svg">
<path d="M15.371 4.8858C14.9682 3.93324 14.3914 3.07776 13.6567 2.34299C12.9219 1.60839 12.0668 1.03167 11.1138 0.628636C10.1275 0.21156 9.07985 0 8 0C6.91998 0 5.87249 0.21156 4.88598 0.628814C3.93342 1.03185 3.07776 1.60857 2.34316 2.34316C1.60857 3.07794 1.03167 3.93324 0.628814 4.88598C0.21156 5.87231 0 6.92015 0 8C0 9.07985 0.211383 10.1275 0.628814 11.114C1.03167 12.0666 1.60857 12.9222 2.34316 13.6568C3.07776 14.3914 3.93324 14.9682 4.88598 15.3712C5.87249 15.7884 6.91998 16 8 16C9.07985 16 10.1275 15.7884 11.114 15.3712C12.0668 14.9682 12.9221 14.3914 13.6568 13.6568C14.3916 12.9222 14.9683 12.0668 15.3712 11.114C15.7886 10.1275 16 9.08002 16 8C16 6.91998 15.7884 5.87231 15.371 4.8858ZM12.5276 10.9858C12.5665 11.0244 12.5665 11.0872 12.5276 11.1259L11.1261 12.5276C11.1067 12.5469 11.0813 12.5567 11.0559 12.5567C11.0305 12.5567 11.0052 12.5469 10.9857 12.5276L8 9.54172L5.01416 12.5276C4.9754 12.5665 4.91282 12.5665 4.87406 12.5276L3.47226 11.1259C3.4335 11.0872 3.4335 11.0244 3.47226 10.9858L6.4581 8L3.47226 5.01416C3.45377 4.99549 3.44328 4.97024 3.44328 4.94393C3.44328 4.91762 3.45377 4.89238 3.47226 4.87371L4.87406 3.47208C4.91282 3.43332 4.9754 3.43332 5.01416 3.47208L8 6.4581L10.9858 3.47226C11.0244 3.4335 11.0872 3.4335 11.1261 3.47226L12.5276 4.87389C12.5462 4.89238 12.5567 4.91762 12.5567 4.94411C12.5567 4.97024 12.5462 4.99549 12.5276 5.01433L9.54172 8L12.5276 10.9858Z" fill="currentColor"/>
</svg>
