<svg width="16" height="16" viewBox="0 0 16 16" fill="none" xmlns="http://www.w3.org/2000/svg">
<path d="M9.13284 7.42234C9.8102 7.42234 10.4724 7.22142 11.0356 6.845C11.5988 6.46858 12.0377 5.93356 12.297 5.3076C12.5562 4.68163 12.624 3.99284 12.4918 3.32832C12.3597 2.6638 12.0335 2.0534 11.5545 1.57431C11.0756 1.09522 10.4653 0.768954 9.80098 0.636773C9.13664 0.504591 8.44802 0.572432 7.82222 0.831714C7.19641 1.091 6.66153 1.53008 6.28521 2.09343C5.90888 2.65678 5.70802 3.3191 5.70802 3.99664C5.70802 4.90519 6.06885 5.77653 6.71113 6.41897C7.3534 7.06142 8.22452 7.42234 9.13284 7.42234ZM7.01516 3.59127C7.06822 3.53775 7.13135 3.49528 7.20091 3.46629C7.27047 3.43731 7.34508 3.42238 7.42043 3.42238C7.49578 3.42238 7.57039 3.43731 7.63995 3.46629C7.7095 3.49528 7.77264 3.53775 7.8257 3.59127L8.56203 4.3335L10.1374 2.75197C10.1907 2.69874 10.2539 2.65651 10.3234 2.6277C10.3929 2.59889 10.4675 2.58406 10.5427 2.58406C10.618 2.58406 10.6925 2.59889 10.762 2.6277C10.8316 2.65651 10.8948 2.69874 10.948 2.75197C11.0012 2.80521 11.0434 2.86841 11.0722 2.93796C11.101 3.00752 11.1159 3.08206 11.1159 3.15735C11.1159 3.23263 11.101 3.30718 11.0722 3.37673C11.0434 3.44629 11.0012 3.50949 10.948 3.56272L8.9673 5.54391C8.91424 5.59743 8.85111 5.6399 8.78155 5.66889C8.71199 5.69788 8.63739 5.7128 8.56203 5.7128C8.48668 5.7128 8.41207 5.69788 8.34252 5.66889C8.27296 5.6399 8.20983 5.59743 8.15676 5.54391L7.01516 4.40202C6.96166 4.34894 6.9192 4.28579 6.89022 4.21622C6.86124 4.14664 6.84632 4.07201 6.84632 3.99664C6.84632 3.92127 6.86124 3.84664 6.89022 3.77707C6.9192 3.70749 6.96166 3.64435 7.01516 3.59127V3.59127ZM4.80045 10.848H12.7917C13.1733 10.8481 13.5441 10.7205 13.845 10.4857C14.146 10.2509 14.3598 9.92227 14.4527 9.55197L15.9825 3.56272C16.0038 3.47845 16.0057 3.39042 15.9879 3.30532C15.9701 3.22023 15.9331 3.14032 15.8797 3.07171C15.8242 3.00133 15.7529 2.94501 15.6716 2.90732C15.5903 2.86962 15.5012 2.85161 15.4117 2.85474H13.5508C13.6469 3.22786 13.6967 3.61137 13.6993 3.99664C13.6993 5.20804 13.2182 6.36983 12.3618 7.22642C11.5054 8.08301 10.3439 8.56423 9.13284 8.56423C7.92175 8.56423 6.76026 8.08301 5.90389 7.22642C5.04752 6.36983 4.56642 5.20804 4.56642 3.99664C4.56896 3.61137 4.6188 3.22786 4.71483 2.85474H3.42481L3.04808 1.31889C2.95937 0.943416 2.74652 0.608897 2.44401 0.369523C2.1415 0.13015 1.76706 -5.50398e-05 1.38134 1.74535e-08H0.570802C0.419416 1.74535e-08 0.27423 0.0601534 0.167184 0.167227C0.0601379 0.274301 0 0.419524 0 0.570949C0 0.722374 0.0601379 0.867597 0.167184 0.974671C0.27423 1.08174 0.419416 1.1419 0.570802 1.1419H1.38134C1.51251 1.13839 1.64088 1.18019 1.74484 1.26026C1.8488 1.34034 1.92201 1.45379 1.95214 1.58153L3.93854 10.1001L3.25928 10.7795C3.0201 11.0191 2.85725 11.3241 2.7913 11.6562C2.72535 11.9882 2.75926 12.3324 2.88875 12.6452C3.01823 12.958 3.23748 13.2254 3.51881 13.4136C3.80013 13.6019 4.13092 13.7025 4.46938 13.7028V13.7028C4.38392 13.9384 4.35119 14.1898 4.37348 14.4394C4.39578 14.689 4.47256 14.9307 4.59841 15.1474C4.72426 15.3641 4.89612 15.5505 5.10185 15.6935C5.30759 15.8366 5.54219 15.9327 5.78912 15.9751C6.03604 16.0176 6.28926 16.0053 6.53093 15.9392C6.77259 15.873 6.9968 15.7547 7.18775 15.5924C7.37869 15.4302 7.53172 15.228 7.63603 15.0001C7.74034 14.7723 7.79339 14.5243 7.79145 14.2737C7.79074 14.0784 7.75397 13.8848 7.683 13.7028H9.78926C9.69538 13.9615 9.66522 14.239 9.70132 14.5119C9.73741 14.7847 9.83872 15.0448 9.99664 15.2702C10.1546 15.4956 10.3645 15.6796 10.6086 15.8066C10.8527 15.9337 11.1238 16 11.3989 16C11.6741 16 11.9452 15.9337 12.1893 15.8066C12.4334 15.6796 12.6433 15.4956 12.8012 15.2702C12.9591 15.0448 13.0604 14.7847 13.0965 14.5119C13.1326 14.239 13.1025 13.9615 13.0086 13.7028H14.2701C14.4214 13.7028 14.5666 13.6426 14.6737 13.5355C14.7807 13.4285 14.8409 13.2832 14.8409 13.1318C14.8409 12.9804 14.7807 12.8352 14.6737 12.7281C14.5666 12.621 14.4214 12.5609 14.2701 12.5609H4.46938C4.35601 12.5615 4.245 12.5284 4.15052 12.4657C4.05605 12.403 3.98237 12.3136 3.93889 12.2089C3.89542 12.1041 3.88411 11.9888 3.90641 11.8776C3.92871 11.7664 3.98361 11.6644 4.06411 11.5846L4.80045 10.848ZM11.416 13.7028C11.5289 13.7028 11.6393 13.7363 11.7332 13.799C11.827 13.8617 11.9002 13.9509 11.9434 14.0552C11.9866 14.1596 11.9979 14.2744 11.9759 14.3851C11.9539 14.4959 11.8995 14.5976 11.8197 14.6774C11.7398 14.7573 11.6381 14.8117 11.5274 14.8337C11.4167 14.8557 11.3019 14.8444 11.1976 14.8012C11.0933 14.758 11.0042 14.6848 10.9414 14.5909C10.8787 14.497 10.8452 14.3866 10.8452 14.2737C10.8452 14.1223 10.9054 13.9771 11.0124 13.87C11.1195 13.7629 11.2647 13.7028 11.416 13.7028ZM6.09617 13.7028C6.20906 13.7028 6.31942 13.7363 6.41329 13.799C6.50716 13.8617 6.58032 13.9509 6.62352 14.0552C6.66672 14.1596 6.67803 14.2744 6.656 14.3851C6.63398 14.4959 6.57961 14.5976 6.49979 14.6774C6.41996 14.7573 6.31825 14.8117 6.20753 14.8337C6.0968 14.8557 5.98203 14.8444 5.87773 14.8012C5.77343 14.758 5.68428 14.6848 5.62156 14.5909C5.55884 14.497 5.52537 14.3866 5.52537 14.2737C5.52537 14.1223 5.5855 13.9771 5.69255 13.87C5.7996 13.7629 5.94478 13.7028 6.09617 13.7028V13.7028Z" fill="currentColor"/>
</svg>
