<svg width="16" height="14" viewBox="0 0 16 14" fill="none" xmlns="http://www.w3.org/2000/svg">
<path d="M14.8803 4.88613H14.2916L11.9198 0.927536C11.8188 0.745342 11.617 0.6294 11.3983 0.6294H10.3049V0.546584C10.3049 0.248447 10.0526 0 9.74979 0H6.23409C5.93131 0 5.67899 0.248447 5.67899 0.546584V0.6294H4.58559C4.36691 0.6294 4.18187 0.745342 4.06412 0.927536L1.67547 4.88613H1.08672C0.363393 4.88613 -0.158073 5.54865 0.0437851 6.24431L1.87733 12.9193C2.0119 13.383 2.43244 13.7143 2.93708 13.7143H13.0804C13.5683 13.7143 14.0056 13.383 14.1402 12.9193L15.9737 6.24431C16.1251 5.54865 15.6037 4.88613 14.8803 4.88613ZM4.92202 1.82195H5.67899V1.90476C5.67899 2.2029 5.93131 2.45135 6.23409 2.45135H9.74979C10.0526 2.45135 10.3049 2.2029 10.3049 1.90476V1.82195H11.0619L12.8954 4.88613H3.07165L4.92202 1.82195ZM5.40984 10.8489C5.40984 11.1801 5.1407 11.4451 4.80427 11.4451C4.46784 11.4451 4.19869 11.1801 4.19869 10.8489V7.71843C4.19869 7.38716 4.46784 7.12215 4.80427 7.12215C5.1407 7.12215 5.40984 7.38716 5.40984 7.71843V10.8489ZM8.5891 10.8489C8.5891 11.1801 8.31996 11.4451 7.98353 11.4451C7.6471 11.4451 7.37796 11.1801 7.37796 10.8489V7.71843C7.37796 7.38716 7.6471 7.12215 7.98353 7.12215C8.31996 7.12215 8.5891 7.38716 8.5891 7.71843V10.8489ZM11.7515 10.8489C11.7515 11.1801 11.4824 11.4451 11.146 11.4451C10.8095 11.4451 10.5404 11.1801 10.5404 10.8489V7.71843C10.5404 7.38716 10.8095 7.12215 11.146 7.12215C11.4824 7.12215 11.7515 7.38716 11.7515 7.71843V10.8489Z" fill="currentColor"/>
</svg>
