<svg width="16" height="16" viewBox="0 0 16 16" fill="none" xmlns="http://www.w3.org/2000/svg">
<path d="M9.12813 7.99932L15.7648 1.3706C15.9154 1.22003 16 1.01581 16 0.802876C16 0.58994 15.9154 0.385725 15.7648 0.235157C15.6143 0.0845885 15.4101 0 15.1971 0C14.9842 0 14.78 0.0845885 14.6294 0.235157L8.00068 6.87187L1.37196 0.235157C1.29741 0.160603 1.2089 0.101464 1.11149 0.0611153C1.01408 0.020767 0.909676 0 0.804241 0C0.698806 0 0.594403 0.020767 0.496994 0.0611153C0.399584 0.101464 0.311076 0.160603 0.236522 0.235157C0.0859532 0.385725 0.0013647 0.58994 0.0013647 0.802876C0.0013647 1.01581 0.0859532 1.22003 0.236522 1.3706L6.87324 7.99932L0.236522 14.628C0.161576 14.7024 0.10209 14.7908 0.0614951 14.8882C0.0209003 14.9857 0 15.0902 0 15.1958C0 15.3013 0.0209003 15.4058 0.0614951 15.5033C0.10209 15.6007 0.161576 15.6891 0.236522 15.7635C0.310855 15.8384 0.399293 15.8979 0.496732 15.9385C0.594171 15.9791 0.698684 16 0.804241 16C0.909798 16 1.01431 15.9791 1.11175 15.9385C1.20919 15.8979 1.29763 15.8384 1.37196 15.7635L8.00068 9.12676L14.6294 15.7635C14.7037 15.8384 14.7922 15.8979 14.8896 15.9385C14.9871 15.9791 15.0916 16 15.1971 16C15.3027 16 15.4072 15.9791 15.5046 15.9385C15.6021 15.8979 15.6905 15.8384 15.7648 15.7635C15.8398 15.6891 15.8993 15.6007 15.9399 15.5033C15.9805 15.4058 16.0014 15.3013 16.0014 15.1958C16.0014 15.0902 15.9805 14.9857 15.9399 14.8882C15.8993 14.7908 15.8398 14.7024 15.7648 14.628L9.12813 7.99932Z" fill="currentColor"/>
</svg>
