<svg width="36" height="32" viewBox="0 0 36 32" fill="none" xmlns="http://www.w3.org/2000/svg">
<path fill-rule="evenodd" clip-rule="evenodd" d="M1.956 9.63802L28.2386 3.76761L27.8744 2.1854C27.7732 1.73503 27.312 1.45209 26.8588 1.55171L2.22709 7.01567C1.76982 7.11532 1.48251 7.56568 1.58365 8.01601C1.70907 8.55401 1.83051 9.10002 1.956 9.63802ZM1.73746 5.58094L26.6807 0.0532304C27.8704 -0.209781 29.056 0.527479 29.3231 1.6992L31.9372 13.0774H30.3753L29.1896 7.92435L2.90688 13.7948L4.53364 20.8608L4.67931 21.4866C4.73596 21.7377 4.99091 21.901 5.24989 21.8412L5.44408 21.7974V23.3039L5.41575 23.3122C4.4284 23.5314 3.44509 22.9137 3.21848 21.9453L0.0580882 8.18773C-0.07547 7.60185 0.0216845 7.05191 0.345396 6.54179C0.669108 6.03164 1.14259 5.7128 1.7374 5.58128L1.73746 5.58094ZM8.21199 13.4879C6.99399 13.4879 6.00254 14.4683 6.00254 15.6679V29.824C6.00254 31.0236 6.99399 32 8.21199 32H33.7866C35.0046 32 36 31.0196 36 29.824V15.6679C36 14.4683 35.0046 13.4879 33.7866 13.4879H8.21199ZM33.2484 19.8247C33.2484 18.8642 33.2484 17.9037 33.2484 16.9432C33.2484 16.7559 33.0986 16.6085 32.9084 16.6085C30.7273 16.6085 28.5462 16.6085 26.3651 16.6085C26.1789 16.6085 26.0252 16.7599 26.0252 16.9432C26.0252 17.9037 26.0252 18.8642 26.0252 19.8247C26.0252 20.008 26.1789 20.1594 26.3651 20.1594C28.5462 20.1594 30.7273 20.1594 32.9084 20.1594C33.0905 20.1594 33.2484 20.012 33.2484 19.8247ZM28.4248 28.5606C28.2346 28.5606 28.0808 28.4092 28.0808 28.2258V27.5563C28.0808 27.3729 28.2346 27.2215 28.4248 27.2215H32.9043C33.0905 27.2215 33.2443 27.3729 33.2443 27.5563V28.2258C33.2443 28.4092 33.0905 28.5606 32.9043 28.5606H28.4248ZM22.1728 28.5606C21.9866 28.5606 21.8329 28.4092 21.8329 28.2258V27.5603C21.8329 27.3729 21.9866 27.2255 22.1728 27.2255H26.6564C26.8425 27.2255 26.9963 27.3769 26.9963 27.5603V28.2258C26.9963 28.4092 26.8425 28.5606 26.6564 28.5606H22.1728ZM15.9248 28.5606C15.7387 28.5606 15.5849 28.4092 15.5849 28.2258V27.5603C15.5849 27.3729 15.7387 27.2255 15.9248 27.2255H20.4085C20.5946 27.2255 20.7484 27.3769 20.7484 27.5603V28.2258C20.7484 28.4092 20.5946 28.5606 20.4085 28.5606H15.9248ZM9.67686 28.5606C9.49074 28.5606 9.33693 28.4092 9.33693 28.2258V27.5603C9.33693 27.3729 9.49074 27.2255 9.67686 27.2255H14.1605C14.3467 27.2255 14.5004 27.3769 14.5004 27.5603V28.2258C14.5004 28.4092 14.3467 28.5606 14.1605 28.5606H9.67686Z" fill="black"/>
</svg>
