<svg width="14" height="16" viewBox="0 0 14 16" fill="none" xmlns="http://www.w3.org/2000/svg">
<path d="M8.77485 12.2734H4.44485C3.433 12.2761 2.45978 12.6622 1.72125 13.3539C0.982724 14.0456 0.533772 14.9914 0.464844 16.0009H12.7549C12.6859 14.9914 12.237 14.0456 11.4984 13.3539C10.7599 12.6622 9.78669 12.2761 8.77485 12.2734V12.2734Z" fill="currentColor"/>
<path d="M13.22 2.67L6.61 0L0 2.67L6.61 5.3425L12.6725 2.8925V6.8925C12.679 6.96059 12.7107 7.02381 12.7613 7.06982C12.8119 7.11582 12.8779 7.14131 12.9463 7.14131C13.0147 7.14131 13.0806 7.11582 13.1312 7.06982C13.1818 7.02381 13.2135 6.96059 13.22 6.8925V2.67Z" fill="currentColor"/>
<path d="M10.4451 7.41406C10.4463 6.49673 10.1633 5.60154 9.6351 4.85156L6.61009 6.07156L3.58759 4.85156C3.05936 5.60154 2.77639 6.49673 2.77759 7.41406C2.77509 9.74906 4.49259 11.6266 6.61009 11.6266C8.7276 11.6266 10.4451 9.74906 10.4451 7.41406Z" fill="currentColor"/>
</svg>
