<svg width="16" height="11" viewBox="0 0 16 11" fill="none" xmlns="http://www.w3.org/2000/svg">
<path fill-rule="evenodd" clip-rule="evenodd" d="M8 4.6584L0.828 0.208C1.0576 0.0800002 1.3184 0 1.6 0H14.4C14.6816 0 14.9416 0.0800002 15.172 0.208L8 4.6584ZM8.4216 6.28V6.2792L15.9976 1.5776C15.9976 1.584 16 1.592 16 1.6V8.8C16 9.68 15.2824 10.4 14.4 10.4H1.6C0.7176 10.4 0 9.68 0 8.8V1.6C0 1.592 0.00240002 1.5864 0.00240002 1.5784L7.5784 6.28C7.7072 6.36 7.8536 6.4 8 6.4C8.1464 6.4 8.2936 6.36 8.4216 6.28Z" fill="currentColor"/>
</svg>
