<svg width="165" height="45" viewBox="0 0 167 45" fill="none" xmlns="http://www.w3.org/2000/svg">
<path d="M11.9186 11.4879L15.8546 7.54526L3.14138 0.387934C2.2988 -0.0680655 1.50946 -0.132065 0.81729 0.366601L11.9186 11.4879ZM16.5255 16.1039L20.6173 13.7986C21.4159 13.3506 21.8539 12.7159 21.8539 12.0119C21.8539 11.3093 21.4159 10.6733 20.6186 10.2253L16.9142 8.14126L12.7439 12.3172L16.5255 16.1039ZM0.133109 1.33593C0.0479192 1.5986 0 1.89193 0 2.21326V21.8199C0 22.3279 0.111812 22.7652 0.314138 23.1132L11.092 12.3159L0.133109 1.33593ZM11.9186 13.1426L1.20065 23.8799C1.40563 23.9586 1.62659 23.9999 1.85954 23.9999C2.27484 23.9999 2.70744 23.8772 3.14803 23.6319L15.4673 16.7026L11.9186 13.1426Z" fill="currentColor"/>
<path d="M46.88 10.192C46.624 9.72267 46.272 9.36533 45.824 9.12C45.376 8.87467 44.8533 8.752 44.256 8.752C43.5947 8.752 43.008 8.90133 42.496 9.2C41.984 9.49867 41.584 9.92533 41.296 10.48C41.008 11.0347 40.864 11.6747 40.864 12.4C40.864 13.1467 41.008 13.7973 41.296 14.352C41.5947 14.9067 42.0053 15.3333 42.528 15.632C43.0507 15.9307 43.6587 16.08 44.352 16.08C45.2053 16.08 45.904 15.856 46.448 15.408C46.992 14.9493 47.3493 14.3147 47.52 13.504H43.68V11.792H49.728V13.744C49.5787 14.5227 49.2587 15.2427 48.768 15.904C48.2773 16.5653 47.6427 17.0987 46.864 17.504C46.096 17.8987 45.232 18.096 44.272 18.096C43.1947 18.096 42.2187 17.856 41.344 17.376C40.48 16.8853 39.7973 16.208 39.296 15.344C38.8053 14.48 38.56 13.4987 38.56 12.4C38.56 11.3013 38.8053 10.32 39.296 9.456C39.7973 8.58133 40.48 7.904 41.344 7.424C42.2187 6.93333 43.1893 6.688 44.256 6.688C45.5147 6.688 46.608 6.99733 47.536 7.616C48.464 8.224 49.104 9.08267 49.456 10.192H46.88ZM55.3213 18.144C54.4679 18.144 53.6999 17.9573 53.0173 17.584C52.3346 17.2 51.7959 16.6613 51.4013 15.968C51.0173 15.2747 50.8253 14.4747 50.8253 13.568C50.8253 12.6613 51.0226 11.8613 51.4173 11.168C51.8226 10.4747 52.3719 9.94133 53.0653 9.568C53.7586 9.184 54.5319 8.992 55.3853 8.992C56.2386 8.992 57.0119 9.184 57.7053 9.568C58.3986 9.94133 58.9426 10.4747 59.3373 11.168C59.7426 11.8613 59.9453 12.6613 59.9453 13.568C59.9453 14.4747 59.7373 15.2747 59.3212 15.968C58.9159 16.6613 58.3613 17.2 57.6573 17.584C56.9639 17.9573 56.1853 18.144 55.3213 18.144ZM55.3213 16.192C55.7266 16.192 56.1053 16.096 56.4573 15.904C56.8199 15.7013 57.1079 15.4027 57.3213 15.008C57.5346 14.6133 57.6413 14.1333 57.6413 13.568C57.6413 12.7253 57.4173 12.08 56.9693 11.632C56.5319 11.1733 55.9933 10.944 55.3533 10.944C54.7133 10.944 54.1746 11.1733 53.7373 11.632C53.3106 12.08 53.0973 12.7253 53.0973 13.568C53.0973 14.4107 53.3053 15.0613 53.7213 15.52C54.1479 15.968 54.6813 16.192 55.3213 16.192ZM65.5244 18.144C64.671 18.144 63.903 17.9573 63.2204 17.584C62.5377 17.2 61.999 16.6613 61.6044 15.968C61.2204 15.2747 61.0284 14.4747 61.0284 13.568C61.0284 12.6613 61.2257 11.8613 61.6204 11.168C62.0257 10.4747 62.575 9.94133 63.2684 9.568C63.9617 9.184 64.735 8.992 65.5884 8.992C66.4417 8.992 67.215 9.184 67.9084 9.568C68.6017 9.94133 69.1457 10.4747 69.5404 11.168C69.9457 11.8613 70.1484 12.6613 70.1484 13.568C70.1484 14.4747 69.9404 15.2747 69.5244 15.968C69.119 16.6613 68.5644 17.2 67.8604 17.584C67.167 17.9573 66.3884 18.144 65.5244 18.144ZM65.5244 16.192C65.9297 16.192 66.3084 16.096 66.6604 15.904C67.023 15.7013 67.311 15.4027 67.5244 15.008C67.7377 14.6133 67.8444 14.1333 67.8444 13.568C67.8444 12.7253 67.6204 12.08 67.1724 11.632C66.735 11.1733 66.1964 10.944 65.5564 10.944C64.9164 10.944 64.3777 11.1733 63.9404 11.632C63.5137 12.08 63.3004 12.7253 63.3004 13.568C63.3004 14.4107 63.5084 15.0613 63.9244 15.52C64.351 15.968 64.8844 16.192 65.5244 16.192ZM75.2635 8.992C75.9248 8.992 76.5062 9.12533 77.0075 9.392C77.5088 9.648 77.9035 9.984 78.1915 10.4V9.136H80.4475V18.064C80.4475 18.8853 80.2822 19.616 79.9515 20.256C79.6208 20.9067 79.1248 21.4187 78.4635 21.792C77.8022 22.176 77.0022 22.368 76.0635 22.368C74.8048 22.368 73.7702 22.0747 72.9595 21.488C72.1595 20.9013 71.7062 20.1013 71.5995 19.088H73.8235C73.9408 19.4933 74.1915 19.8133 74.5755 20.048C74.9702 20.2933 75.4448 20.416 75.9995 20.416C76.6502 20.416 77.1782 20.2187 77.5835 19.824C77.9888 19.44 78.1915 18.8533 78.1915 18.064V16.688C77.9035 17.104 77.5035 17.4507 76.9915 17.728C76.4902 18.0053 75.9142 18.144 75.2635 18.144C74.5168 18.144 73.8342 17.952 73.2155 17.568C72.5968 17.184 72.1062 16.6453 71.7435 15.952C71.3915 15.248 71.2155 14.4427 71.2155 13.536C71.2155 12.64 71.3915 11.8453 71.7435 11.152C72.1062 10.4587 72.5915 9.92533 73.1995 9.552C73.8182 9.17867 74.5062 8.992 75.2635 8.992ZM78.1915 13.568C78.1915 13.024 78.0848 12.56 77.8715 12.176C77.6582 11.7813 77.3702 11.4827 77.0075 11.28C76.6448 11.0667 76.2555 10.96 75.8395 10.96C75.4235 10.96 75.0395 11.0613 74.6875 11.264C74.3355 11.4667 74.0475 11.7653 73.8235 12.16C73.6102 12.544 73.5035 13.0027 73.5035 13.536C73.5035 14.0693 73.6102 14.5387 73.8235 14.944C74.0475 15.3387 74.3355 15.6427 74.6875 15.856C75.0502 16.0693 75.4342 16.176 75.8395 16.176C76.2555 16.176 76.6448 16.0747 77.0075 15.872C77.3702 15.6587 77.6582 15.36 77.8715 14.976C78.0848 14.5813 78.1915 14.112 78.1915 13.568ZM84.8753 6.16V18H82.6353V6.16H84.8753ZM95.3284 13.376C95.3284 13.696 95.307 13.984 95.2644 14.24H88.7844C88.8377 14.88 89.0617 15.3813 89.4564 15.744C89.851 16.1067 90.3364 16.288 90.9124 16.288C91.7444 16.288 92.3364 15.9307 92.6884 15.216H95.1044C94.8484 16.0693 94.3577 16.7733 93.6324 17.328C92.907 17.872 92.0164 18.144 90.9604 18.144C90.107 18.144 89.339 17.9573 88.6564 17.584C87.9844 17.2 87.4564 16.6613 87.0724 15.968C86.699 15.2747 86.5124 14.4747 86.5124 13.568C86.5124 12.6507 86.699 11.8453 87.0724 11.152C87.4457 10.4587 87.9684 9.92533 88.6404 9.552C89.3124 9.17867 90.0857 8.992 90.9604 8.992C91.803 8.992 92.555 9.17333 93.2164 9.536C93.8884 9.89867 94.4057 10.416 94.7684 11.088C95.1417 11.7493 95.3284 12.512 95.3284 13.376ZM93.0084 12.736C92.9977 12.16 92.7897 11.7013 92.3844 11.36C91.979 11.008 91.483 10.832 90.8964 10.832C90.3417 10.832 89.8724 11.0027 89.4884 11.344C89.115 11.6747 88.8857 12.1387 88.8004 12.736H93.0084ZM108.92 10.288C108.92 10.8853 108.776 11.4453 108.488 11.968C108.211 12.4907 107.768 12.912 107.16 13.232C106.563 13.552 105.805 13.712 104.888 13.712H103.016V18H100.776V6.832H104.888C105.752 6.832 106.488 6.98133 107.096 7.28C107.704 7.57867 108.157 7.98933 108.456 8.512C108.765 9.03467 108.92 9.62667 108.92 10.288ZM104.792 11.904C105.411 11.904 105.869 11.7653 106.168 11.488C106.467 11.2 106.616 10.8 106.616 10.288C106.616 9.2 106.008 8.656 104.792 8.656H103.016V11.904H104.792ZM112.75 6.16V18H110.51V6.16H112.75ZM114.387 13.536C114.387 12.64 114.563 11.8453 114.915 11.152C115.278 10.4587 115.763 9.92533 116.371 9.552C116.99 9.17867 117.678 8.992 118.435 8.992C119.097 8.992 119.673 9.12533 120.163 9.392C120.665 9.65867 121.065 9.99467 121.363 10.4V9.136H123.619V18H121.363V16.704C121.075 17.12 120.675 17.4667 120.163 17.744C119.662 18.0107 119.081 18.144 118.419 18.144C117.673 18.144 116.99 17.952 116.371 17.568C115.763 17.184 115.278 16.6453 114.915 15.952C114.563 15.248 114.387 14.4427 114.387 13.536ZM121.363 13.568C121.363 13.024 121.257 12.56 121.043 12.176C120.83 11.7813 120.542 11.4827 120.179 11.28C119.817 11.0667 119.427 10.96 119.011 10.96C118.595 10.96 118.211 11.0613 117.859 11.264C117.507 11.4667 117.219 11.7653 116.995 12.16C116.782 12.544 116.675 13.0027 116.675 13.536C116.675 14.0693 116.782 14.5387 116.995 14.944C117.219 15.3387 117.507 15.6427 117.859 15.856C118.222 16.0693 118.606 16.176 119.011 16.176C119.427 16.176 119.817 16.0747 120.179 15.872C120.542 15.6587 120.83 15.36 121.043 14.976C121.257 14.5813 121.363 14.112 121.363 13.568ZM134.287 9.136L128.799 22.192H126.415L128.335 17.776L124.783 9.136H127.295L129.583 15.328L131.903 9.136H134.287ZM135.943 6.832H138.295L136.567 10.864H135.031L135.943 6.832ZM139.315 14.108C139.315 13.3333 139.474 12.6473 139.791 12.05C140.118 11.4527 140.556 10.9907 141.107 10.664C141.667 10.328 142.288 10.16 142.969 10.16C143.473 10.16 143.968 10.272 144.453 10.496C144.948 10.7107 145.34 11 145.629 11.364V7.64H147.239V18H145.629V16.838C145.368 17.2113 145.004 17.5193 144.537 17.762C144.08 18.0047 143.552 18.126 142.955 18.126C142.283 18.126 141.667 17.958 141.107 17.622C140.556 17.2767 140.118 16.8007 139.791 16.194C139.474 15.578 139.315 14.8827 139.315 14.108ZM145.629 14.136C145.629 13.604 145.517 13.142 145.293 12.75C145.078 12.358 144.794 12.0593 144.439 11.854C144.084 11.6487 143.702 11.546 143.291 11.546C142.88 11.546 142.498 11.6487 142.143 11.854C141.788 12.05 141.499 12.344 141.275 12.736C141.06 13.1187 140.953 13.576 140.953 14.108C140.953 14.64 141.06 15.1067 141.275 15.508C141.499 15.9093 141.788 16.2173 142.143 16.432C142.507 16.6373 142.89 16.74 143.291 16.74C143.702 16.74 144.084 16.6373 144.439 16.432C144.794 16.2267 145.078 15.928 145.293 15.536C145.517 15.1347 145.629 14.668 145.629 14.136ZM156.605 13.954C156.605 14.2433 156.586 14.5047 156.549 14.738H150.655C150.702 15.354 150.93 15.8487 151.341 16.222C151.752 16.5953 152.256 16.782 152.853 16.782C153.712 16.782 154.318 16.4227 154.673 15.704H156.395C156.162 16.4133 155.737 16.9967 155.121 17.454C154.514 17.902 153.758 18.126 152.853 18.126C152.116 18.126 151.453 17.9627 150.865 17.636C150.286 17.3 149.829 16.8333 149.493 16.236C149.166 15.6293 149.003 14.9293 149.003 14.136C149.003 13.3427 149.162 12.6473 149.479 12.05C149.806 11.4433 150.258 10.9767 150.837 10.65C151.425 10.3233 152.097 10.16 152.853 10.16C153.581 10.16 154.23 10.3187 154.799 10.636C155.368 10.9533 155.812 11.4013 156.129 11.98C156.446 12.5493 156.605 13.2073 156.605 13.954ZM154.939 13.45C154.93 12.862 154.72 12.3907 154.309 12.036C153.898 11.6813 153.39 11.504 152.783 11.504C152.232 11.504 151.761 11.6813 151.369 12.036C150.977 12.3813 150.744 12.8527 150.669 13.45H154.939ZM162.268 10.16C162.874 10.16 163.416 10.286 163.892 10.538C164.377 10.79 164.755 11.1633 165.026 11.658C165.296 12.1527 165.432 12.75 165.432 13.45V18H163.85V13.688C163.85 12.9973 163.677 12.47 163.332 12.106C162.986 11.7327 162.515 11.546 161.918 11.546C161.32 11.546 160.844 11.7327 160.49 12.106C160.144 12.47 159.972 12.9973 159.972 13.688V18H158.376V10.286H159.972V11.168C160.233 10.8507 160.564 10.6033 160.966 10.426C161.376 10.2487 161.81 10.16 162.268 10.16ZM39.862 30.264C39.5727 30.264 39.33 30.166 39.134 29.97C38.938 29.774 38.84 29.5313 38.84 29.242C38.84 28.9527 38.938 28.71 39.134 28.514C39.33 28.318 39.5727 28.22 39.862 28.22C40.142 28.22 40.38 28.318 40.576 28.514C40.772 28.71 40.87 28.9527 40.87 29.242C40.87 29.5313 40.772 29.774 40.576 29.97C40.38 30.166 40.142 30.264 39.862 30.264ZM40.646 31.286V39H39.05V31.286H40.646ZM46.8334 31.16C47.4401 31.16 47.9814 31.286 48.4574 31.538C48.9427 31.79 49.3207 32.1633 49.5914 32.658C49.8621 33.1527 49.9974 33.75 49.9974 34.45V39H48.4154V34.688C48.4154 33.9973 48.2427 33.47 47.8974 33.106C47.5521 32.7327 47.0807 32.546 46.4834 32.546C45.8861 32.546 45.4101 32.7327 45.0554 33.106C44.7101 33.47 44.5374 33.9973 44.5374 34.688V39H42.9414V31.286H44.5374V32.168C44.7987 31.8507 45.1301 31.6033 45.5314 31.426C45.9421 31.2487 46.3761 31.16 46.8334 31.16ZM51.7012 35.108C51.7012 34.3333 51.8599 33.6473 52.1772 33.05C52.5039 32.4527 52.9425 31.9907 53.4932 31.664C54.0532 31.328 54.6739 31.16 55.3552 31.16C55.8592 31.16 56.3539 31.272 56.8392 31.496C57.3339 31.7107 57.7259 32 58.0152 32.364V28.64H59.6252V39H58.0152V37.838C57.7539 38.2113 57.3899 38.5193 56.9232 38.762C56.4659 39.0047 55.9385 39.126 55.3412 39.126C54.6692 39.126 54.0532 38.958 53.4932 38.622C52.9425 38.2767 52.5039 37.8007 52.1772 37.194C51.8599 36.578 51.7012 35.8827 51.7012 35.108ZM58.0152 35.136C58.0152 34.604 57.9032 34.142 57.6792 33.75C57.4645 33.358 57.1799 33.0593 56.8252 32.854C56.4705 32.6487 56.0879 32.546 55.6772 32.546C55.2665 32.546 54.8839 32.6487 54.5292 32.854C54.1745 33.05 53.8852 33.344 53.6612 33.736C53.4465 34.1187 53.3392 34.576 53.3392 35.108C53.3392 35.64 53.4465 36.1067 53.6612 36.508C53.8852 36.9093 54.1745 37.2173 54.5292 37.432C54.8932 37.6373 55.2759 37.74 55.6772 37.74C56.0879 37.74 56.4705 37.6373 56.8252 37.432C57.1799 37.2267 57.4645 36.928 57.6792 36.536C57.9032 36.1347 58.0152 35.668 58.0152 35.136ZM62.7335 30.264C62.4442 30.264 62.2015 30.166 62.0055 29.97C61.8095 29.774 61.7115 29.5313 61.7115 29.242C61.7115 28.9527 61.8095 28.71 62.0055 28.514C62.2015 28.318 62.4442 28.22 62.7335 28.22C63.0135 28.22 63.2515 28.318 63.4475 28.514C63.6435 28.71 63.7415 28.9527 63.7415 29.242C63.7415 29.5313 63.6435 29.774 63.4475 29.97C63.2515 30.166 63.0135 30.264 62.7335 30.264ZM63.5175 31.286V39H61.9215V31.286H63.5175ZM67.4089 32.406C67.6422 32.014 67.9502 31.7107 68.3329 31.496C68.7249 31.272 69.1869 31.16 69.7189 31.16V32.812H69.3129C68.6876 32.812 68.2116 32.9707 67.8849 33.288C67.5676 33.6053 67.4089 34.156 67.4089 34.94V39H65.8129V31.286H67.4089V32.406ZM72.1979 30.264C71.9086 30.264 71.6659 30.166 71.4699 29.97C71.2739 29.774 71.1759 29.5313 71.1759 29.242C71.1759 28.9527 71.2739 28.71 71.4699 28.514C71.6659 28.318 71.9086 28.22 72.1979 28.22C72.4779 28.22 72.7159 28.318 72.9119 28.514C73.1079 28.71 73.2059 28.9527 73.2059 29.242C73.2059 29.5313 73.1079 29.774 72.9119 29.97C72.7159 30.166 72.4779 30.264 72.1979 30.264ZM72.9819 31.286V39H71.3859V31.286H72.9819ZM79.1693 31.16C79.776 31.16 80.3173 31.286 80.7933 31.538C81.2787 31.79 81.6567 32.1633 81.9273 32.658C82.198 33.1527 82.3333 33.75 82.3333 34.45V39H80.7513V34.688C80.7513 33.9973 80.5787 33.47 80.2333 33.106C79.888 32.7327 79.4167 32.546 78.8193 32.546C78.222 32.546 77.746 32.7327 77.3913 33.106C77.046 33.47 76.8733 33.9973 76.8733 34.688V39H75.2773V31.286H76.8733V32.168C77.1347 31.8507 77.466 31.6033 77.8673 31.426C78.278 31.2487 78.712 31.16 79.1693 31.16Z" fill="currentColor"/>
</svg>
