<svg width="48" height="51" viewBox="0 0 48 51" fill="currentColor" xmlns="http://www.w3.org/2000/svg">
<path  fill-rule="evenodd" clip-rule="evenodd" d="M26.1664 0.0023424C30.7359 0.123435 33.6473 4.66264 37.3502 7.34275C41.0622 10.0294 46.6998 11.2553 47.8441 15.6924C48.9908 20.1388 43.4616 23.5806 42.7057 28.1099C41.7173 34.033 46.3579 40.8177 42.839 45.6837C39.3362 50.5275 32.1431 51.0837 26.1664 50.9809C20.2607 50.8794 13.59 49.7337 9.90527 45.1175C6.35697 40.6722 9.97246 33.9779 8.26388 28.5528C6.58284 23.2152 -1.34888 19.6764 0.199173 14.2987C1.73185 8.97437 9.68996 9.41049 14.5435 6.73836C18.5646 4.52453 21.5778 -0.119259 26.1664 0.0023424Z" fill="currentcolor"/>
</svg>
