<svg width="14" height="16" viewBox="0 0 14 16" fill="none" xmlns="http://www.w3.org/2000/svg">
<path d="M13.04 3.87848L9.3143 0.194132C9.26983 0.130721 9.20966 0.0796438 9.13954 0.0457799C9.06942 0.0119161 8.99169 -0.0036035 8.91378 0.000703683H1.27606C0.937627 0.000703683 0.613056 0.133652 0.373749 0.370303C0.134441 0.606953 0 0.92792 0 1.26259L0 14.7381C0 15.0728 0.134441 15.3938 0.373749 15.6304C0.613056 15.8671 0.937627 16 1.27606 16H11.8664C12.2048 16 12.5294 15.8671 12.7687 15.6304C13.008 15.3938 13.1425 15.0728 13.1425 14.7381V4.18244C13.1471 4.07214 13.1106 3.964 13.04 3.87848ZM9.1839 12.4538H3.96789C3.75791 12.4538 3.55654 12.3713 3.40806 12.2245C3.25959 12.0777 3.17617 11.8785 3.17617 11.6709C3.17617 11.4632 3.25959 11.2641 3.40806 11.1173C3.55654 10.9704 3.75791 10.888 3.96789 10.888H9.1839C9.39387 10.888 9.59525 10.9704 9.74372 11.1173C9.8922 11.2641 9.97561 11.4632 9.97561 11.6709C9.97561 11.8785 9.8922 12.0777 9.74372 12.2245C9.59525 12.3713 9.39387 12.4538 9.1839 12.4538ZM9.97561 8.53919C9.97561 8.74683 9.8922 8.94597 9.74372 9.0928C9.59525 9.23962 9.39387 9.32211 9.1839 9.32211H3.96789C3.75791 9.32211 3.55654 9.23962 3.40806 9.0928C3.25959 8.94597 3.17617 8.74683 3.17617 8.53919C3.17617 8.33154 3.25959 8.1324 3.40806 7.98558C3.55654 7.83875 3.75791 7.75626 3.96789 7.75626H9.1839C9.39387 7.75626 9.59525 7.83875 9.74372 7.98558C9.8922 8.1324 9.97561 8.33154 9.97561 8.53919ZM8.42944 4.60614V1.55734L11.5404 4.60614H8.42944Z" fill="currentColor"/>
</svg>
