<svg width="16" height="16" viewBox="0 0 16 16" fill="none" xmlns="http://www.w3.org/2000/svg">
<path d="M15.3341 7.2905H15.2409L12.8776 7.29615L12.7631 7.29776C12.4004 7.32643 12.114 7.63132 12.1149 8.00242C12.1149 8.39251 12.4307 8.70789 12.8203 8.7095H15.3514C15.7152 8.6776 16.0008 8.37191 16 7.9996C15.9992 7.62243 15.7059 7.31351 15.3341 7.2905ZM11.9095 5.09252L11.9112 5.09091L13.6101 3.39367L13.6996 3.30241C13.9344 3.02418 13.9187 2.60502 13.6565 2.34254C13.3899 2.07683 12.9635 2.06552 12.6836 2.31225L12.6186 2.37848L10.9516 4.05431L10.8717 4.13508C10.6357 4.4125 10.6482 4.82924 10.9108 5.09212C11.1863 5.36793 11.6336 5.36793 11.9095 5.09252ZM7.9998 0C7.62225 0 7.31288 0.294382 7.28948 0.665489L7.28989 0.759174L7.29674 3.1219V3.23618C7.327 3.60002 7.63153 3.88592 8.00181 3.88592C8.39227 3.88592 8.7085 3.56973 8.7085 3.18005V3.17682L8.70971 0.776538V0.648529C8.67744 0.284286 8.37129 0 7.9998 0ZM5.09038 4.08783L3.39385 2.39059L3.3027 2.29973C3.02357 2.06592 2.60529 2.08006 2.3427 2.34294C2.07568 2.60986 2.0656 3.0375 2.31165 3.31573L2.37739 3.38196L4.05334 5.0477L4.13442 5.12846C4.41274 5.3651 4.83021 5.35097 5.09199 5.0897C5.36829 4.81228 5.36829 4.36646 5.0928 4.09066L5.09038 4.08783ZM3.23574 8.70183C3.59957 8.67356 3.88555 8.36868 3.88555 7.99758C3.88474 7.60628 3.56932 7.29171 3.17967 7.2905H0.647794C0.284369 7.3224 -0.000805008 7.62809 1.70732e-06 7.99919C1.70732e-06 8.37757 0.293646 8.68568 0.665542 8.7091H0.758718L3.12199 8.70143H3.23574V8.70183ZM4.08965 10.9063L4.08763 10.9091L2.38949 12.6067L2.29954 12.6964C2.0656 12.9758 2.08012 13.3946 2.3427 13.6563C2.61013 13.9228 3.03567 13.9341 3.3156 13.6882L3.38135 13.6215L5.04802 11.9457L5.12829 11.8653C5.36426 11.5875 5.35135 11.1691 5.08917 10.9079C4.81206 10.6321 4.36595 10.6321 4.08965 10.9063ZM8.70204 12.7642C8.673 12.4008 8.36766 12.1145 7.99738 12.1145C7.60652 12.1145 7.29069 12.4307 7.29069 12.8204V12.8232L7.28948 15.2239L7.28989 15.3519C7.32216 15.7145 7.6275 16 7.9998 16C8.37734 16 8.68551 15.7052 8.70971 15.3345V15.2408L8.70204 12.8781V12.7642V12.7642ZM13.6218 12.6184L11.9454 10.9527L11.8652 10.8719C11.5873 10.6353 11.1694 10.6482 10.9072 10.9111C10.6313 11.1869 10.6309 11.6339 10.9068 11.9102L10.9092 11.913L12.6053 13.6106L12.6965 13.6995C12.9764 13.9349 13.3943 13.9203 13.6565 13.6579C13.9235 13.3897 13.9336 12.9637 13.6884 12.6847L13.6218 12.6184Z" fill="currentColor"/>
</svg>
