<svg width="16" height="14" viewBox="0 0 16 14" fill="none" xmlns="http://www.w3.org/2000/svg">
<path d="M0.571429 2.57143H15.4286C15.7442 2.57143 16 2.31561 16 2V0.571429C16 0.255821 15.7442 0 15.4286 0H0.571429C0.255821 0 0 0.255821 0 0.571429V2C0 2.31561 0.255821 2.57143 0.571429 2.57143ZM0.571429 8.28571H15.4286C15.7442 8.28571 16 8.02989 16 7.71429V6.28571C16 5.97011 15.7442 5.71429 15.4286 5.71429H0.571429C0.255821 5.71429 0 5.97011 0 6.28571V7.71429C0 8.02989 0.255821 8.28571 0.571429 8.28571ZM0.571429 14H15.4286C15.7442 14 16 13.7442 16 13.4286V12C16 11.6844 15.7442 11.4286 15.4286 11.4286H0.571429C0.255821 11.4286 0 11.6844 0 12V13.4286C0 13.7442 0.255821 14 0.571429 14Z" fill="currentColor"/>
</svg>
