<svg width="16" height="15" viewBox="0 0 16 15" fill="none" xmlns="http://www.w3.org/2000/svg">
<path d="M2.92187 7.06491H7.46782C7.79579 7.06108 8.06392 7.32537 8.06392 7.65359C8.06392 7.97989 7.79579 8.24419 7.46782 8.24084H2.92187C2.14621 8.23294 2.14621 7.07257 2.92187 7.06491ZM2.92187 3.67885H13.0789C13.4066 3.67502 13.675 3.93931 13.675 4.26705C13.675 4.59527 13.4066 4.85956 13.0789 4.85573H2.92187C2.59365 4.85956 2.32552 4.59527 2.32552 4.26705C2.32552 3.93931 2.59365 3.67502 2.92187 3.67885ZM1.90418 0C0.858006 0 0 0.857049 0 1.90298V14.3704C0 14.7908 0.525002 14.984 0.79672 14.6637L3.1809 11.8605H14.0973C15.1437 11.8605 16 11.0054 16 9.959V1.90322C16 0.857288 15.1437 0.000239496 14.0973 0.000239496H1.90418V0Z" fill="currentColor"/>
</svg>
