<svg width="15" height="16" viewBox="0 0 15 16" fill="none" xmlns="http://www.w3.org/2000/svg">
<path fill-rule="evenodd" clip-rule="evenodd" d="M13.9694 0.0842252C13.6991 -0.0509575 13.3778 -0.0215354 13.1369 0.159768L10.4332 2.18671L7.72955 0.158973C7.44726 -0.0525479 7.05841 -0.0525479 6.77532 0.158973L4.07166 2.18671L1.36801 0.158973C1.12627 -0.0215354 0.805015 -0.0509575 0.535444 0.0842252C0.265079 0.219408 0.0957031 0.494544 0.0957031 0.795127V7.95186C0.0957031 12.3445 6.61628 15.6811 6.8946 15.8195L7.25243 16L7.61027 15.8203C7.88859 15.6811 14.4092 12.3445 14.4092 7.95186V0.795127C14.4092 0.494544 14.239 0.219408 13.9694 0.0842252ZM9.63801 6.36147H6.85484C6.63616 6.36147 6.45724 6.54039 6.45724 6.75907C6.45724 6.97854 6.63616 7.15667 6.85484 7.15667H7.65003C8.7474 7.15667 9.63801 8.04887 9.63801 9.14465C9.63801 10.1052 8.95415 10.91 8.04763 11.0929V11.9278H6.45724V11.1326H4.86686V9.54224H7.65003C7.8695 9.54224 8.04763 9.36412 8.04763 9.14465C8.04763 8.92597 7.8695 8.74705 7.65003 8.74705H6.85484C5.75906 8.74705 4.86686 7.85484 4.86686 6.75907C4.86686 5.80007 5.55072 4.99613 6.45724 4.81085V3.9759H8.04763V4.77109H9.63801V6.36147Z" fill="currentColor"/>
</svg>
