<svg width="16" height="16" viewBox="0 0 16 16" fill="none" xmlns="http://www.w3.org/2000/svg">
<path fill-rule="evenodd" clip-rule="evenodd" d="M10.3529 16H15.0588C15.5786 16 16 15.5786 16 15.0588V11.2941C16 10.7743 15.5786 10.3529 15.0588 10.3529H11.2941C10.7743 10.3529 10.3529 10.7743 10.3529 11.2941V12.2353C8.59868 12.2583 6.90954 11.5716 5.66899 10.331C4.42843 9.09046 3.7417 7.40132 3.76471 5.64706H4.70588C5.22568 5.64706 5.64706 5.22568 5.64706 4.70588V0.941176C5.64706 0.421379 5.22568 0 4.70588 0H0.941176C0.421379 0 0 0.421379 0 0.941176V5.64706C0 11.3648 4.63517 16 10.3529 16Z" fill="currentColor"/>
</svg>
