<svg width="16" height="16" viewBox="0 0 16 16" fill="none" xmlns="http://www.w3.org/2000/svg">
<path d="M7.99999 0C7.34541 0 6.81481 0.530636 6.81481 1.18518V6.81481H1.18518C0.530636 6.81481 0 7.34541 0 7.99999C0 8.65457 0.530636 9.18518 1.18518 9.18518H6.81481V14.8148C6.81481 15.4694 7.34541 16 7.99999 16C8.65457 16 9.18517 15.4694 9.18517 14.8148V9.18518H14.8148C15.4693 9.18518 16 8.65457 16 7.99999C16 7.34541 15.4693 6.81481 14.8148 6.81481H9.18517V1.18518C9.18517 0.530636 8.65457 0 7.99999 0Z" fill="currentColor"/>
</svg>
