<svg width="16" height="16" viewBox="0 0 16 16" fill="none" xmlns="http://www.w3.org/2000/svg">
<path d="M8 0C6.41775 0 4.87103 0.469192 3.55544 1.34824C2.23985 2.22729 1.21447 3.47672 0.608967 4.93853C0.00346629 6.40034 -0.15496 8.00887 0.153721 9.56072C0.462403 11.1126 1.22433 12.538 2.34315 13.6569C3.46197 14.7757 4.88743 15.5376 6.43928 15.8463C7.99113 16.155 9.59966 15.9965 11.0615 15.391C12.5233 14.7855 13.7727 13.7602 14.6518 12.4446C15.5308 11.129 16 9.58225 16 8C16 6.94942 15.7931 5.90914 15.391 4.93853C14.989 3.96793 14.3997 3.08601 13.6569 2.34315C12.914 1.60028 12.0321 1.011 11.0615 0.608964C10.0909 0.206926 9.05058 0 8 0V0ZM8 2.4C8.47468 2.4 8.93869 2.54076 9.33337 2.80447C9.72805 3.06819 10.0357 3.44302 10.2173 3.88156C10.399 4.3201 10.4465 4.80266 10.3539 5.26822C10.2613 5.73377 10.0327 6.16141 9.69706 6.49705C9.36141 6.8327 8.93377 7.06128 8.46822 7.15388C8.00266 7.24649 7.5201 7.19896 7.08156 7.01731C6.64302 6.83566 6.26819 6.52805 6.00447 6.13337C5.74076 5.73869 5.6 5.27467 5.6 4.8C5.6 4.16348 5.85286 3.55303 6.30295 3.10294C6.75303 2.65286 7.36348 2.4 8 2.4V2.4ZM12.5333 11.7333C12.4569 11.8258 12.3778 11.9147 12.296 12C11.7471 12.5883 11.083 13.0573 10.3451 13.378C9.60724 13.6987 8.81125 13.8642 8.00667 13.8642C7.20208 13.8642 6.4061 13.6987 5.6682 13.378C4.9303 13.0573 4.26625 12.5883 3.71734 12C3.63556 11.9111 3.55645 11.8222 3.48 11.7333C3.3742 11.6072 3.30507 11.4545 3.28015 11.2918C3.25522 11.1291 3.27547 10.9627 3.33867 10.8107C3.832 9.656 5.73067 8.8 8 8.8C10.2693 8.8 12.168 9.656 12.6693 10.808C12.7338 10.9599 12.7552 11.1265 12.7312 11.2898C12.7072 11.453 12.6388 11.6064 12.5333 11.7333V11.7333Z" fill="currentColor"/>
</svg>
