<svg width="16" height="16" viewBox="0 0 16 16" fill="none" xmlns="http://www.w3.org/2000/svg">
<path d="M15.3467 9.20737C15.6541 8.86789 16 8.48359 16 8C16 7.51641 15.6541 7.13211 15.3467 6.79263C15.1481 6.57166 14.9432 6.34428 14.8919 6.15212C14.8343 5.94716 14.9015 5.63651 14.9656 5.33867C15.0616 4.8775 15.1641 4.40032 14.9303 3.9968C14.6934 3.59007 14.2066 3.43315 13.7742 3.29223C13.486 3.19936 13.1914 3.10328 13.044 2.95596C12.8967 2.80865 12.8006 2.51401 12.7078 2.22578C12.5669 1.79343 12.4099 1.30665 12.0032 1.06966C11.5997 0.835869 11.1225 0.938351 10.6613 1.03443C10.3635 1.09848 10.0528 1.16573 9.84788 1.10809C9.65572 1.05685 9.42834 0.851882 9.20737 0.653323C8.86789 0.345877 8.48359 0 8 0C7.51641 0 7.13211 0.345877 6.79263 0.653323C6.57166 0.851882 6.34428 1.05685 6.15212 1.10809C5.94716 1.16253 5.63651 1.09848 5.33867 1.03443C4.8775 0.938351 4.40032 0.835869 3.9968 1.06966C3.59007 1.30665 3.43315 1.79343 3.29223 2.22578C3.19936 2.51401 3.10328 2.80865 2.95596 2.95596C2.80865 3.10328 2.51401 3.19936 2.22578 3.29223C1.79343 3.43315 1.30665 3.59007 1.06966 3.9968C0.835869 4.40032 0.938351 4.8775 1.03443 5.33867C1.09848 5.63651 1.16573 5.94716 1.10809 6.15212C1.05685 6.34428 0.851882 6.57166 0.653323 6.79263C0.345877 7.13211 0 7.51641 0 8C0 8.48359 0.345877 8.86789 0.653323 9.20737C0.851882 9.42834 1.05685 9.65572 1.10809 9.84788C1.16573 10.0528 1.09848 10.3635 1.03443 10.6613C0.938351 11.1225 0.835869 11.5997 1.06966 12.0032C1.30665 12.4099 1.79343 12.5669 2.22578 12.7078C2.51401 12.8006 2.80865 12.8967 2.95596 13.044C3.10328 13.1914 3.19936 13.486 3.29223 13.7742C3.43315 14.2066 3.59007 14.6934 3.9968 14.9303C4.40032 15.1641 4.8775 15.0616 5.33867 14.9656C5.63651 14.9015 5.94716 14.8343 6.15212 14.8919C6.34428 14.9432 6.57166 15.1481 6.79263 15.3467C7.13211 15.6541 7.51641 16 8 16C8.48359 16 8.86789 15.6541 9.20737 15.3467C9.42834 15.1481 9.65572 14.9432 9.84788 14.8919C10.0528 14.8343 10.3635 14.9015 10.6613 14.9656C11.1225 15.0616 11.5997 15.1641 12.0032 14.9303C12.4099 14.6934 12.5669 14.2066 12.7078 13.7742C12.8006 13.486 12.8967 13.1914 13.044 13.044C13.1914 12.8967 13.486 12.8006 13.7742 12.7078C14.2066 12.5669 14.6934 12.4099 14.9303 12.0032C15.1641 11.5997 15.0616 11.1225 14.9656 10.6613C14.9015 10.3635 14.8343 10.0528 14.8919 9.84788C14.9432 9.65572 15.1481 9.42834 15.3467 9.20737ZM8 12.8038C5.35148 12.8038 3.19616 10.6485 3.19616 8C3.19616 5.35148 5.35148 3.19616 8 3.19616C10.6485 3.19616 12.8038 5.35148 12.8038 8C12.8038 10.6485 10.6485 12.8038 8 12.8038Z" fill="#666666"/>
<path d="M11.0454 8.23894L9.82839 9.12285C9.81558 9.13245 9.80917 9.14847 9.81558 9.16448L10.2799 10.596C10.3728 10.8811 10.2767 11.1789 10.0333 11.3518C9.91486 11.4415 9.77394 11.4831 9.63623 11.4831C9.49852 11.4831 9.36081 11.4415 9.23911 11.3518L8.02214 10.4679C8.00933 10.4583 7.99012 10.4583 7.97731 10.4679L6.76033 11.3518C6.51694 11.528 6.20629 11.528 5.9661 11.3518C5.7227 11.1789 5.62662 10.8811 5.7195 10.596L6.18387 9.16448C6.19028 9.14847 6.18387 9.13245 6.17106 9.12285L4.95409 8.23894C4.71069 8.0628 4.61462 7.76496 4.70749 7.48313C4.80036 7.19811 5.05337 7.01556 5.3512 7.01556H6.85641C6.87242 7.01556 6.88523 7.00595 6.89164 6.98994L7.35601 5.55839C7.44888 5.27337 7.70189 5.09082 7.99972 5.09082C8.29756 5.09082 8.55056 5.27337 8.64344 5.55839L9.10781 6.98994C9.11421 7.00595 9.12703 7.01556 9.14304 7.01556H10.6482C10.9461 7.01556 11.1991 7.19811 11.292 7.48313C11.3848 7.76496 11.2888 8.0628 11.0454 8.23894Z" fill="currentColor"/>
</svg>
