<svg width="16" height="16" viewBox="0 0 16 16" fill="none" xmlns="http://www.w3.org/2000/svg">
<path d="M5.40238 2.59459L6.39755 3.2706L6.01746 4.36496C5.92998 4.61682 6.02123 4.8799 6.25039 5.03583C6.47954 5.19176 6.77559 5.19176 7.00474 5.03583L8.00025 4.35983L8.99542 5.03615C9.11 5.11411 9.24138 5.15294 9.37277 5.15294C9.50416 5.15294 9.63554 5.11411 9.75012 5.03615C9.97927 4.88055 10.0705 4.61714 9.98305 4.36528L9.60295 3.27092L10.5981 2.59492C10.8273 2.43931 10.9189 2.17591 10.831 1.92405C10.7436 1.67219 10.5041 1.50953 10.2208 1.50953H8.99062L8.61053 0.415161C8.52271 0.162984 8.28361 0 8.00025 0C7.7169 0 7.47745 0.162664 7.38998 0.414519L7.00989 1.50889H5.77973C5.49638 1.50889 5.25693 1.67155 5.16945 1.92341C5.08198 2.17558 5.17323 2.43899 5.40238 2.59459ZM7.04213 2.15088C7.32103 2.15088 7.5663 1.98405 7.65241 1.73636L8.00025 0.734713L8.3481 1.73572C8.43386 1.98372 8.67914 2.15056 8.95837 2.15056H10.0842L9.17312 2.76945C8.94774 2.92281 8.85409 3.19263 8.94019 3.44032L9.28804 4.44164L8.3776 3.82275C8.15188 3.66939 7.84897 3.66939 7.62325 3.82275L6.71247 4.44164L7.06031 3.44032C7.14676 3.19263 7.05311 2.92281 6.82739 2.76913L5.9166 2.15024H7.04213V2.15088Z" fill="currentColor"/>
<path d="M3.69262 6.44112C3.81646 6.44112 3.93995 6.40518 4.04561 6.33364C4.25658 6.19023 4.34406 5.93805 4.26344 5.70609L3.94716 4.79523L4.77561 4.23249C4.98658 4.08908 5.07405 3.83722 4.99344 3.60526C4.91282 3.37329 4.68367 3.21737 4.42261 3.21737H3.39863L3.08234 2.30684C3.00173 2.07487 2.77257 1.91895 2.51152 1.91895C2.25046 1.91895 2.02131 2.07487 1.94069 2.30651L1.62441 3.21737H0.60042C0.339707 3.21737 0.110211 3.37329 0.0295956 3.60526C-0.0510197 3.83722 0.0367993 4.08908 0.247428 4.23249L1.07588 4.79523L0.759593 5.70576C0.678977 5.93773 0.766454 6.1899 0.977426 6.33332C1.18805 6.47641 1.47141 6.47673 1.68307 6.33332L2.51152 5.77057L3.33997 6.33364C3.44563 6.40518 3.56912 6.44112 3.69262 6.44112ZM2.15887 5.21713L1.49405 5.66887L1.7479 4.93833C1.82886 4.70636 1.74104 4.45419 1.53007 4.31045L0.86525 3.85872H1.68684C1.94755 3.85872 2.17705 3.70279 2.25767 3.47115L2.51152 2.74028L2.76537 3.47083C2.84564 3.70279 3.07514 3.85872 3.33619 3.85872H4.15778L3.49297 4.31045C3.28199 4.45386 3.19417 4.70604 3.27513 4.93801L3.52899 5.66887L2.86417 5.21713C2.65319 5.07404 2.36984 5.07404 2.15887 5.21713Z" fill="currentColor"/>
<path d="M15.9705 3.60526C15.8899 3.37329 15.6607 3.21737 15.3997 3.21737H14.3757L14.0594 2.30684C13.9788 2.07487 13.7496 1.91895 13.4886 1.91895C13.2275 1.91895 12.9984 2.07487 12.9177 2.30684L12.6015 3.21737H11.5775C11.3168 3.21737 11.0873 3.37329 11.0066 3.60526C10.926 3.83722 11.0138 4.08908 11.2245 4.23249L12.0529 4.79523L11.7366 5.70576C11.656 5.93773 11.7435 6.1899 11.9545 6.33332C12.1651 6.47641 12.4485 6.47673 12.6601 6.33332L13.4889 5.77057L14.3174 6.33364C14.423 6.40518 14.5465 6.44112 14.67 6.44112C14.7939 6.44112 14.9173 6.40518 15.023 6.33364C15.234 6.19023 15.3215 5.93805 15.2408 5.70609L14.9246 4.79523L15.753 4.23249C15.9636 4.08908 16.0511 3.8369 15.9705 3.60526ZM14.4704 4.31045C14.2594 4.45386 14.1716 4.70604 14.2525 4.93801L14.5064 5.66887L13.8416 5.21713C13.6306 5.07404 13.3472 5.07404 13.1359 5.21713L12.4711 5.66887L12.725 4.93833C12.8059 4.70636 12.7181 4.45419 12.5071 4.31045L11.8423 3.85872H12.6639C12.9246 3.85872 13.1541 3.70279 13.2347 3.47115L13.4889 2.74028L13.7428 3.47083C13.823 3.70279 14.0525 3.85872 14.3136 3.85872H15.1352L14.4704 4.31045Z" fill="currentColor"/>
<path d="M10.141 6.73404C9.27648 6.73404 8.49434 7.37347 8.00173 7.8236C7.50912 7.37347 6.72663 6.7334 5.85873 6.7334C4.98431 6.7334 4.1617 7.05231 3.54284 7.63174C2.92365 8.21052 2.58301 8.98021 2.58301 9.79802C2.58301 10.6158 2.92399 11.3852 3.54284 11.964L7.75748 15.9061C7.82197 15.9664 7.90911 16.0001 8.00001 16.0001C8.09092 16.0001 8.1784 15.9664 8.24255 15.9061L12.4572 11.9643C13.0736 11.3881 13.4146 10.6181 13.4174 9.79385C13.4146 8.97604 13.0736 8.20828 12.4572 7.63206C11.8383 7.05263 11.0161 6.73404 10.141 6.73404ZM11.9721 11.5103L8.00036 15.2256L4.02791 11.5103C3.53838 11.0528 3.2691 10.4445 3.2691 9.79802C3.2691 9.15121 3.53873 8.54291 4.02825 8.0854C4.51743 7.62725 5.16784 7.37507 5.85873 7.37507C6.55374 7.37507 7.29403 8.06775 7.69196 8.43992L7.75954 8.50281C7.89333 8.62793 8.10979 8.62793 8.24357 8.50313L8.31012 8.44153C8.70806 8.06904 9.44903 7.37571 10.141 7.37571C10.8325 7.37571 11.4829 7.62789 11.9721 8.08572C12.4596 8.5413 12.7292 9.14865 12.7313 9.79385C12.7292 10.4451 12.4596 11.0547 11.9721 11.5103Z" fill="currentColor"/>
<path d="M5.85891 8.15771C5.38482 8.15771 4.95636 8.32391 4.61984 8.63865C4.28365 8.95274 4.10596 9.35379 4.10596 9.79847C4.10596 9.97557 4.25964 10.1193 4.449 10.1193C4.63836 10.1193 4.79204 9.97557 4.79204 9.79847C4.79204 9.52415 4.89736 9.28673 5.1049 9.09263C5.31004 8.90077 5.57075 8.79939 5.85891 8.79939C6.04827 8.79939 6.20195 8.65565 6.20195 8.47855C6.20195 8.30145 6.04827 8.15771 5.85891 8.15771Z" fill="currentColor"/>
</svg>
