<svg width="16" height="16" viewBox="0 0 16 16" fill="none" xmlns="http://www.w3.org/2000/svg">
<path d="M8 0L6.95931 0.715116L5.72093 0.453488L5.02908 1.51163L3.7907 1.74419L3.55814 2.98837L2.5 3.68023L2.75581 4.91278L2.04651 5.95349L2.75581 7L2.5 8.23256L3.55814 8.92441L3.7907 10.1686L5.02908 10.4012L5.72093 11.4593L6.95931 11.1977L8 11.907L9.04069 11.1977L10.2791 11.4593L10.9709 10.4012L12.2093 10.1686L12.4419 8.92441L13.5 8.23256L13.2442 7L13.9535 5.95349L13.2442 4.91278L13.5 3.68023L12.4419 2.98837L12.2093 1.74419L10.9709 1.51163L10.2791 0.453488L9.04069 0.715116L8 0ZM8 1.68023C10.3611 1.68023 12.2791 3.59824 12.2791 5.95929C12.2791 8.32036 10.3611 10.2384 8 10.2384C5.63894 10.2384 3.72093 8.32036 3.72093 5.95929C3.72093 3.59824 5.63894 1.68023 8 1.68023ZM8 2.05233C5.84004 2.05233 4.09302 3.79933 4.09302 5.95929C4.09302 8.11928 5.84004 9.86627 8 9.86627C10.16 9.86627 11.907 8.11928 11.907 5.95929C11.907 3.79933 10.16 2.05233 8 2.05233ZM10.2093 3.87791L11.0233 4.63953L10.6395 5.04651L7.84884 8.02326L7.47674 8.4186L7.06977 8.05814L5.39535 6.56977L4.97674 6.20348L5.72093 5.36627L6.13953 5.73836L7.40698 6.86627L9.82558 4.28487L10.2093 3.87791ZM3.12791 9.0872L0 13.9535L2.7907 13.3953L3.53488 16L6.0814 11.7558L5.79652 11.814C5.65127 11.8458 5.48951 11.7806 5.40698 11.657L4.80233 10.7326L3.72093 10.5233C3.57513 10.4956 3.452 10.3726 3.42443 10.2267L3.21513 9.14534L3.12791 9.0872ZM12.8721 9.0872L12.7849 9.14534L12.5756 10.2267C12.5479 10.3726 12.4249 10.4956 12.2791 10.5233L11.1977 10.7326L10.593 11.657C10.5105 11.7806 10.3487 11.8458 10.2035 11.814L9.9186 11.7558L12.4651 16L13.2093 13.3953L16 13.9535L12.8721 9.0872Z" fill="currentColor"/>
</svg>
