<svg width="16" height="16" viewBox="0 0 16 16" fill="none" xmlns="http://www.w3.org/2000/svg">
<path d="M15.5881 4.23877L8.39946 0.110614C8.27804 0.0381494 8.1403 0 8.00009 0C7.85988 0 7.72214 0.0381494 7.60072 0.110614L0.412052 4.23877C0.287208 4.31017 0.183145 4.41483 0.110682 4.54187C0.0382183 4.66892 0 4.81371 0 4.96119C0 5.10867 0.0382183 5.25347 0.110682 5.38051C0.183145 5.50756 0.287208 5.61222 0.412052 5.68362L7.60072 9.81177C7.72214 9.88424 7.85988 9.92239 8.00009 9.92239C8.1403 9.92239 8.27804 9.88424 8.39946 9.81177L15.5881 5.68362C15.713 5.61222 15.817 5.50756 15.8895 5.38051C15.962 5.25347 16.0002 5.10867 16.0002 4.96119C16.0002 4.81371 15.962 4.66892 15.8895 4.54187C15.817 4.41483 15.713 4.31017 15.5881 4.23877V4.23877Z" fill="currentColor"/>
<path d="M14.8052 10.3157L8.00796 14.2209L1.21068 10.3157C1.02532 10.2062 0.805474 10.1773 0.599508 10.2354C0.393543 10.2934 0.218328 10.4337 0.112408 10.6253C0.0064886 10.8169 -0.0214592 11.0441 0.0347132 11.257C0.0908856 11.4699 0.226577 11.6511 0.411936 11.7605L7.60061 15.8887C7.72203 15.9612 7.85977 15.9993 7.99998 15.9993C8.14018 15.9993 8.27792 15.9612 8.39935 15.8887L15.588 11.7605C15.7734 11.6511 15.9091 11.4699 15.9652 11.257C16.0214 11.0441 15.9935 10.8169 15.8875 10.6253C15.7816 10.4337 15.6064 10.2934 15.4004 10.2354C15.1945 10.1773 14.9746 10.2062 14.7893 10.3157H14.8052Z" fill="currentColor"/>
<path d="M14.8052 7.2776L8.00796 11.1828L1.21068 7.2776C1.02532 7.16811 0.805474 7.13923 0.599508 7.19729C0.393543 7.25535 0.218328 7.39561 0.112408 7.58721C0.0064886 7.77881 -0.0214592 8.00606 0.0347132 8.21896C0.0908856 8.43185 0.226577 8.61297 0.411936 8.72245L7.60061 12.8506C7.72203 12.9231 7.85977 12.9612 7.99998 12.9612C8.14018 12.9612 8.27792 12.9231 8.39935 12.8506L15.588 8.72245C15.7734 8.61297 15.9091 8.43185 15.9652 8.21896C16.0214 8.00606 15.9935 7.77881 15.8875 7.58721C15.7816 7.39561 15.6064 7.25535 15.4004 7.19729C15.1945 7.13923 14.9746 7.16811 14.7893 7.2776H14.8052Z" fill="currentColor"/>
</svg>
