<svg width="16" height="16" viewBox="0 0 16 16" fill="none" xmlns="http://www.w3.org/2000/svg">
<path d="M15.9416 10.0418C15.8844 9.83593 15.7845 9.64283 15.6477 9.47379C15.5109 9.30475 15.3399 9.16315 15.1446 9.05723C14.9508 8.95067 14.7899 8.79798 14.6778 8.61434C14.5657 8.4307 14.5064 8.22251 14.5058 8.01046V7.98892C14.5064 7.77689 14.5658 7.56871 14.678 7.38515C14.7902 7.20159 14.9513 7.04906 15.1453 6.94277C15.5374 6.72797 15.8235 6.37485 15.9408 5.96083C16.0581 5.54681 15.9971 5.10568 15.7711 4.73415L14.8779 3.26831C14.651 2.89706 14.2775 2.62623 13.8396 2.51534C13.4016 2.40445 12.9351 2.46257 12.5424 2.67692L12.4825 2.70769C12.3056 2.80533 12.1045 2.85678 11.8996 2.85678C11.6948 2.85678 11.4937 2.80533 11.3167 2.70769L11.1866 2.63569C11.0088 2.54009 10.861 2.4015 10.7583 2.23413C10.6557 2.06675 10.6019 1.87658 10.6024 1.68308V1.61662C10.6017 1.18806 10.4215 0.777248 10.1011 0.474215C9.78075 0.171182 9.34646 0.00065105 8.89341 0H7.10697C6.65392 0.00065105 6.21963 0.171182 5.89927 0.474215C5.57892 0.777248 5.39864 1.18806 5.39795 1.61662V1.68308C5.39928 1.87692 5.34605 2.0676 5.24372 2.23555C5.1414 2.4035 4.99367 2.54267 4.8157 2.63877L4.68234 2.70769C4.50546 2.80545 4.30429 2.85698 4.09944 2.85698C3.89458 2.85698 3.69341 2.80545 3.51653 2.70769L3.45538 2.67385C3.06262 2.46007 2.59628 2.40234 2.15859 2.51331C1.7209 2.62429 1.3476 2.89491 1.12052 3.26585L0.229257 4.73169C0.00326074 5.10321 -0.0577693 5.54435 0.0595488 5.95837C0.176867 6.37239 0.462959 6.72551 0.855096 6.94031C1.05 7.04909 1.21154 7.20409 1.32376 7.38998C1.43598 7.57587 1.49501 7.78624 1.49501 8.00031C1.49501 8.21438 1.43598 8.42474 1.32376 8.61064C1.21154 8.79653 1.05 8.95152 0.855096 9.06031C0.660605 9.16637 0.490122 9.30766 0.353394 9.47609C0.216665 9.64453 0.116372 9.8368 0.0582493 10.0419C0.000126176 10.247 -0.0146874 10.461 0.0146554 10.6715C0.0439981 10.8821 0.116922 11.0851 0.229257 11.2689L1.088 12.6769C1.32443 13.0628 1.71297 13.3443 2.16845 13.4597C2.62394 13.575 3.10919 13.5148 3.51784 13.2923C3.69539 13.1938 3.8975 13.1419 4.10334 13.1419C4.30918 13.1419 4.51129 13.1938 4.68884 13.2923L4.81895 13.3606C4.99647 13.4573 5.14363 13.5968 5.24537 13.7649C5.34711 13.9331 5.39977 14.1238 5.39795 14.3175C5.39864 14.7637 5.58634 15.1913 5.91989 15.5067C6.25344 15.8221 6.70561 15.9995 7.17723 16H8.82315C9.29477 15.9995 9.74694 15.8221 10.0805 15.5067C10.414 15.1913 10.6017 14.7637 10.6024 14.3175C10.6011 14.1236 10.6543 13.9328 10.7566 13.7648C10.8589 13.5967 11.0067 13.4574 11.1847 13.3612L11.3148 13.2898C11.4918 13.1921 11.6931 13.1406 11.898 13.1406C12.103 13.1406 12.3042 13.1921 12.4812 13.2898C12.8898 13.5124 13.3749 13.5725 13.8303 13.4572C14.2857 13.3418 14.6741 13.0603 14.9104 12.6745L15.7685 11.2689C15.8818 11.0854 15.9554 10.8824 15.9851 10.6718C16.0148 10.4612 16 10.247 15.9416 10.0418ZM8.00019 11.0769C7.35685 11.0769 6.72795 10.8965 6.19303 10.5584C5.65811 10.2203 5.24119 9.73972 4.995 9.17749C4.7488 8.61525 4.68438 7.99659 4.80989 7.39972C4.9354 6.80286 5.2452 6.2546 5.70011 5.82429C6.15503 5.39397 6.73462 5.10092 7.3656 4.9822C7.99658 4.86347 8.65061 4.92441 9.24498 5.15729C9.83935 5.39018 10.3474 5.78456 10.7048 6.29055C11.0622 6.79655 11.253 7.39144 11.253 8C11.252 8.81575 10.9089 9.59781 10.2991 10.1746C9.68933 10.7515 8.86257 11.0759 8.00019 11.0769Z" fill="currentColor"/>
</svg>
