<svg width="513" height="491" viewBox="0 0 513 491" fill="currentColor" xmlns="http://www.w3.org/2000/svg">
<path d="M511.231 185.788C509.437 180.167 506.038 175.19 501.458 171.469C496.878 167.748 491.312 165.441 485.441 164.836L343.219 149.382L284.624 18.9162C281.399 11.6992 275.502 6.01487 268.171 3.0599C260.844 0.101128 252.649 0.101128 245.322 3.0599C237.991 6.01444 232.095 11.6991 228.869 18.9162L170.274 149.382L28.0516 164.836C20.1998 165.699 12.9831 169.568 7.91188 175.629C2.84096 181.691 0.309781 189.475 0.847354 197.361C1.38492 205.243 4.94899 212.616 10.7945 217.932L116.703 313.979L87.5014 453.926C85.9098 461.655 87.3617 469.702 91.5564 476.386C95.7512 483.069 102.363 487.877 110.016 489.808C117.668 491.734 125.774 490.634 132.631 486.731L256.747 415.62L380.862 486.731C387.719 490.634 395.826 491.734 403.478 489.808C411.131 487.878 417.743 483.07 421.937 476.386C426.132 469.702 427.584 461.655 425.992 453.926L396.79 313.979L502.699 217.932C507.093 213.987 510.246 208.844 511.762 203.134C513.277 197.424 513.091 191.397 511.233 185.788L511.231 185.788Z" fill="currentColor"/>
</svg>
