<svg width="16" height="16" viewBox="0 0 16 16" fill="currentColor" xmlns="http://www.w3.org/2000/svg">
<path d="M3.48054 16C3.38032 15.9997 3.28138 15.9765 3.19058 15.9321C3.09979 15.8877 3.01932 15.8231 2.95479 15.7428C2.89027 15.6626 2.84322 15.5685 2.81693 15.4673C2.79064 15.3661 2.78573 15.2601 2.80255 15.1567L3.60438 10.2631L0.207932 6.79737C0.115931 6.70349 0.0508556 6.58455 0.0200652 6.45398C-0.0107251 6.32342 -0.00600192 6.18644 0.0337002 6.05853C0.0734024 5.93063 0.1465 5.8169 0.244727 5.73022C0.342954 5.64353 0.462391 5.58735 0.589533 5.56801L5.28317 4.85403L7.38252 0.401737C7.43938 0.281146 7.52735 0.179613 7.63646 0.108618C7.74557 0.0376241 7.87149 0 7.99996 0C8.12844 0 8.25435 0.0376241 8.36346 0.108618C8.47258 0.179613 8.56054 0.281146 8.61741 0.401737L10.7168 4.85403L15.4107 5.56801C15.5378 5.58739 15.6572 5.64361 15.7554 5.73031C15.8536 5.81702 15.9267 5.93076 15.9663 6.05866C16.006 6.18656 16.0107 6.32353 15.9799 6.45409C15.9491 6.58464 15.884 6.70356 15.792 6.79741L12.3955 10.263L13.1974 15.1567C13.2191 15.2892 13.205 15.4255 13.1566 15.5501C13.1082 15.6747 13.0274 15.7826 12.9235 15.8616C12.8195 15.9407 12.6965 15.9877 12.5684 15.9974C12.4402 16.0071 12.312 15.9791 12.1983 15.9165L7.99996 13.606L3.8016 15.9165C3.70266 15.9712 3.59246 15.9999 3.48054 16Z" fill="currentColor"/>
</svg>
