<svg width="226" height="183" viewBox="0 0 226 183" fill="none" xmlns="http://www.w3.org/2000/svg">
<path d="M120.048 125.607C118.975 124.632 118.065 123.51 117.349 122.242C116.975 121.575 116.667 120.892 116.423 120.177C116.309 119.852 116.195 119.51 116.114 119.169C116.032 118.86 116.016 118.551 116.081 118.242C116.309 117.722 116.634 117.608 117.073 117.901C117.252 118.096 117.61 117.836 117.463 117.608C116.276 115.933 115.398 114.08 114.894 112.08C114.78 111.625 114.683 111.169 114.602 110.698C114.537 110.259 114.553 109.739 114.439 109.3C114.195 108.422 113.545 107.528 113.155 106.698C111.301 102.845 109.74 98.634 110.391 94.2929C110.244 94.3092 110.098 94.3254 109.952 94.3579C113.155 98.5527 115.658 103.219 117.366 108.21C117.463 108.503 117.918 108.389 117.837 108.08C117.658 107.365 117.577 106.682 117.61 105.95C117.512 106.032 117.398 106.113 117.301 106.178C117.805 106.259 118.097 106.552 118.179 107.056C118.227 107.332 118.65 107.251 118.65 106.991C118.666 106.129 118.699 105.251 118.715 104.39C118.569 104.438 118.406 104.471 118.26 104.52C120.926 108.617 123.024 113.039 124.503 117.689C124.585 117.933 124.893 117.917 124.975 117.689C125.105 117.315 125.235 116.925 125.381 116.551C125.267 116.6 125.137 116.649 125.024 116.697C126.584 117.819 127.43 119.624 127.332 121.526C127.316 121.835 127.804 121.835 127.82 121.526C127.918 119.429 126.958 117.494 125.267 116.275C125.137 116.177 124.958 116.291 124.91 116.421C124.78 116.795 124.65 117.185 124.503 117.559C124.666 117.559 124.812 117.559 124.975 117.559C123.495 112.86 121.382 108.389 118.683 104.276C118.553 104.081 118.227 104.146 118.227 104.406C118.211 105.268 118.179 106.146 118.162 107.007C118.325 106.991 118.487 106.958 118.634 106.942C118.52 106.292 118.065 105.82 117.414 105.723C117.252 105.69 117.105 105.788 117.105 105.95C117.073 106.731 117.154 107.462 117.349 108.21C117.512 108.162 117.658 108.129 117.821 108.08C116.097 103.056 113.577 98.3413 110.358 94.1141C110.244 93.9677 109.952 93.9352 109.919 94.1791C109.285 98.4064 110.651 102.487 112.407 106.276C112.862 107.267 113.464 108.227 113.854 109.218C114.211 110.113 114.179 111.251 114.423 112.194C114.943 114.226 115.837 116.128 117.04 117.836C117.171 117.738 117.301 117.64 117.431 117.543C117.008 117.071 116.293 117.153 115.886 117.608C115.236 118.323 115.691 119.51 115.951 120.291C116.715 122.453 118.016 124.388 119.707 125.932C119.935 126.16 120.276 125.819 120.048 125.607Z" fill="#E8E8E8"/>
<path d="M73.3692 119.399C72.5725 118.797 71.8572 118.098 71.2718 117.285C71.0442 116.976 70.8328 116.635 70.6377 116.309C70.5402 116.114 70.4264 115.935 70.3451 115.74C70.2638 115.578 69.5647 113.692 70.5239 114.114C70.7353 114.212 70.9792 114.017 70.8654 113.773C70.654 113.383 68.8493 110.586 69.7923 110.359C69.9549 110.326 70.0037 110.131 69.9386 110.001C68.4428 107.286 67.386 104.375 66.7519 101.335C66.7031 101.433 66.6381 101.53 66.5893 101.628C67.8738 101.4 68.5078 103.416 68.9306 104.31C69.4509 105.416 69.9711 106.522 70.5077 107.611C71.5808 109.871 72.6376 112.115 73.7106 114.375C73.8407 114.635 74.2147 114.44 74.1496 114.179C74.0358 113.659 74.0521 113.204 74.1984 112.684C74.0683 112.716 73.922 112.749 73.7919 112.798C74.6211 113.464 75.2877 114.228 75.8405 115.155C75.9544 115.35 76.2145 115.285 76.2795 115.09C76.7998 114.96 77.1412 115.074 77.3201 115.448C77.4014 115.594 77.4827 115.757 77.564 115.903C77.7591 116.261 77.9379 116.618 78.133 116.96C78.507 117.675 78.8809 118.374 79.2549 119.09C79.4012 119.366 79.8239 119.122 79.6776 118.846C79.3037 118.13 78.9297 117.431 78.5558 116.716C78.2306 116.098 77.9379 115.334 77.4664 114.797C76.9787 114.245 76.1169 114.179 75.808 114.944C75.9543 114.927 76.1007 114.911 76.247 114.879C75.678 113.936 74.9788 113.123 74.1171 112.424C73.9708 112.31 73.7594 112.342 73.7106 112.537C73.5481 113.139 73.5318 113.692 73.6619 114.293C73.8082 114.228 73.9545 114.163 74.1009 114.098C72.8164 111.367 71.5157 108.619 70.215 105.888C69.6297 104.668 69.1419 103.286 68.3778 102.164C67.9063 101.481 67.3047 100.961 66.4267 101.124C66.2967 101.14 66.2316 101.303 66.2641 101.416C66.8982 104.489 67.9876 107.448 69.4996 110.196C69.5484 110.082 69.5972 109.952 69.646 109.838C67.9063 110.277 70.0687 113.302 70.4264 113.968C70.5402 113.854 70.654 113.741 70.7678 113.627C70.3451 113.448 69.9061 113.545 69.646 113.952C69.272 114.537 69.6134 115.269 69.8736 115.805C70.6052 117.382 71.7433 118.716 73.1253 119.772C73.3692 120.016 73.6131 119.594 73.3692 119.399Z" fill="#E8E8E8"/>
<path d="M7.2615 50.0666C9.19629 47.8555 12.2367 49.3025 14.3991 50.2618C16.3827 51.1397 18.6589 51.8389 20.6424 50.5707C22.5285 49.3513 23.5853 47.2376 25.9103 46.7173C28.7068 46.0833 31.3732 47.4978 33.6494 48.9448C33.9096 49.1074 34.1535 48.6847 33.8933 48.5221C31.6821 47.1238 29.1945 45.8231 26.4956 46.1158C25.39 46.2458 24.3657 46.6361 23.4877 47.3189C22.6098 48.0018 21.8944 48.896 21.0489 49.6277C18.48 51.8389 15.6998 50.2292 13.0496 49.1399C11.066 48.3107 8.49717 47.9042 6.90381 49.7252C6.70871 49.9691 7.05014 50.3105 7.2615 50.0666Z" fill="#E8E8E8"/>
<path d="M0.416499 80.2103C1.4408 79.121 2.96912 80.3241 3.74954 81.0883C4.43241 81.7549 5.21283 82.5516 6.22087 82.6491C7.1151 82.7467 7.83049 82.2589 8.44832 81.6574C9.32629 80.8119 10.123 80.064 11.3424 79.7226C12.5618 79.3974 13.9113 79.4787 15.0656 80.0477C15.9761 80.503 16.8053 81.381 17.8946 81.2834C18.8539 81.2021 19.423 80.3567 20.0245 79.7226C21.0001 78.682 22.4308 78.1455 23.8616 78.3243C26.2516 78.617 28.349 80.6818 30.8529 79.9339C31.1455 79.8526 31.0317 79.3811 30.7228 79.4624C28.3328 80.1616 26.2354 78.113 23.9266 77.8366C22.8536 77.7065 21.748 77.9341 20.8212 78.4706C20.366 78.7308 19.9595 79.0722 19.6018 79.4624C19.1791 79.9177 18.7726 80.5355 18.171 80.7469C16.9842 81.1533 15.6835 79.7063 14.6104 79.3486C13.6349 79.0234 12.578 78.9747 11.57 79.186C10.5945 79.3811 9.70024 79.8364 8.95234 80.4867C7.92804 81.4135 6.98503 82.7467 5.45671 81.8687C4.0422 81.072 1.89604 77.9016 0.0750659 79.8689C-0.152556 80.0965 0.188877 80.4542 0.416499 80.2103Z" fill="#E8E8E8"/>
<path d="M18.6265 75.9202C19.5207 75.2048 20.5613 74.4244 21.7319 74.3269C22.805 74.2456 23.6667 74.8309 24.4959 75.4325C25.634 76.2454 27.2274 77.2372 28.5931 76.2942C29.0158 76.0015 29.3248 75.4812 29.8288 75.3349C30.5442 75.1235 31.2433 75.6276 31.7798 76.0178C32.3814 76.473 32.9667 76.977 33.7309 77.1071C34.6901 77.2697 35.7307 76.8795 36.6737 76.6681C37.8281 76.408 38.9825 76.1478 40.1368 75.8877C40.4457 75.8227 40.3157 75.3512 40.0067 75.4162C38.8036 75.6926 37.5842 75.969 36.3811 76.2454C35.1291 76.5218 33.9585 76.9445 32.8041 76.1641C32.0237 75.6438 31.3246 74.8959 30.3328 74.8146C29.5686 74.7496 29.1459 75.1561 28.6256 75.6276C26.7234 77.3347 24.8048 74.6195 23.0651 74.0179C21.2929 73.3839 19.6183 74.4894 18.2851 75.5625C18.0412 75.7739 18.3826 76.1153 18.6265 75.9202Z" fill="#E8E8E8"/>
<path d="M198.497 63.2389C198.936 61.8243 200.659 62.2633 201.602 62.7836C202.496 63.2714 203.342 63.9542 204.399 64.0681C205.277 64.1656 205.992 63.7754 206.74 63.3527C207.894 62.6861 209.179 62.4097 210.479 62.8161C211.325 63.0763 212.04 63.7754 212.951 63.8404C213.829 63.9217 214.479 63.3364 215.178 62.8974C217.015 61.743 218.999 63.3527 220.966 62.8649C221.275 62.7836 221.145 62.3121 220.836 62.3934C218.804 62.8974 216.902 61.239 214.934 62.4747C214.495 62.7511 214.073 63.125 213.569 63.2876C212.804 63.5315 212.17 63.06 211.52 62.7186C210.626 62.2633 209.667 62.0357 208.658 62.1495C207.602 62.2633 206.838 62.7836 205.911 63.2551C204.366 64.0355 203.179 63.0763 201.862 62.3609C200.61 61.678 198.578 61.3854 198.042 63.1088C197.944 63.4014 198.415 63.5315 198.497 63.2389Z" fill="#E8E8E8"/>
<path d="M206.708 61.2085C207.439 60.5256 208.236 59.7939 209.195 59.4688C210.089 59.1599 210.984 59.3387 211.845 59.6476C213.211 60.1516 214.56 61.0296 216.089 60.802C217.487 60.5906 218.918 59.0623 220.365 59.4688C221.113 59.6801 221.568 60.2817 222.397 60.363C223.259 60.4443 224.104 60.1679 224.901 59.8915C225.194 59.7939 225.064 59.3224 224.771 59.42C223.747 59.7777 222.592 60.1842 221.568 59.5988C220.95 59.2411 220.479 58.8672 219.715 58.9485C218.04 59.1111 216.82 60.6069 215.032 60.3305C213.487 60.0866 212.187 59.0135 210.61 58.8509C208.886 58.6721 207.553 59.7939 206.366 60.8833C206.138 61.0784 206.48 61.4198 206.708 61.2085Z" fill="#E8E8E8"/>
<path d="M48.8674 11.584C49.2251 10.2833 50.916 10.4947 51.8753 10.9012C52.8345 11.3239 53.745 11.9417 54.8344 11.958C56.883 12.0068 58.4763 9.87687 60.5249 10.2346C61.4842 10.3971 62.2646 11.1125 63.2401 11.2263C64.3295 11.3564 64.9636 10.5597 65.7928 10.0069C66.7683 9.35659 67.9877 9.11271 69.1583 9.24278C69.7599 9.30781 70.3452 9.48666 70.8655 9.76306C71.3532 10.0069 71.7597 10.3971 72.2637 10.6248C73.2555 11.0638 73.9059 10.4622 74.7025 9.9419C76.2634 8.93386 77.9543 10.2346 79.1249 11.2589C79.3525 11.4702 79.7102 11.1288 79.4663 10.9174C78.5884 10.137 77.5803 9.34033 76.3935 9.12897C75.2228 8.9176 74.605 9.53543 73.662 10.072C72.8165 10.5597 72.215 10.0232 71.5158 9.58421C71.0606 9.29155 70.5728 9.08019 70.0525 8.93386C69.0608 8.65746 67.9877 8.65746 66.9959 8.93386C66.4756 9.08019 65.9879 9.29155 65.5326 9.58421C64.9798 9.9419 64.4921 10.5435 63.8254 10.7061C62.6386 10.9987 61.533 9.82809 60.3623 9.71428C58.0048 9.50292 56.2814 12.1043 53.8751 11.2751C52.6882 10.8687 51.6476 9.99068 50.3144 10.072C49.4365 10.1207 48.6235 10.5435 48.3959 11.4377C48.3146 11.7629 48.7698 11.893 48.8674 11.584Z" fill="#E8E8E8"/>
<path d="M71.5644 6.88779C72.4099 6.15614 73.5317 5.86349 74.6211 6.10737C75.5641 6.31873 76.1169 7.0016 76.9298 7.44058C78.2142 8.12345 79.3036 7.278 80.3441 6.56261C81.1083 6.04233 81.8725 5.65212 82.7667 6.07485C83.4983 6.41628 84.0837 6.85527 84.9291 6.82275C86.7989 6.75772 88.7824 4.43272 90.6197 5.71716C90.8798 5.896 91.1237 5.47328 90.8635 5.29443C89.1239 4.07503 87.3029 5.73342 85.6445 6.20492C84.9128 6.41628 84.3275 6.33499 83.6447 5.99356C83.2382 5.78219 82.8805 5.53831 82.4253 5.44076C81.7749 5.29443 81.1571 5.5058 80.588 5.83097C79.9052 6.22118 79.3036 6.82275 78.5557 7.09915C77.3688 7.53814 76.6859 6.5301 75.7754 6.02607C74.3122 5.19688 72.4749 5.47328 71.2392 6.54635C70.9791 6.74146 71.3205 7.08289 71.5644 6.88779Z" fill="#E8E8E8"/>
<path d="M98.4081 63.3045C99.8179 63.3045 100.961 62.1616 100.961 60.7518C100.961 59.3421 99.8179 58.1992 98.4081 58.1992C96.9983 58.1992 95.8555 59.3421 95.8555 60.7518C95.8555 62.1616 96.9983 63.3045 98.4081 63.3045Z" stroke="#E8E8E8" stroke-miterlimit="10"/>
<path d="M17.586 106.291C18.7354 106.291 19.6671 105.359 19.6671 104.21C19.6671 103.061 18.7354 102.129 17.586 102.129C16.4366 102.129 15.5049 103.061 15.5049 104.21C15.5049 105.359 16.4366 106.291 17.586 106.291Z" stroke="#E8E8E8" stroke-miterlimit="10"/>
<path d="M138.404 4.47937C139.365 4.47937 140.144 3.70049 140.144 2.73969C140.144 1.77888 139.365 1 138.404 1C137.443 1 136.665 1.77888 136.665 2.73969C136.665 3.70049 137.443 4.47937 138.404 4.47937Z" stroke="#E8E8E8" stroke-miterlimit="10"/>
<path d="M55.0134 28.2661C55.5701 28.2661 56.0215 27.8148 56.0215 27.258C56.0215 26.7013 55.5701 26.25 55.0134 26.25C54.4567 26.25 54.0054 26.7013 54.0054 27.258C54.0054 27.8148 54.4567 28.2661 55.0134 28.2661Z" fill="#5222D0"/>
<path d="M98.5379 90.1802C99.7591 90.1802 100.749 89.1902 100.749 87.969C100.749 86.7478 99.7591 85.7578 98.5379 85.7578C97.3166 85.7578 96.3267 86.7478 96.3267 87.969C96.3267 89.1902 97.3166 90.1802 98.5379 90.1802Z" fill="#5222D0"/>
<path d="M195.277 18.9339C196.22 18.9339 196.985 18.1695 196.985 17.2267C196.985 16.2839 196.22 15.5195 195.277 15.5195C194.335 15.5195 193.57 16.2839 193.57 17.2267C193.57 18.1695 194.335 18.9339 195.277 18.9339Z" fill="#5222D0"/>
<path d="M21.7969 104.079C22.5512 104.079 23.1626 103.468 23.1626 102.713C23.1626 101.959 22.5512 101.348 21.7969 101.348C21.0426 101.348 20.4312 101.959 20.4312 102.713C20.4312 103.468 21.0426 104.079 21.7969 104.079Z" fill="#5222D0"/>
<path d="M136.226 81.6938C136.63 81.6938 136.957 81.3662 136.957 80.9621C136.957 80.558 136.63 80.2305 136.226 80.2305C135.822 80.2305 135.494 80.558 135.494 80.9621C135.494 81.3662 135.822 81.6938 136.226 81.6938Z" fill="#5222D0"/>
<path d="M111.708 46.9C112.66 46.9 113.431 46.1284 113.431 45.1765C113.431 44.2247 112.66 43.4531 111.708 43.4531C110.756 43.4531 109.984 44.2247 109.984 45.1765C109.984 46.1284 110.756 46.9 111.708 46.9Z" fill="#EC615B"/>
<path d="M121.934 14.3969C122.671 14.3969 123.268 13.8 123.268 13.0637C123.268 12.3274 122.671 11.7305 121.934 11.7305C121.198 11.7305 120.601 12.3274 120.601 13.0637C120.601 13.8 121.198 14.3969 121.934 14.3969Z" fill="#EC615B"/>
<path d="M118.699 31.1738C119.154 30.686 119.805 30.5559 120.39 30.8811C120.699 31.0437 120.943 31.3038 121.284 31.4177C121.805 31.5965 122.309 31.4014 122.78 31.1575C123.691 30.686 124.292 30.2308 125.3 30.7998C125.837 31.1087 126.39 31.4177 127.024 31.19C127.869 30.8811 128.324 30.1982 129.3 30.117C129.853 30.0682 130.406 30.182 130.893 30.4421C131.202 30.6047 131.479 30.8486 131.82 30.9462C132.389 31.125 132.763 30.8811 133.202 30.5397C134.129 29.8243 135.251 29.6942 136.275 30.2958C136.551 30.4584 136.795 30.0357 136.519 29.8731C135.852 29.4829 135.121 29.3203 134.356 29.4503C133.966 29.5154 133.576 29.6617 133.235 29.8893C132.731 30.2145 132.454 30.7023 131.706 30.3771C130.942 30.0357 130.406 29.6292 129.528 29.6292C128.601 29.6292 127.983 30.0194 127.235 30.5072C126.146 31.2063 125.56 30.1007 124.536 30.0031C123.853 29.9381 123.284 30.3283 122.715 30.6535C122.162 30.9624 121.691 31.125 121.106 30.7998C120.764 30.6047 120.488 30.3446 120.097 30.2633C119.447 30.1332 118.813 30.3771 118.358 30.8486C118.13 31.0437 118.472 31.4014 118.699 31.1738Z" fill="#EC615B"/>
<path d="M127.511 28.3638C128.097 27.9248 128.812 27.7135 129.544 27.8923C130.031 28.0061 130.373 28.3476 130.844 28.5264C131.657 28.8191 132.242 28.315 132.909 27.9086C133.608 27.4858 133.998 27.5671 134.698 27.9411C135.104 28.1687 135.462 28.2825 135.949 28.25C136.86 28.185 138.632 27.0306 139.201 28.2988C139.331 28.5914 139.754 28.3313 139.624 28.0549C139.266 27.2745 138.34 27.1444 137.575 27.307C136.632 27.5184 135.917 28.0224 134.941 27.5184C134.47 27.2745 134.096 26.9818 133.543 27.0956C133.088 27.1769 132.714 27.4696 132.34 27.7135C132.08 27.8761 131.803 28.1037 131.495 28.1199C131.039 28.1525 130.698 27.8435 130.308 27.6484C129.332 27.1607 128.162 27.307 127.3 27.9411C127.023 28.1362 127.267 28.5589 127.511 28.3638Z" fill="#EC615B"/>
<path d="M16.5937 39.4356C17.6506 38.769 18.8537 39.0617 19.9105 39.5982C20.6747 39.9884 21.3738 40.7363 22.203 40.9477C23.9102 41.3867 24.1703 38.9153 25.5686 38.4926C27.1945 38.0049 28.3488 40.1347 29.8771 38.9966C30.7389 38.3625 31.438 37.9723 32.5436 38.0374C33.5679 38.1024 34.5434 38.4438 35.4864 38.8015C35.7791 38.9153 35.9091 38.4438 35.6165 38.33C34.0719 37.7447 32.1859 37.1269 30.5925 37.891C30.1861 38.0861 29.9097 38.3788 29.552 38.6227C28.8854 39.0779 28.4301 38.8178 27.796 38.4601C27.1132 38.0699 26.4465 37.8097 25.6499 37.9723C24.9345 38.1187 24.3654 38.5414 23.959 39.1267C23.7151 39.4681 23.5362 39.9071 23.2273 40.216C22.5445 40.8501 21.8616 40.2648 21.2763 39.8584C19.8455 38.8828 17.9595 37.9886 16.3174 39.0129C16.0897 39.1917 16.3336 39.6145 16.5937 39.4356Z" fill="#EC615B"/>
<path d="M19.3413 151.396C20.4794 152.826 22.3654 155.038 24.9506 157.428C31.0476 163.102 39.0957 167.996 70.5076 177.654C73.3041 178.515 77.1411 179.67 81.7424 181.003C84.6364 178.889 89.1726 175.686 94.9445 172.142C104.098 166.516 108.016 165.102 113.154 161.753C118.211 158.452 125.088 152.843 131.705 142.99C120.796 140.665 108.992 137.527 96.5541 133.283C90.5058 131.219 84.7502 129.04 79.3035 126.812C59.3216 135.007 39.3396 143.201 19.3413 151.396Z" fill="white" stroke="black" stroke-width="3" stroke-miterlimit="10"/>
<path d="M70.41 157.803C71.3042 156.226 72.6374 155.039 74.2958 154.291C74.5885 154.161 74.3283 153.738 74.0519 153.868C72.3285 154.632 70.9303 155.901 69.9873 157.543C69.8247 157.835 70.2474 158.079 70.41 157.803Z" fill="black"/>
<path d="M70.1493 157.951C70.7021 158.585 71.5476 158.358 72.1004 157.854C72.5719 157.431 72.9296 156.878 73.3523 156.423C73.8563 155.886 74.4091 155.399 74.9944 154.927C75.2383 154.732 74.8969 154.39 74.653 154.586C74.0027 155.106 73.3848 155.659 72.832 156.277C72.3443 156.813 71.3037 158.488 70.507 157.593C70.2794 157.366 69.938 157.724 70.1493 157.951Z" fill="black"/>
<path d="M74.2303 154.26C74.4254 154.423 74.6368 154.602 74.8319 154.764C74.9294 154.846 75.0757 154.862 75.1733 154.764C75.2546 154.683 75.2708 154.504 75.1733 154.423C74.9782 154.26 74.7668 154.081 74.5717 153.919C74.4742 153.837 74.3278 153.821 74.2303 153.919C74.149 154 74.1327 154.179 74.2303 154.26Z" fill="black"/>
<path d="M70.7513 156.226C70.4749 155.95 70.4749 155.706 70.7513 155.511C70.8814 155.381 71.0277 155.267 71.174 155.17C71.3691 155.023 71.5642 154.877 71.7431 154.731C72.0357 154.519 72.9787 153.641 73.2063 154.308C73.3039 154.601 73.7754 154.471 73.6779 154.178C73.2064 152.828 71.7106 154.162 71.109 154.617C70.6862 154.942 70.0522 155.3 70.0034 155.901C69.9709 156.308 70.2147 156.649 70.605 156.731C70.9301 156.747 71.0602 156.275 70.7513 156.226Z" fill="black"/>
<path d="M71.776 158.193C72.8491 159.185 73.3044 160.583 74.1661 161.721C74.8652 162.648 75.8082 163.38 76.8813 163.835C79.2713 164.859 82.0028 164.323 83.9376 162.599C84.1652 162.388 83.8238 162.046 83.5961 162.258C81.6126 164.014 78.7348 164.388 76.426 163.055C75.3692 162.453 74.6051 161.575 73.9872 160.518C73.4344 159.559 72.9629 158.583 72.1337 157.835C71.8898 157.64 71.5484 157.982 71.776 158.193Z" fill="black"/>
<path d="M74.7836 155.316C75.9705 155.348 77.1574 155.381 78.3443 155.413C79.5962 155.446 80.8156 155.56 81.8887 156.275C83.7747 157.543 85.2542 160.226 83.5958 162.275C83.4007 162.519 83.7422 162.86 83.9373 162.616C85.5144 160.681 84.6852 158.112 83.0105 156.535C80.7831 154.47 77.6126 154.893 74.7999 154.828C74.4584 154.828 74.4747 155.316 74.7836 155.316Z" fill="black"/>
<path d="M73.1738 156.516C74.2794 157.101 75.3688 157.719 76.4093 158.402C77.5312 159.133 77.8889 160.483 78.4091 161.653C78.5392 161.946 78.9619 161.686 78.8319 161.409C78.3766 160.401 78.0352 159.019 77.1247 158.304C76.0191 157.426 74.6696 156.743 73.4177 156.093C73.1413 155.947 72.8974 156.369 73.1738 156.516Z" fill="black"/>
<path d="M77.2707 158.674C78.3926 158.561 79.5145 158.447 80.6363 158.333C80.9452 158.301 80.9452 157.813 80.6363 157.845C79.5145 157.959 78.3926 158.073 77.2707 158.187C76.9618 158.219 76.9618 158.707 77.2707 158.674Z" fill="black"/>
<path d="M77.3202 158.922C78.247 159.199 79.1412 159.573 79.9867 160.028C80.2631 160.174 80.5069 159.751 80.2305 159.605C79.3526 159.117 78.4258 158.727 77.4503 158.451C77.1576 158.369 77.0276 158.841 77.3202 158.922Z" fill="black"/>
<path d="M47.1924 153.281C48.428 154.061 50.2978 155.086 52.7366 155.736C55.1592 156.386 60.6221 157.833 64.6218 154.695C67.7597 152.24 68.3938 148.192 68.2312 148.111C68.1011 148.046 67.4508 150.696 65.1258 152.11C62.8983 153.476 60.6384 152.761 57.3866 152.5C54.9641 152.305 51.5009 152.305 47.1924 153.281Z" fill="#EC615B"/>
<path d="M104.976 150.594C106.374 149.553 107.756 148.513 109.154 147.456C109.398 147.277 109.154 146.838 108.91 147.033C107.512 148.074 106.13 149.114 104.732 150.171C104.472 150.35 104.716 150.773 104.976 150.594Z" fill="black"/>
<path d="M105.871 154.326C109.773 151.123 113.691 147.903 117.594 144.7C117.837 144.505 117.496 144.164 117.252 144.359C113.35 147.562 109.432 150.781 105.53 153.984C105.286 154.179 105.643 154.521 105.871 154.326Z" fill="black"/>
<path d="M113.935 151.611C115.105 150.359 116.357 149.221 117.723 148.18C117.967 147.985 117.723 147.562 117.479 147.757C116.081 148.814 114.796 149.985 113.593 151.269C113.366 151.497 113.707 151.838 113.935 151.611Z" fill="black"/>
<path d="M82.1164 145.817C86.929 142.988 91.579 139.899 96.0177 136.55C96.2615 136.371 96.0177 135.932 95.7738 136.127C91.3189 139.476 86.6689 142.582 81.8726 145.395C81.5962 145.557 81.84 145.98 82.1164 145.817Z" fill="black"/>
<path d="M79.9377 144.39C81.8888 143.35 83.6772 142.033 85.2381 140.456C85.4657 140.228 85.108 139.887 84.8966 140.114C83.3521 141.659 81.6124 142.943 79.6939 143.967C79.4175 144.114 79.6613 144.537 79.9377 144.39Z" fill="black"/>
<path d="M74.5073 142.308C77.7591 139.722 81.0921 137.235 84.4902 134.845C84.7503 134.666 84.5065 134.243 84.2463 134.422C80.8157 136.828 77.4502 139.349 74.1659 141.966C73.9058 142.161 74.2635 142.503 74.5073 142.308Z" fill="black"/>
<path d="M45.9086 103.477C41.2748 104.794 37.2914 106.338 34.0397 107.785C29.9587 109.606 24.0243 112.289 17.6346 117.492C15.0332 119.605 13.0984 121.898 9.2451 126.466C7.79808 128.174 6.31853 130.027 6.18846 132.645C6.15594 133.344 6.05839 135.392 7.35909 136.921C9.53776 139.473 14.0089 138.677 16.2038 138.303C18.5288 137.896 20.1872 137.132 20.8864 136.823C30.6579 132.401 28.967 133.994 37.1288 129.962C43.5348 126.808 46.7378 125.214 48.3799 123.589C49.9082 122.06 56.1516 115.849 53.9729 109.85C52.3308 105.395 47.0467 103.802 45.9086 103.477Z" fill="white"/>
<path opacity="0.22" d="M50.087 105.055C49.144 106.144 47.5831 107.851 45.4695 109.753C35.0476 119.119 26.967 118.858 19.2929 126.159C16.8704 128.451 13.6674 132.304 11.2773 138.678C12.3992 138.694 14.1389 138.645 16.22 138.304C20.5448 137.588 23.5527 136.028 25.1948 135.198C36.5922 129.475 39.2099 130.451 46.1849 125.248C49.3878 122.858 51.0137 121.622 52.0705 119.216C54.6394 113.347 51.1275 106.859 50.087 105.055Z" fill="#969696"/>
<path d="M45.8435 103.251C39.4375 105.414 32.9991 107.593 27.0321 110.812C21.5692 113.755 16.6265 117.592 12.4643 122.193C10.4157 124.453 8.30204 126.924 6.95256 129.688C5.84697 131.932 5.06655 135.184 7.19644 137.086C9.35886 139.021 12.6106 139.2 15.3421 138.744C18.7401 138.159 22.0569 136.712 25.2599 135.46C32.495 132.615 39.5351 129.282 46.315 125.477C46.5914 125.331 46.3475 124.908 46.0711 125.054C40.3968 128.225 34.5436 131.086 28.5279 133.607C25.52 134.875 22.4634 136.062 19.3742 137.135C16.3339 138.192 12.9846 139.069 9.8141 138.013C2.02616 135.428 9.3426 126.436 12.4318 122.957C16.3501 118.551 20.9676 114.811 26.0891 111.901C32.3487 108.357 39.1774 106.032 45.9735 103.739C46.2662 103.625 46.1361 103.154 45.8435 103.251Z" fill="black"/>
<path d="M54.5093 128.077C54.9646 127.638 55.6799 127.003 56.6717 126.418C58.1188 125.556 58.8667 125.54 61.7282 124.565C64.1833 123.719 65.2076 123.183 66.0855 122.597C66.8172 122.11 68.1992 121.183 68.0203 120.663C67.809 120.045 65.4514 120.337 62.85 120.663C60.6876 120.923 60.6063 121.085 58.7366 121.28C55.9726 121.557 55.7775 121.232 54.7695 121.638C53.0135 122.337 50.9649 124.337 51.5177 126.06C52.0055 127.589 54.2979 128.028 54.5093 128.077Z" fill="black"/>
<path d="M48.3798 104.162C47.0628 104.844 45.941 105.674 45.941 105.674C43.9249 107.153 42.6079 108.763 41.8275 109.852C41.9413 110.519 42.0389 111.202 42.1527 111.868C38.2506 113.754 35.1289 115.478 32.999 116.697C27.0971 120.079 23.6665 122.778 16.8053 128.176C14.5779 129.915 12.1391 131.915 11.2936 135.216C11.0823 136.061 10.5945 138.028 11.4887 140.158C12.513 142.613 14.6592 143.67 15.3095 143.963C16.724 144.597 18.0735 144.646 20.2359 144.434C24.9672 143.979 28.5929 142.744 29.9586 142.272C34.7712 140.565 38.2669 138.841 39.1123 138.419C43.0469 136.451 48.3961 133.492 54.5419 129.184C54.5744 129.005 54.7695 127.981 54.1029 127.07C53.5338 126.29 52.542 125.883 51.5503 126.03C52.5908 125.509 54.0378 124.68 55.5336 123.379C58.3301 120.941 59.6634 118.29 60.5088 116.567C60.9966 115.575 62.3623 112.616 62.8989 108.47C63.224 105.901 63.1265 103.739 62.9476 102.178C62.3461 102.162 53.1924 101.674 48.3798 104.162Z" fill="white"/>
<path opacity="0.21" d="M59.4357 105.283C57.6797 109.755 55.5498 112.73 54.1841 114.405C45.9409 124.566 34.0395 126.647 20.2033 138.256C18.5937 139.606 16.9516 141.085 17.293 141.752C18.0897 143.329 29.5846 139.069 35.6816 136.517C43.7622 133.135 50.0056 129.525 54.0865 126.94C53.3874 126.485 52.672 126.03 51.9729 125.591C53.0785 125.07 54.6556 124.192 56.2164 122.745C58.2813 120.843 59.2893 118.941 60.2323 117.087C61.3379 114.925 62.8663 111.901 62.9476 107.787C62.9801 106.064 62.7525 104.649 62.5574 103.723C61.5331 104.227 60.4925 104.747 59.4357 105.283Z" fill="#9E9E9E"/>
<path d="M62.9472 104.062C62.8822 111.492 60.3946 119.052 54.5414 123.93C51.5173 126.434 47.7128 127.751 44.1521 129.279C40.2988 130.937 36.4454 132.58 32.5921 134.238C28.251 136.108 23.8937 137.961 19.5526 139.831C19.26 139.961 19.5201 140.367 19.7965 140.254C27.7958 136.823 35.7951 133.392 43.7944 129.962C47.4364 128.401 51.3385 127.084 54.4764 124.613C57.1266 122.515 59.2402 119.768 60.7035 116.727C62.5895 112.793 63.4024 108.435 63.435 104.078C63.435 103.753 62.9472 103.753 62.9472 104.062Z" fill="black"/>
<path d="M41.5835 109.868C41.5835 110.6 41.681 111.267 41.9087 111.95C41.9412 111.852 41.99 111.771 42.0225 111.673C36.2344 114.518 30.5438 117.608 25.2109 121.266C22.6421 123.022 20.1545 124.924 17.797 126.956C15.5858 128.875 13.1795 130.94 11.7487 133.541C10.5456 135.72 10.2692 138.224 11.3422 140.516C12.4478 142.89 14.659 144.402 17.2279 144.711C20.2845 145.085 23.5688 144.304 26.5116 143.557C29.5195 142.792 32.4461 141.736 35.2914 140.484C41.99 137.573 48.1845 133.655 54.3303 129.769C54.5905 129.607 54.3466 129.184 54.0865 129.346C44.0386 135.72 33.5192 142.353 21.5039 144.061C18.4473 144.5 15.1468 144.5 12.9193 142.044C10.952 139.866 10.6431 136.858 11.9113 134.24C13.147 131.704 15.4069 129.72 17.488 127.867C19.7805 125.818 22.2193 123.932 24.7394 122.176C30.2674 118.307 36.2018 115.071 42.2501 112.096C42.3477 112.047 42.3964 111.917 42.3639 111.819C42.1525 111.169 42.055 110.535 42.055 109.868C42.0713 109.559 41.5835 109.559 41.5835 109.868Z" fill="black"/>
<path d="M52.0217 126.175C53.5988 126.208 54.6719 127.622 54.2817 129.134C54.2004 129.443 54.6719 129.573 54.7532 129.264C55.2247 127.427 53.924 125.72 52.0217 125.688C51.7128 125.688 51.7128 126.175 52.0217 126.175Z" fill="black"/>
<path d="M54.8342 128.011C55.7934 127.311 56.6226 126.645 57.7607 126.271C58.8988 125.897 60.037 125.491 61.1588 125.035C63.3212 124.174 65.4511 123.198 67.516 122.125C67.7924 121.979 67.5485 121.556 67.2721 121.702C65.0609 122.857 62.8009 123.897 60.4759 124.791C59.3541 125.214 58.216 125.572 57.0941 125.978C56.1511 126.32 55.387 127.003 54.5903 127.588C54.3464 127.767 54.5903 128.189 54.8342 128.011Z" fill="black"/>
<path d="M57.6635 121.382C59.4194 121.69 61.1103 121.316 62.8175 120.91C63.793 120.682 64.7685 120.439 65.7603 120.357C66.2155 120.325 66.7684 120.243 67.2073 120.357C68.3942 120.666 67.4837 121.625 66.8822 122.032C66.622 122.211 66.8659 122.633 67.126 122.455C67.7764 122.016 68.6218 121.3 68.1829 120.406C67.8089 119.658 66.5732 119.804 65.8904 119.853C63.1589 120.048 60.5575 121.398 57.7935 120.91C57.4846 120.861 57.3545 121.333 57.6635 121.382Z" fill="black"/>
<path d="M69.5003 68.6367C69.11 69.0269 68.5572 69.6448 68.0695 70.5065C67.3704 71.7259 66.9476 73.2217 67.2078 78.1969C67.4029 81.8713 67.8419 84.7654 68.1833 86.749C68.476 88.4073 68.7686 89.7568 68.98 90.6998C70.9148 99.1544 74.5567 109.186 75.9062 112.828C76.9142 115.559 78.3125 119.25 80.0847 123.624C79.3043 124.307 78.2475 125.363 77.337 126.908C76.8492 127.721 76.1338 128.94 76.4427 129.266C76.7029 129.526 77.6947 129.249 81.0114 126.892C82.9137 127.64 84.377 128.404 85.3688 128.989C86.7996 129.818 88.019 130.68 89.9375 130.94C90.474 131.022 90.9293 131.022 91.2382 131.022C90.9455 130.436 90.4253 129.542 89.5148 128.68C88.4254 127.656 87.1898 127.266 87.2223 127.184C87.2548 127.119 88.2628 127.575 89.6286 127.997C90.8317 128.371 92.1487 128.453 94.7989 128.615C95.1728 128.631 95.7256 128.664 95.9695 128.339C96.2459 127.949 95.937 127.282 95.8232 127.006C95.0102 125.25 92.0511 124.16 90.9781 123.786C91.4008 123.981 92.4739 124.372 93.8396 124.16C95.0915 123.965 95.9532 123.364 96.3109 123.055C95.5955 122.908 94.8476 122.762 94.0835 122.648C90.2789 122.047 86.767 121.982 83.6454 122.209C83.1739 121.006 82.5072 119.071 81.9707 116.616C81.3854 113.982 81.5155 113.299 80.8651 109.414C80.3448 106.292 80.0197 104.455 79.223 102.146C78.4751 100.016 77.6296 98.3577 76.9793 97.2358C74.6055 86.6839 73.6788 81.8551 73.3373 79.5138C73.0934 77.8229 72.7845 76.636 72.1829 74.246C71.9228 73.2217 71.6464 72.2299 71.0448 71.0268C70.5246 69.9699 69.9392 69.1733 69.5003 68.6367Z" fill="white"/>
<path opacity="0.11" d="M69.5001 68.6373C70.0529 68.6698 70.183 71.6127 70.5244 75.3359C70.5244 75.3359 70.9959 80.4899 73.2722 92.9767C75.6622 106.13 80.7675 119.934 82.5722 124.649C85.3199 126.762 88.0839 128.892 90.8316 131.006C90.1487 131.022 89.0594 130.99 87.8237 130.583C86.6694 130.209 86.0515 129.721 84.2956 128.697C83.6127 128.291 82.5559 127.705 81.2227 127.022C78.4099 128.908 76.8166 129.656 76.4426 129.266C76.0199 128.811 77.2556 126.811 80.1659 123.283C79.6781 122.242 79.0115 120.763 78.2473 118.974C76.9141 115.885 73.6624 108.016 70.1017 94.8789C67.1751 84.0831 67.0938 80.9289 67.2239 78.4576C67.4841 73.7101 68.7522 68.5723 69.5001 68.6373Z" fill="#686868"/>
<path d="M69.3213 68.7981C70.2643 69.5623 70.7358 70.6841 71.1585 71.7897C71.5813 72.9116 71.9064 74.0659 72.1991 75.2366C72.8007 77.7079 73.2559 80.2117 73.7762 82.6993C74.8167 87.7721 75.8573 92.8285 76.8979 97.9013C76.9629 98.2102 77.4344 98.0801 77.3694 97.7712C76.28 92.5034 75.1907 87.2193 74.1176 81.9514C73.5974 79.4313 73.1421 76.8787 72.4918 74.3911C71.9715 72.4075 71.3699 69.8062 69.679 68.4729C69.4351 68.2616 69.0774 68.603 69.3213 68.7981Z" fill="black"/>
<path d="M67.8911 87.3029C70.8665 99.6595 74.8824 111.74 79.89 123.43C80.0201 123.722 80.4266 123.462 80.3128 123.186C75.3213 111.545 71.3217 99.4969 68.3626 87.1728C68.2813 86.8801 67.8261 87.0102 67.8911 87.3029Z" fill="black"/>
<path d="M76.9956 97.6389C81.2553 105.102 80.5562 114.093 83.1901 122.092C83.2877 122.385 83.7592 122.255 83.6616 121.962C81.0115 113.914 81.7106 104.907 77.4183 97.395C77.2557 97.1186 76.833 97.3625 76.9956 97.6389Z" fill="black"/>
<path d="M79.9219 123.443C78.9951 124.549 78.0196 125.638 77.1254 126.792C76.6701 127.378 75.9547 128.256 76.1173 129.069C76.2799 129.833 76.8815 129.621 77.3693 129.329C78.6212 128.597 79.8731 127.833 81.125 127.085C81.4014 126.922 81.1575 126.5 80.8811 126.662C80.117 127.118 79.3528 127.573 78.6049 128.028C78.1984 128.272 77.792 128.5 77.4018 128.743C77.3205 128.792 76.9465 129.085 76.8652 129.069C76.7839 128.922 76.7026 128.76 76.6376 128.613C76.7026 128.434 76.7839 128.256 76.8652 128.077C77.2554 127.329 77.857 126.695 78.3936 126.044C79.0276 125.297 79.6455 124.549 80.2796 123.801C80.4747 123.541 80.117 123.199 79.9219 123.443Z" fill="black"/>
<path d="M83.5642 122.339C85.7266 122.404 87.889 122.486 90.0352 122.599C91.092 122.664 92.1326 122.73 93.1894 122.795C94.2299 122.876 95.2705 122.908 96.2623 123.282C96.5549 123.396 96.685 122.925 96.3924 122.811C95.5144 122.469 94.6039 122.404 93.6771 122.339C92.5716 122.258 91.466 122.193 90.3604 122.128C88.1004 121.998 85.8404 121.9 83.5642 121.852C83.2553 121.852 83.2553 122.339 83.5642 122.339Z" fill="black"/>
<path d="M81.1577 127.248C84.6858 128.223 87.4173 131.361 91.2543 131.247C91.4169 131.247 91.5307 131.101 91.482 130.938C90.9454 128.841 88.7342 128.093 87.3848 126.63C87.1734 126.402 86.832 126.744 87.0433 126.971C88.3278 128.353 90.5064 129.085 91.0105 131.068C91.0918 130.971 91.173 130.857 91.2381 130.759C87.4823 130.873 84.7346 127.735 81.2715 126.776C80.9788 126.695 80.8487 127.166 81.1577 127.248Z" fill="black"/>
<path d="M87.1569 127.084C88.8804 127.799 90.6851 128.336 92.5223 128.644C93.319 128.774 94.1482 128.888 94.9611 128.823C95.4326 128.791 96.0342 128.742 96.3106 128.287C96.9284 127.262 95.4489 126.271 94.7985 125.767C93.4491 124.742 91.937 123.978 90.3274 123.474C90.0347 123.377 89.9047 123.848 90.1973 123.946C91.4167 124.336 92.5711 124.856 93.6442 125.555C94.1644 125.897 94.6685 126.271 95.1562 126.677C95.3676 126.872 95.6603 127.084 95.8066 127.344C96.213 128.059 95.5464 128.303 94.9774 128.336C92.441 128.547 89.612 127.555 87.287 126.596C86.9943 126.498 86.8805 126.97 87.1569 127.084Z" fill="black"/>
<path d="M90.2468 124.01C92.1166 124.238 94.7993 125.067 96.2951 123.506C96.5064 123.279 96.165 122.937 95.9536 123.165C95.2057 123.945 94.1814 123.962 93.1734 123.864C92.1979 123.766 91.2223 123.636 90.2468 123.523C89.9379 123.49 89.9379 123.978 90.2468 124.01Z" fill="black"/>
<path d="M88.2139 125.394C89.3357 125.964 90.5551 126.24 91.7745 126.549C93.2053 126.907 94.5223 127.394 95.7254 128.24C95.9855 128.419 96.2294 127.996 95.9693 127.817C94.8799 127.053 93.7093 126.549 92.4249 126.207C91.0754 125.85 89.7097 125.606 88.4578 124.972C88.1814 124.825 87.9375 125.248 88.2139 125.394Z" fill="black"/>
<path d="M49.144 67.7717C53.2412 66.2597 56.7043 65.9508 58.9805 65.9345C62.8826 65.8857 67.3375 65.837 69.63 68.6985C70.5079 69.8041 70.7681 71.7226 71.2721 75.5597C71.7924 79.478 72.0363 81.4291 71.4835 83.7541C70.8169 86.5343 69.9552 86.1116 68.1017 90.3064C66.7359 93.3955 66.8985 94.3385 65.1263 99.33C64.3459 101.525 63.6468 103.265 63.1753 104.354C62.1997 104.679 61.1429 104.955 60.0048 105.167C54.0378 106.289 48.8513 104.972 45.5508 103.736C46.7539 91.7534 47.9571 79.7707 49.144 67.7717Z" fill="#EC615B"/>
<path d="M50.2334 67.5469C49.5343 67.8395 48.5262 68.3598 47.5344 69.2866C46.7052 70.0507 46.0712 70.8962 45.4696 72.018C44.0063 74.717 43.5998 77.3346 43.4372 78.3589C42.3316 85.5941 42.0065 88.5369 42.0065 88.5369C41.3236 94.8453 41.096 97.3166 41.161 100.617C41.1935 102.536 41.3236 103.983 41.7138 105.674C42.1853 107.673 42.8844 109.218 44.2014 111.673C46.0874 115.234 47.697 117.738 48.7864 119.477C50.0871 121.542 51.9243 124.55 54.0705 128.306C54.4607 129.395 54.8834 130.533 55.3224 131.736C58.3953 140.077 56.8507 135.086 57.2572 136.305C57.4035 136.76 57.7124 137.752 58.6229 138.305C58.8505 138.451 59.2082 138.663 59.4196 138.565C59.8423 138.354 59.7773 136.777 57.875 131.119C57.8262 130.956 58.6717 133.248 60.6878 135.053C61.3869 135.671 62.0698 136.094 62.59 136.354C62.8664 137.638 63.1266 138.972 63.3705 140.354C63.6794 142.126 63.9395 143.849 64.1509 145.508C64.0208 145.947 63.8582 146.629 63.907 147.475C63.9395 147.979 63.972 148.645 64.3785 149.377C64.5899 149.751 65.1101 150.694 65.9231 150.775C66.3621 150.824 66.736 150.564 67.4839 150.076C68.4757 149.426 68.6708 149.019 69.1586 149.036C69.4187 149.036 69.7927 149.166 70.2316 149.751C70.2154 148.629 69.9065 148.239 69.6301 148.06C69.1748 147.784 68.7684 148.141 67.7115 147.995C67.3051 147.946 66.6385 147.849 66.1995 147.41C65.5654 146.776 65.7117 145.703 65.728 145.426C65.858 144.061 65.354 140.484 63.3379 132.322C63.5005 132.891 64.0533 133.248 64.6061 133.167C65.1914 133.086 65.6467 132.549 65.5979 131.931C64.5736 130.972 63.5493 130.013 62.5087 129.054C62.3787 128.078 62.2486 127.086 62.1023 126.078C61.582 122.583 60.9316 119.25 60.2163 116.079C59.7773 116.209 59.3383 116.339 58.8993 116.453C59.192 118.551 59.4846 120.648 59.7773 122.745C58.6879 122.615 57.5986 122.469 56.5093 122.339C56.0703 121.591 55.5175 120.583 54.9322 119.363C54.4769 118.42 53.5502 116.486 52.721 113.998C51.6642 110.795 51.0301 108.909 50.9813 106.373C50.9488 105.251 51.0301 103.641 50.2171 101.706C49.9082 100.991 49.583 100.438 49.3392 100.081C49.6969 97.9507 50.0058 96.1297 50.2334 94.6665C51.778 84.9275 50.9813 87.6915 52.2332 78.4565C52.4608 76.7331 52.6885 75.221 52.3633 73.1724C52.0056 70.7173 50.9976 68.7663 50.2334 67.5469Z" fill="white"/>
<path opacity="0.17" d="M49.144 67.7734C48.5099 69.0741 47.6645 71.0089 46.9328 73.4477C45.5996 77.9189 45.437 81.5609 45.372 84.1297C45.0793 94.9093 44.9167 100.307 45.9573 105.087C48.64 117.46 55.241 125.785 57.9075 129.085C60.1512 131.849 62.2648 133.963 63.8256 135.426C63.6143 135.751 63.1916 136.288 62.59 136.353C61.9071 136.418 61.3543 135.8 60.6877 135.052C59.891 134.142 58.883 132.922 57.7449 131.443C58.1839 132.597 58.7529 134.207 59.1919 136.223C59.6634 138.369 59.4846 138.531 59.4195 138.564C58.9968 138.759 57.566 136.499 56.8832 135.296C55.9727 133.719 54.8671 131.41 54.0867 128.288C51.908 124.484 50.0545 121.46 48.8026 119.46C45.1769 113.639 43.925 112.127 42.7218 108.615C42.3153 107.396 41.4211 104.534 41.161 100.779C41.0634 99.2666 41.1122 98.3887 41.7463 91.7713C42.3804 85.1866 42.5917 83.3005 42.9982 80.7154C43.7949 75.6427 44.3639 74.1143 45.0956 72.7324C46.3638 70.3586 47.9896 68.749 49.144 67.7734Z" fill="#8E8E8E"/>
<path d="M50.1682 67.3027C46.6075 68.7173 44.7215 72.1966 43.7785 75.7248C42.6241 80.0171 42.1364 84.537 41.7136 88.9594C41.2746 93.5118 40.608 98.2106 41.0145 102.779C41.4047 107.185 43.4208 110.892 45.632 114.632C48.3472 119.217 51.0624 123.786 53.7614 128.371C53.9239 128.647 54.3467 128.403 54.1841 128.127C51.9079 124.273 49.6316 120.436 47.3554 116.583C45.1767 112.909 42.6729 109.234 41.8112 104.991C40.9657 100.763 41.551 96.3571 41.9087 92.0973C42.2827 87.6262 42.7379 83.1388 43.5834 78.7164C44.4126 74.4728 45.8596 69.5302 50.282 67.7742C50.5909 67.6604 50.4608 67.1889 50.1682 67.3027Z" fill="black"/>
<path d="M50.2337 67.9878C53.3879 72.0688 52.1197 77.8731 51.5344 82.5719C50.8027 88.4738 50.0711 94.3595 49.3394 100.261C49.3069 100.57 49.7947 100.57 49.8272 100.261C50.5914 94.0506 51.3718 87.8235 52.136 81.6127C52.705 76.9952 53.648 71.6135 50.5751 67.6464C50.38 67.4025 50.0386 67.744 50.2337 67.9878Z" fill="black"/>
<path d="M48.1195 99.3487C49.7942 100.519 50.1844 102.666 50.4933 104.535C50.851 106.633 51.2087 108.714 51.6802 110.779C52.6069 114.86 53.9239 118.859 56.1513 122.436C56.3139 122.696 56.7366 122.452 56.5741 122.192C54.1678 118.339 52.8346 113.965 51.9078 109.543C51.4688 107.446 51.1924 105.332 50.7534 103.235C50.412 101.576 49.8104 99.9341 48.3634 98.926C48.1033 98.7472 47.8594 99.1699 48.1195 99.3487Z" fill="black"/>
<path d="M56.5906 122.73C57.6149 122.73 58.6229 122.746 59.5984 123.071C59.8911 123.169 60.0212 122.697 59.7285 122.6C58.7042 122.258 57.6474 122.242 56.5906 122.242C56.2817 122.242 56.2817 122.73 56.5906 122.73Z" fill="black"/>
<path d="M59.9232 125.279C59.8581 126.644 60.7849 127.652 61.6791 128.563C62.8823 129.798 64.1504 130.985 65.4511 132.123C65.6788 132.335 66.0364 131.993 65.7926 131.782C64.7195 130.839 63.6789 129.88 62.6709 128.872C61.6954 127.896 60.3296 126.791 60.4109 125.279C60.4272 124.97 59.9394 124.97 59.9232 125.279Z" fill="black"/>
<path d="M53.8428 128.357C54.4769 130.162 55.111 131.967 55.8751 133.723C56.2654 134.601 56.6718 135.479 57.1271 136.324C57.5335 137.072 57.9563 138.015 58.5578 138.617C58.818 138.877 59.1757 139.056 59.5171 138.795C59.9236 138.47 59.7935 137.836 59.6959 137.397C59.3057 135.349 58.7042 133.333 57.9888 131.365C57.875 131.073 57.4035 131.203 57.5173 131.495C58.0376 132.894 58.4765 134.324 58.8342 135.771C58.9318 136.162 59.0131 136.552 59.1106 136.942C59.1757 137.218 59.4846 138.048 59.2895 138.275C58.948 138.649 57.9563 136.779 57.8425 136.568C56.3304 133.934 55.3223 131.056 54.3143 128.211C54.2168 127.935 53.7452 128.065 53.8428 128.357Z" fill="black"/>
<path d="M57.7283 131.442C58.59 132.742 59.4517 134.124 60.5573 135.246C61.2076 135.913 62.5246 136.986 63.5326 136.514C64.5895 136.043 63.8578 134.758 63.4513 134.124C62.4108 132.515 61.354 130.905 60.3134 129.279C60.1508 129.019 59.7281 129.263 59.8907 129.523C60.5898 130.596 61.2889 131.669 61.9881 132.742C62.3132 133.23 62.6222 133.734 62.9473 134.222C63.2888 134.742 64.2318 136.092 62.8986 136.059C61.858 136.043 60.9312 134.953 60.3297 134.222C59.533 133.246 58.8501 132.206 58.151 131.149C57.9722 130.938 57.5494 131.181 57.7283 131.442Z" fill="black"/>
<path d="M59.9233 129.427C60.9638 130.842 62.2483 132.142 63.7441 133.069C64.2318 133.378 64.8822 133.638 65.4025 133.248C65.7764 132.955 65.8577 132.533 65.6626 132.126C65.5163 131.85 65.0936 132.094 65.2399 132.37C64.9635 132.907 64.6546 133.053 64.3131 132.809C64.1993 132.76 64.1018 132.711 64.0042 132.646C63.8091 132.533 63.6303 132.403 63.4514 132.272C63.045 131.98 62.6385 131.655 62.2645 131.297C61.5492 130.647 60.9151 129.931 60.346 129.167C60.1509 128.923 59.7282 129.167 59.9233 129.427Z" fill="black"/>
<path d="M58.5739 130.24C59.6632 132.533 61.2078 134.549 63.1589 136.175C63.4028 136.37 63.7442 136.029 63.5003 135.833C61.5818 134.224 60.0535 132.257 58.9804 129.997C58.8666 129.72 58.4438 129.964 58.5739 130.24Z" fill="black"/>
<path d="M58.6388 116.939C59.1103 119.882 59.5818 122.808 60.0533 125.751C60.1021 126.06 60.5736 125.93 60.5248 125.621C60.0533 122.678 59.5818 119.752 59.1103 116.809C59.0615 116.5 58.59 116.646 58.6388 116.939Z" fill="black"/>
<path d="M59.1102 116.939C59.3215 116.613 59.9394 116.061 60.3296 116.565C60.4109 116.678 60.4109 117.052 60.4271 117.199C60.5084 117.768 60.606 118.353 60.6873 118.922C60.8499 120.011 61.0287 121.117 61.1913 122.206C61.5327 124.401 61.8742 126.596 62.2156 128.791C62.2644 129.1 62.7359 128.97 62.6871 128.661C62.2156 125.572 61.7278 122.499 61.2563 119.41C61.1425 118.629 61.0124 117.849 60.8986 117.052C60.8499 116.727 60.8661 116.223 60.5897 115.996C59.9719 115.491 59.0126 116.158 58.6874 116.678C58.5249 116.955 58.9476 117.199 59.1102 116.939Z" fill="black"/>
<path d="M63.2566 132.729C64.1346 137.2 64.8662 141.687 65.4678 146.207C65.5166 146.516 66.0044 146.516 65.9556 146.207C65.354 141.655 64.6061 137.118 63.7119 132.599C63.6631 132.29 63.1916 132.42 63.2566 132.729Z" fill="black"/>
<path d="M62.4114 136.416C62.9967 139.456 63.5007 142.513 63.9235 145.586C63.9723 145.895 64.4438 145.765 64.395 145.456C63.9723 142.383 63.4682 139.326 62.8829 136.286C62.8179 135.977 62.3464 136.107 62.4114 136.416Z" fill="black"/>
<path d="M63.9883 145.588C64.2647 146.271 64.9313 146.726 65.6792 146.645C65.9881 146.612 65.9881 146.125 65.6792 146.157C65.1752 146.222 64.6549 145.962 64.4598 145.458C64.346 145.165 63.8745 145.295 63.9883 145.588Z" fill="black"/>
<path d="M64.0206 145.458C63.4027 147.084 63.5491 149.328 64.931 150.547C65.4513 151.018 66.1179 151.165 66.7683 150.888C67.565 150.563 69.012 148.401 69.8737 149.604C70.0525 149.864 70.4753 149.62 70.2964 149.36C69.4185 148.108 68.1178 149.197 67.3211 149.913C66.7195 150.449 66.0041 150.823 65.2725 150.205C64.866 149.864 64.5896 149.328 64.4108 148.84C64.0368 147.767 64.0856 146.645 64.4921 145.588C64.6059 145.295 64.1344 145.165 64.0206 145.458Z" fill="black"/>
<path d="M65.6306 146.193C65.7607 147.022 66.2159 147.884 67.0288 148.209C68.0694 148.616 70.4594 147.673 70.0205 149.689C69.9554 149.998 70.4269 150.128 70.492 149.819C70.6871 148.957 70.3619 148.047 69.4352 147.835C68.7685 147.673 68.1019 147.982 67.4353 147.835C66.6224 147.64 66.2322 146.843 66.1021 146.079C66.0371 145.754 65.5818 145.9 65.6306 146.193Z" fill="black"/>
<path d="M56.7199 67.9846C56.9638 68.57 57.2727 69.0089 57.6954 69.3179C58.3458 69.8219 59.0937 69.9194 59.5977 69.9194C60.1342 69.3016 60.6708 68.6838 61.2073 68.0659C61.5975 68.4399 62.6218 69.3341 64.0851 69.3829C64.7355 69.3991 65.4021 69.2528 66.3613 68.7488C68.8652 67.4318 70.3772 65.3019 71.1089 64.1476C72.4746 61.9201 72.9461 59.9366 73.2063 58.7334C73.6127 56.8799 74.2631 53.742 73.0112 50.2138C72.5559 48.9456 72.3446 48.3116 71.7918 47.775C68.6538 44.7184 57.7117 46.9946 54.5575 53.9533C54.59 53.9696 52.6877 58.1806 56.7199 67.9846Z" fill="white"/>
<path opacity="0.18" d="M70.0848 49.4815C70.3287 50.4733 66.3453 50.9936 63.2074 55.4647C60.9962 58.6352 60.6548 61.7081 60.5897 62.391C60.3621 64.8623 60.8336 66.8784 61.2238 68.0815C60.4759 67.6263 59.728 67.1548 58.9964 66.6995C58.2647 67.2035 57.5493 67.6913 56.8177 68.1953C55.8747 67.106 53.6798 64.2607 53.2733 60.0497C53.1432 58.6514 52.8018 55.2046 54.7691 52.3756C58.8663 46.4899 69.6946 47.9044 70.0848 49.4815Z" fill="#8E8E8E"/>
<path d="M58.5575 55.9216C60.2809 55.5314 61.6629 54.9949 62.6222 54.5559C64.5895 53.6617 65.9552 52.6699 67.2559 51.7269C68.4428 50.8652 69.4021 50.0685 70.085 49.4669C70.8816 49.8246 72.41 50.6375 72.979 52.2472C73.1253 52.6861 73.2066 53.1414 73.1579 54.6535C73.0928 56.3444 73.0603 57.5313 72.7351 59.0596C72.0685 62.3276 70.589 64.8802 69.6948 66.2459C70.8166 65.7257 72.5238 64.7339 73.922 62.8966C75.7755 60.4741 76.0682 57.9702 76.2958 55.6778C76.686 51.7269 77.06 48.0199 74.7024 45.4185C72.2961 42.7521 68.3615 42.7195 65.126 42.7033C63.3213 42.687 61.0451 42.6708 58.525 43.6951C54.2977 45.4348 54.2164 48.15 48.2982 54.4421C43.9572 59.0433 42.6239 59.0433 41.5184 61.8886C40.429 64.6688 39.6161 70.0505 42.9816 72.9608C46.3472 75.8549 51.8752 74.5867 54.9481 71.9365C55.6635 71.3187 58.151 68.9937 58.3136 65.1891C58.46 61.791 56.6715 59.4335 56.1837 58.832C54.7204 57.1085 54.6229 55.2225 55.3871 54.5396C55.8911 54.0844 56.9967 53.9706 57.7608 54.5396C58.3949 55.0274 58.525 55.7428 58.5575 55.9216Z" fill="#5222D0"/>
<path d="M58.1506 65.3852C58.9961 66.3607 59.9554 67.2387 60.9959 68.0028C61.8576 68.6369 63.012 69.5311 64.1176 69.6612C65.2394 69.7913 66.5727 69.0271 67.4832 68.4581C68.54 67.8077 69.4667 66.9623 70.2471 66.003C71.8893 63.9219 72.6209 61.3042 73.0436 58.7191C73.5151 55.8575 73.5802 52.931 72.751 50.1345C72.6697 49.8418 72.1982 49.9556 72.2795 50.2645C73.0436 52.8334 73.0436 55.5161 72.6534 58.1338C72.2957 60.5563 71.7104 63.0276 70.3284 65.0762C69.1253 66.881 66.9304 68.7832 64.7192 69.1247C63.516 69.3035 62.1991 68.2467 61.2723 67.5801C60.2643 66.8484 59.3538 65.9867 58.5246 65.0437C58.2807 64.7998 57.9393 65.1413 58.1506 65.3852Z" fill="black"/>
<path d="M68.573 57.1543C68.2803 58.3086 67.9877 59.4793 67.695 60.6336C67.5487 61.1864 67.4186 61.7392 67.2723 62.292C67.1747 62.6497 67.0934 63.739 66.7682 63.9667C66.8821 64.0154 67.0121 64.0642 67.1259 64.113C66.8658 63.4626 66.5731 62.8448 66.1829 62.2432C66.0203 61.9831 65.5976 62.227 65.7602 62.4871C66.1179 63.0399 66.4106 63.6252 66.6544 64.2431C66.7032 64.3731 66.8658 64.4869 67.0121 64.3894C67.3861 64.1293 67.4023 63.7716 67.5161 63.3326C67.6787 62.6822 67.8413 62.0156 68.0039 61.3653C68.3453 59.9995 68.6868 58.6338 69.0282 57.2681C69.1095 56.9917 68.6543 56.8616 68.573 57.1543Z" fill="black"/>
<path d="M62.6221 62.5559C62.8009 63.9867 64.0528 65.0923 65.5161 65.011C65.825 64.9947 65.825 64.507 65.5161 64.5232C64.3455 64.5882 63.2562 63.7265 63.1098 62.5559C63.0611 62.247 62.5733 62.247 62.6221 62.5559Z" fill="black"/>
<path d="M66.294 57.9864C66.5561 57.2791 66.5365 56.6197 66.2503 56.5136C65.964 56.4075 65.5194 56.8949 65.2573 57.6022C64.9952 58.3094 65.0148 58.9688 65.3011 59.0749C65.5874 59.181 66.0319 58.6936 66.294 57.9864Z" fill="black"/>
<path d="M70.9888 58.7168C71.251 58.0095 71.2314 57.3502 70.9451 57.2441C70.6588 57.138 70.2142 57.6254 69.9521 58.3326C69.69 59.0399 69.7096 59.6993 69.9959 59.8054C70.2822 59.9115 70.7267 59.4241 70.9888 58.7168Z" fill="black"/>
<path d="M65.4675 54.1794C65.9715 53.6104 66.7845 53.7079 67.1259 54.3908C67.2722 54.6672 67.6787 54.4233 67.5486 54.1469C67.0771 53.2039 65.8252 53.0413 65.1261 53.838C64.9147 54.0656 65.2561 54.407 65.4675 54.1794Z" fill="black"/>
<path d="M70.3122 54.7834C70.7675 54.3118 71.7593 54.0029 72.0519 54.8484C72.1495 55.141 72.621 55.011 72.5234 54.7183C72.117 53.5314 70.7187 53.6778 69.9708 54.4419C69.7594 54.6533 70.1009 55.011 70.3122 54.7834Z" fill="black"/>
<path d="M56.6713 58.7355C55.5007 58.2966 55.0455 56.4918 55.4194 55.4025C55.6145 54.8334 56.1836 54.2969 56.8177 54.2969C57.7119 54.2969 58.1997 55.2399 58.3297 56.0041C58.3785 56.313 58.85 56.1829 58.8012 55.874C58.5086 54.1668 56.5738 52.9962 55.3056 54.6058C54.2488 55.9716 54.9154 58.6055 56.5413 59.207C56.8339 59.3046 56.964 58.8331 56.6713 58.7355Z" fill="black"/>
<path d="M63.9064 59.1602C63.8902 59.1602 63.8739 59.1602 63.8576 59.1602C63.7276 59.1602 63.6138 59.274 63.6138 59.404C63.6138 59.5341 63.7276 59.6479 63.8576 59.6479C63.8739 59.6479 63.8902 59.6479 63.9064 59.6479C64.0365 59.6479 64.1503 59.5341 64.1503 59.404C64.1503 59.274 64.0365 59.1602 63.9064 59.1602Z" fill="black"/>
<path d="M65.0442 60.0971C65.3531 60.0971 65.3531 59.6094 65.0442 59.6094C64.7353 59.6094 64.7353 60.0971 65.0442 60.0971Z" fill="black"/>
<path d="M64.0203 60.8979C64.3292 60.8979 64.3292 60.4102 64.0203 60.4102C63.7113 60.4102 63.7113 60.8979 64.0203 60.8979Z" fill="black"/>
<path d="M69.532 61.062C69.8409 61.062 69.8409 60.5742 69.532 60.5742C69.2231 60.5742 69.2231 61.062 69.532 61.062Z" fill="black"/>
<path d="M70.9631 60.9487C71.272 60.9487 71.272 60.4609 70.9631 60.4609C70.6379 60.4609 70.6379 60.9487 70.9631 60.9487Z" fill="black"/>
<path d="M69.7595 62.312C70.0684 62.312 70.0684 61.8242 69.7595 61.8242C69.4506 61.8242 69.4506 62.312 69.7595 62.312Z" fill="black"/>
<path d="M61.0449 67.9071C60.5084 68.5249 59.9718 69.1428 59.4353 69.7606C59.2239 70.0045 59.5816 70.3459 59.7767 70.102C60.3133 69.4842 60.8498 68.8664 61.3863 68.2485C61.5977 68.0209 61.2563 67.6795 61.0449 67.9071Z" fill="black"/>
<path d="M56.509 68.1182C56.9968 69.2725 58.0536 70.118 59.2893 70.3456C59.5982 70.4107 59.7282 69.9392 59.4193 69.8741C58.2812 69.6628 57.387 68.9311 56.9317 67.8743C56.8179 67.5816 56.3952 67.8255 56.509 68.1182Z" fill="black"/>
<path d="M165.377 132.516C166.207 133.02 167.15 133.507 168.174 133.979C170.515 135.036 172.694 135.605 174.499 135.914C174.824 136.499 175.295 137.344 175.848 138.353C177.344 141.084 178.498 143.246 178.807 143.799C181.295 148.465 184.774 155.684 185.294 156.774C184.888 156.985 184.205 157.245 183.376 157.148C182.4 157.034 181.75 156.448 181.23 155.944C178.677 153.571 177.929 152.579 177.929 152.579C176.206 150.303 174.531 148.27 171.166 144.238C170.304 143.214 169.605 142.401 169.182 141.913C167.361 141.751 165.54 141.588 163.735 141.409C164.288 138.45 164.841 135.475 165.377 132.516Z" fill="black"/>
<path d="M177.994 111.478C174.483 111.608 171.702 111.608 170.548 111.592C169.02 111.575 166.825 111.543 157.183 111.039C152.582 110.795 151.785 110.746 149.607 110.681C145.948 110.567 142.583 110.567 138.599 111.348C135.998 111.852 134.714 112.372 133.543 113.299C133.006 113.722 131.267 115.152 130.714 117.591C130.633 117.981 130.438 118.941 130.746 120.843C131.234 123.916 132.47 126.273 133.315 127.672C134.519 129.655 136.079 131.525 138.665 133.752C140.144 135.02 143.51 137.768 150.468 141.15C153.834 142.792 158.403 144.759 164.061 146.483C163.931 145.67 163.784 144.499 163.735 143.101C163.622 139.898 164.093 137.459 164.516 135.232C164.841 133.59 165.345 131.427 166.191 128.94C165.036 128.289 163.898 127.623 162.744 126.972C166.044 127.558 168.922 127.818 171.198 127.915C176.206 128.159 179.799 127.769 184.059 127.298C187.441 126.924 189.164 126.729 190.075 126.176C194.822 123.282 196.367 114.274 193.213 111.332C191.489 109.689 189.457 111.039 177.994 111.478Z" fill="white"/>
<path opacity="0.13" d="M164.435 135.737C162.5 134.859 159.768 133.445 156.76 131.299C150.224 126.616 144.42 119.804 145.412 118.519C145.948 117.837 148.176 119.105 151.639 120.389C160.37 123.608 167.898 123.511 173.165 123.43C178.124 123.364 185.636 122.682 194.432 119.576C194.237 120.731 193.684 122.958 191.831 124.698C190.644 125.82 189.375 126.291 188.514 126.567C182.823 128.437 176.076 128.226 174.06 128.145C170.971 128.014 166.987 127.771 162.37 127.267C163.735 127.722 165.101 128.177 166.467 128.632C165.8 130.99 165.117 133.364 164.435 135.737Z" fill="#898989"/>
<path d="M176.092 111.186C169.036 111.543 162.028 111.056 154.988 110.649C151.46 110.454 147.932 110.308 144.404 110.454C141.347 110.584 138.144 110.844 135.315 112.047C132.974 113.039 130.99 114.779 130.503 117.364C129.999 120.063 130.779 122.989 131.885 125.461C134.356 130.956 139.169 134.875 144.209 137.948C150.371 141.687 157.021 144.841 164.012 146.711C164.321 146.792 164.451 146.321 164.142 146.239C158.143 144.646 152.468 142.061 147.07 139.037C141.916 136.159 136.795 132.745 133.608 127.656C132.112 125.282 131.056 122.55 130.877 119.721C130.779 118.161 130.99 116.567 131.885 115.25C132.633 114.145 133.771 113.332 134.958 112.746C137.705 111.397 140.941 111.104 143.949 110.958C147.2 110.795 150.468 110.893 153.704 111.056C161.183 111.446 168.597 112.031 176.092 111.657C176.401 111.657 176.417 111.169 176.092 111.186Z" fill="black"/>
<path d="M145.314 118.729C151.964 122.859 159.037 126.257 166.402 128.858C166.695 128.956 166.825 128.484 166.532 128.387C159.199 125.785 152.159 122.403 145.558 118.306C145.282 118.144 145.038 118.566 145.314 118.729Z" fill="black"/>
<path d="M166.288 128.466C164.174 134.14 163.345 140.221 163.833 146.253C163.865 146.562 164.353 146.562 164.321 146.253C163.817 140.253 164.646 134.238 166.76 128.596C166.873 128.303 166.402 128.173 166.288 128.466Z" fill="black"/>
<path d="M165.215 132.682C166.223 133.674 167.946 134.178 169.263 134.633C170.922 135.218 172.629 135.657 174.369 135.95C174.678 135.999 174.808 135.527 174.499 135.478C172.954 135.218 171.426 134.861 169.946 134.356C169.133 134.08 168.32 133.771 167.54 133.43C166.857 133.137 166.093 132.861 165.573 132.324C165.329 132.113 164.987 132.454 165.215 132.682Z" fill="black"/>
<path d="M174.303 136.026C178.043 142.757 181.652 149.569 185.132 156.447C185.278 156.723 185.701 156.479 185.554 156.203C182.075 149.325 178.449 142.529 174.726 135.782C174.58 135.505 174.157 135.749 174.303 136.026Z" fill="black"/>
<path d="M163.963 141.326C165.264 141.505 166.581 141.668 167.881 141.847C168.434 141.928 168.971 141.961 169.41 142.367C169.637 142.578 169.832 142.855 170.011 143.099C170.353 143.554 170.71 144.009 171.052 144.464C172.531 146.432 174.011 148.383 175.588 150.285C177.181 152.187 178.856 154.008 180.726 155.634C181.978 156.724 183.848 158.366 185.49 156.967C185.734 156.756 185.376 156.415 185.148 156.626C183.929 157.667 182.466 156.463 181.506 155.667C180.596 154.903 179.734 154.09 178.905 153.228C177.263 151.553 175.767 149.765 174.32 147.928C172.889 146.107 171.556 144.172 170.076 142.383C169.475 141.652 168.808 141.489 167.898 141.375C166.597 141.196 165.28 141.034 163.979 140.855C163.654 140.806 163.654 141.294 163.963 141.326Z" fill="black"/>
<path d="M163.101 127.409C171.962 128.677 180.986 128.401 189.75 126.564C190.058 126.499 189.928 126.027 189.619 126.092C180.954 127.913 171.995 128.189 163.232 126.938C162.923 126.889 162.793 127.36 163.101 127.409Z" fill="black"/>
<path d="M159.118 58.3954C159.183 57.4524 159.232 56.2492 159.199 54.8672C159.167 53.2251 159.069 53.4364 158.923 50.8676C158.776 48.3149 158.809 47.2906 158.175 46.9817C157.882 46.8354 157.492 46.8842 157.232 47.0468C157.053 47.1606 156.809 47.4045 156.581 49.2254C156.451 50.2823 156.516 50.4123 156.338 50.6237C155.882 51.1765 155.183 50.7375 154.321 51.3228C153.817 51.6642 153.98 51.8593 153.265 52.5747C152.517 53.3226 152.289 53.16 151.801 53.7454C151.72 53.8429 150.923 54.8184 151.102 56.0053C151.135 56.233 151.232 56.9321 151.671 57.1109C152.094 57.2898 152.452 56.8345 152.744 56.9971C153.07 57.1597 152.939 57.8101 152.891 59.0457C152.842 60.4277 152.809 61.1593 153.102 61.8747C153.362 62.5251 153.817 62.9966 154.224 63.3055C154.321 63.8583 154.452 64.7038 154.565 65.7443C154.939 69.3538 154.582 71.126 154.565 73.5973C154.565 77.5969 155.508 80.7024 156.126 82.7347C156.972 85.5149 158.028 87.7099 158.825 89.2057C159.768 89.2707 161.15 89.2545 162.727 88.7992C164.483 88.2789 165.556 87.4823 167.719 85.8076C171.686 82.751 173.686 81.1901 174.499 80.3609C177.734 77.0604 178.206 75.2557 178.352 74.4102C178.466 73.7599 178.856 71.6137 177.702 70.7357C176.742 70.0041 175.23 70.5244 174.596 70.7357C173.377 71.1422 172.743 71.7926 171.653 72.7031C169.605 74.4102 169.507 74.0851 167.556 75.6459C166.32 76.6377 164.646 78.1497 162.89 80.3121C162.776 79.7106 162.581 78.7676 162.321 77.6132C161.817 75.3532 161.41 73.955 161.183 73.0282C160.451 70.1992 160.175 67.8905 159.622 63.2892C159.459 62.0211 159.28 60.3627 159.118 58.3954Z" fill="white"/>
<path opacity="0.18" d="M157.996 46.8164C158.109 48.0846 158.142 49.7592 157.817 51.6615C157.394 54.1816 156.549 56.1489 155.85 57.4659C155.736 57.7585 155.459 58.5064 155.687 59.4332C156.028 60.8314 157.215 61.4655 157.41 61.5631C157.931 64.2946 158.451 67.0098 158.971 69.7412C159.865 74.505 160.743 79.2851 161.589 84.0489C163.101 82.7157 164.629 81.3825 166.174 80.033C169.767 76.9276 173.344 73.9035 176.888 70.9606C176.124 70.8306 175.36 70.6842 174.596 70.5542C174.011 70.9281 173.198 71.4484 172.222 72.115C170.369 73.3832 168.352 74.7489 166.174 76.7813C165.296 77.5942 164.141 78.7323 162.906 80.2119C162.759 79.2689 162.499 77.8869 162.093 76.1959C161.556 74.0335 161.345 73.7734 160.955 72.18C160.337 69.6762 160.776 69.855 160.061 65.5465C159.296 60.9127 159.248 60.6363 159.248 60.6363C159.134 59.986 159.052 59.547 159.004 58.9129C158.841 56.9456 159.166 55.4661 159.248 55.0596C159.459 53.7264 159.426 51.3201 157.996 46.8164Z" fill="#A5A4A4"/>
<path d="M175.669 69.7257C170.905 72.5222 166.532 75.9202 162.694 79.9036C162.483 80.1313 162.825 80.4727 163.036 80.2451C166.84 76.2942 171.182 72.9286 175.913 70.1484C176.189 70.0021 175.945 69.5793 175.669 69.7257Z" fill="black"/>
<path d="M162.841 81.5781C163.28 80.1148 163.069 78.6515 162.679 77.2045C162.223 75.4974 161.703 73.8064 161.313 72.083C160.5 68.5874 159.98 65.043 159.736 61.4661C159.719 61.1571 159.232 61.1571 159.248 61.4661C159.476 64.7666 159.947 68.0509 160.646 71.3026C161.004 72.9447 161.427 74.5706 161.898 76.1802C162.402 77.9036 162.939 79.6759 162.386 81.4643C162.288 81.7407 162.76 81.8708 162.841 81.5781Z" fill="black"/>
<path d="M159.736 61.2219C159.459 59.8887 158.793 56.767 156.777 57.206C156.11 57.3523 155.46 57.9702 155.508 58.7018C155.573 59.7099 156.582 59.3847 157.118 59.9212C157.346 60.1488 157.687 59.7911 157.459 59.5798C157.183 59.3034 156.907 59.3034 156.582 59.1571C155.33 58.6205 156.695 57.2385 157.671 57.8238C158.711 58.4417 159.037 60.2626 159.264 61.352C159.329 61.6609 159.801 61.5308 159.736 61.2219Z" fill="black"/>
<path d="M159.313 59.1736C159.622 55.3691 159.443 51.5158 158.679 47.76C158.598 47.3373 158.516 46.7845 158.061 46.5894C157.638 46.4105 157.199 46.6707 156.972 47.0121C156.614 47.5649 156.614 48.4266 156.549 49.0607C156.451 50.085 156.451 51.1256 156.533 52.1499C156.549 52.4588 157.037 52.4588 157.02 52.1499C156.972 51.4345 156.939 50.7028 156.972 49.9875C157.004 49.3208 156.939 48.2803 157.232 47.695C157.248 47.6299 157.264 47.5486 157.281 47.4836C157.833 47.1422 158.11 47.1747 158.142 47.5812C158.272 47.7925 158.272 48.2315 158.321 48.4916C158.468 49.2721 158.581 50.0687 158.679 50.8654C159.004 53.6294 159.053 56.4097 158.825 59.1736C158.793 59.4826 159.28 59.4826 159.313 59.1736Z" fill="black"/>
<path d="M156.549 50.4924C156.175 49.6794 155.167 50.7525 154.923 51.1265C154.273 52.102 154.256 53.3377 154.663 54.4107C154.907 55.0123 155.476 55.8253 156.191 55.3537C157.134 54.7522 157.02 52.7849 156.906 51.8581C156.874 51.5492 156.386 51.5492 156.419 51.8581C156.5 52.5247 156.5 53.1751 156.37 53.8417C156.321 54.0693 156.305 54.3945 156.159 54.5896C155.768 55.1424 155.297 54.7034 155.118 54.2644C154.858 53.6303 154.76 52.9149 154.939 52.2483C155.02 51.9394 155.15 51.6468 155.329 51.3866C155.411 51.2728 156.028 50.5574 156.11 50.7525C156.256 51.0289 156.679 50.785 156.549 50.4924Z" fill="black"/>
<path d="M155.199 50.8637C153.443 50.945 152.679 52.6684 152.907 54.2292C153.004 54.8796 153.232 55.5462 153.947 55.7088C154.647 55.8714 155.199 55.3674 155.346 54.717C155.411 54.4081 154.939 54.278 154.874 54.5869C154.549 56.0014 153.508 54.9121 153.395 54.2292C153.33 53.8065 153.313 53.3838 153.411 52.9611C153.606 52.0831 154.273 51.384 155.199 51.3514C155.525 51.3352 155.525 50.8474 155.199 50.8637Z" fill="black"/>
<path d="M153.199 52.3452C152.094 52.6867 151.07 53.8248 151.346 55.0605C151.606 56.2636 153.102 56.4099 153.703 55.4019C153.866 55.1255 153.443 54.8816 153.281 55.158C152.972 55.662 152.256 55.7921 151.915 55.223C151.72 54.8979 151.785 54.4426 151.899 54.1174C152.126 53.4671 152.679 53.0118 153.33 52.8167C153.622 52.7192 153.508 52.2477 153.199 52.3452Z" fill="black"/>
<path d="M151.394 54.31C150.858 55.0416 150.516 56.4887 151.329 57.1878C151.638 57.4479 152.061 57.4642 152.419 57.2691C152.89 57.0089 153.085 56.4724 153.232 55.9846C153.329 55.692 152.858 55.5619 152.76 55.8546C152.663 56.1635 152.581 56.4724 152.337 56.7C151.931 57.0902 151.508 56.8464 151.378 56.3586C151.216 55.7245 151.427 55.0742 151.801 54.5701C151.996 54.2937 151.573 54.0498 151.394 54.31Z" fill="black"/>
<path d="M152.305 56.8656C153.248 58.9142 151.574 62.2798 154.273 63.4179C154.565 63.5317 154.695 63.0602 154.403 62.9464C152.988 62.3448 153.053 60.6214 153.118 59.3369C153.151 58.3777 153.135 57.4834 152.728 56.6055C152.598 56.3291 152.175 56.573 152.305 56.8656Z" fill="black"/>
<path d="M153.98 63.3692C154.533 65.5967 154.24 67.9054 154.224 70.1816C154.208 72.3765 154.338 74.5715 154.631 76.7339C155.2 80.9286 156.37 85.0259 158.061 88.8954C158.191 89.1881 158.614 88.9279 158.484 88.6515C156.712 84.5869 155.525 80.262 155.005 75.8397C154.761 73.7585 154.663 71.6612 154.712 69.58C154.761 67.4501 154.972 65.3365 154.452 63.2391C154.387 62.9302 153.915 63.0603 153.98 63.3692Z" fill="black"/>
<path d="M158.386 89.3669C163.004 90.4075 167.068 86.6842 170.401 84.0666C172.369 82.522 174.287 80.9286 176.141 79.254C177.783 77.7582 179.327 76.1485 180.417 74.1975C180.563 73.9211 180.157 73.6772 179.994 73.9536C178.97 75.7909 177.539 77.3192 175.994 78.7174C174.32 80.2457 172.564 81.709 170.792 83.1398C169.003 84.5706 167.198 86.0339 165.264 87.2533C163.247 88.5377 160.922 89.4482 158.516 88.8954C158.207 88.8304 158.077 89.3019 158.386 89.3669Z" fill="black"/>
<path d="M159.394 36.0858C159.508 35.8419 159.622 35.4679 159.573 35.0452C159.476 34.2973 158.89 33.842 158.467 33.3868C157.801 32.6877 157.573 31.9886 157.02 30.6716C156.728 29.9725 155.769 27.68 156.777 25.42C157.524 23.7454 158.972 22.9812 159.264 22.8349C159.703 22.6073 161.427 21.7618 163.101 22.5097C164.483 23.1438 165.003 24.4933 165.442 25.6639C165.589 26.0541 166.32 28.0377 165.751 30.4277C165.605 31.0455 165.41 31.9073 164.792 32.8015C164.353 33.4356 164.012 33.6469 163.67 34.2973C163.248 35.0777 163.166 35.8581 163.15 36.3622C163.459 36.3622 163.768 36.3784 164.077 36.3784C164.044 36.8174 163.995 37.2401 163.963 37.6791C163.264 37.5165 163.004 37.5978 162.906 37.7279C162.744 37.9718 163.117 38.362 162.955 38.7034C162.906 38.801 162.76 39.0123 161.882 39.1424C161.069 39.2562 159.833 39.4351 159.476 38.8497C159.28 38.5246 159.524 38.2319 159.28 37.9067C159.053 37.5978 158.614 37.549 158.272 37.549C157.963 36.6873 158.012 36.3947 158.142 36.3134C158.256 36.2321 158.419 36.3296 158.76 36.2971C159.037 36.2809 159.248 36.1833 159.394 36.0858Z" fill="white"/>
<path d="M161.508 35.9755C161.475 34.2195 161.427 32.4798 161.394 30.7239C161.394 30.415 160.906 30.415 160.906 30.7239C160.939 32.4798 160.988 34.2195 161.02 35.9755C161.02 36.2844 161.508 36.2844 161.508 35.9755Z" fill="black"/>
<path d="M159.02 28.7367C159.622 29.4521 160.272 30.1512 160.939 30.8178C161.036 30.9154 161.199 30.9154 161.28 30.8178C161.752 30.3138 162.223 29.8098 162.695 29.3058C162.955 29.0294 163.394 28.7042 163.54 28.3302C163.605 28.1676 163.443 28.0376 163.313 28.0213C163.296 28.0213 163.296 28.0213 163.296 28.0213C163.199 28.0051 163.085 28.1026 163.069 28.2002V28.2164C163.004 28.5253 163.475 28.6554 163.54 28.3465V28.3302C163.459 28.3953 163.378 28.444 163.313 28.5091H163.329C163.248 28.4115 163.166 28.2977 163.101 28.2002C162.971 28.5416 162.321 29.0294 162.061 29.3058C161.703 29.696 161.345 30.0862 160.971 30.4601C161.085 30.4601 161.199 30.4601 161.313 30.4601C160.646 29.7935 160.012 29.0944 159.394 28.379C159.167 28.1514 158.809 28.4928 159.02 28.7367Z" fill="black"/>
<path d="M161.329 30.4426C161.394 29.2069 161.427 27.9713 161.459 26.7356C161.459 26.4267 160.971 26.4267 160.971 26.7356C160.939 27.9713 160.906 29.2069 160.841 30.4426C160.825 30.7515 161.313 30.7515 161.329 30.4426Z" fill="black"/>
<path d="M149.2 23.7465C150.696 24.1367 152.094 25.0635 153.46 25.7626C153.736 25.9089 153.98 25.4862 153.704 25.3399C152.289 24.6082 150.875 23.6652 149.33 23.275C149.038 23.1937 148.907 23.6652 149.2 23.7465Z" fill="black"/>
<path d="M156.696 22.6588C156.045 21.8946 155.411 21.1467 154.761 20.3826C154.55 20.1387 154.208 20.4964 154.42 20.724C155.07 21.4881 155.704 22.236 156.354 23.0002C156.566 23.2441 156.907 22.8864 156.696 22.6588Z" fill="black"/>
<path d="M162.288 20.2666C162.386 18.6895 162.597 17.1286 162.906 15.584C162.971 15.2751 162.5 15.1451 162.434 15.454C162.126 17.0473 161.914 18.6407 161.8 20.2666C161.768 20.5755 162.256 20.5755 162.288 20.2666Z" fill="black"/>
<path d="M167.93 23.176C169.003 22.2168 170.109 21.29 171.214 20.3958C171.458 20.2007 171.117 19.8592 170.873 20.0544C169.767 20.9648 168.662 21.8916 167.589 22.8346C167.361 23.046 167.703 23.3874 167.93 23.176Z" fill="black"/>
<path d="M170.028 27.9569C171.361 27.4854 172.678 26.9977 173.995 26.4774C174.287 26.3636 174.157 25.8921 173.865 26.0059C172.548 26.5261 171.231 27.0139 169.898 27.4854C169.605 27.583 169.719 28.0545 170.028 27.9569Z" fill="black"/>
<path d="M150.923 31.2709C151.753 30.9945 152.598 30.7181 153.427 30.4417C153.72 30.3442 153.59 29.8727 153.297 29.9702C152.468 30.2466 151.623 30.523 150.793 30.7994C150.484 30.897 150.614 31.3685 150.923 31.2709Z" fill="black"/>
<path d="M157.931 36.463C158.224 36.8695 157.818 37.4223 158.175 37.845C158.403 38.1214 158.761 38.1702 159.086 38.1864C160.679 38.2677 162.354 38.0238 163.963 37.9588C164.272 37.9425 164.272 37.4548 163.963 37.471C162.663 37.5361 161.362 37.6011 160.061 37.6661C159.46 37.6986 158.614 37.9425 158.484 37.1296C158.419 36.7556 158.598 36.5768 158.354 36.2354C158.175 35.959 157.753 36.2028 157.931 36.463Z" fill="black"/>
<path d="M158.532 36.5385C160.386 36.5711 162.223 36.6036 164.077 36.6361C163.995 36.5548 163.914 36.4735 163.833 36.3922C163.865 36.7336 163.865 36.9938 163.8 37.3515C163.735 37.6604 164.207 37.7905 164.272 37.4815C164.353 37.1076 164.369 36.7662 164.321 36.3922C164.304 36.2621 164.223 36.1483 164.077 36.1483C162.223 36.1158 160.386 36.0833 158.532 36.0508C158.224 36.0508 158.224 36.5385 158.532 36.5385Z" fill="black"/>
<path d="M159.199 37.8901C158.939 38.2478 159.004 38.7193 159.297 39.0445C159.752 39.5322 160.549 39.4509 161.15 39.4347C161.719 39.4184 162.5 39.4672 162.971 39.0607C163.313 38.7681 163.394 38.2803 163.15 37.9063C162.971 37.6462 162.548 37.8901 162.727 38.1502C163.248 38.9306 161.394 38.9306 161.15 38.9469C160.776 38.9632 159.004 39.0119 159.622 38.134C159.801 37.8901 159.378 37.6462 159.199 37.8901Z" fill="black"/>
<path d="M159.622 36.152C159.915 34.8187 158.939 33.7619 158.305 32.6889C157.525 31.3719 156.826 29.9411 156.647 28.3965C156.484 27.0471 156.744 25.5838 157.557 24.4619C158.517 23.145 160.191 22.6247 161.768 22.6084C165.004 22.5597 165.622 26.5431 165.605 29.0469C165.605 30.7866 165.036 32.1035 163.98 33.453C163.264 34.3635 162.679 35.339 162.923 36.5259C162.988 36.8348 163.459 36.7048 163.394 36.3958C163.069 34.835 164.484 33.7944 165.215 32.5913C165.801 31.6483 166.044 30.5427 166.093 29.4371C166.175 27.4698 165.882 24.9334 164.597 23.3563C163.264 21.6979 160.809 21.8931 159.037 22.6897C157.07 23.5514 156.11 25.6 156.11 27.6812C156.11 28.9331 156.484 30.1688 157.005 31.3069C157.313 31.9897 157.687 32.6563 158.094 33.3067C158.598 34.1196 159.362 35.0139 159.151 36.0382C159.086 36.3308 159.557 36.4609 159.622 36.152Z" fill="black"/>
<path d="M174.71 70.0045C176.71 68.6225 181.165 65.9398 187.425 65.4846C195.652 64.8668 201.651 68.4762 203.57 69.7444C203.797 72.0206 204.057 75.5 203.976 79.7598C203.814 87.6615 202.61 91.2872 202.188 98.2622C201.976 101.774 201.911 106.879 202.741 113.171C199.977 114.098 195.213 115.301 189.278 114.846C184.01 114.44 179.913 112.895 177.393 111.708C177.263 109.334 177.019 105.741 176.499 101.384C175.881 96.2461 175.247 92.8643 174.922 90.962C174.174 86.3446 173.605 79.4509 174.71 70.0045Z" fill="#EC615B"/>
<path d="M167.101 136.859C165.866 137.347 164.841 137.689 164.126 137.916C161.037 138.892 159.769 138.924 158.338 140.095C158.013 140.355 157.574 140.778 156.728 142.013C155.46 143.899 154.598 145.72 153.33 149.053C152.159 152.143 151.233 154.614 150.371 158.158C149.965 159.817 149.688 161.231 149.509 162.288C150.225 161.963 151.363 161.394 152.598 160.451C156.029 157.849 156.923 154.972 160.468 149.769C161.199 148.696 162.321 147.102 163.849 145.233C164.646 144.664 165.996 143.851 167.817 143.412C169.036 143.135 170.093 143.103 170.89 143.135C170.759 142.582 170.613 142.03 170.483 141.477C169.361 139.932 168.239 138.404 167.101 136.859Z" fill="black"/>
<path d="M164.532 133.833C164.744 133.947 165.069 134.11 165.426 134.353C166.971 135.426 167.67 136.825 168.174 137.784C170.467 142.174 170.922 141.816 172.369 145.263C172.971 146.694 173.377 147.913 173.637 148.759C174.645 148.368 176.125 147.767 177.897 146.938C182.027 145.003 185.002 143.117 194.172 136.565C201.846 131.069 195.521 135.426 207.341 126.5C207.764 126.192 210.707 123.964 213.455 120.208C215.276 117.737 215.829 116.209 215.991 114.762C216.105 113.835 216.398 111.461 214.869 109.494C213.861 108.193 212.544 107.673 211.991 107.478C210.642 106.974 208.805 106.779 205.634 107.77C202.399 108.795 200.139 110.323 196.042 113.38C192.871 115.753 190.936 117.298 189.294 118.566C183.929 122.745 179.409 126.273 173.605 129.525C171.491 130.679 168.434 132.272 164.532 133.833Z" fill="white"/>
<path opacity="0.18" d="M214.934 109.559C214.219 111.217 213.048 113.672 211.26 116.452C204.61 126.825 195.602 131.996 189.928 135.166C185.75 137.507 179.392 140.515 171.052 142.564C171.491 143.377 171.93 144.271 172.352 145.263C172.889 146.498 173.295 147.685 173.621 148.758C175.49 147.994 178.173 146.824 181.262 145.181C185.733 142.791 187.115 141.523 197.163 134.288C197.163 134.288 203.195 129.963 210.333 123.769C210.739 123.411 213.016 121.411 214.755 118.143C215.877 116.03 216.04 114.778 216.072 114.013C216.17 111.965 215.389 110.355 214.934 109.559Z" fill="#969696"/>
<path d="M164.971 133.964C172.158 130.713 178.937 126.648 185.23 121.9C188.351 119.559 191.375 117.088 194.513 114.779C197.537 112.552 200.675 110.324 204.073 108.682C207.293 107.137 211.943 106.292 214.544 109.446C217.146 112.6 215.487 116.941 213.406 119.852C211.195 122.957 208.301 125.477 205.325 127.802C202.155 130.29 198.903 132.696 195.668 135.119C188.774 140.305 181.701 145.443 173.572 148.516C173.279 148.63 173.409 149.101 173.702 148.987C181.23 146.142 187.88 141.541 194.302 136.761C197.716 134.208 201.131 131.639 204.512 129.038C207.553 126.713 210.561 124.258 212.951 121.25C215.081 118.584 216.983 115.202 216.137 111.657C215.341 108.357 212.235 106.666 208.984 106.796C205.163 106.942 201.635 109.3 198.545 111.332C195.196 113.543 192.026 116.015 188.855 118.486C185.1 121.413 181.311 124.274 177.263 126.811C173.231 129.347 169.036 131.591 164.695 133.542C164.435 133.672 164.679 134.094 164.971 133.964Z" fill="black"/>
<path d="M164.419 134.048C165.768 134.617 166.646 136.064 167.475 137.218C168.288 138.34 169.036 139.494 169.735 140.665C171.199 143.136 172.418 145.738 173.394 148.437C173.507 148.729 173.979 148.599 173.865 148.307C172.841 145.478 171.556 142.746 170.012 140.161C169.231 138.86 168.386 137.592 167.475 136.373C166.695 135.332 165.914 134.129 164.679 133.609C164.37 133.511 164.126 133.918 164.419 134.048Z" fill="black"/>
<path d="M167.036 136.615C165.557 137.135 164.093 137.655 162.614 138.192C161.28 138.663 159.833 139.054 158.565 139.688C157.508 140.208 156.923 141.135 156.37 142.143C155.655 143.427 155.005 144.728 154.371 146.045C151.964 151.183 150.257 156.629 149.265 162.206C149.233 162.369 149.379 162.58 149.558 162.499C151.753 161.735 153.428 160.141 154.842 158.353C156.565 156.174 158.094 153.833 159.606 151.508C160.988 149.394 162.191 146.923 164.142 145.248C165.118 144.419 166.239 143.964 167.491 143.704C168.646 143.46 169.784 143.265 170.759 142.549C171.019 142.37 170.776 141.948 170.515 142.126C169.475 142.874 168.223 143.021 167.004 143.313C165.963 143.557 165.02 143.964 164.175 144.614C162.37 145.996 161.232 148.061 160.045 149.947C158.517 152.353 156.923 154.743 155.232 157.052C153.704 159.133 151.948 161.165 149.444 162.027C149.542 162.125 149.639 162.222 149.737 162.32C150.696 156.971 152.289 151.752 154.549 146.809C155.102 145.606 155.687 144.435 156.305 143.265C156.939 142.061 157.541 140.712 158.809 140.078C160.142 139.428 161.654 139.021 163.036 138.533C164.402 138.046 165.784 137.558 167.15 137.07C167.459 136.989 167.345 136.517 167.036 136.615Z" fill="black"/>
<path d="M155.362 89.1555C157.443 99.6424 159.541 110.129 161.622 120.616C169.865 121.055 178.092 121.494 186.335 121.933C184.693 110.975 183.067 100.016 181.425 89.0742C172.743 89.1067 164.061 89.123 155.362 89.1555Z" fill="white" stroke="black" stroke-width="3" stroke-miterlimit="10"/>
<path opacity="0.22" d="M173.995 89.0905C174.499 92.0496 174.889 95.2525 175.1 98.6994C175.637 107.382 174.857 115.039 173.702 121.267C177.913 121.494 182.124 121.722 186.351 121.933C184.709 110.975 183.083 100.016 181.441 89.0742C178.954 89.0905 176.466 89.0905 173.995 89.0905Z" fill="#898989"/>
<path d="M198.611 70.5082C197.976 71.126 197.846 71.9552 197.765 73.3209C197.586 76.8003 198.074 79.4667 198.074 79.4667C198.659 82.6047 198.822 85.8076 199.228 88.9618C199.7 92.5713 199.911 94.4085 198.984 96.0181C198.22 97.3513 196.968 98.2943 196.594 98.5707C195.245 99.5625 193.993 99.9527 192.92 100.245C190.969 100.798 188.254 101.514 184.823 102.18C183.913 100.977 182.953 100.262 182.319 99.8714C181.425 99.3187 179.978 98.3919 179.1 98.9447C178.694 99.2048 178.417 99.8064 178.547 100.213C178.726 100.749 179.49 100.668 179.945 101.318C180.238 101.741 180.238 102.261 180.206 102.587C179.572 102.717 178.612 102.879 177.425 102.961C175.182 103.107 174.564 102.814 172.678 102.961C170.792 103.107 168.369 103.643 168.353 104.229C168.353 104.652 169.621 104.977 169.979 105.074C170.971 105.334 171.491 105.204 172.857 105.286C173.946 105.351 175.214 105.529 175.214 105.66C175.214 105.952 168.89 105.513 168.564 107.025C168.467 107.464 168.89 107.903 169.182 108.212C169.507 108.57 170.223 109.171 173.393 109.48C174.044 109.545 174.938 109.61 175.995 109.61C175.052 110.082 174.125 110.553 173.182 111.025C173.182 111.139 173.182 111.301 173.279 111.464C173.816 112.407 176.515 111.789 177.767 111.513C179.393 111.139 181.75 110.423 184.498 108.863C186.953 108.765 188.969 108.57 190.367 108.407C196.22 107.708 199.212 106.586 201.049 105.757C203.065 104.847 204.073 104.082 204.821 103.042C205.049 102.717 205.618 101.855 206.236 99.2211C206.854 96.5709 206.968 94.4735 207 93.8232C207.065 92.555 207.114 90.3926 206.74 85.3524C206.171 77.8083 205.894 80.5398 205.455 75.5484C205.407 74.963 205.26 73.1908 204.106 71.5162C203.765 71.0122 203.326 70.3943 202.513 70.0041C201.261 69.4351 199.554 69.5652 198.611 70.5082Z" fill="white"/>
<path opacity="0.24" d="M201.716 69.7578C202.041 70.9122 202.48 72.6031 202.87 74.668C203.114 75.9687 203.813 80.0333 203.569 90.5527C203.407 97.1863 203.065 98.0968 202.529 98.9748C201.082 101.316 198.724 102.324 194.025 104.356C190.123 106.031 187.538 107.153 183.782 107.738C182.059 108.015 179.409 108.275 176.011 109.64C175.507 109.836 172.873 110.909 172.986 111.413C173.084 111.803 174.807 111.722 176.32 111.64C178.075 111.543 178.986 111.494 180.157 111.153C181.1 110.876 182.742 110.242 184.433 108.73C187.067 108.746 189.261 108.567 190.887 108.372C193.489 108.063 196.432 107.706 199.878 106.275C202.073 105.364 203.618 104.698 204.821 103.056C205.146 102.617 205.764 101.641 206.382 98.5358C206.853 96.1783 207.049 93.8533 207.049 90.9592C207.049 89.4959 206.837 87.0083 206.431 82.0332C206.089 77.9847 206.414 82.4884 205.293 74.733C205.179 73.9363 205 72.6844 204.073 71.5138C203.325 70.5382 202.366 70.018 201.716 69.7578Z" fill="#898989"/>
<path d="M198.318 71.5146C198.936 69.596 201.326 69.4334 202.756 70.4903C204.366 71.6609 204.87 73.6932 205.179 75.5467C205.846 79.5789 206.398 83.6598 206.675 87.7245C206.951 91.8543 206.854 96.0653 205.764 100.081C205.228 102.065 204.415 103.642 202.61 104.715C200.984 105.674 199.18 106.357 197.375 106.894C193.18 108.129 188.79 108.438 184.433 108.487C184.124 108.487 184.124 108.975 184.433 108.975C188.774 108.91 193.18 108.601 197.375 107.398C199.375 106.829 201.44 106.064 203.195 104.926C204.838 103.869 205.634 102.341 206.155 100.504C207.406 96.0653 207.471 91.3828 207.098 86.814C206.919 84.5378 206.626 82.2778 206.317 80.0179C206.008 77.7742 205.862 75.4004 205.163 73.238C204.594 71.5146 203.374 69.7749 201.488 69.4009C199.96 69.092 198.334 69.905 197.846 71.4008C197.749 71.6772 198.22 71.8072 198.318 71.5146Z" fill="black"/>
<path d="M197.993 70.8642C197.196 73.3518 197.489 76.067 197.749 78.6196C198.025 81.3023 198.448 83.9525 198.757 86.6352C198.919 87.9684 199.049 89.3016 199.114 90.6511C199.196 92.0331 199.293 93.5126 199.066 94.8946C198.61 97.496 196.155 98.6991 193.944 99.6096C191.083 100.78 188.058 101.544 184.986 101.918C184.677 101.951 184.677 102.439 184.986 102.406C187.701 102.081 190.383 101.463 192.952 100.52C194.985 99.7722 197.342 98.8943 198.675 97.0733C200.139 95.0735 199.716 92.0331 199.537 89.7243C199.326 86.7815 198.854 83.8712 198.497 80.9446C198.09 77.7579 197.44 74.1322 198.448 70.9943C198.545 70.7016 198.074 70.5715 197.993 70.8642Z" fill="black"/>
<path d="M185.002 102.034C183.506 100.424 181.653 98.5219 179.247 98.717C178.596 98.7658 177.848 99.1072 178.076 99.8876C178.19 100.278 178.515 100.522 178.84 100.733C179.523 101.172 180.011 101.627 180.222 102.44C180.303 102.749 180.775 102.619 180.694 102.31C180.531 101.709 180.238 101.156 179.751 100.749C179.539 100.57 178.824 100.278 178.743 100.066C178.808 99.7901 178.889 99.5137 178.954 99.2373C179.1 99.221 179.23 99.2048 179.377 99.1885C179.62 99.1722 179.881 99.2048 180.125 99.2373C182.027 99.5462 183.409 101.026 184.661 102.375C184.872 102.603 185.213 102.261 185.002 102.034Z" fill="black"/>
<path d="M180.157 102.357C178.141 103.072 175.897 102.568 173.8 102.65C172.84 102.682 171.881 102.78 170.922 102.926C170.174 103.04 169.085 103.056 168.467 103.576C167.507 104.373 168.711 105.186 169.507 105.284C171.637 105.576 173.848 105.527 175.994 105.641C176.303 105.657 176.303 105.17 175.994 105.153C174.417 105.072 172.824 104.991 171.247 104.91C170.824 104.893 170.401 104.877 169.979 104.845C169.767 104.828 168.028 104.682 168.857 103.902C169.085 103.69 169.67 103.658 169.962 103.593C170.32 103.528 170.678 103.463 171.036 103.398C172.661 103.154 174.32 103.072 175.962 103.137C177.409 103.202 178.856 103.316 180.254 102.828C180.579 102.731 180.449 102.259 180.157 102.357Z" fill="black"/>
<path d="M175.897 105.379C174.271 105.477 172.532 105.412 170.938 105.786C170.207 105.965 169.491 106.257 168.825 106.615C168.516 106.778 168.061 106.973 168.142 107.395C168.304 108.371 170.613 108.355 171.312 108.371C173.068 108.387 174.792 108.062 176.548 108.192C176.857 108.208 176.857 107.721 176.548 107.704C175.328 107.623 174.125 107.737 172.906 107.818C171.784 107.899 170.158 108.111 169.117 107.574C168.418 107.217 168.792 107.168 169.182 106.973C169.491 106.81 169.8 106.664 170.125 106.55C170.727 106.322 171.345 106.176 171.979 106.111C173.263 105.981 174.58 105.948 175.865 105.867C176.206 105.851 176.206 105.363 175.897 105.379Z" fill="black"/>
<path d="M169.068 108.421C171.182 109.51 173.523 109.965 175.881 109.705C176.19 109.673 176.19 109.185 175.881 109.217C173.605 109.461 171.345 109.055 169.312 107.998C169.036 107.868 168.792 108.274 169.068 108.421Z" fill="black"/>
<path d="M175.945 109.4C174.726 109.676 173.377 110.083 172.775 111.286C172.726 111.4 172.742 111.562 172.856 111.627C173.718 112.018 174.596 111.969 175.523 111.936C176.726 111.871 177.945 111.806 179.148 111.611C181.197 111.286 183.164 110.538 184.676 109.075C184.904 108.863 184.563 108.506 184.335 108.733C182.969 110.066 181.181 110.749 179.327 111.091C178.27 111.286 177.214 111.367 176.157 111.416C175.165 111.465 174.059 111.627 173.116 111.205C173.149 111.318 173.181 111.432 173.198 111.546C173.734 110.457 174.97 110.131 176.075 109.888C176.368 109.79 176.238 109.319 175.945 109.4Z" fill="black"/>
<path d="M175.214 48.98C174.726 50.1344 174.661 51.2725 174.564 52.6545C174.515 53.3536 174.417 55.5485 175.149 58.3125C175.604 60.0359 176.092 61.9057 177.604 63.7754C178.921 65.4013 180.433 66.3118 181.392 66.7833C182.059 66.5882 182.774 66.3606 183.538 66.0517C184.286 65.759 184.969 65.4338 185.587 65.1249C185.62 65.7265 185.733 66.7996 186.351 67.9539C186.872 68.9457 187.538 69.5961 187.961 69.9538C188.449 69.7424 189.001 69.466 189.587 69.0433C190.969 68.0515 191.733 66.8321 192.139 66.0679C191.912 65.1249 191.7 64.0518 191.57 62.8649C191.343 60.7513 191.408 58.8816 191.57 57.3532C191.928 57.3532 192.497 57.3045 193.082 57.0118C194.399 56.3452 194.838 54.9632 195.033 54.3128C195.505 52.7845 195.245 51.4838 195.066 50.6546C194.903 49.923 194.351 47.3704 192.156 45.4681C189.408 43.1106 185.977 43.4032 184.498 43.517C181.344 43.7934 176.742 45.3543 175.214 48.98Z" fill="white"/>
<path opacity="0.29" d="M189.083 46.3792C189.294 47.371 189.489 48.7042 189.522 50.265C189.522 50.7203 189.554 53.3704 188.725 56.3783C187.343 61.3535 184.27 64.8166 182.823 66.3124C183.815 65.9384 185.132 65.3369 186.514 64.3126C188.221 63.0444 189.31 61.6299 189.977 60.6544C190.205 63.1257 190.432 65.5808 190.66 68.0521C191.148 67.4993 191.635 66.9465 192.123 66.3937C191.831 64.9304 191.57 63.1907 191.522 61.2072C191.473 59.7113 191.554 58.3456 191.684 57.1425C191.928 57.2075 192.367 57.2725 192.871 57.11C193.001 57.0774 193.489 56.9148 194.058 56.2645C194.969 55.2402 195.164 54.0371 195.245 53.533C195.326 52.9965 195.391 52.1998 195.164 50.9804C194.806 49.0131 194.334 46.4442 192.513 45.7613C191.164 45.2898 189.766 45.9727 189.083 46.3792Z" fill="#898989"/>
<path d="M174.596 51.3048C174.125 50.2317 173.653 48.7197 174.011 47.0775C174.548 44.655 176.531 43.3868 178.547 41.6959C180.433 40.135 182.937 37.7287 185.49 34.1031C185.246 35.485 184.986 36.8508 184.742 38.2328C185.782 37.306 186.937 36.3468 188.189 35.3875C189.002 34.7697 189.815 34.2006 190.595 33.6641C190.367 33.973 189.798 34.8347 189.766 36.0704C189.733 37.4361 190.351 38.3791 190.562 38.688C190.79 38.3791 191.164 37.9239 191.636 37.3548C192.302 36.5744 192.497 36.4118 192.839 35.924C193.538 34.9322 193.635 34.2819 193.765 34.2982C193.977 34.3307 194.058 35.794 193.668 41.6308C194.432 40.7691 195.196 39.8912 195.944 39.0294C196.074 40.9317 196.22 42.834 196.351 44.7363C196.513 45.6468 196.643 46.98 196.448 48.5408C196.22 50.2805 195.684 51.63 195.245 52.5242C194.904 52.2153 194.4 51.8576 193.749 51.8251C192.969 51.7926 192.709 52.2315 192.205 52.199C191.115 52.1177 190.953 49.9553 189.603 48.2482C188.286 46.5735 186.384 46.037 185.181 45.6955C184.059 45.3866 180.628 44.4273 177.669 46.4922C175.426 48.053 174.775 50.5081 174.596 51.3048Z" fill="#5222D0"/>
<path d="M175.003 48.8486C174.19 50.4257 174.287 52.2467 174.352 53.9701C174.434 55.9049 174.694 57.856 175.279 59.7095C176.255 62.7824 178.222 65.5951 181.197 66.9771C181.474 67.1072 181.734 66.6845 181.441 66.5544C178.58 65.2212 176.677 62.5385 175.751 59.5794C175.214 57.9048 174.97 56.1488 174.873 54.4091C174.775 52.6532 174.596 50.6859 175.425 49.0763C175.572 48.8161 175.149 48.5722 175.003 48.8486Z" fill="black"/>
<path d="M181.458 67.0082C186.254 65.7562 190.189 62.098 191.798 57.4318C191.896 57.1391 191.424 57.009 191.327 57.3017C189.766 61.8216 185.945 65.3498 181.328 66.5367C181.019 66.6179 181.149 67.0894 181.458 67.0082Z" fill="black"/>
<path d="M191.456 57.469C192.594 57.4527 193.651 57.3064 194.302 56.2821C194.903 55.3391 195.7 53.9083 195.57 52.7539C195.472 51.876 194.578 51.4207 193.781 51.3882C192.838 51.3557 191.977 51.8597 191.505 52.6564C191.342 52.9328 191.765 53.1767 191.928 52.9003C192.318 52.2499 193.017 51.8434 193.781 51.876C194.074 51.8922 194.432 51.9735 194.676 52.1524C195.342 52.6564 195.049 53.4531 194.854 54.0546C194.627 54.7212 194.285 55.4366 193.879 56.0382C193.294 56.8999 192.399 56.965 191.456 56.9812C191.131 56.9812 191.131 57.469 191.456 57.469Z" fill="black"/>
<path d="M191.408 57.1418C191.213 60.1497 191.066 63.1901 191.896 66.1329C191.977 66.4418 192.448 66.3118 192.367 66.0029C191.554 63.1088 191.717 60.1172 191.896 57.1418C191.912 56.8329 191.424 56.8329 191.408 57.1418Z" fill="black"/>
<path d="M185.343 65.1895C185.49 66.3114 185.799 67.4007 186.286 68.425C186.547 68.9941 186.985 70.246 187.75 70.246C188.579 70.246 189.506 69.4493 190.091 68.929C190.953 68.1323 191.701 67.2056 192.481 66.3114C192.692 66.0837 192.351 65.7261 192.14 65.9699C191.57 66.6203 191.001 67.2869 190.4 67.9372C189.798 68.5713 189.018 69.4168 188.14 69.6444C187.587 69.7907 187.424 69.4818 187.164 69.0428C186.953 68.6851 186.758 68.3112 186.595 67.9372C186.189 67.0268 185.945 66.0512 185.815 65.0594C185.766 64.7505 185.295 64.8806 185.343 65.1895Z" fill="black"/>
<path d="M179.669 48.1359C179.425 51.3877 179.344 54.6557 179.457 57.9074C179.457 58.1351 179.799 58.2651 179.913 58.0375C180.368 57.0783 180.823 56.119 181.278 55.1597C181.408 54.8833 180.986 54.6232 180.856 54.9158C180.4 55.8751 179.945 56.8344 179.49 57.7936C179.636 57.8424 179.799 57.8749 179.945 57.9237C179.831 54.6557 179.896 51.404 180.157 48.1522C180.189 47.827 179.701 47.827 179.669 48.1359Z" fill="black"/>
<path d="M181.165 60.6861C180.775 60.4423 180.547 59.922 180.775 59.483C180.937 59.1903 181.263 59.0115 181.539 58.8326C181.832 58.6375 182.108 58.4587 182.336 58.1986C182.612 57.8896 182.758 57.4994 182.954 57.1417C183.327 56.4264 184.092 55.4996 184.921 56.28C185.913 57.223 185.035 59.3529 184.222 60.1659C183.393 60.9788 182.124 61.1576 181.1 60.6536C180.824 60.5236 180.563 60.93 180.856 61.0764C182.157 61.7104 183.783 61.4666 184.742 60.3285C185.685 59.2066 186.547 56.784 185.051 55.7435C184.482 55.3533 183.832 55.4183 183.295 55.841C182.58 56.4264 182.466 57.4344 181.815 58.0522C181.246 58.5888 180.352 58.8001 180.222 59.6781C180.125 60.2797 180.433 60.8 180.921 61.1251C181.181 61.2715 181.425 60.8487 181.165 60.6861Z" fill="black"/>
<path d="M177.588 52.3947C177.786 52.3947 177.946 51.8779 177.946 51.2403C177.946 50.6028 177.786 50.0859 177.588 50.0859C177.391 50.0859 177.23 50.6028 177.23 51.2403C177.23 51.8779 177.391 52.3947 177.588 52.3947Z" fill="black"/>
<path d="M183.392 51.6447C183.59 51.6447 183.75 51.1279 183.75 50.4903C183.75 49.8528 183.59 49.3359 183.392 49.3359C183.195 49.3359 183.035 49.8528 183.035 50.4903C183.035 51.1279 183.195 51.6447 183.392 51.6447Z" fill="black"/>
</svg>
