<svg width="191" height="180" viewBox="0 0 191 180" fill="none" xmlns="http://www.w3.org/2000/svg">
<path d="M5.74843 165.074C17.0012 163.832 28.1756 165.858 39.1658 168.166C49.9651 170.438 60.7371 172.555 71.7273 173.691C82.9404 174.849 94.2215 175.212 105.486 174.775C116.977 174.328 128.411 173.05 139.848 171.952C152.597 170.724 165.392 169.738 178.206 170.318C178.547 170.318 178.547 169.82 178.206 169.807C155.414 168.784 132.854 172.743 110.164 174.038C98.8937 174.688 87.5915 174.545 76.341 173.612C64.8188 172.647 53.4944 170.686 42.1768 168.286C30.2113 165.742 18.0447 163.205 5.75184 164.562C5.41085 164.6 5.41085 165.111 5.75184 165.074H5.74843Z" fill="#E8E8E8"/>
<path d="M94.9218 165.925C117.833 168.025 140.424 161.205 163.236 160.305C169.795 160.046 176.352 160.116 182.908 160.517C183.249 160.537 183.249 160.026 182.908 160.005C171.362 159.317 159.778 159.636 148.287 160.956C136.963 162.262 125.737 164.394 114.365 165.342C107.901 165.931 101.397 165.955 94.9286 165.413C94.5876 165.383 94.6046 165.894 94.9286 165.925H94.9218Z" fill="#E8E8E8"/>
<path d="M2.90116 145.786C24.2031 147.948 44.8434 155.303 66.4317 154.823C66.4996 154.823 66.5646 154.796 66.6126 154.748C66.6605 154.7 66.6875 154.635 66.6875 154.567C66.6875 154.499 66.6605 154.434 66.6126 154.386C66.5646 154.338 66.4996 154.311 66.4317 154.311C44.8571 154.792 24.1894 147.437 2.90116 145.275C2.57722 145.244 2.57722 145.756 2.90116 145.786Z" fill="#E8E8E8"/>
<path d="M90.0655 22.1004C90.3337 20.1845 91.1644 18.3913 92.4525 16.948H92.091C93.4953 18.1327 94.4826 19.7367 94.9077 21.5241C94.9304 21.5831 94.9743 21.6315 95.0307 21.6601C95.0871 21.6887 95.152 21.6953 95.2131 21.6788C95.2741 21.6623 95.3268 21.6237 95.3611 21.5706C95.3954 21.5175 95.4088 21.4535 95.3987 21.3911C94.9533 19.5167 93.9211 17.8335 92.4525 16.5865C92.4045 16.5386 92.3395 16.5117 92.2718 16.5117C92.204 16.5117 92.139 16.5386 92.091 16.5865C90.736 18.0904 89.8557 19.9613 89.5609 21.964C89.5131 22.305 90.0076 22.4243 90.0553 22.1004H90.0655Z" fill="#E8E8E8"/>
<path d="M25.3519 39.323C33.28 39.3639 39.5168 44.5811 45.9036 48.5776C51.9202 52.3649 58.7429 54.6847 65.8211 55.3497C66.1621 55.3804 66.1621 54.8689 65.8211 54.8382C57.8623 54.0949 50.7321 51.1657 44.0963 46.7976C38.3745 43.0262 32.5026 38.8422 25.3417 38.8047C25.2739 38.8047 25.2088 38.8316 25.1608 38.8796C25.1129 38.9276 25.0859 38.9926 25.0859 39.0604C25.0859 39.1283 25.1129 39.1933 25.1608 39.2413C25.2088 39.2892 25.2739 39.3162 25.3417 39.3162L25.3519 39.323Z" fill="#E8E8E8"/>
<path d="M27.7085 58.4183C37.2086 61.061 46.695 63.7753 56.2258 66.3055C65.3474 68.7231 74.5747 70.8612 83.9725 71.8534C103.293 73.8994 121.86 68.9789 140.762 65.8247C151.833 63.9865 162.995 62.7492 174.199 62.1181C174.54 62.101 174.54 61.5895 174.199 61.6066C164.713 62.1454 155.264 63.1126 145.853 64.5084C136.376 65.9202 127.013 67.9661 117.574 69.5927C107.975 71.2499 98.2874 72.3206 88.5384 71.7307C78.7212 71.1203 69.0574 69.0846 59.5539 66.6499C48.9388 63.9219 38.4123 60.853 27.8415 57.9341C27.7785 57.9223 27.7134 57.9345 27.6591 57.9684C27.6047 58.0022 27.565 58.0553 27.5479 58.117C27.5308 58.1787 27.5374 58.2446 27.5665 58.3016C27.5956 58.3587 27.6451 58.4028 27.7051 58.4251L27.7085 58.4183Z" fill="#E8E8E8"/>
<path d="M131.814 38.5836C150.914 33.1821 170.641 30.308 190.488 30.0349C190.556 30.0349 190.621 30.008 190.669 29.96C190.717 29.9121 190.744 29.847 190.744 29.7792C190.744 29.7114 190.717 29.6463 190.669 29.5983C190.621 29.5504 190.556 29.5234 190.488 29.5234C170.594 29.7966 150.822 32.6776 131.677 38.0926C131.617 38.115 131.568 38.159 131.539 38.2161C131.51 38.2731 131.503 38.339 131.52 38.4007C131.537 38.4624 131.577 38.5155 131.631 38.5493C131.686 38.5832 131.751 38.5955 131.814 38.5836Z" fill="#E8E8E8"/>
<path d="M21.325 102.462C31.2502 105.005 40.9735 108.279 50.4152 112.258C59.1651 115.934 68.0923 119.948 77.7799 119.76C77.8478 119.76 77.9128 119.733 77.9608 119.685C78.0087 119.637 78.0357 119.572 78.0357 119.505C78.0357 119.437 78.0087 119.372 77.9608 119.324C77.9128 119.276 77.8478 119.249 77.7799 119.249C67.9286 119.436 58.8752 115.246 49.9821 111.522C40.7214 107.646 31.1889 104.455 21.4614 101.974C21.4289 101.965 21.395 101.963 21.3616 101.967C21.3282 101.971 21.2959 101.982 21.2666 101.998C21.2373 102.015 21.2116 102.037 21.1909 102.064C21.1702 102.09 21.1549 102.121 21.146 102.153C21.137 102.186 21.1345 102.219 21.1387 102.253C21.1428 102.286 21.1535 102.319 21.1701 102.348C21.1868 102.377 21.209 102.403 21.2356 102.424C21.2621 102.444 21.2925 102.46 21.325 102.469V102.462Z" fill="#E8E8E8"/>
<path d="M17.1922 18.9509C17.7968 18.9509 18.2868 18.4608 18.2868 17.8563C18.2868 17.2518 17.7968 16.7617 17.1922 16.7617C16.5877 16.7617 16.0977 17.2518 16.0977 17.8563C16.0977 18.4608 16.5877 18.9509 17.1922 18.9509Z" fill="#461EB8"/>
<path d="M96.1662 1.51401C96.5843 1.51401 96.9232 1.17509 96.9232 0.757007C96.9232 0.338923 96.5843 0 96.1662 0C95.7481 0 95.4092 0.338923 95.4092 0.757007C95.4092 1.17509 95.7481 1.51401 96.1662 1.51401Z" fill="#461EB8"/>
<path d="M118.597 80.5467C119.309 80.5467 119.886 79.9696 119.886 79.2577C119.886 78.5458 119.309 77.9688 118.597 77.9688C117.885 77.9688 117.308 78.5458 117.308 79.2577C117.308 79.9696 117.885 80.5467 118.597 80.5467Z" fill="#461EB8"/>
<path d="M179.161 51.057C179.69 51.057 180.119 50.628 180.119 50.0988C180.119 49.5696 179.69 49.1406 179.161 49.1406C178.632 49.1406 178.203 49.5696 178.203 50.0988C178.203 50.628 178.632 51.057 179.161 51.057Z" fill="#461EB8"/>
<path d="M41.8732 142.565C42.6472 142.565 43.2747 141.937 43.2747 141.163C43.2747 140.389 42.6472 139.762 41.8732 139.762C41.0991 139.762 40.4717 140.389 40.4717 141.163C40.4717 141.937 41.0991 142.565 41.8732 142.565Z" fill="#461EB8"/>
<path d="M55.1412 167.449C56.0376 167.449 56.7643 166.723 56.7643 165.826C56.7643 164.93 56.0376 164.203 55.1412 164.203C54.2448 164.203 53.5181 164.93 53.5181 165.826C53.5181 166.723 54.2448 167.449 55.1412 167.449Z" fill="#461EB8"/>
<path d="M134.225 133.871C134.758 133.871 135.19 133.439 135.19 132.906C135.19 132.373 134.758 131.941 134.225 131.941C133.692 131.941 133.26 132.373 133.26 132.906C133.26 133.439 133.692 133.871 134.225 133.871Z" fill="#461EB8"/>
<path d="M35.4521 24.125C36.0303 24.125 36.499 23.6563 36.499 23.0781C36.499 22.4999 36.0303 22.0312 35.4521 22.0312C34.874 22.0312 34.4053 22.4999 34.4053 23.0781C34.4053 23.6563 34.874 24.125 35.4521 24.125Z" fill="#EC615B"/>
<path d="M43.5098 54.9346C43.9599 54.9346 44.3248 54.5698 44.3248 54.1197C44.3248 53.6696 43.9599 53.3047 43.5098 53.3047C43.0597 53.3047 42.6948 53.6696 42.6948 54.1197C42.6948 54.5698 43.0597 54.9346 43.5098 54.9346Z" fill="#EC615B"/>
<path d="M158.339 17.8564C159.027 17.8564 159.584 17.2992 159.584 16.6118C159.584 15.9244 159.027 15.3672 158.339 15.3672C157.652 15.3672 157.095 15.9244 157.095 16.6118C157.095 17.2992 157.652 17.8564 158.339 17.8564Z" fill="#EC615B"/>
<path d="M97.4038 76.3076C98.0874 76.3076 98.6416 75.7535 98.6416 75.0698C98.6416 74.3862 98.0874 73.832 97.4038 73.832C96.7202 73.832 96.166 74.3862 96.166 75.0698C96.166 75.7535 96.7202 76.3076 97.4038 76.3076Z" fill="#EC615B"/>
<path d="M103.832 142.565C104.606 142.565 105.233 141.937 105.233 141.163C105.233 140.389 104.606 139.762 103.832 139.762C103.058 139.762 102.43 140.389 102.43 141.163C102.43 141.937 103.058 142.565 103.832 142.565Z" fill="#EC615B"/>
<path d="M186.854 139.766C187.372 139.766 187.791 139.346 187.791 138.828C187.791 138.31 187.372 137.891 186.854 137.891C186.336 137.891 185.916 138.31 185.916 138.828C185.916 139.346 186.336 139.766 186.854 139.766Z" fill="#EC615B"/>
<path d="M41.3073 13.9458C41.9893 12.9569 43.0293 11.8009 44.1648 12.9023C44.574 13.2979 44.8093 13.7923 45.3515 14.0378C45.7647 14.2151 46.2235 14.2564 46.6617 14.1559C47.1 14.0554 47.4949 13.8182 47.7896 13.4786C48.2431 13.0012 47.5236 12.2783 47.0667 12.7557C45.9721 13.9083 45.2083 12.2647 44.4001 11.7089C44.022 11.4457 43.563 11.3249 43.1043 11.3679C41.8597 11.4667 41.0891 12.4659 40.4241 13.4138C40.0456 13.9526 40.9322 14.4641 41.3073 13.9287V13.9458Z" fill="#EC615B"/>
<path d="M46.3741 16.0132C47.3221 15.7267 48.1882 16.8691 49.068 17.1316C49.3786 17.249 49.7166 17.2731 50.0407 17.201C50.3648 17.1289 50.6608 16.9638 50.8923 16.7259C51.339 16.2451 50.6161 15.5187 50.166 16.003C49.5522 16.6645 48.5122 15.662 47.9632 15.321C47.6934 15.1385 47.3873 15.0166 47.0659 14.9636C46.7445 14.9107 46.4155 14.9279 46.1014 15.0141C45.4739 15.205 45.7399 16.1905 46.3741 15.9995V16.0132Z" fill="#EC615B"/>
<path d="M125.168 154.99C125.244 155.369 125.451 155.71 125.754 155.951C126.056 156.192 126.434 156.319 126.821 156.309C128.148 156.34 129.116 154.72 130.429 155.065C130.558 155.096 130.695 155.076 130.81 155.009C130.924 154.942 131.008 154.833 131.044 154.704C131.079 154.576 131.064 154.439 131 154.322C130.936 154.206 130.829 154.119 130.702 154.079C130.054 153.91 129.365 154.001 128.782 154.332C128.223 154.615 126.375 156.115 126.153 154.717C126.051 154.069 125.065 154.345 125.168 154.99Z" fill="#EC615B"/>
<path d="M130.013 158.33C130.248 157.625 130.647 157.065 131.415 157.427C131.781 157.654 132.123 157.916 132.438 158.211C133.031 158.658 133.621 158.893 134.316 158.532C134.906 158.238 134.388 157.355 133.802 157.648C133.355 157.87 132.751 157.144 132.438 156.902C132.086 156.591 131.663 156.373 131.207 156.267C130.047 156.087 129.345 157.086 129.024 158.061C128.816 158.685 129.805 158.954 130.01 158.33H130.013Z" fill="#EC615B"/>
<path d="M1.00164 101.171C1.29148 99.9571 1.91209 99.4149 3.0817 100.148C3.6989 100.537 4.15242 101.123 4.80372 101.478C5.70736 101.966 6.65191 102.061 7.43619 101.335C7.917 100.885 7.19409 100.162 6.70988 100.612C5.63234 101.614 3.44657 98.8011 2.19171 98.709C0.858422 98.6101 0.285553 99.7695 0.0161679 100.888C-0.137279 101.529 0.848193 101.802 1.00164 101.161V101.171Z" fill="#461EB8"/>
<path d="M4.32632 103.364C5.90171 104.745 8.62625 106.46 10.338 104.258C10.737 103.743 10.0175 103.013 9.61513 103.531C8.28526 105.236 6.20519 103.668 5.05263 102.641C4.55819 102.208 3.83188 102.931 4.32632 103.364Z" fill="#461EB8"/>
<path d="M126.443 7.0328C126.968 6.17349 128.51 7.52724 129.052 7.73865C129.689 7.97902 130.375 8.05753 131.05 7.96712C131.641 7.89032 132.209 7.6915 132.718 7.3833C133.228 7.0751 133.668 6.66427 134.01 6.1769C134.402 5.64836 133.515 5.15392 133.127 5.662C132.801 6.09972 132.371 6.44932 131.877 6.67915C131.382 6.90898 130.838 7.01178 130.293 6.97824C129.308 6.92709 128.711 6.2451 127.852 5.9041C126.992 5.56311 126.072 5.67905 125.557 6.52471C125.216 7.08735 126.095 7.60226 126.44 7.03962L126.443 7.0328Z" fill="#461EB8"/>
<path d="M130.665 9.94683C132.878 7.55987 136.966 12.3338 139.285 9.10799C139.67 8.57263 138.78 8.06114 138.402 8.59309C137.184 10.281 134.501 8.59309 132.977 8.36121C131.81 8.17707 130.76 8.33393 129.942 9.22392C129.495 9.70814 130.218 10.4345 130.665 9.94683Z" fill="#461EB8"/>
<path d="M16.1006 83.6016C22.8454 85.3372 31.6397 87.3866 42.0161 89.2348C46.5207 90.0395 66.6973 93.5449 89.5677 94.4179C126.204 95.8194 158.817 90.0463 177.009 86.0806C176.484 90.9636 175.957 95.8512 175.43 100.743C150.403 104.095 125.185 105.827 99.9339 105.926C72.0406 106.031 44.1753 104.144 16.5507 100.28L16.1006 83.6016Z" fill="#461EB8"/>
<path d="M122.106 110.247C121.84 108.713 119.378 108.856 114.16 106.415C110.682 104.788 110.444 104.099 105.076 101.3C103.498 100.478 102.113 99.8096 101.022 99.2981C100.546 98.3977 99.7978 97.6706 98.8842 97.2205C97.9706 96.7704 96.9382 96.6203 95.9342 96.7915C94.9303 96.9627 94.006 97.4466 93.2933 98.1741C92.5806 98.9016 92.1157 99.8355 91.9651 100.843C86.2978 104.546 81.4898 106.111 77.9843 106.834C75.4849 107.349 71.4407 107.891 71.0281 109.814C70.7928 110.933 71.9726 111.622 73.4423 113.93C76.2657 118.363 75.1473 120.886 76.7056 121.596C79.6518 122.926 86.3455 115.291 90.9012 110.101C91.3513 109.582 91.7605 109.108 92.1322 108.672C91.3479 111.011 90.5977 113.582 89.9396 116.368C88.7122 121.588 87.9533 126.907 87.672 132.262L90.342 127.928C91.2035 129.999 92.0674 132.068 92.9335 134.134C94.3862 124.879 95.8411 115.625 97.2982 106.37C97.6471 106.33 97.9903 106.249 98.3212 106.132C98.6213 108.566 98.86 111.127 99.0032 113.804C99.3724 120.326 99.1968 126.867 98.4781 133.36L102.174 127.979L105.192 131.652L101.254 105.872C106.106 110.824 110.236 122.98 113.591 122.175C114.907 121.858 114.484 119.935 117.567 115.928C120.322 112.341 122.354 111.68 122.106 110.247Z" fill="#EC615B"/>
<path d="M123.899 21.5117H62.043V63.1914H123.899V21.5117Z" fill="black"/>
<path d="M121.908 23.9062H64.0137V60.7575H121.908V23.9062Z" fill="white" stroke="black" stroke-width="0.5" stroke-miterlimit="10"/>
<path d="M72.2898 62.6949C72.4255 62.6949 72.5556 62.641 72.6515 62.545C72.7474 62.4491 72.8013 62.319 72.8013 62.1834C72.8013 62.0477 72.7474 61.9176 72.6515 61.8217C72.5556 61.7258 72.4255 61.6719 72.2898 61.6719C72.1542 61.6719 72.0241 61.7258 71.9281 61.8217C71.8322 61.9176 71.7783 62.0477 71.7783 62.1834C71.7783 62.319 71.8322 62.4491 71.9281 62.545C72.0241 62.641 72.1542 62.6949 72.2898 62.6949Z" fill="black"/>
<path d="M63.639 51.7234C66.4352 50.0832 69.8008 50.6288 72.8254 51.2119C75.5975 51.7728 78.331 52.5097 81.0093 53.4182C86.7721 55.3039 92.4769 57.3771 98.2022 59.3719C98.5125 59.4776 98.6455 58.9866 98.3386 58.8775C92.0234 56.6781 85.7389 54.3184 79.3486 52.3508C74.7111 50.9255 67.9697 48.5999 63.3833 51.2835C63.3293 51.32 63.2912 51.3756 63.2768 51.4391C63.2624 51.5027 63.2728 51.5693 63.3059 51.6254C63.339 51.6815 63.3922 51.7229 63.4547 51.7411C63.5173 51.7593 63.5844 51.753 63.6424 51.7234H63.639Z" fill="black"/>
<path d="M86.5092 54.8745C98.4133 55.7645 110.137 52.7467 122.024 52.7773C122.092 52.7773 122.157 52.7504 122.205 52.7024C122.252 52.6545 122.279 52.5894 122.279 52.5216C122.279 52.4538 122.252 52.3887 122.205 52.3408C122.157 52.2928 122.092 52.2659 122.024 52.2659C110.137 52.2352 98.4133 55.253 86.5092 54.363C86.1682 54.3357 86.1682 54.8472 86.5092 54.8745Z" fill="black"/>
<path d="M106.369 53.4751C105.868 52.9022 106.219 52.0361 106.775 51.6371C107.33 51.2381 108.111 51.1392 108.797 51.0642C109.121 51.0301 109.138 50.5152 108.797 50.5527C107.815 50.6584 106.669 50.8085 106.028 51.6576C105.771 51.9613 105.628 52.3454 105.624 52.7433C105.62 53.1413 105.756 53.528 106.007 53.8365C106.226 54.0854 106.587 53.724 106.369 53.4751Z" fill="black"/>
<path d="M109.257 49.8491C109.157 49.6242 109.123 49.3759 109.158 49.1324C109.193 48.889 109.295 48.6603 109.454 48.4723C109.613 48.2842 109.821 48.1445 110.055 48.069C110.289 47.9936 110.539 47.9853 110.778 48.0453C111.098 48.1203 111.235 47.6258 110.914 47.5508C110.578 47.4667 110.225 47.4798 109.895 47.5885C109.566 47.6972 109.275 47.8971 109.055 48.165C108.835 48.4329 108.695 48.7577 108.653 49.1017C108.61 49.4457 108.666 49.7947 108.814 50.1083C108.947 50.4083 109.386 50.1492 109.257 49.8491Z" fill="black"/>
<path d="M111.225 47.7314C111.164 47.498 111.157 47.254 111.203 47.0175C111.25 46.781 111.35 46.5581 111.495 46.3654C111.639 46.1727 111.826 46.0151 112.04 45.9045C112.254 45.7939 112.491 45.733 112.732 45.7263C112.8 45.7263 112.865 45.6994 112.913 45.6514C112.961 45.6035 112.987 45.5384 112.987 45.4706C112.987 45.4028 112.961 45.3377 112.913 45.2897C112.865 45.2418 112.8 45.2148 112.732 45.2148C112.413 45.2231 112.099 45.3033 111.815 45.4495C111.532 45.5956 111.284 45.804 111.092 46.059C110.9 46.3141 110.768 46.6092 110.706 46.9224C110.644 47.2356 110.653 47.5587 110.733 47.8678C110.756 47.9278 110.8 47.9773 110.857 48.0064C110.914 48.0355 110.98 48.0421 111.042 48.025C111.103 48.0078 111.156 47.9681 111.19 47.9138C111.224 47.8594 111.236 47.7943 111.225 47.7314Z" fill="black"/>
<path d="M114.055 46.4123C114.055 45.6109 114.976 46.1361 115.225 46.3611C115.424 46.5408 115.6 46.7461 115.746 46.9715C116.018 47.3941 116.197 47.8694 116.271 48.3662C116.326 48.7071 116.82 48.5503 116.766 48.2298C116.695 47.7329 116.525 47.2556 116.265 46.8265C116.004 46.3975 115.66 46.0257 115.252 45.7337C114.594 45.3108 113.547 45.4677 113.547 46.4157C113.547 46.4835 113.574 46.5485 113.622 46.5965C113.67 46.6445 113.735 46.6714 113.803 46.6714C113.87 46.6714 113.935 46.6445 113.983 46.5965C114.031 46.5485 114.058 46.4835 114.058 46.4157L114.055 46.4123Z" fill="black"/>
<path d="M117.352 48.074L118.409 48.4866C118.627 48.5718 118.931 48.6878 119.122 48.4866C119.436 48.1456 118.829 47.6511 118.593 48.0706C118.433 48.357 118.876 48.6161 119.037 48.3297L119.054 48.2922L118.836 48.4218L118.696 48.2376L118.812 48.0842C118.723 48.1456 118.3 47.9103 118.211 47.8762L117.489 47.5966C117.182 47.4772 117.049 47.9717 117.352 48.0876V48.074Z" fill="black"/>
<path d="M119.402 48.0387C119.649 47.8832 119.944 47.824 120.232 47.8725C120.52 47.9209 120.78 48.0735 120.963 48.3012C121.175 48.5536 121.536 48.1887 121.325 47.9398C121.061 47.6332 120.696 47.4306 120.296 47.3681C119.896 47.3056 119.487 47.3874 119.142 47.5988C118.863 47.7727 119.118 48.216 119.402 48.0387Z" fill="black"/>
<path d="M65.6608 49.5348C65.5434 49.3865 65.4743 49.2059 65.4625 49.0172C65.4507 48.8285 65.4968 48.6406 65.5948 48.4789C65.6927 48.3172 65.8377 48.1892 66.0104 48.1122C66.1831 48.0352 66.3752 48.0128 66.561 48.048C66.8815 48.1094 67.0213 47.615 66.6974 47.557C66.4139 47.4946 66.1181 47.5196 65.8491 47.6287C65.5801 47.7378 65.3505 47.9259 65.1906 48.1682C65.0307 48.4105 64.948 48.6955 64.9534 48.9858C64.9588 49.276 65.0521 49.5578 65.2209 49.7939C65.4084 50.0599 65.8517 49.7939 65.6608 49.5348Z" fill="black"/>
<path d="M65.1595 45.1583C65.0333 44.4763 65.6676 44.0125 66.2711 43.9375C66.8586 43.9127 67.4434 44.0296 67.9761 44.2785C68.283 44.3944 68.416 43.9 68.1125 43.7841C67.2839 43.4772 66.2984 43.1805 65.4698 43.6545C65.1769 43.805 64.9403 44.0457 64.7947 44.3411C64.6492 44.6364 64.6025 44.9707 64.6616 45.2947C64.7196 45.6356 65.214 45.4822 65.1561 45.1583H65.1595Z" fill="black"/>
<path d="M68.8288 45.3083C68.8616 45.1932 68.9199 45.0871 68.9995 44.9977C69.079 44.9083 69.1777 44.8381 69.2882 44.7922C69.3987 44.7463 69.5181 44.7259 69.6375 44.7326C69.757 44.7394 69.8733 44.7729 69.978 44.8309C70.3968 45.0932 70.6956 45.5096 70.81 45.9903C70.9157 46.3006 71.4102 46.1676 71.3045 45.8539C71.0692 45.148 70.6225 44.3808 69.8143 44.2444C69.4961 44.1792 69.1651 44.2393 68.8901 44.4121C68.615 44.5848 68.4172 44.857 68.3378 45.1719C68.2764 45.5129 68.7675 45.6323 68.8288 45.3083Z" fill="black"/>
<path d="M71.6316 47.9792C71.698 47.8966 71.7842 47.8321 71.8821 47.7916C71.98 47.7511 72.0866 47.736 72.1919 47.7475C72.2973 47.7591 72.398 47.797 72.4848 47.8577C72.5716 47.9185 72.6417 48.0001 72.6887 48.0951C72.6996 48.1325 72.7189 48.1669 72.7449 48.1958C72.771 48.2247 72.8033 48.2474 72.8393 48.2622C72.8753 48.2769 72.9142 48.2833 72.9531 48.281C72.992 48.2786 73.0298 48.2675 73.0638 48.2486C73.3042 48.0884 73.5893 48.0087 73.8779 48.0209C74.1666 48.0332 74.4439 48.1368 74.6699 48.3167C74.929 48.5145 75.2905 48.1565 75.0313 47.9553C74.7245 47.6978 74.3438 47.5445 73.9442 47.5176C73.5445 47.4906 73.1467 47.5913 72.808 47.8053L73.1831 47.9587C73.1121 47.7771 72.9957 47.6167 72.845 47.493C72.6942 47.3692 72.5142 47.2863 72.3222 47.252C72.1302 47.2178 71.9327 47.2335 71.7484 47.2975C71.5642 47.3615 71.3995 47.4718 71.2702 47.6177C71.0587 47.8701 71.4202 48.2315 71.6316 47.9792Z" fill="black"/>
<path d="M75.2836 47.5546C75.5084 47.4926 75.7435 47.478 75.9742 47.5117C76.2048 47.5455 76.4259 47.6268 76.6235 47.7506C76.821 47.8744 76.9906 48.0379 77.1216 48.2307C77.2526 48.4236 77.342 48.6416 77.3842 48.8708C77.4421 49.2118 77.9366 49.0584 77.8786 48.7344C77.8179 48.4407 77.6977 48.1624 77.5254 47.9169C77.3531 47.6713 77.1325 47.4636 76.877 47.3064C76.6215 47.1493 76.3365 47.0461 76.0396 47.0031C75.7427 46.9602 75.4402 46.9784 75.1507 47.0567C75.1182 47.0657 75.0878 47.0809 75.0612 47.1016C75.0347 47.1223 75.0124 47.1481 74.9958 47.1774C74.9792 47.2066 74.9685 47.2389 74.9644 47.2723C74.9602 47.3058 74.9627 47.3397 74.9716 47.3721C74.9806 47.4046 74.9959 47.435 75.0165 47.4616C75.0372 47.4881 75.063 47.5104 75.0923 47.527C75.1216 47.5436 75.1538 47.5543 75.1873 47.5584C75.2207 47.5626 75.2546 47.5601 75.2871 47.5512L75.2836 47.5546Z" fill="black"/>
<path d="M77.4114 50.0926C77.5607 49.9976 77.7307 49.9396 77.907 49.9237C78.0833 49.9078 78.2608 49.9343 78.4248 50.0011C78.5887 50.0679 78.7343 50.1729 78.8493 50.3075C78.9643 50.4421 79.0453 50.6023 79.0857 50.7746C79.1539 51.1156 79.6484 50.9622 79.5802 50.6382C79.5168 50.3919 79.3963 50.1639 79.2285 49.9728C79.0607 49.7817 78.8502 49.6328 78.6141 49.5382C78.378 49.4435 78.123 49.4058 77.8696 49.4281C77.6162 49.4504 77.3716 49.532 77.1557 49.6664C76.8829 49.8505 77.1386 50.2938 77.4114 50.1063V50.0926Z" fill="black"/>
<path d="M80.3236 51.3228C80.7464 51.3058 81.5853 51.2887 81.5342 51.923C81.5069 52.264 82.0184 52.264 82.0456 51.923C82.0535 51.7432 82.0126 51.5647 81.9274 51.4063C81.8421 51.2478 81.7157 51.1153 81.5614 51.0228C81.1797 50.8288 80.7481 50.7551 80.3236 50.8114C79.9826 50.8114 79.9826 51.3365 80.3236 51.3228Z" fill="black"/>
<path d="M101.469 29.5685C102.553 26.7622 106.662 28.8081 105.261 31.3144C104.036 33.507 101.09 32.4602 100.753 30.2335C100.701 29.8925 100.21 30.0459 100.258 30.3665C100.35 31.0584 100.671 31.6996 101.17 32.1879C101.668 32.6762 102.316 32.9833 103.01 33.0603C103.707 33.0929 104.393 32.875 104.943 32.446C105.494 32.0169 105.872 31.4051 106.011 30.7211C106.094 30.0891 105.955 29.4477 105.618 28.9067C105.281 28.3656 104.767 27.9583 104.163 27.7545C102.799 27.3043 101.469 28.1568 100.974 29.4321C100.855 29.739 101.349 29.872 101.469 29.5685Z" fill="black"/>
<path d="M78.6288 47.8712C80.2874 47.8296 81.947 47.8957 83.5971 48.0689C83.9381 48.103 83.921 47.5916 83.5971 47.5575C81.947 47.3842 80.2874 47.3182 78.6288 47.3597C78.561 47.3597 78.4959 47.3866 78.448 47.4346C78.4 47.4825 78.373 47.5476 78.373 47.6154C78.373 47.6833 78.4 47.7483 78.448 47.7963C78.4959 47.8442 78.561 47.8712 78.6288 47.8712Z" fill="black"/>
<path d="M81.3601 46.3757C81.4602 46.2698 81.5931 46.2008 81.7372 46.1798C81.8814 46.1588 82.0284 46.1869 82.1546 46.2597C82.3114 46.287 82.4649 46.3109 82.6218 46.3314C82.9823 46.3469 83.3433 46.316 83.6959 46.2393C84.7564 46.0517 86.6318 45.3732 87.1604 46.8531C87.2695 47.16 87.7639 47.027 87.6514 46.7167C86.9694 44.8139 84.845 45.6016 83.3924 45.7653C82.7513 45.8369 82.1989 45.588 81.5885 45.605C81.4619 45.5917 81.3339 45.6089 81.2153 45.6552C81.0966 45.7015 80.9908 45.7755 80.9066 45.871C80.8457 45.9413 80.8016 46.0246 80.7776 46.1145C80.7536 46.2043 80.7504 46.2985 80.7681 46.3898C80.7858 46.4811 80.8241 46.5672 80.88 46.6415C80.9359 46.7159 81.0079 46.7766 81.0907 46.819C81.1495 46.8533 81.2195 46.863 81.2854 46.8457C81.3512 46.8284 81.4075 46.7857 81.4419 46.7269C81.4763 46.6681 81.4859 46.5981 81.4686 46.5322C81.4514 46.4664 81.4086 46.4101 81.3499 46.3757H81.3601Z" fill="black"/>
<path d="M88.3202 48.9792C88.5605 48.8231 88.8501 48.7618 89.133 48.8071C89.4159 48.8525 89.6719 49.0013 89.8513 49.2247C90.0627 49.4804 90.4242 49.1156 90.2127 48.8632C89.9531 48.5593 89.5926 48.3593 89.1974 48.2998C88.8021 48.2403 88.3987 48.3253 88.0611 48.5393C87.7849 48.7166 88.0406 49.1599 88.3202 48.9792Z" fill="black"/>
<path d="M88.9168 51.2881C89.1589 50.4287 90.3763 51.005 90.9014 51.08C91.4265 51.1551 92.1699 51.0084 92.4802 51.5302C92.5174 51.5814 92.5723 51.6169 92.6343 51.63C92.6962 51.643 92.7608 51.6327 92.8156 51.6008C92.8703 51.569 92.9113 51.518 92.9306 51.4577C92.9499 51.3974 92.9461 51.3321 92.9201 51.2744C92.4222 50.4322 91.1912 50.6402 90.366 50.439C89.609 50.2514 88.6611 50.2514 88.4258 51.1517C88.414 51.2146 88.4262 51.2797 88.4601 51.3341C88.4939 51.3884 88.547 51.4281 88.6087 51.4452C88.6704 51.4624 88.7363 51.4557 88.7933 51.4266C88.8504 51.3975 88.8945 51.3481 88.9168 51.2881Z" fill="black"/>
<path d="M90.0797 48.0192C90.517 47.7668 91.021 47.6538 91.5242 47.6952C92.0275 47.7367 92.5061 47.9306 92.8963 48.2511C93.1486 48.4591 93.5101 48.0977 93.2577 47.8897C92.7859 47.4917 92.2032 47.2483 91.5885 47.1922C90.9738 47.1361 90.3567 47.27 89.8205 47.576C89.7617 47.6103 89.719 47.6666 89.7017 47.7325C89.6845 47.7984 89.6941 47.8684 89.7285 47.9272C89.7628 47.986 89.8191 48.0287 89.885 48.046C89.9509 48.0632 90.0209 48.0536 90.0797 48.0192Z" fill="black"/>
<path d="M93.8715 48.4002C94.3733 48.1343 94.9596 48.0769 95.5034 48.2403C96.0472 48.4037 96.5047 48.7748 96.7768 49.2732C96.9302 49.563 97.3735 49.3038 97.2167 49.014C96.8756 48.4001 96.3065 47.9453 95.6325 47.7481C94.9585 47.5509 94.2339 47.6271 93.6158 47.9603C93.3259 48.1172 93.5817 48.5605 93.8715 48.4002Z" fill="black"/>
<path d="M97.1075 50.6765C97.2947 50.4473 97.5335 50.2657 97.8043 50.1463C98.075 50.0269 98.3702 49.9732 98.6657 49.9895C98.9611 50.0058 99.2486 50.0916 99.5046 50.24C99.7606 50.3884 99.9779 50.5952 100.139 50.8436C100.178 50.893 100.233 50.9265 100.295 50.9377C100.357 50.9488 100.421 50.9368 100.474 50.9039C100.528 50.871 100.567 50.8196 100.585 50.7594C100.603 50.6992 100.599 50.6345 100.572 50.5776C100.372 50.261 100.101 49.9959 99.7794 49.8037C99.4582 49.6114 99.0963 49.4974 98.7229 49.4709C98.3495 49.4443 97.975 49.506 97.6299 49.6508C97.2847 49.7957 96.9784 50.0197 96.7358 50.3048C96.5346 50.5605 96.896 50.9254 97.0972 50.6662L97.1075 50.6765Z" fill="black"/>
<path d="M97.5574 47.7092C99.2624 47.0272 100.937 47.6819 102.672 47.7092C104.302 47.7433 105.881 47.3034 107.446 46.867C107.512 46.8489 107.568 46.8055 107.601 46.7463C107.635 46.6872 107.643 46.6171 107.625 46.5515C107.607 46.486 107.564 46.4303 107.505 46.3967C107.445 46.3631 107.375 46.3544 107.31 46.3725C105.295 46.9386 103.388 47.3341 101.291 47.0545C99.9444 46.884 98.7168 46.6862 97.421 47.1909C97.1175 47.3103 97.2505 47.8047 97.5574 47.6853V47.7092Z" fill="black"/>
<path d="M103.545 46.2037C104.306 44.7613 105.496 45.3273 106.666 44.7852C106.983 44.6351 107.232 44.3657 107.538 44.1952C108.268 43.7981 109.122 43.6956 109.925 43.9088C110.246 43.977 110.386 43.486 110.062 43.4144C109.525 43.2765 108.965 43.2521 108.418 43.3427C107.59 43.4996 107.02 44.0452 106.25 44.3112C104.916 44.7715 103.863 44.4953 103.109 45.9445C102.956 46.2344 103.399 46.4935 103.552 46.2037H103.545Z" fill="black"/>
<path d="M68.6515 33.6752C70.7503 34.189 72.8837 34.5491 75.0349 34.7528C77.3605 34.9642 80.218 34.4697 82.3867 35.4143C82.6868 35.5473 82.9459 35.104 82.6459 34.9744C80.842 34.1867 78.8745 34.4561 76.9547 34.3708C74.1949 34.2398 71.4542 33.8424 68.7708 33.1842C68.4503 33.1058 68.3139 33.6002 68.6344 33.6752H68.6515Z" fill="black"/>
<path d="M69.5415 33.0194C68.9788 32.6784 67.9081 31.9964 68.348 31.219C68.8356 30.3426 70.053 30.7552 70.735 31.0417C71.0419 31.1644 71.1748 30.67 70.8714 30.5472C69.9029 30.1517 68.3582 29.8652 67.8331 31.0894C67.3762 32.1567 68.4673 32.9955 69.2687 33.4764C69.3267 33.5059 69.3938 33.5123 69.4564 33.4941C69.5189 33.4759 69.5722 33.4345 69.6052 33.3783C69.6383 33.3222 69.6487 33.2556 69.6343 33.1921C69.6199 33.1285 69.5819 33.0729 69.5278 33.0365L69.5415 33.0194Z" fill="black"/>
<path d="M73.4867 30.8709C73.5545 30.8709 73.6196 30.8439 73.6675 30.796C73.7155 30.748 73.7424 30.6829 73.7424 30.6151C73.7424 30.5473 73.7155 30.4822 73.6675 30.4343C73.6196 30.3863 73.5545 30.3594 73.4867 30.3594C73.4189 30.3594 73.3538 30.3863 73.3059 30.4343C73.2579 30.4822 73.231 30.5473 73.231 30.6151C73.231 30.6829 73.2579 30.748 73.3059 30.796C73.3538 30.8439 73.4189 30.8709 73.4867 30.8709Z" fill="black"/>
<path d="M74.5917 28.7238C75.7128 29.3353 76.5572 30.3529 76.9513 31.5676C77.0536 31.878 77.5481 31.745 77.4458 31.4313C77.0121 30.0886 76.0829 28.9619 74.8474 28.2805C74.561 28.1202 74.3018 28.5635 74.5917 28.7238Z" fill="black"/>
<path d="M77.6434 31.9001C77.5649 31.7992 77.5284 31.6719 77.5418 31.5447C77.5551 31.4175 77.6172 31.3005 77.715 31.2181C77.8503 31.1166 78.0148 31.0617 78.1839 31.0617C78.353 31.0617 78.5175 31.1166 78.6528 31.2181C79.1302 31.4943 79.3689 32.0502 79.5905 32.531C79.7303 32.8276 80.1702 32.5685 80.0338 32.2718C79.6553 31.4534 79.062 30.4577 78.0049 30.5668C77.2581 30.6419 76.7296 31.5216 77.2001 32.1695C77.3945 32.4355 77.8378 32.1695 77.6434 31.9138V31.9001Z" fill="black"/>
<path d="M81.5106 33.8681L81.7186 33.1862L81.5412 33.3635C81.7927 33.312 82.0543 33.3525 82.2783 33.4777C82.5024 33.6028 82.674 33.8043 82.762 34.0455C82.8711 34.3558 83.3656 34.2228 83.2564 33.9091C83.1305 33.5377 82.8719 33.2258 82.5302 33.0333C82.1885 32.8407 81.7878 32.781 81.4048 32.8656C81.3619 32.877 81.3227 32.8993 81.291 32.9304C81.2593 32.9614 81.2363 33.0002 81.2241 33.0429L81.0195 33.7249C81.0077 33.7879 81.02 33.853 81.0538 33.9073C81.0877 33.9617 81.1407 34.0014 81.2024 34.0185C81.2641 34.0356 81.33 34.029 81.3871 33.9999C81.4441 33.9708 81.4882 33.9214 81.5106 33.8613V33.8681Z" fill="black"/>
<path d="M83.5016 37.9015C86.3797 38.438 89.3155 38.5962 92.2345 38.3721C92.5584 38.3482 92.5755 37.8367 92.2345 37.8606C89.3615 38.0851 86.4715 37.9326 83.638 37.4071C83.3175 37.3491 83.1777 37.8402 83.5016 37.9015Z" fill="black"/>
<path d="M83.7917 36.8933C83.3007 36.3545 85.1557 36.7262 85.1012 36.716C85.4422 36.8012 85.7627 36.9104 86.0866 37.0229C86.1358 37.0355 86.1877 37.0333 86.2356 37.0167C86.2836 37 86.3257 36.9697 86.3566 36.9294C86.3874 36.889 86.4058 36.8405 86.4093 36.7899C86.4129 36.7392 86.4014 36.6886 86.3765 36.6444C86.1667 36.3851 86.0344 36.0719 85.9946 35.7407L85.8138 36.0545C86.3264 35.8302 86.8886 35.7437 87.4448 35.8035C88.001 35.8634 88.5319 36.0674 88.9851 36.3955C89.2545 36.583 89.5102 36.1397 89.2442 35.9522C88.7317 35.5894 88.1346 35.3641 87.5102 35.2979C86.8857 35.2316 86.2547 35.3265 85.6774 35.5737C85.6134 35.5935 85.5594 35.637 85.5265 35.6953C85.4935 35.7536 85.4841 35.8223 85.5001 35.8874C85.5768 36.2532 85.7239 36.6006 85.9332 36.9104L86.223 36.5353C85.5615 36.3068 84.2248 35.6896 83.5394 36.1568C83.4492 36.2142 83.3733 36.2914 83.3173 36.3825C83.2614 36.4736 83.2268 36.5762 83.2163 36.6826C83.2058 36.789 83.2196 36.8965 83.2567 36.9967C83.2937 37.097 83.3531 37.1876 83.4303 37.2616C83.6519 37.5037 84.0134 37.1422 83.7917 36.9001V36.8933Z" fill="black"/>
<path d="M95.4091 35.9998C95.4769 35.9998 95.5419 35.9728 95.5899 35.9249C95.6379 35.8769 95.6648 35.8119 95.6648 35.744C95.6648 35.6762 95.6379 35.6111 95.5899 35.5632C95.5419 35.5152 95.4769 35.4883 95.4091 35.4883C95.3412 35.4883 95.2762 35.5152 95.2282 35.5632C95.1803 35.6111 95.1533 35.6762 95.1533 35.744C95.1533 35.8119 95.1803 35.8769 95.2282 35.9249C95.2762 35.9728 95.3412 35.9998 95.4091 35.9998Z" fill="black"/>
<path d="M104.497 37.0678C109.078 36.3096 113.584 35.1491 117.963 33.5999C118.269 33.4908 118.136 32.9963 117.826 33.1055C113.449 34.6576 108.943 35.8181 104.36 36.5734C104.036 36.6279 104.173 37.119 104.493 37.0678H104.497Z" fill="black"/>
<path d="M105.99 35.8633C104.991 35.1301 107.293 34.3595 107.555 34.3151C108.154 34.217 108.769 34.2805 109.335 34.4993C109.646 34.6152 109.779 34.1208 109.472 34.0082C108.916 33.7942 108.318 33.7135 107.726 33.7728C107.134 33.832 106.564 34.0295 106.062 34.3492C105.38 34.8096 104.94 35.7132 105.721 36.2997C105.987 36.4941 106.242 36.0508 105.98 35.8564L105.99 35.8633Z" fill="black"/>
<path d="M110.611 33.359L111.037 33.3181C111.092 33.3168 111.146 33.2979 111.19 33.2642C111.234 33.2305 111.267 33.1837 111.282 33.1305C111.538 32.2644 111.821 31.238 112.616 30.7026C112.803 30.5616 113.02 30.4645 113.25 30.4185C113.481 30.3725 113.718 30.3787 113.946 30.4367C114.087 30.4854 114.215 30.5654 114.32 30.6707C114.426 30.7761 114.506 30.904 114.555 31.0448C114.604 31.1856 114.62 31.3357 114.602 31.4838C114.585 31.6318 114.534 31.774 114.454 31.8995C114.263 32.1689 114.706 32.4247 114.897 32.1587C115.579 31.1664 114.706 29.8604 113.564 29.8672C111.859 29.8672 111.177 31.6472 110.791 32.9941L111.037 32.8066L110.611 32.8475C110.287 32.8816 110.27 33.3931 110.611 33.359Z" fill="black"/>
<path d="M114.911 31.5534C115.378 31.0113 115.862 30.4179 116.541 30.1417C117.219 29.8655 118.212 30.0053 118.433 30.851C118.451 30.9166 118.495 30.9723 118.554 31.0058C118.613 31.0394 118.683 31.0481 118.749 31.03C118.814 31.0119 118.87 30.9685 118.904 30.9094C118.937 30.8502 118.946 30.7802 118.928 30.7146C118.816 30.3387 118.581 30.0117 118.259 29.7874C117.937 29.5631 117.549 29.4548 117.158 29.4802C116.036 29.4802 115.221 30.4077 114.549 31.1852C114.338 31.4341 114.696 31.799 114.911 31.5466V31.5534Z" fill="black"/>
<path d="M171.158 164.903L171.71 168.5C164.29 171.194 160.653 172.791 160.799 173.291C160.969 173.875 166.353 172.947 176.952 170.505C176.561 168.487 176.169 166.468 175.778 164.449L171.158 164.903Z" fill="black"/>
<path d="M176.089 90.2812C176.297 91.1712 176.583 92.4636 176.839 94.0322C177.784 99.7984 177.623 104.712 176.686 113.128C176.096 118.396 175.233 124.756 173.93 131.971C174.158 133.99 174.399 136.03 174.653 138.092C175.758 146.733 177.177 154.992 178.82 162.841C177.995 163.473 177.074 163.97 176.092 164.311C172.682 165.508 169.569 164.417 168.509 163.97C167.748 158.262 166.95 153.648 166.371 150.521C164.867 142.399 163.834 138.982 163.643 132.97C163.53 129.431 163.769 126.849 164.151 123.112C164.816 116.633 165.832 107.464 167.363 95.9997C167.516 95.7985 167.68 95.5973 167.847 95.3996C170.22 92.6478 173.283 91.1269 176.089 90.2812Z" fill="white"/>
<path opacity="0.22" d="M173.92 91.9839C174.063 94.3572 174.143 96.801 174.159 99.3152C174.198 110.681 172.807 122.007 170.019 133.026C170.636 136.272 171.168 139.747 171.557 143.436C172.303 150.537 172.449 157.688 171.993 164.813C174.437 165.072 176.885 164.363 178.813 162.839C178.036 159.552 177.31 156.104 176.665 152.51C175.48 145.904 174.641 139.239 174.152 132.545C174.599 129.326 175.206 124.862 175.888 119.516C177.129 109.811 177.289 107.632 177.344 105.46C177.464 100.593 177.091 95.7259 176.232 90.9336L173.92 91.9839Z" fill="#919191"/>
<path d="M176.051 91.7348C179.489 105.18 174.797 118.707 173.78 132.143C173.753 132.484 174.265 132.467 174.292 132.143C175.315 118.66 179.997 105.095 176.546 91.5984C176.528 91.5328 176.484 91.4771 176.425 91.4436C176.366 91.41 176.296 91.4013 176.23 91.4194C176.165 91.4375 176.109 91.4809 176.076 91.54C176.042 91.5992 176.033 91.6692 176.051 91.7348Z" fill="black"/>
<path d="M173.675 131.976C174.811 142.363 176.445 152.675 178.575 162.914C178.64 163.238 179.134 163.102 179.066 162.778C176.945 152.596 175.318 142.329 174.186 131.976C174.152 131.652 173.637 131.635 173.675 131.976Z" fill="black"/>
<path d="M165.658 105.496C164.521 114.341 163.773 123.22 163.414 132.134C163.414 132.475 163.912 132.475 163.926 132.134C164.289 123.227 165.037 114.348 166.169 105.496C166.21 105.172 165.699 105.175 165.658 105.496Z" fill="black"/>
<path d="M163.516 133.947L167.857 161.499C167.908 161.84 168.403 161.686 168.352 161.363L163.997 133.81C163.946 133.486 163.452 133.623 163.503 133.947H163.516Z" fill="black"/>
<path d="M168.396 164.207C169.875 164.985 171.54 165.34 173.208 165.235C174.875 165.13 176.482 164.568 177.852 163.61C178.121 163.426 177.852 162.983 177.593 163.17C176.302 164.084 174.784 164.623 173.206 164.728C171.629 164.833 170.052 164.501 168.652 163.767C168.362 163.617 168.103 164.057 168.396 164.207Z" fill="black"/>
<path d="M159.476 165.522C159.544 166.92 159.614 168.319 159.687 169.72C151.551 173.284 147.578 175.33 147.769 175.857C147.983 176.451 153.59 175.077 164.59 171.735C164.174 169.314 163.761 166.89 163.349 164.465L159.476 165.522Z" fill="black"/>
<path d="M161.423 96.1437C161.082 96.9723 160.498 98.3294 159.857 100.028C156.867 107.922 156.083 113.013 153.522 123.144C152.966 125.343 152.1 128.678 150.937 132.766C151.751 138.404 152.557 144.042 153.355 149.68C154.037 154.56 154.719 159.442 155.401 164.325C157.218 165.265 159.288 165.598 161.309 165.277C163.329 164.955 165.194 163.996 166.63 162.539L162.568 131.904C164.076 127.741 165.667 123.513 167.342 119.219C169.731 113.081 172.163 107.16 174.636 101.456C176.171 97.8043 175.117 93.8454 172.628 92.1233C169.453 89.9171 163.735 91.2368 161.423 96.1437Z" fill="white"/>
<path opacity="0.24" d="M171.983 107.703C170.356 110.22 168.73 112.924 167.138 115.812C163.913 121.666 161.13 127.753 158.81 134.021C161.988 144.217 161.383 155.218 157.105 165.004C157.87 165.296 158.675 165.471 159.492 165.522C163.226 165.747 165.947 163.22 166.636 162.538C165.4 152.329 164.161 142.117 162.919 131.903C165.936 123.833 168.957 115.766 171.983 107.703Z" fill="#919191"/>
<path d="M160.506 97.0695C156.923 108.541 153.8 120.142 151.138 131.875C151.067 132.195 151.561 132.332 151.633 132.011C154.286 120.285 157.408 108.684 161 97.2059C161.095 96.8887 160.604 96.7558 160.506 97.0695Z" fill="black"/>
<path d="M172.815 105.42C168.983 114.17 165.459 123.046 162.245 132.048C162.136 132.359 162.63 132.492 162.739 132.185C165.922 123.228 169.425 114.392 173.249 105.676C173.378 105.379 172.938 105.117 172.805 105.42H172.815Z" fill="black"/>
<path d="M162.292 132.205C163.775 142.298 165.133 152.415 166.367 162.553C166.408 162.894 166.92 162.894 166.879 162.553C165.64 152.374 164.275 142.214 162.783 132.075C162.736 131.734 162.245 131.888 162.289 132.212L162.292 132.205Z" fill="black"/>
<path d="M151.244 134.182C152.31 144 153.582 153.79 155.06 163.552C155.107 163.875 155.602 163.736 155.551 163.415C154.08 153.697 152.815 143.952 151.755 134.182C151.721 133.861 151.21 133.841 151.244 134.182Z" fill="black"/>
<path d="M155.261 164.545C158.766 167.112 162.892 165.111 166.19 163.228C166.249 163.194 166.291 163.138 166.309 163.072C166.326 163.006 166.316 162.936 166.282 162.877C166.248 162.818 166.191 162.776 166.125 162.758C166.059 162.741 165.989 162.751 165.931 162.785C162.79 164.582 158.876 166.56 155.52 164.101C155.254 163.907 154.998 164.35 155.261 164.545Z" fill="black"/>
<path d="M152.768 64.6957C153.845 64.172 154.982 63.7826 156.154 63.5364C157.389 63.2772 162.394 62.3974 166.67 65.2413C169.31 66.994 170.421 69.3332 172.089 72.8898C173.016 74.8573 173.347 76.0883 174.957 81.6022C176.041 85.3088 176.91 88.2345 177.402 89.8884C176.578 91.0276 175.615 92.0586 174.534 92.9573C169.177 97.4175 162.524 97.189 160.192 96.9947C159.53 93.0528 158.867 89.1098 158.204 85.1656C157.566 83.5492 156.846 81.9661 156.048 80.4224C154.003 76.443 152.823 75.4541 152.117 73.3058C151.53 71.4679 151.237 68.6922 152.768 64.6957Z" fill="#EC615B"/>
<path d="M155.131 64.3792C154.508 64.3709 153.894 64.5286 153.351 64.8362C152.585 65.2368 151.938 65.8333 151.476 66.565C150.5 67.983 149.764 69.5521 149.297 71.2093C148.782 73.3576 147.66 76.6652 145.123 82.0563C143.425 83.7142 141.644 85.2847 139.787 86.7621C137.502 88.5796 135.756 89.9504 133.168 91.2734C131.626 92.0657 130.017 92.7196 128.36 93.2273C128.002 93.0739 127.627 92.9238 127.228 92.7806C126.431 92.4944 125.616 92.2587 124.79 92.0747C124.752 91.8408 124.667 91.6171 124.538 91.4181C124.41 91.219 124.241 91.049 124.043 90.9188C123.341 90.5471 122.215 90.9017 121.584 91.9418L113.776 94.755C111.975 92.2657 110.172 89.7776 108.367 87.2906C108.412 87.9497 108.549 88.5993 108.773 89.2206C109.114 90.1959 109.568 90.738 111.051 92.7738C111.535 93.4353 111.955 94.0218 112.303 94.5026C109.957 95.2324 108.091 95.7984 106.622 96.1701C106.158 96.2894 105.258 96.5111 104.787 97.2749C104.547 97.68 104.438 98.149 104.473 98.6184L112.316 95.5495L115.211 96.3883C115.773 97.0703 116.35 97.7523 116.943 98.4343C117.707 99.3209 118.469 100.179 119.228 101.009C119.125 101.276 119.081 101.563 119.099 101.849C119.117 102.135 119.197 102.414 119.334 102.666C119.459 102.896 119.633 103.096 119.845 103.25C120.057 103.404 120.301 103.508 120.558 103.556C120.859 103.583 121.161 103.535 121.439 103.416C121.716 103.297 121.96 103.111 122.147 102.874C122.31 102.648 122.422 102.389 122.474 102.115C122.525 101.841 122.516 101.559 122.447 101.288L123.958 100.494C124.54 100.596 125.135 100.596 125.717 100.494C126.71 100.308 127.631 99.8485 128.377 99.1674C129.388 98.2916 130.122 97.1397 130.488 95.853C133.85 94.373 136.561 93.2648 138.464 92.5112C140.909 91.5428 143.163 90.1004 145.665 89.3059C146.428 89.079 147.133 88.688 147.728 88.1601C148.155 87.7632 148.519 87.3032 148.806 86.7962C149.425 85.7854 149.932 84.7107 150.32 83.5908C151.039 81.3403 152.54 79.2125 155.217 75.407C157.638 71.9732 158.262 71.8163 158.425 70.3773C158.732 67.7346 157 64.5599 155.131 64.3792ZM122.976 97.9774L121.646 99.6823C121.114 99.8301 120.548 99.7891 120.043 99.5664C119.453 99.2765 119.232 98.7685 118.788 98.1206C118.277 97.3781 117.667 96.7092 116.974 96.1326C116.586 96.0959 116.224 95.9231 115.951 95.645C115.903 95.5836 115.794 95.4472 115.839 95.3415C115.883 95.2358 115.975 95.2255 116.094 95.2017C116.414 95.148 116.742 95.1619 117.056 95.2426L118.809 94.6186C119.832 94.2503 120.827 93.882 121.816 93.5137C122.355 94.3253 122.734 94.5094 123 94.4651C123.381 94.4003 123.474 93.8752 123.835 93.8547C124.196 93.8343 124.64 94.3321 124.749 94.847C124.913 95.5256 124.442 96.0882 122.976 97.9774Z" fill="white"/>
<path opacity="0.21" d="M157.327 69.0859C156.458 70.5761 155.162 72.7584 153.528 75.3705C150.8 79.7215 149.437 81.8971 148.414 83.1144C147.05 84.7273 143.193 89.283 137.161 91.6631C135.374 92.369 133.103 92.9964 130.365 95.0253C129.282 95.8274 128.28 96.7318 127.371 97.726L120.813 101.576L124.684 100.348C125.277 100.483 125.892 100.489 126.488 100.365C128.803 99.8743 129.809 97.5112 129.932 97.2145L130.723 95.8199C133.598 94.6491 136.546 93.3852 139.565 92.028C142.388 90.7527 145.106 89.4671 147.718 88.1714C148.263 87.5315 148.753 86.8471 149.184 86.1254C149.69 85.2812 150.113 84.3906 150.449 83.4657C151.346 81.0787 153.573 77.2357 155.97 74.2895C156.993 73.0415 158.207 71.7286 157.9 70.2419C157.807 69.8154 157.61 69.4183 157.327 69.0859Z" fill="#919191"/>
<path d="M153.235 64.6128C150.913 66.1234 149.931 68.657 149.051 71.1735C147.687 75.0711 146.214 78.9175 144.577 82.7094C144.448 83.0094 144.888 83.2686 145.017 82.9685C146.34 79.8996 147.581 76.8033 148.714 73.6662C149.815 70.5972 150.599 66.935 153.488 65.0527C153.76 64.8754 153.505 64.4321 153.228 64.6128H153.235Z" fill="black"/>
<path d="M144.486 82.6327C141.874 84.4059 139.671 86.694 137.096 88.5183C134.453 90.3738 131.621 91.9443 128.646 93.2035C128.346 93.3331 128.606 93.7764 128.906 93.6468C131.88 92.3835 134.712 90.8096 137.355 88.9514C139.93 87.1304 142.129 84.839 144.741 83.0692C145.014 82.8851 144.758 82.4418 144.486 82.6259V82.6327Z" fill="black"/>
<path d="M128.749 93.1091C127.044 92.4271 125.233 91.486 123.344 91.9463C123.027 92.0248 123.16 92.5192 123.48 92.4408C125.247 92.0077 127.01 92.9659 128.612 93.6001C128.919 93.7229 129.052 93.2285 128.749 93.1091Z" fill="black"/>
<path d="M123.201 93.3295C123.827 93.7384 124.331 94.3085 124.66 94.9799C124.807 95.2766 125.247 95.0174 125.1 94.7242C124.728 93.9746 124.16 93.3396 123.457 92.8862C123.18 92.7055 122.925 93.1488 123.201 93.3295Z" fill="black"/>
<path d="M124.626 95.092C123.47 97.6154 121.312 99.5045 120.323 102.12C120.251 102.301 120.463 102.488 120.637 102.434C121.613 102.142 122.479 101.563 123.122 100.773C123.33 100.521 122.972 100.159 122.761 100.412C122.179 101.138 121.391 101.671 120.5 101.939L120.814 102.256C121.786 99.6886 123.931 97.8234 125.07 95.3512C125.206 95.0545 124.763 94.7954 124.626 95.092Z" fill="black"/>
<path d="M123.232 100.863L125.063 99.2028C125.308 98.9812 124.943 98.6232 124.701 98.8414L122.87 100.502C122.625 100.724 122.989 101.085 123.232 100.863Z" fill="black"/>
<path d="M123.419 100.87C124.367 100.737 125.259 100.34 125.993 99.7241C126.246 99.5127 125.881 99.1512 125.632 99.3592C124.962 99.9165 124.147 100.271 123.282 100.382C122.941 100.427 123.095 100.921 123.419 100.877V100.87Z" fill="black"/>
<path d="M124.616 100.596C127.811 101.568 129.465 98.0559 130.975 95.969C131.166 95.6997 130.723 95.4439 130.532 95.7099C129.168 97.6024 127.678 100.995 124.752 100.102C124.439 100.006 124.302 100.497 124.616 100.596Z" fill="black"/>
<path d="M130.89 96.1803L141.757 91.3416C144.11 90.2913 147.776 89.4491 149.027 86.9428C149.174 86.6495 148.731 86.3903 148.584 86.6836C147.844 88.1669 146.34 88.7296 144.915 89.3774C143.365 90.0731 141.812 90.7641 140.257 91.4507L130.631 95.737C130.331 95.87 130.59 96.3133 130.89 96.1803Z" fill="black"/>
<path d="M148.963 86.7427C151.387 81.9368 154.158 77.3143 157.256 72.912C157.447 72.6426 157.003 72.3834 156.816 72.6528C153.718 77.0548 150.946 81.6773 148.523 86.4835C148.373 86.7768 148.816 87.0359 148.963 86.7427Z" fill="black"/>
<path d="M123.109 93.0936C122.941 93.305 122.737 93.0936 122.682 92.9095C122.636 92.6999 122.654 92.4813 122.733 92.282C122.763 92.1754 122.817 92.0775 122.893 91.9967C122.968 91.916 123.062 91.8547 123.167 91.8183C123.258 91.7904 123.356 91.7944 123.444 91.8298C123.533 91.8651 123.607 91.9296 123.654 92.0127C123.777 92.3161 124.271 92.1832 124.145 91.8763C124.071 91.6864 123.937 91.5266 123.762 91.4222C123.587 91.3178 123.382 91.2748 123.18 91.3C122.959 91.3362 122.753 91.4352 122.586 91.585C122.419 91.7349 122.299 91.9295 122.239 92.1456C122.148 92.366 122.118 92.607 122.153 92.843C122.188 93.079 122.286 93.3011 122.437 93.4857C122.505 93.5527 122.586 93.6052 122.675 93.64C122.764 93.6748 122.859 93.6913 122.955 93.6885C123.05 93.6856 123.144 93.6634 123.231 93.6233C123.318 93.5832 123.396 93.526 123.46 93.4551C123.658 93.1959 123.299 92.831 123.098 93.0936H123.109Z" fill="black"/>
<path d="M125.025 91.7607C124.405 89.8136 121.956 90.4649 121.472 92.1563C121.257 92.9065 121.421 93.8612 122.113 94.3011C122.414 94.5045 122.778 94.5904 123.138 94.5426C123.497 94.4949 123.827 94.3167 124.064 94.042C124.265 93.7862 123.907 93.4214 123.702 93.6805C123.546 93.8759 123.321 94.0036 123.073 94.0373C122.826 94.071 122.575 94.0079 122.372 93.8612C122.155 93.671 121.999 93.4195 121.927 93.1397C121.855 92.8598 121.868 92.5646 121.967 92.2927C122.307 91.1265 124.057 90.4104 124.531 91.8971C124.63 92.2108 125.124 92.0778 125.025 91.7607Z" fill="black"/>
<path d="M121.329 99.7734C120.146 100.039 119.034 101.356 119.989 102.501C120.151 102.711 120.377 102.862 120.633 102.933C120.889 103.003 121.16 102.99 121.407 102.894C122.004 102.641 122.277 101.986 122.492 101.424C122.608 101.117 122.113 100.984 121.997 101.287C121.893 101.634 121.717 101.955 121.479 102.229C121.4 102.313 121.302 102.377 121.194 102.416C121.085 102.454 120.969 102.467 120.855 102.452C120.74 102.437 120.631 102.395 120.537 102.329C120.442 102.264 120.364 102.177 120.309 102.075C119.747 101.209 120.695 100.452 121.465 100.282C121.786 100.21 121.649 99.7155 121.329 99.7871V99.7734Z" fill="black"/>
<path d="M121.523 99.7786C119.705 98.343 118.201 101.61 119.259 103.039C119.518 103.397 119.892 103.657 120.319 103.776C120.746 103.894 121.201 103.864 121.608 103.69C122.546 103.24 122.853 102.121 122.771 101.156C122.743 100.832 122.232 100.815 122.259 101.156C122.358 102.322 121.577 103.928 120.169 103.165C119.902 103.012 119.685 102.787 119.542 102.515C119.4 102.243 119.338 101.936 119.364 101.63C119.405 100.894 120.203 99.3796 121.161 100.14C121.417 100.341 121.782 99.9832 121.523 99.7786Z" fill="black"/>
<path d="M108.153 87.4344C111.563 92.0287 115.062 96.5424 118.652 100.975C118.86 101.231 119.221 100.87 119.017 100.614C115.441 96.2105 111.967 91.7309 108.596 87.1753C108.402 86.9127 107.958 87.1752 108.153 87.4344Z" fill="black"/>
<path d="M104.756 98.9805C110.439 96.5549 116.18 94.2555 121.976 92.0822C122.28 91.9663 122.147 91.4719 121.84 91.5878C116.009 93.777 110.228 96.0946 104.497 98.5407C104.197 98.6668 104.456 99.1101 104.756 98.9805Z" fill="black"/>
<path d="M114.321 95.3952C115.105 96.1523 116.272 95.7976 117.066 96.5956C118.089 97.6185 118.866 98.7984 119.937 99.7736C120.179 99.9953 120.541 99.6338 120.299 99.4122C119.228 98.4335 118.42 97.2775 117.427 96.2341C117.202 95.9723 116.925 95.7608 116.613 95.6135C115.982 95.3509 115.218 95.5487 114.686 95.0338C114.447 94.8053 114.086 95.1668 114.321 95.3952Z" fill="black"/>
<path d="M115.201 94.4571C115.801 94.9277 116.35 95.6165 117.141 95.4972C117.768 95.4051 118.461 94.9686 119.051 94.7333L121.383 93.799C121.683 93.6763 121.55 93.1818 121.247 93.3046L118.276 94.4946C118.011 94.6004 117.291 95.0095 117.005 95.0027C116.503 95.0027 115.934 94.3855 115.562 94.0957C115.306 93.8945 114.942 94.2525 115.201 94.4571Z" fill="black"/>
<path d="M114.174 95.1941C114.119 95.158 114.075 95.1065 114.049 95.0459C114.022 94.9854 114.014 94.9184 114.024 94.8531C114.032 94.8215 114.046 94.7918 114.065 94.7658C114.084 94.7397 114.109 94.7179 114.137 94.7016C114.165 94.6853 114.196 94.6749 114.228 94.6711C114.261 94.6672 114.293 94.67 114.324 94.6792C114.549 94.7849 114.355 95.0918 114.191 94.9043C113.977 94.6554 113.619 95.0202 113.83 95.2657C113.891 95.3284 113.964 95.3782 114.045 95.4122C114.126 95.4463 114.213 95.4638 114.301 95.4638C114.388 95.4638 114.475 95.4463 114.556 95.4122C114.637 95.3782 114.71 95.3284 114.771 95.2657C114.835 95.1914 114.883 95.104 114.91 95.0097C114.937 94.9153 114.944 94.8162 114.929 94.719C114.915 94.6219 114.879 94.529 114.826 94.4468C114.772 94.3646 114.701 94.295 114.618 94.2428C114.531 94.1933 114.436 94.1617 114.337 94.1498C114.239 94.138 114.139 94.1461 114.043 94.1738C113.948 94.2015 113.859 94.2481 113.782 94.311C113.705 94.3738 113.641 94.4515 113.595 94.5394C113.505 94.7263 113.489 94.9397 113.548 95.1382C113.607 95.3367 113.738 95.5061 113.915 95.6136C114.188 95.7977 114.444 95.3544 114.174 95.1703V95.1941Z" fill="black"/>
<path d="M108.003 87.2323C107.852 88.7736 108.173 89.5374 109.128 90.7002C110.314 92.146 111.515 93.5884 112.705 95.0308C112.913 95.2866 113.274 94.9217 113.066 94.6694C111.409 92.6677 108.248 89.9603 108.514 87.2323C108.548 86.8913 108.033 86.8913 108.003 87.2323Z" fill="black"/>
<path d="M104.736 98.6314C105.026 95.9683 110.192 95.2931 112.377 94.7646C112.695 94.6861 112.562 94.1917 112.241 94.2701C110.06 94.7447 107.92 95.39 105.841 96.2001C104.691 96.6809 104.357 97.4107 104.224 98.6314C104.19 98.9554 104.702 98.9554 104.736 98.6314Z" fill="black"/>
<path d="M113.291 95.7038C113.205 95.3915 113.225 95.0593 113.348 94.7598C113.472 94.4602 113.692 94.2104 113.973 94.05C114.177 93.9456 114.409 93.9103 114.634 93.9496C114.86 93.9888 115.066 94.1003 115.223 94.2673C115.379 94.4343 115.477 94.6476 115.501 94.8751C115.526 95.1027 115.475 95.3319 115.358 95.5283C115.241 95.7247 115.062 95.8776 114.851 95.9637C114.639 96.0499 114.404 96.0647 114.183 96.006C113.962 95.9472 113.766 95.8181 113.625 95.6381C113.483 95.458 113.405 95.2369 113.4 95.0082C113.373 94.6672 112.861 94.6672 112.889 95.0082C112.892 95.3354 112.998 95.6533 113.192 95.9173C113.385 96.1814 113.656 96.3783 113.967 96.4805C114.278 96.5828 114.613 96.5852 114.926 96.4875C115.238 96.3898 115.512 96.1968 115.709 95.9356C115.906 95.6744 116.017 95.3581 116.025 95.0309C116.034 94.7037 115.94 94.3821 115.756 94.1111C115.573 93.8401 115.309 93.6333 115.002 93.5196C114.695 93.4059 114.36 93.391 114.045 93.4771C113.056 93.7396 112.548 94.9024 112.81 95.8368C112.833 95.8957 112.877 95.9442 112.933 95.9728C112.99 96.0013 113.055 96.008 113.116 95.9915C113.177 95.9749 113.229 95.9364 113.264 95.8833C113.298 95.8301 113.311 95.7662 113.301 95.7038H113.291Z" fill="black"/>
<path d="M151.005 46.3164C150.352 46.7912 149.798 47.3889 149.375 48.0759C149.087 48.5515 148.865 49.0644 148.717 49.6002C148.331 50.9164 147.694 52.8089 146.783 55.3971L148.28 54.6401C148.499 55.5229 148.799 56.3836 149.177 57.2112C149.978 58.9605 150.565 60.246 151.755 60.6211C153.119 61.0439 154.534 59.9971 154.848 59.7652C157.235 57.9818 156.976 54.5616 156.941 54.19C157.115 54.267 157.304 54.3068 157.494 54.3068C157.684 54.3068 157.872 54.267 158.046 54.19C158.701 53.808 158.619 52.7135 158.575 52.144C158.52 51.4415 158.466 50.7561 157.947 50.4117C157.429 50.0673 156.491 50.1969 155.748 50.7868L151.005 46.3164Z" fill="white"/>
<path opacity="0.21" d="M153.064 48.5322C152.935 48.6447 154.064 49.7257 154.64 51.5261C155.102 53.0664 155.102 54.7086 154.64 56.2489C154.113 57.9769 153.047 59.491 151.598 60.5693C152.226 60.6341 152.86 60.5726 153.463 60.3886C154.539 60.0368 155.461 59.3282 156.079 58.3801C156.85 57.2142 157.163 55.8038 156.955 54.4212C157.336 54.4795 157.725 54.3944 158.046 54.1825C158.687 53.7085 158.619 52.7435 158.575 52.1365C158.524 51.4341 158.469 50.718 157.947 50.4043C157.426 50.0905 156.512 50.2951 155.806 50.9703C153.74 48.8732 153.153 48.4538 153.064 48.5322Z" fill="#919191"/>
<path d="M149.409 47.3889C148.183 50.0417 147.197 52.7988 146.463 55.6273C146.45 55.6761 146.452 55.7276 146.468 55.7753C146.485 55.823 146.515 55.8648 146.555 55.8954C146.595 55.9261 146.643 55.9441 146.694 55.9474C146.744 55.9507 146.794 55.939 146.838 55.9138C147.437 55.6486 147.986 55.283 148.461 54.8328C148.703 54.6078 148.342 54.2463 148.1 54.4714C147.657 54.8945 147.142 55.2341 146.579 55.4739L146.954 55.7603C147.677 52.9753 148.647 50.2604 149.852 47.6481C149.989 47.3514 149.549 47.0922 149.409 47.3889Z" fill="black"/>
<path d="M148.055 54.9207C148.642 56.7109 149.303 58.5489 150.592 59.9674C151.022 60.4414 151.544 60.9734 152.226 61.0177C153.102 61.0722 154.22 60.3357 154.974 59.9947C155.274 59.8549 155.015 59.415 154.718 59.5548C153.695 60.0356 152.526 60.7006 151.383 60.0493C150.824 59.7287 150.36 58.8694 150.036 58.3443C149.412 57.2155 148.912 56.0217 148.546 54.7843C148.444 54.4706 147.95 54.6036 148.055 54.9207Z" fill="black"/>
<path d="M150.579 49.0456C150.377 49.476 150.308 49.9569 150.381 50.4267L150.872 50.2903C150.822 49.9459 150.891 49.5949 151.066 49.2945H150.626C150.71 49.4793 150.74 49.6837 150.714 49.8848C150.689 50.0859 150.607 50.2758 150.48 50.4335C150.279 50.696 150.722 50.9518 150.92 50.6926C151.095 50.4569 151.201 50.1773 151.227 49.8847C151.253 49.5922 151.197 49.2982 151.066 49.0354C151.044 48.9972 151.012 48.9656 150.973 48.9437C150.934 48.9217 150.891 48.9102 150.846 48.9102C150.802 48.9102 150.758 48.9217 150.72 48.9437C150.681 48.9656 150.649 48.9972 150.626 49.0354C150.387 49.4571 150.3 49.9485 150.381 50.4267C150.429 50.7506 150.92 50.6108 150.872 50.2903C150.826 49.9545 150.877 49.6126 151.019 49.3048C151.155 49.0047 150.715 48.7456 150.579 49.0456Z" fill="black"/>
<path d="M148.679 55.5917C149.072 55.6812 149.483 55.6319 149.843 55.4522C150.203 55.2725 150.489 54.9735 150.654 54.6062C150.78 54.3061 150.34 54.047 150.21 54.3505C150.103 54.6192 149.904 54.8416 149.649 54.9787C149.394 55.1158 149.099 55.159 148.816 55.1006C148.495 55.029 148.359 55.5201 148.679 55.5917Z" fill="black"/>
<path d="M152.106 51.7109H152.011C151.943 51.7109 151.878 51.7379 151.83 51.7858C151.782 51.8338 151.755 51.8989 151.755 51.9667C151.755 52.0345 151.782 52.0996 151.83 52.1475C151.878 52.1955 151.943 52.2224 152.011 52.2224H152.106C152.174 52.2224 152.239 52.1955 152.287 52.1475C152.335 52.0996 152.362 52.0345 152.362 51.9667C152.362 51.8989 152.335 51.8338 152.287 51.7858C152.239 51.7379 152.174 51.7109 152.106 51.7109Z" fill="black"/>
<path d="M153.129 52.0349C153.197 52.0349 153.262 52.008 153.31 51.96C153.358 51.9121 153.385 51.847 153.385 51.7792C153.385 51.7114 153.358 51.6463 153.31 51.5983C153.262 51.5504 153.197 51.5234 153.129 51.5234C153.061 51.5234 152.996 51.5504 152.948 51.5983C152.9 51.6463 152.874 51.7114 152.874 51.7792C152.874 51.847 152.9 51.9121 152.948 51.96C152.996 52.008 153.061 52.0349 153.129 52.0349Z" fill="black"/>
<path d="M152.662 53.2459C152.73 53.2459 152.795 53.2189 152.843 53.171C152.891 53.123 152.918 53.0579 152.918 52.9901C152.918 52.9223 152.891 52.8572 152.843 52.8093C152.795 52.7613 152.73 52.7344 152.662 52.7344C152.594 52.7344 152.529 52.7613 152.481 52.8093C152.433 52.8572 152.406 52.9223 152.406 52.9901C152.406 53.0579 152.433 53.123 152.481 53.171C152.529 53.2189 152.594 53.2459 152.662 53.2459Z" fill="black"/>
<path d="M156.13 51.0667C156.73 49.9108 158.217 50.5177 158.517 51.5885C158.715 52.3148 158.343 54.7802 157.075 53.9754C156.795 53.8015 156.539 54.2414 156.816 54.4187C158.521 55.4962 159.356 52.6421 159.008 51.4521C158.582 49.979 156.519 49.2151 155.69 50.8076C155.54 51.0974 155.98 51.3566 156.134 51.0667H156.13Z" fill="black"/>
<path d="M155.813 50.9677C155.237 50.8165 154.679 50.6038 154.149 50.3335C152.603 49.524 151.322 48.2871 150.459 46.7701C150.058 47.1693 149.698 47.6067 149.382 48.0761C148.702 49.0857 148.238 50.2244 148.018 51.4212C147.516 50.1688 147.398 48.7958 147.677 47.4759C147.927 46.3439 148.467 45.2964 149.244 44.4362C150.021 43.5759 151.009 42.9325 152.11 42.569C153.133 42.269 153.368 42.5486 156.618 42.8862C161.473 43.3943 162.05 42.8862 163.028 43.6773C164.675 45.0037 163.41 46.7258 165.006 50.3267C166.394 53.4502 167.755 53.0546 168.805 56.1031C169.488 58.1979 169.571 60.4425 169.043 62.582C168.743 63.755 168.44 64.9382 167.379 65.9067C165.644 67.4923 163.257 67.2434 162.711 67.1718C162.404 67.3593 159.983 68.7915 157.647 67.806C155.141 66.7455 153.661 63.2844 154.855 59.7654L156.962 54.4152C157.343 54.4684 157.73 54.3838 158.053 54.1765C159.141 53.4263 159.076 50.9302 157.954 50.3949C157.081 49.9959 155.905 50.8927 155.813 50.9677Z" fill="#461EB8"/>
<path d="M14.2699 58.5721C12.9809 59.2541 12.6638 60.9386 12.5069 61.8559C11.5726 67.2845 11.5385 70.0636 11.5385 70.0636C11.3953 72.5972 11.2623 75.4445 11.16 78.5646C10.8709 79.4469 10.643 80.3481 10.478 81.2618C10.0961 83.3658 10.195 84.7366 10.2905 87.3588C10.5292 94.0389 10.212 94.0218 10.5769 97.5477C10.7713 99.4027 10.8906 99.7403 10.8565 100.855C10.7815 103.055 10.2257 104.224 10.5496 106.311C10.6434 106.913 10.7953 107.505 11.0031 108.078C11.5085 107.642 11.9657 107.154 12.3671 106.622C13.5623 104.999 14.2462 103.056 14.3312 101.043C14.0516 99.3925 13.7709 97.7398 13.489 96.0848C13.5776 95.4028 13.7311 94.3014 13.9459 92.9272C14.8871 86.9633 15.5384 85.5072 15.7327 81.6744C15.8316 79.7478 15.6782 79.8808 15.8077 77.8621C15.9903 75.5028 16.3171 73.157 16.7864 70.8377C17.6184 66.3058 17.8673 66.4968 17.8742 65.2078C17.8742 63.5029 17.482 61.1534 15.6338 58.2891C15.1623 58.2638 14.6924 58.3613 14.2699 58.5721Z" fill="white"/>
<path opacity="0.18" d="M13.6459 58.9766C13.4004 61.5863 13.1856 64.2426 13.0015 66.9456C12.665 71.8582 12.4377 76.6321 12.3195 81.2673C10.6967 88.1689 11.1041 95.3925 13.4925 102.068C13.5249 102.905 13.4201 103.741 13.1822 104.544C12.7807 105.89 12.0301 107.107 11.0066 108.069C11.0066 106.214 11.0066 103.442 10.8566 100.066C10.7611 97.843 10.7134 97.6794 10.4611 93.2465C10.045 85.9969 10.0314 83.91 10.4815 81.2503C10.694 80.003 10.9821 78.7697 11.3442 77.5573C11.3442 76.9776 11.3033 76.0569 11.2965 74.9317C11.276 70.6863 11.259 67.6139 12.0126 64.1256C12.3984 62.3629 12.9452 60.6393 13.6459 58.9766Z" fill="#919191"/>
<path d="M13.4242 58.8438C12.0364 61.5717 11.5931 64.5588 11.4056 67.5868C11.1771 71.2423 11.0646 74.9046 10.9043 78.5634C10.9043 78.9044 11.4021 78.9044 11.4158 78.5634C11.5624 75.2899 11.692 72.0163 11.8523 68.7462C12.0159 65.4215 12.3365 62.1105 13.8675 59.1029C14.0176 58.8097 13.5743 58.5505 13.4242 58.8438Z" fill="black"/>
<path d="M10.9349 78.3825C9.86414 81.506 9.96303 84.7625 10.0551 88.019C10.1619 91.7677 10.2688 95.5186 10.3756 99.2718C10.3756 99.3396 10.4026 99.4047 10.4505 99.4526C10.4985 99.5006 10.5636 99.5275 10.6314 99.5275C10.6992 99.5275 10.7643 99.5006 10.8122 99.4526C10.8602 99.4047 10.8871 99.3396 10.8871 99.2718C10.7848 95.7459 10.6848 92.2223 10.5871 88.701C10.4882 85.291 10.2972 81.83 11.4259 78.5394C11.535 78.2257 11.0406 78.0927 10.9349 78.403V78.3825Z" fill="black"/>
<path d="M17.3697 66.1032C16.524 70.8771 15.5488 75.6033 15.501 80.4761C15.4533 85.7581 14.0348 91.0708 13.0834 96.2505C13.022 96.5744 13.5165 96.7108 13.5744 96.3869C14.4576 91.5857 15.8182 86.6344 15.9921 81.7446C16.0841 79.1189 16.1046 76.5717 16.5104 73.9631C16.9162 71.3545 17.4072 68.8107 17.8744 66.2396C17.9323 65.9157 17.4413 65.7793 17.3833 66.1032H17.3697Z" fill="black"/>
<path d="M13.2401 96.6351C13.7644 98.0474 14.0468 99.5379 14.0756 101.044C14.0756 101.112 14.1025 101.177 14.1505 101.225C14.1984 101.273 14.2635 101.3 14.3313 101.3C14.3991 101.3 14.4642 101.273 14.5122 101.225C14.5601 101.177 14.5871 101.112 14.5871 101.044C14.5611 99.4926 14.2717 97.9567 13.7312 96.5021C13.6186 96.1952 13.1242 96.3282 13.2401 96.6385V96.6351Z" fill="black"/>
<path d="M10.4814 99.2665L10.3279 104.508C10.2904 105.817 10.2086 107.017 10.7883 108.204C10.8906 108.415 11.1907 108.334 11.2554 108.143C11.7826 106.588 12.0779 104.965 12.1318 103.324C12.1318 102.983 11.6339 102.983 11.6203 103.324C11.5677 104.919 11.2781 106.497 10.761 108.006L11.2282 107.945C10.5462 106.547 10.8326 104.767 10.8872 103.27L11.0031 99.2597C11.0031 98.9187 10.5018 98.9187 10.4916 99.2597L10.4814 99.2665Z" fill="black"/>
<path d="M13.2367 102.064C13.2357 103.607 12.865 105.127 12.1557 106.497C12.0057 106.791 12.4456 107.05 12.5956 106.756C13.349 105.307 13.7442 103.698 13.7482 102.064C13.7482 101.997 13.7212 101.931 13.6733 101.883C13.6253 101.836 13.5603 101.809 13.4924 101.809C13.4246 101.809 13.3596 101.836 13.3116 101.883C13.2636 101.931 13.2367 101.997 13.2367 102.064Z" fill="black"/>
<path d="M10.7377 170.918L9.86816 178.822C21.9462 178.515 27.9999 177.975 28.0295 177.202C28.0545 176.589 24.3252 175.832 16.8415 174.931L16.2311 171.286L10.7377 170.918Z" fill="black"/>
<path d="M13.5986 94.3086C13.4519 95.1099 13.1894 96.5796 12.9166 98.4244C12.1118 103.751 11.8288 107.89 11.689 110.083C11.348 115.713 10.0045 138.706 8.38135 170.132C9.92963 170.657 11.5406 170.975 13.1723 171.077C15.5423 171.221 17.918 170.913 20.1729 170.17C20.323 167.765 20.5548 164.178 20.8549 159.827C21.7279 147.166 22.5599 137.362 23.3646 128.04C24.0057 120.637 24.94 109.933 26.1301 96.6683L13.5986 94.3086Z" fill="white"/>
<path opacity="0.17" d="M25.516 105.613C24.3794 111.083 23.2427 116.552 22.1061 122.022C18.703 138.335 15.2646 154.643 11.791 170.944C14.6791 171.285 17.6062 171.04 20.3977 170.225C21.1206 157.351 22.0436 144.208 23.1666 130.796C23.8849 122.282 24.6681 113.888 25.516 105.613Z" fill="#919191"/>
<path d="M13.353 94.2399C11.099 106.352 10.8262 118.829 10.0249 131.098C9.18607 143.943 8.41201 156.795 8.16309 169.668C8.16309 169.736 8.19003 169.801 8.23799 169.849C8.28595 169.897 8.351 169.924 8.41883 169.924C8.48666 169.924 8.55171 169.897 8.59967 169.849C8.64763 169.801 8.67458 169.736 8.67458 169.668C8.9235 157.02 9.67369 144.39 10.4955 131.77C11.307 119.327 11.5662 106.656 13.8509 94.3763C13.9088 94.0524 13.4178 93.916 13.3564 94.2399H13.353Z" fill="black"/>
<path d="M8.30626 170.381C12.1961 171.981 16.5542 172.011 20.4661 170.466C20.7696 170.347 20.6366 169.853 20.3297 169.975C16.5054 171.487 12.244 171.455 8.44266 169.887C8.13576 169.764 8.00619 170.258 8.30626 170.381Z" fill="black"/>
<path d="M25.2605 105.615C23.044 127.095 21.2606 148.613 19.9103 170.169C19.8898 170.51 20.4013 170.51 20.4218 170.169C21.7721 148.618 23.5555 127.1 25.772 105.615C25.8061 105.274 25.2946 105.274 25.2605 105.615Z" fill="black"/>
<path d="M24.4112 174.203L23.603 180C36.3517 178.916 42.7169 178.058 42.6987 177.429C42.6805 176.92 38.5283 176.558 30.2422 176.344L29.8603 174.148L24.4112 174.203Z" fill="black"/>
<path d="M22.6006 95.0006C22.5085 99.8461 22.4199 104.78 22.3346 109.626C21.9618 130.613 21.6356 151.602 21.356 172.594C22.2732 173.311 23.313 173.857 24.4249 174.203C29.342 175.727 33.8261 172.59 34.5558 172.062C34.8013 165.365 34.9753 158.576 35.0776 151.694C35.3708 131.439 34.9923 111.914 34.0819 93.1797L22.6006 95.0006Z" fill="white"/>
<path opacity="0.19" d="M22.3786 107.098C23.0606 114.827 23.9312 122.799 24.9906 131.015C26.9445 145.961 29.3894 160.081 32.1515 173.298C30.8364 174.083 29.3446 174.524 27.814 174.58C24.0631 174.696 21.5431 172.378 20.9941 171.852C21.6761 162.86 22.1672 153.497 22.4434 143.785C22.8253 130.988 22.7503 118.729 22.3786 107.098Z" fill="#919191"/>
<path d="M33.9007 94.6776C35.0919 120.454 35.2203 146.25 34.286 172.063C34.286 172.404 34.7838 172.404 34.7975 172.063C35.7318 146.275 35.6033 120.479 34.4121 94.6776C34.4121 94.3366 33.887 94.3366 33.9007 94.6776Z" fill="black"/>
<path d="M22.0276 107.658C22.6141 129.073 22.1844 150.478 20.7386 171.874C20.7147 172.215 21.2262 172.215 21.2501 171.874C22.6959 150.505 23.1256 129.1 22.5391 107.658C22.5391 107.317 22.0173 107.317 22.0276 107.658Z" fill="black"/>
<path d="M21.1207 172.721C22.3449 174.399 25.0456 174.767 26.9824 174.767C29.5141 174.768 31.9791 173.955 34.0137 172.448C34.2763 172.257 34.0137 171.811 33.7545 172.005C32.0775 173.258 30.0866 174.023 28.002 174.215C26.0992 174.382 22.8155 174.184 21.564 172.472C21.3731 172.21 20.9263 172.472 21.1207 172.728V172.721Z" fill="black"/>
<path d="M13.4478 58.8268C13.3659 59.2428 13.2466 59.8497 13.1272 60.6102C12.405 64.9992 12.3269 69.4701 12.8954 73.8816C13.1737 75.8878 13.5988 77.8709 14.1673 79.8149C13.7126 81.6336 13.2852 83.5284 12.8851 85.4993C12.3771 87.9852 11.9474 90.3926 11.5928 92.7045C13.2452 94.1519 15.1695 95.2555 17.2533 95.9508C20.5541 97.042 23.3059 96.7657 25.5497 96.5373C28.5384 96.2283 31.4543 95.4215 34.1768 94.1503C33.6565 89.7924 33.3958 85.4075 33.3959 81.0186C33.3959 80.5583 33.3959 76.2447 33.338 70.7104C33.3663 68.2601 33.1573 65.8129 32.7139 63.4029C32.4091 61.8189 31.9909 60.2588 31.4625 58.7347C25.6478 56.578 19.247 56.6107 13.4546 58.8268H13.4478Z" fill="white"/>
<path opacity="0.16" d="M16.7455 57.918C15.9665 61.4717 15.708 65.1198 15.9783 68.7479C16.342 73.763 17.7275 78.6507 20.0497 83.1106C22.651 87.9764 26.3452 92.1725 30.8422 95.3693C29.6536 95.7838 28.4302 96.0908 27.1867 96.2866C20.2918 97.3641 14.5393 94.6908 11.7261 93.0915C12.5422 88.8586 13.356 84.6269 14.1676 80.3963C11.8764 73.4651 11.6948 66.0096 13.6459 58.9751L16.7455 57.918Z" fill="#919191"/>
<path d="M13.2773 59.5387C10.5152 66.1574 12.4998 73.2023 13.9184 79.8824C13.9866 80.2063 14.481 80.0699 14.4128 79.746C13.0113 73.1443 11.0404 66.2188 13.7683 59.6751C13.8979 59.3716 13.4 59.242 13.2773 59.5387Z" fill="black"/>
<path d="M13.4685 81.5265C12.5896 85.3422 11.9226 89.2036 11.4702 93.093C11.4327 93.417 11.9442 93.417 11.9817 93.093C12.4306 89.2496 13.0908 85.4338 13.9595 81.6629C14.0345 81.3424 13.5401 81.206 13.465 81.5265H13.4685Z" fill="black"/>
<path d="M11.6747 93.3993C18.3071 98.4938 26.9683 97.3378 34.2451 94.4223C34.5486 94.2995 34.4156 93.8051 34.1087 93.9279C26.9478 96.8127 18.4673 97.9925 11.9441 92.9731C11.6849 92.7719 11.4292 93.2152 11.6849 93.413L11.6747 93.3993Z" fill="black"/>
<path d="M14.4266 59.023C17.1123 57.8914 20.0073 57.3418 22.9209 57.4106C25.8344 57.4794 28.7003 58.1649 31.3297 59.4219C31.6263 59.5617 31.8855 59.1219 31.5888 58.9786C28.9023 57.6871 25.9727 56.9793 22.9928 56.9017C20.013 56.8241 17.0505 57.3786 14.3004 58.5285C14.0003 58.6547 14.1333 59.1491 14.4368 59.023H14.4266Z" fill="black"/>
<path d="M32.2231 62.3638C33.4064 67.4992 33.0381 72.8085 33.0927 78.0325C33.1472 83.3202 33.3745 88.6022 33.7746 93.8785C33.7985 94.2195 34.31 94.2195 34.2861 93.8785C33.8838 88.3839 33.6564 82.8826 33.6041 77.3744C33.5666 72.3106 33.8701 67.1991 32.721 62.2308C32.6459 61.9103 32.1549 62.0433 32.2299 62.3638H32.2231Z" fill="black"/>
<path d="M31.4595 59.1976C31.231 59.1328 28.8066 58.4883 27.3369 59.9103C26.4332 60.7866 26.3378 62.0142 26.2491 63.1361C26.1658 64.3183 26.3235 65.5051 26.7129 66.6244C27.3948 68.6704 28.4383 69.9866 29.7068 71.5825C30.7059 72.8373 32.2779 74.8219 34.525 77.7033C34.1772 78.774 33.801 79.8664 33.3963 80.9803C32.4893 83.4627 31.5209 85.7815 30.5286 87.9331C29.9769 87.9649 29.4291 88.046 28.8918 88.1752C27.3983 88.5401 25.649 89.379 25.7376 89.8325C25.7717 90.0064 26.1093 90.3337 28.9123 90.2587C29.9331 91.8877 31.091 93.4266 32.3734 94.8587C33.2156 95.8067 34.4193 97.1434 34.7876 96.9047C35.1559 96.666 34.5898 95.1281 34.0101 93.4947C33.5566 92.2126 33.1099 91.1862 32.7928 90.5076C34.5849 88.6608 36.2387 86.6845 37.7406 84.5948C38.9294 82.942 40.0213 81.2217 41.0107 79.4424C40.5402 78.2898 40.0559 77.1316 39.5581 75.9677C36.9904 70.0446 34.2727 64.4489 31.4595 59.1976Z" fill="white"/>
<path opacity="0.1" d="M26.9479 60.2344C27.6913 61.8257 28.4949 63.4409 29.3588 65.0799C31.3888 68.9408 33.6314 72.6862 36.0764 76.2986C36.0734 77.6076 35.934 78.9127 35.6603 80.1927C34.5589 85.3281 31.9094 86.9615 31.7014 90.4533C31.6196 91.9195 31.9571 94.0473 33.9792 96.7241L28.9632 90.8283C26.8627 90.5146 25.7988 90.1373 25.7715 89.6963C25.7374 89.137 27.3685 88.4732 30.6648 87.7048C31.2956 86.4909 31.9265 85.1406 32.5232 83.6641C33.2574 81.8459 33.8781 79.9839 34.3816 78.0888C32.6391 75.5621 31.2036 73.557 30.2488 72.2476C27.8993 69.015 27.115 68.0841 26.6513 66.3859C26.1426 64.3509 26.2458 62.211 26.9479 60.2344Z" fill="#919191"/>
<path d="M26.7025 60.1665C26.0205 62.475 25.567 64.5994 26.5593 66.9045C27.7425 69.6325 29.7646 72.1388 31.3878 74.6144C31.5685 74.8906 32.0118 74.6349 31.8276 74.3587C30.4841 72.3127 29.0622 70.2668 27.8039 68.1696C26.2149 65.5133 26.3342 63.1911 27.1935 60.3029C27.2053 60.24 27.1931 60.1749 27.1592 60.1205C27.1254 60.0661 27.0723 60.0265 27.0106 60.0093C26.9489 59.9922 26.883 59.9988 26.826 60.0279C26.7689 60.057 26.7249 60.1065 26.7025 60.1665Z" fill="black"/>
<path d="M31.2719 60.4921C33.0758 63.1484 34.3408 66.156 35.7526 69.0169L40.2537 78.2579C40.3969 78.5511 40.8368 78.292 40.6936 77.9987L36.1924 68.7578C34.7909 65.8798 33.519 62.8722 31.7118 60.2329C31.5276 59.9636 31.0843 60.2329 31.2719 60.4921Z" fill="black"/>
<path d="M35.9466 76.0774C34.2417 76.9368 33.7984 78.611 33.3141 80.3331C32.5902 82.9248 31.5887 85.4308 30.327 87.8076C30.1702 88.0975 30.6135 88.3566 30.7669 88.0634C31.6615 86.3899 32.4264 84.6503 33.055 82.8598C33.8018 80.732 33.9723 77.6494 36.199 76.5173C36.4922 76.3707 36.2331 75.9274 35.9398 76.0774H35.9466Z" fill="black"/>
<path d="M40.4414 79.8995C38.6239 84.2813 34.5592 87.1013 32.0938 91.0671C31.9165 91.3467 32.3598 91.6024 32.5337 91.3228C35.0332 87.3127 39.091 84.4791 40.9358 80.0359C41.062 79.7324 40.5641 79.5995 40.4414 79.8995Z" fill="black"/>
<path d="M30.4296 87.5762C28.6052 87.9342 26.7332 88.3741 25.4272 89.7926C25.396 89.8246 25.3736 89.8642 25.3621 89.9074C25.3507 89.9506 25.3506 89.996 25.362 90.0393C25.3733 90.0825 25.3956 90.1221 25.4268 90.1542C25.4579 90.1862 25.4968 90.2097 25.5397 90.2223C26.6546 90.4069 27.7821 90.505 28.9121 90.5156C28.98 90.5156 29.045 90.4886 29.093 90.4406C29.1409 90.3927 29.1679 90.3276 29.1679 90.2598C29.1679 90.192 29.1409 90.1269 29.093 90.079C29.045 90.031 28.98 90.0041 28.9121 90.0041C27.8279 89.9973 26.7458 89.905 25.6761 89.7279L25.7886 90.1541C27.0333 88.7901 28.8337 88.4116 30.5625 88.0672C30.8831 88.0024 30.7467 87.5114 30.4261 87.5762H30.4296Z" fill="black"/>
<path d="M32.5571 90.6576C33.4301 92.3626 34.2621 94.0675 34.4019 96.0146C34.4258 96.3556 34.9373 96.3556 34.9134 96.0146C34.7736 93.9857 33.9109 92.1852 32.997 90.3984C32.847 90.1052 32.4071 90.3643 32.5571 90.6576Z" fill="black"/>
<path d="M28.7692 91.0076C30.273 92.2829 31.2892 93.7867 32.4042 95.3894C32.827 95.9963 33.6625 97.3637 34.5354 96.9477C34.8321 96.8079 34.5729 96.3646 34.2763 96.5078C33.6147 96.8215 32.0393 93.8719 31.7018 93.4014C30.9618 92.3803 30.0982 91.4548 29.1307 90.6461C28.8783 90.4347 28.5169 90.7962 28.7692 91.0076Z" fill="black"/>
<path d="M27.8583 36.8867C28.0765 37.8483 28.2846 38.8372 28.4755 39.8534C28.9836 42.5472 29.3212 45.1149 29.5326 47.5257L28.4789 47.0245C28.4963 48.8592 28.1737 50.6813 27.5275 52.3985C26.0949 53.0758 24.5293 53.4253 22.9446 53.4215L22.6275 56.47L18.0513 57.4316L18.556 53.3397C18.6037 51.6438 18.6503 49.9502 18.6958 48.2589C18.215 48.3259 17.7262 48.2155 17.3208 47.9484C16.9154 47.6813 16.6211 47.2758 16.4928 46.8076C16.3646 46.3393 16.4112 45.8404 16.624 45.404C16.8367 44.9677 17.2011 44.6237 17.649 44.4363C18.0394 44.2839 18.4659 44.2489 18.876 44.3355C19.2861 44.4221 19.662 44.6266 19.9575 44.9239C20.101 43.1184 20.7962 41.4006 21.9489 40.0034C23.4484 38.248 25.5628 37.1329 27.8583 36.8867Z" fill="white"/>
<path opacity="0.18" d="M22.6276 40.918C21.6141 42.3623 21.1321 44.1131 21.2636 45.8726C21.5091 48.5835 23.2482 50.268 23.9131 50.9125C24.7133 51.6863 25.6452 52.311 26.665 52.7573C25.3274 53.3016 23.8545 53.4207 22.4469 53.0983C22.1265 53.0185 21.813 52.9136 21.5091 52.7846L19.4836 57.1152L18.0515 57.4221C18.2876 56.3771 18.4449 55.3159 18.522 54.2474C18.6642 52.2339 18.5241 50.2104 18.106 48.2357C17.0558 47.8299 16.401 46.9467 16.4658 46.1897C16.5647 45.2145 17.956 44.2017 19.6405 44.6553L22.6276 40.918Z" fill="#919191"/>
<path d="M28.1313 39.5434C28.8087 42.1534 29.193 44.8309 29.277 47.5261L29.618 47.2806L28.5678 46.9396C28.2541 46.8441 28.1211 47.3351 28.4348 47.434L29.4816 47.775C29.5208 47.788 29.5626 47.7915 29.6034 47.7852C29.6442 47.7788 29.6829 47.7628 29.7163 47.7384C29.7497 47.7141 29.7767 47.6821 29.7952 47.6451C29.8137 47.6082 29.8231 47.5674 29.8226 47.5261C29.7257 44.7835 29.3231 42.0603 28.6223 39.407C28.6134 39.3745 28.5981 39.3442 28.5774 39.3176C28.5567 39.291 28.531 39.2688 28.5017 39.2522C28.4425 39.2186 28.3725 39.2099 28.3069 39.228C28.2413 39.2461 28.1856 39.2895 28.1521 39.3486C28.1185 39.4078 28.1098 39.4778 28.1279 39.5434H28.1313Z" fill="black"/>
<path d="M28.2233 47.0272C28.2194 48.8373 27.8998 50.6328 27.2787 52.3331C27.1662 52.6434 27.6607 52.7764 27.7732 52.4695C28.41 50.721 28.7355 48.8744 28.7348 47.0136C28.7348 46.9457 28.7078 46.8807 28.6599 46.8327C28.6119 46.7848 28.5469 46.7578 28.479 46.7578C28.4112 46.7578 28.3462 46.7848 28.2982 46.8327C28.2502 46.8807 28.2233 46.9457 28.2233 47.0136V47.0272Z" fill="black"/>
<path d="M20.5273 52.5811C21.376 53.0839 22.3231 53.3978 23.304 53.5013C24.285 53.6049 25.2767 53.4957 26.2117 53.1812C26.522 53.0789 26.389 52.5845 26.0753 52.6902C25.2055 52.9877 24.2815 53.0927 23.3671 52.9979C22.4528 52.9031 21.5699 52.6108 20.7797 52.1412C20.7216 52.1116 20.6545 52.1053 20.592 52.1235C20.5294 52.1417 20.4762 52.1831 20.4431 52.2392C20.41 52.2953 20.3996 52.362 20.414 52.4255C20.4284 52.489 20.4665 52.5447 20.5205 52.5811H20.5273Z" fill="black"/>
<path d="M22.6891 53.4081C22.6209 54.4072 22.522 55.3995 22.3822 56.3884C22.3379 56.7089 22.8323 56.8487 22.8766 56.5248C23.0199 55.5018 23.129 54.4515 23.2006 53.4081C23.2245 53.0671 22.713 53.0671 22.6891 53.4081Z" fill="black"/>
<path d="M18.2628 54.2597C18.2877 55.3138 18.132 56.3645 17.8024 57.3661C17.7001 57.6798 18.1946 57.8128 18.2969 57.5025C18.6388 56.4565 18.8002 55.3599 18.7743 54.2597C18.7743 54.1918 18.7473 54.1268 18.6994 54.0788C18.6514 54.0308 18.5863 54.0039 18.5185 54.0039C18.4507 54.0039 18.3856 54.0308 18.3377 54.0788C18.2897 54.1268 18.2628 54.1918 18.2628 54.2597Z" fill="black"/>
<path d="M18.6925 48.0173C17.3661 47.99 16.4522 47.1444 16.8648 45.7804C16.9167 45.532 17.0292 45.3002 17.1921 45.1057C17.3551 44.9112 17.5636 44.7599 17.7991 44.6654C18.3754 44.4369 19.1631 44.4096 19.5348 45.0063C19.5687 45.0651 19.6246 45.108 19.6901 45.1256C19.7557 45.1432 19.8255 45.134 19.8843 45.1001C19.9431 45.0662 19.986 45.0103 20.0036 44.9448C20.0212 44.8792 20.012 44.8094 19.9781 44.7506C19.2006 43.448 17.1001 43.9595 16.5375 45.1973C15.7259 46.9875 16.7796 48.4845 18.6925 48.5254C18.7604 48.5254 18.8254 48.4985 18.8734 48.4505C18.9213 48.4025 18.9483 48.3375 18.9483 48.2697C18.9483 48.2018 18.9213 48.1368 18.8734 48.0888C18.8254 48.0409 18.7604 48.0139 18.6925 48.0139V48.0173Z" fill="black"/>
<path d="M26.5012 42.511C26.5767 43.0085 26.5996 43.5125 26.5694 44.0148H27.0809C27.1058 43.4444 27.0715 42.8731 26.9786 42.3098C26.9241 41.9688 26.433 42.1223 26.4842 42.4462C26.5671 42.9601 26.5957 43.4813 26.5694 44.0011C26.5694 44.3421 27.0605 44.3421 27.0809 44.0011C27.1088 43.4529 27.0802 42.9033 26.9957 42.3609C26.9445 42.037 26.4501 42.1768 26.5012 42.4973V42.511Z" fill="black"/>
<path d="M18.4878 44.2647C19.2038 44.3295 19.3812 44.9092 19.9574 44.9467C20.5337 44.9842 21.3487 44.4148 22.3887 42.0551C22.7551 42.2314 23.1654 42.2956 23.5682 42.2398C23.9709 42.184 24.3482 42.0106 24.6529 41.7414C24.8881 41.5107 25.0668 41.2288 25.175 40.9177C25.2833 40.6065 25.3181 40.2746 25.2769 39.9478C28.8813 40.3433 31.6501 39.2658 31.9093 37.9973C32.1684 36.7288 29.9145 34.4305 25.9896 33.4962C25.4597 32.9444 24.8181 32.5121 24.1078 32.2281C23.3974 31.9441 22.6347 31.8149 21.8704 31.8492C20.9345 31.9274 20.037 32.2562 19.2719 32.801C18.5069 33.3458 17.9027 34.0865 17.5227 34.9454C17.342 34.8738 14.9107 33.9701 12.8989 35.4194C11.1496 36.681 10.4744 39.1703 11.3883 41.4208C11.1973 41.4584 8.69441 41.9767 7.95445 43.934C7.18722 45.9595 8.55801 48.8784 11.5894 49.9696C11.4087 50.2049 10.2255 51.8007 10.7199 53.4443C11.4531 55.7869 15.1869 56.7178 16.6123 55.4903C17.0286 55.0962 17.2797 54.5587 17.3147 53.9865C18.4127 54.5287 19.5278 54.573 20.0188 54.0444C20.5098 53.5159 20.2098 52.4622 19.8449 51.3506C19.5101 50.3288 18.9975 49.3742 18.3309 48.5306C18.0375 48.5293 17.7474 48.4694 17.4776 48.3541C17.2079 48.2389 16.9639 48.0708 16.7601 47.8598C16.5564 47.6487 16.397 47.399 16.2914 47.1253C16.1857 46.8516 16.136 46.5596 16.1451 46.2664C16.2201 44.9263 17.6012 44.1829 18.4878 44.2647Z" fill="#461EB8"/>
</svg>
