<svg width="16" height="16" viewBox="0 0 16 16" fill="none" xmlns="http://www.w3.org/2000/svg">
<path fill-rule="evenodd" clip-rule="evenodd" d="M8 16C3.59471 16 0 12.4053 0 8C0 3.59471 3.59471 0 8 0C12.4053 0 16 3.59471 16 8C16 12.4053 12.4053 16 8 16ZM11.9648 5.07489C11.7004 4.81057 11.2952 4.81057 11.0308 5.07489L6.81938 9.46256L4.95154 7.50661C4.68722 7.24229 4.28194 7.24229 4.01762 7.50661C3.7533 7.77093 3.7533 8.21145 4.01762 8.47577L6.36123 10.9075C6.62555 11.1718 7.03084 11.1718 7.29515 10.9075L11.9648 6.04405C12.2291 5.77974 12.2291 5.33921 11.9648 5.07489Z" fill="currentColor"/>
</svg>
