<svg width="16" height="14" viewBox="0 0 16 14" fill="none" xmlns="http://www.w3.org/2000/svg">
<path d="M10.3127 3.31348C7.8672 3.31348 5.87646 5.30253 5.87646 7.748C5.87646 10.1935 7.8672 12.1842 10.3127 12.1842C12.7581 12.1842 14.7472 10.1935 14.7472 7.748C14.7489 5.30253 12.7598 3.31348 10.3127 3.31348ZM10.3127 11.5695C8.20573 11.5695 6.4912 9.85495 6.4912 7.748C6.4912 5.64105 8.20573 3.92821 10.3127 3.92821C12.4196 3.92821 14.1325 5.64105 14.1325 7.748C14.1325 9.85495 12.4196 11.5695 10.3127 11.5695Z" fill="currentColor"/>
<path d="M10.3126 5.1982C10.4827 5.1982 10.6208 5.06009 10.6208 4.88999V4.37462C10.6208 4.20451 10.4827 4.06641 10.3126 4.06641C10.1425 4.06641 10.0044 4.20451 10.0044 4.37462V4.88999C10.0061 5.06009 10.1425 5.1982 10.3126 5.1982Z" fill="currentColor"/>
<path d="M7.45444 7.44141H6.93907C6.76896 7.44141 6.63086 7.57951 6.63086 7.74962C6.63086 7.91972 6.76896 8.05783 6.93907 8.05783H7.45444C7.62454 8.05783 7.76265 7.91972 7.76265 7.74962C7.76265 7.57951 7.62454 7.44141 7.45444 7.44141Z" fill="currentColor"/>
<path d="M10.3126 10.2988C10.1425 10.2988 10.0044 10.4369 10.0044 10.607V11.1224C10.0044 11.2925 10.1425 11.4306 10.3126 11.4306C10.4827 11.4306 10.6208 11.2925 10.6208 11.1224V10.607C10.6208 10.4352 10.4827 10.2988 10.3126 10.2988Z" fill="currentColor"/>
<path d="M13.6876 7.44141H13.1705C13.0004 7.44141 12.8623 7.57951 12.8623 7.74962C12.8623 7.91972 13.0004 8.05783 13.1705 8.05783H13.6859C13.856 8.05783 13.9941 7.91972 13.9941 7.74962C13.9941 7.57951 13.8577 7.44141 13.6876 7.44141Z" fill="currentColor"/>
<path d="M11.0618 6.71873L10.3511 7.31494L9.30518 6.06862C9.1957 5.93894 9.00202 5.9221 8.87233 6.02989C8.74265 6.13936 8.72581 6.33304 8.8336 6.46273L10.0782 7.94483C10.1389 8.01725 10.2264 8.05431 10.314 8.05431C10.3831 8.05431 10.4538 8.03073 10.5111 7.98188L11.4576 7.18862C11.5873 7.07915 11.6041 6.88546 11.4963 6.75578C11.3852 6.6261 11.1915 6.60925 11.0618 6.71873Z" fill="currentColor"/>
<path d="M11.2774 2.14232V1.58316H11.3448C11.781 1.58316 12.1364 1.22779 12.1364 0.791579C12.1364 0.355368 11.781 0 11.3448 0H9.27994C8.84373 0 8.48836 0.355368 8.48836 0.791579C8.48836 1.22779 8.84373 1.58316 9.27994 1.58316H9.34731V2.14737C8.84204 2.23326 8.35025 2.38484 7.88373 2.60379C7.82141 2.63242 7.76078 2.66442 7.70015 2.69642L7.33804 2.13389C7.24541 1.99074 7.05678 1.95032 6.91362 2.04126L6.11868 2.55158C6.04794 2.59705 5.9991 2.66779 5.98394 2.75032C5.9671 2.83116 5.98562 2.91705 6.03278 2.9861L6.44541 3.58568C5.29004 4.65853 4.62646 6.16926 4.62646 7.75074C4.62646 10.8867 7.17804 13.4383 10.314 13.4383C13.45 13.4383 15.9999 10.8834 15.9999 7.74737C15.9999 4.96842 13.989 2.60547 11.2774 2.14232ZM9.10309 0.789895C9.10309 0.69221 9.18225 0.613053 9.27994 0.613053H11.3448C11.4425 0.613053 11.5216 0.69221 11.5216 0.789895C11.5216 0.887579 11.4425 0.966737 11.3448 0.966737H11.0433C11.0197 0.96 10.9945 0.956631 10.9692 0.956631H9.65552C9.63025 0.956631 9.60499 0.96 9.58141 0.966737H9.27994C9.18225 0.966737 9.10309 0.887579 9.10309 0.789895ZM10.6627 1.58316V2.07158C10.4319 2.0581 10.1945 2.0581 9.96373 2.07158V1.58316H10.6627ZM6.98941 2.72505L7.17131 3.00968C7.15952 3.01642 7.14941 3.02653 7.13762 3.03326C7.10899 3.05179 7.08204 3.072 7.05341 3.09221C7.00794 3.12421 6.96246 3.15453 6.91867 3.18821L6.71994 2.89853L6.98941 2.72505ZM10.3124 12.8185C7.51657 12.8185 5.2412 10.5432 5.2412 7.74737C5.2412 6.31074 5.85425 4.93474 6.92373 3.97642C6.96415 3.93937 7.00457 3.904 7.04667 3.87031C7.05004 3.86863 7.05173 3.86526 7.0551 3.86358C7.05846 3.86189 7.06015 3.85853 7.06352 3.85684C7.09888 3.82653 7.13425 3.79789 7.17299 3.76758C7.35994 3.61937 7.55531 3.48631 7.75741 3.3701L7.79446 3.34821C7.84331 3.31789 7.89383 3.29095 7.94604 3.264C8.01341 3.22863 8.08078 3.19326 8.14983 3.16126C8.63825 2.93053 9.15867 2.78063 9.69425 2.71495C10.0968 2.6661 10.5313 2.6661 10.9338 2.71495C13.4719 3.02484 15.3852 5.18905 15.3852 7.74905C15.3852 10.5448 13.1098 12.8185 10.3124 12.8185Z" fill="currentColor"/>
<path d="M2.69151 6.05294H4.54583C4.71593 6.05294 4.85404 5.91484 4.85404 5.74473C4.85404 5.57463 4.71593 5.43652 4.54583 5.43652H2.69151C2.52141 5.43652 2.3833 5.57463 2.3833 5.74473C2.3833 5.91484 2.52141 6.05294 2.69151 6.05294Z" fill="currentColor"/>
<path d="M1.06456 8.05587H4.17024C4.34035 8.05587 4.47845 7.91777 4.47845 7.74766C4.47845 7.57756 4.34035 7.43945 4.17024 7.43945H1.06456C0.894453 7.43945 0.756348 7.57756 0.756348 7.74766C0.756348 7.91777 0.894453 8.05587 1.06456 8.05587Z" fill="currentColor"/>
<path d="M4.54589 9.44238H2.06505C1.89494 9.44238 1.75684 9.58049 1.75684 9.75059C1.75684 9.9207 1.89494 10.0588 2.06505 10.0588H4.54589C4.71599 10.0588 4.8541 9.9207 4.8541 9.75059C4.8541 9.58049 4.71599 9.44238 4.54589 9.44238Z" fill="currentColor"/>
<path d="M1.26653 9.44238H0.30821C0.138105 9.44238 0 9.58049 0 9.75059C0 9.9207 0.138105 10.0588 0.30821 10.0588H1.26653C1.43663 10.0588 1.57474 9.9207 1.57474 9.75059C1.57474 9.58049 1.43495 9.44238 1.26653 9.44238Z" fill="currentColor"/>
</svg>
