<svg width="16" height="16" viewBox="0 0 16 16" fill="none" xmlns="http://www.w3.org/2000/svg">
<path d="M7.99987 1.29128e-07C5.38401 0.000463756 2.93293 1.28219 1.4383 3.42865C1.39574 3.48598 1.36512 3.55127 1.34827 3.62066C1.33141 3.69005 1.32866 3.76211 1.34017 3.83258C1.35168 3.90305 1.37723 3.97049 1.41529 4.0309C1.45335 4.09132 1.50316 4.14347 1.56175 4.18428C1.62035 4.22509 1.68654 4.25372 1.75641 4.26846C1.82627 4.28321 1.89839 4.28379 1.96848 4.27014C2.03857 4.2565 2.10521 4.22893 2.16444 4.18906C2.22368 4.14918 2.2743 4.09782 2.31332 4.03802C3.60932 2.17681 5.73213 1.06707 7.99987 1.06667C11.8353 1.06598 14.9333 4.1645 14.9333 8C14.9333 11.8355 11.8356 14.9354 8.00039 14.9333C5.73547 14.9323 3.61531 13.8213 2.32061 11.962C2.28159 11.9022 2.23097 11.8508 2.17173 11.8109C2.1125 11.7711 2.04586 11.7435 1.97577 11.7299C1.90568 11.7162 1.83356 11.7168 1.7637 11.7315C1.69383 11.7463 1.62764 11.7749 1.56905 11.8157C1.51045 11.8565 1.46064 11.9087 1.42258 11.9691C1.38452 12.0295 1.35897 12.0969 1.34746 12.1674C1.33595 12.2379 1.3387 12.31 1.35556 12.3793C1.37242 12.4487 1.40303 12.514 1.4456 12.5714C2.93857 14.7154 5.38583 15.9986 7.99935 16C12.4117 16.002 16 12.412 16 8C16 3.58803 12.412 -0.000786004 7.99987 1.29128e-07ZM7.99987 2.13385C5.72723 2.13385 3.7569 3.43685 2.78364 5.33229H0.533602C-0.177867 5.33229 -0.177867 6.39948 0.533602 6.39948H2.66749C3.39476 6.38315 3.39476 7.48247 2.66749 7.46615H0.533602C-0.177867 7.46615 -0.177867 8.53333 0.533602 8.53333H2.66749C3.39445 8.51732 3.39445 9.61601 2.66749 9.6H0.533602C-0.177867 9.6 -0.177867 10.6672 0.533602 10.6672H2.78312C3.75637 12.5629 5.72704 13.8661 7.99987 13.8661C11.2337 13.8661 13.8661 11.2338 13.8661 8C13.8661 4.76625 11.2337 2.13385 7.99987 2.13385ZM7.99206 4.2599C8.29211 4.25522 8.53696 4.49889 8.53373 4.79896V7.77917L10.5098 9.75573C11.0469 10.2579 10.2587 11.0466 9.75615 10.5099L7.62226 8.3776C7.5223 8.27738 7.46628 8.14154 7.46653 8V4.79896C7.46337 4.50521 7.69832 4.26421 7.99206 4.2599Z" fill="currentColor"/>
</svg>
