<svg width="16" height="16" viewBox="0 0 16 16" fill="none" xmlns="http://www.w3.org/2000/svg">
<path fill-rule="evenodd" clip-rule="evenodd" d="M8 0C3.58187 0 0 3.58169 0 8C0 12.4181 3.58187 16 8 16C12.4183 16 16 12.4183 16 8C16 3.58169 12.4183 0 8 0ZM11.3003 10.245C11.0297 10.7868 10.6601 11.2548 10.1924 11.6489C9.75733 12.0347 9.26916 12.3303 8.72729 12.5355C8.02116 12.806 7.29031 12.901 6.53511 12.8187C6.53511 12.285 6.53511 11.485 6.53511 10.4172C6.53511 9.35022 6.53511 8.5456 6.53511 8.00391C6.53511 8.00391 6.48196 8.02471 6.37511 8.0656L4.68818 8.66898C4.68818 8.42276 4.68818 8.16427 4.68818 7.89316L6.53529 7.22844C6.53529 7.17902 6.53529 7.03556 6.53529 6.79751C6.44516 6.8384 6.32409 6.88764 6.17227 6.94524C6.02027 7.00267 5.92373 7.03538 5.88267 7.04373L4.90987 7.40071C4.90987 7.40071 4.88338 7.40871 4.83004 7.42524C4.77653 7.44178 4.72942 7.45422 4.68818 7.46222C4.68818 7.06827 4.68818 6.8096 4.68818 6.68676L6.53529 6.03396C6.53529 5.67271 6.53529 5.19253 6.53529 4.59324C6.53529 3.99413 6.53529 3.51378 6.53529 3.15253C7.09333 3.15253 7.41796 3.15253 7.50827 3.15253C7.50827 3.25102 7.50827 3.67396 7.50827 4.4208C7.50827 5.16782 7.50827 5.58649 7.50827 5.6768L10.4638 4.60551C10.4638 4.8928 10.4638 5.15147 10.4638 5.38116L7.50827 6.45244C7.50827 6.48533 7.50827 6.55502 7.50827 6.66187C7.50827 6.76853 7.50827 6.8384 7.50827 6.87129L9.10898 6.30453L10.4638 5.79982C10.4638 5.84907 10.4638 5.97422 10.4638 6.17547C10.4638 6.37636 10.4638 6.4976 10.4638 6.53867C10.4638 6.57138 10.4553 6.58791 10.4388 6.58791L7.59413 7.60978C7.56142 7.62631 7.53262 7.64284 7.50827 7.6592C7.50827 8.15982 7.50827 8.85138 7.50827 9.73369C7.50827 10.616 7.50827 11.3079 7.50827 11.8087C7.50827 11.8087 7.50827 11.8126 7.50827 11.8212C7.50827 11.8292 7.50827 11.8331 7.50827 11.8331C8.25511 11.7429 8.91627 11.4597 9.49049 10.9836C10.1227 10.4663 10.5456 9.82204 10.7593 9.05013C10.8492 8.69707 10.8948 8.34436 10.8948 7.99129C10.8948 7.99129 11.2229 7.99129 11.8795 7.99129C11.8791 8.78809 11.6864 9.5392 11.3003 10.245Z" fill="currentColor"/>
</svg>
