<svg width="16" height="13" viewBox="0 0 16 13" fill="none" xmlns="http://www.w3.org/2000/svg">
<path d="M15.9526 7.63392C15.8177 7.07753 15.3793 6.60544 14.8061 6.47055C14.4689 6.38625 14.1485 6.40311 13.8619 6.50427C13.5078 6.6223 13.1369 6.7066 12.766 6.77404V3.23335H9.27587C9.34331 2.86242 9.42762 2.49149 9.54564 2.13742C9.6468 1.85079 9.66366 1.53045 9.57936 1.19324C9.42762 0.636844 8.97238 0.181612 8.41599 0.0467289C7.35378 -0.206178 6.4096 0.603123 6.4096 1.61475C6.4096 1.78335 6.44332 1.95196 6.4939 2.12056C6.61192 2.47463 6.69623 2.84556 6.76367 3.21649H3.22298V6.75718C2.85205 6.68974 2.49798 6.60544 2.14391 6.48741C1.85728 6.38625 1.53693 6.36939 1.19972 6.45369C0.64333 6.60544 0.188099 7.06067 0.0532152 7.61706C-0.216552 8.69613 0.575889 9.64031 1.60437 9.64031C1.77298 9.64031 1.94158 9.60659 2.11019 9.55601C2.46426 9.43799 2.83519 9.35369 3.20612 9.28624V12.8269H6.71309C6.64564 12.4729 6.5782 12.1357 6.46018 11.7984C6.4096 11.6467 6.37588 11.4781 6.37588 11.2926C6.37588 10.281 7.32006 9.47171 8.38227 9.72462C8.93866 9.8595 9.41075 10.2979 9.54564 10.8711C9.62994 11.2083 9.61308 11.5287 9.51192 11.8153C9.39389 12.1525 9.32645 12.4897 9.25901 12.8269H12.766V9.3031C13.1369 9.37055 13.5078 9.45485 13.8619 9.57287C14.0137 9.62345 14.1823 9.65717 14.3677 9.65717C15.4131 9.64031 16.2055 8.69613 15.9526 7.63392Z" fill="currentColor"/>
</svg>
