<svg width="16" height="16" viewBox="0 0 16 16" fill="none" xmlns="http://www.w3.org/2000/svg">
<path d="M15.3143 1.87571H11.4286V1.03955C11.4286 0.451978 10.88 0 10.1943 0H5.80571C5.12 0 4.57143 0.451978 4.57143 1.03955V1.87571H0.685714C0.297143 1.87571 0 2.16949 0 2.55367C0 2.93785 0.297143 3.23164 0.685714 3.23164H1.53143L2.37714 13.7627C2.4 15.0057 3.40571 16 4.66286 16H11.3143C12.5714 16 13.5771 15.0057 13.6 13.7627L14.4686 3.25424H15.3143C15.7029 3.25424 16 2.96045 16 2.57627C16 2.19209 15.7029 1.87571 15.3143 1.87571ZM5.94286 1.35593H10.0571V1.87571H5.94286V1.35593ZM6.21714 12.3616H6.19429C5.82857 12.3616 5.53143 12.0678 5.50857 11.7062L5.25714 6.19209C5.23429 5.80791 5.53143 5.49153 5.92 5.49153H5.94286C6.30857 5.49153 6.60572 5.78531 6.62857 6.14689L6.88 11.661C6.88 12.0226 6.60571 12.339 6.21714 12.3616ZM10.4914 11.7062C10.4686 12.0678 10.1714 12.3616 9.80572 12.3616H9.78286C9.39429 12.339 9.12 12.0226 9.12 11.661L9.37143 6.14689C9.39429 5.78531 9.69143 5.49153 10.0571 5.49153H10.08C10.4686 5.51412 10.7429 5.83051 10.7429 6.19209L10.4914 11.7062Z" fill="currentColor"/>
</svg>
