<svg width="16" height="16" viewBox="0 0 16 16" fill="none" xmlns="http://www.w3.org/2000/svg">
<path d="M10.2066 5.79347C12.0737 7.6625 12.0481 10.659 10.2179 12.4994C10.2144 12.5031 10.2104 12.5072 10.2066 12.511L8.10662 14.611C6.25444 16.4631 3.24104 16.4629 1.38914 14.611C-0.463046 12.7591 -0.463046 9.74534 1.38914 7.89347L2.5487 6.73391C2.8562 6.42641 3.38576 6.63078 3.40163 7.06535C3.42188 7.61916 3.5212 8.17556 3.70445 8.71287C3.76651 8.89481 3.72216 9.09606 3.58623 9.232L3.17726 9.64097C2.30145 10.5168 2.27398 11.9428 3.14117 12.8272C4.01691 13.7203 5.45635 13.7256 6.33882 12.8431L8.43881 10.7435C9.31978 9.8625 9.31609 8.43856 8.43881 7.56128C8.32316 7.44585 8.20666 7.35616 8.11566 7.2935C8.05128 7.24929 7.99812 7.19065 7.96043 7.12226C7.92274 7.05386 7.90155 6.9776 7.89856 6.89956C7.88619 6.56935 8.00319 6.22907 8.26412 5.96813L8.92206 5.31016C9.09459 5.13763 9.36525 5.11644 9.56531 5.25607C9.79442 5.41605 10.009 5.59588 10.2066 5.79347V5.79347ZM14.6108 1.38904C12.7589 -0.46289 9.74553 -0.46314 7.89334 1.38904L5.79335 3.48904C5.7896 3.49279 5.78554 3.49685 5.7821 3.5006C3.95191 5.34097 3.92626 8.3375 5.79335 10.2065C5.99094 10.4041 6.20552 10.5839 6.43463 10.7439C6.63469 10.8835 6.90538 10.8623 7.07788 10.6898L7.73581 10.0318C7.99675 9.7709 8.11375 9.43062 8.10137 9.1004C8.09838 9.02237 8.0772 8.94611 8.03951 8.87771C8.00181 8.80932 7.94866 8.75068 7.88428 8.70647C7.79328 8.64381 7.67678 8.55412 7.56113 8.43869C6.68385 7.56141 6.68016 6.13747 7.56113 5.25651L9.66112 3.15682C10.5436 2.27435 11.983 2.27967 12.8588 3.17276C13.726 4.05713 13.6985 5.48319 12.8227 6.359L12.4137 6.76797C12.2778 6.90391 12.2334 7.10516 12.2955 7.2871C12.4787 7.82441 12.5781 8.38081 12.5983 8.93462C12.6142 9.36918 13.1437 9.57356 13.4512 9.26606L14.6108 8.1065C16.463 6.25466 16.463 3.24092 14.6108 1.38904V1.38904Z" fill="#585858"/>
</svg>
