<svg width="16" height="11" viewBox="0 0 16 11" fill="none" xmlns="http://www.w3.org/2000/svg">
<path d="M12.0484 8.25618C12.0457 8.21566 12.043 8.17515 12.0388 8.13489C12.0361 8.10792 12.0324 8.08121 12.0292 8.05437C12.0248 8.0185 12.0205 7.98263 12.0151 7.94715C12.011 7.91953 12.0058 7.89205 12.001 7.86444C11.995 7.82973 11.9889 7.79515 11.9819 7.7607C11.9765 7.73399 11.9703 7.70741 11.9644 7.6807C11.9565 7.6456 11.9484 7.6105 11.9395 7.5758C11.9332 7.55102 11.9263 7.52638 11.9195 7.50173C11.9093 7.46496 11.8987 7.42831 11.8874 7.39206C11.8805 7.37025 11.8734 7.34844 11.8663 7.32677C11.8533 7.28741 11.8397 7.24831 11.8255 7.20961C11.8188 7.19141 11.8121 7.17335 11.8052 7.15528C11.7888 7.11283 11.7717 7.07064 11.7538 7.02883C11.7479 7.0149 11.7419 7.00096 11.7357 6.98703C11.7154 6.94096 11.6942 6.89541 11.6721 6.85025C11.6675 6.84083 11.663 6.83141 11.6583 6.82212C11.6337 6.77271 11.6079 6.7238 11.5812 6.67554C11.5783 6.67038 11.5755 6.66522 11.5726 6.66006C11.5432 6.60754 11.5126 6.55567 11.4808 6.50471C11.4801 6.50368 11.4796 6.50277 11.479 6.50174C10.7781 5.38033 9.51085 4.62988 8.06699 4.62988C6.8332 4.62988 5.72856 5.17801 4.99592 6.0371C4.99037 6.04355 4.98495 6.05 4.97953 6.05645C4.94586 6.09645 4.91321 6.1371 4.88121 6.17826C4.87399 6.18755 4.86676 6.19697 4.85953 6.20639C4.83063 6.24432 4.8025 6.28303 4.77502 6.322C4.76573 6.33516 4.75631 6.34832 4.74728 6.36174C4.72341 6.39658 4.70031 6.43206 4.67747 6.46768C4.66612 6.48548 4.6545 6.50316 4.64354 6.52122C4.62496 6.55142 4.60715 6.58213 4.58934 6.61284C4.57567 6.63658 4.5616 6.66019 4.54844 6.68419C4.53592 6.70677 4.52431 6.72987 4.51231 6.75283C4.49541 6.78509 4.47825 6.81722 4.46225 6.84987C4.46109 6.85206 4.46018 6.85438 4.45915 6.85658C4.36212 7.05632 4.28302 7.2638 4.22225 7.47657C4.22006 7.48405 4.21773 7.49154 4.21567 7.49902C4.20315 7.54392 4.1918 7.58909 4.18096 7.63438C4.1776 7.64831 4.17425 7.66225 4.17102 7.67618C4.1616 7.7176 4.15309 7.75915 4.14496 7.80083C4.14122 7.82005 4.13773 7.83928 4.13438 7.85863C4.12767 7.89657 4.12148 7.9345 4.11593 7.9727C4.11231 7.99799 4.10909 8.0234 4.10599 8.04895C4.10186 8.08237 4.09773 8.11566 4.09438 8.14921C4.09102 8.1834 4.0887 8.21786 4.08625 8.25231C4.08444 8.27824 4.08212 8.30418 4.08083 8.33024C4.07786 8.39192 4.07593 8.45385 4.07593 8.51618V9.46752V9.73462C4.07593 9.91655 4.22922 10.0646 4.41747 10.0646H11.7168C11.905 10.0646 12.0583 9.91655 12.0583 9.73462V9.26727V8.5163C12.0583 8.45205 12.0565 8.38805 12.0533 8.32456C12.0521 8.30173 12.0499 8.27902 12.0484 8.25618Z" fill="currentColor"/>
<path d="M4.24061 6.19659C4.29016 6.12188 4.34126 6.04846 4.39558 5.97698L4.50667 5.83117L4.37661 5.7553C3.9312 5.49556 3.41881 5.3584 2.89456 5.3584C1.29844 5.35827 0 6.62303 0 8.1776V9.04392C0 9.20405 0.134322 9.3345 0.299482 9.3345H3.53817V8.51541C3.53817 8.42109 3.54242 8.32134 3.55133 8.20147L3.55584 8.14393C3.56526 8.03644 3.57855 7.93115 3.59481 7.8318L3.59739 7.81799C3.61546 7.71038 3.63829 7.60174 3.66655 7.48883C3.69326 7.38419 3.72487 7.27748 3.76087 7.1718L3.63339 7.12974L3.76862 7.14935C3.83894 6.94639 3.92565 6.74716 4.02629 6.55723L4.04836 6.51542C4.09545 6.42858 4.14629 6.34252 4.19932 6.25955L4.24061 6.19659Z" fill="currentColor"/>
<path d="M2.89447 4.63857C3.73846 4.63857 4.42504 3.97006 4.42504 3.14839C4.42504 2.32671 3.73846 1.6582 2.89447 1.6582C2.05047 1.6582 1.36377 2.32671 1.36377 3.14851C1.36377 3.97006 2.05047 4.63857 2.89447 4.63857Z" fill="currentColor"/>
<path d="M7.97348 3.79017C9.0474 3.79017 9.92108 2.93998 9.92108 1.89508C9.92108 0.850187 9.0474 0 7.97348 0C6.89955 0 6.02588 0.850187 6.02588 1.89508C6.02588 2.93998 6.89968 3.79017 7.97348 3.79017Z" fill="currentColor"/>
<path d="M13.1052 5.1582C12.5373 5.1582 11.9861 5.31936 11.5114 5.62439L11.3857 5.70504L11.4808 5.81923C11.693 6.07394 11.8761 6.35497 12.0246 6.65445L12.0312 6.66787C12.0585 6.72361 12.0847 6.78 12.1103 6.83806L12.1198 6.85974C12.1437 6.91548 12.1665 6.97174 12.1921 7.03845L12.197 7.05096C12.2456 7.18116 12.2875 7.31264 12.3219 7.44231L12.3299 7.47457C12.3434 7.52709 12.3561 7.57999 12.3675 7.63354L12.3812 7.70218C12.3896 7.74438 12.3975 7.78657 12.4046 7.82928C12.4088 7.85521 12.4127 7.88115 12.4166 7.90709C12.4226 7.94825 12.4282 7.98941 12.4328 8.03134C12.4358 8.05728 12.4389 8.08308 12.4415 8.10902C12.4459 8.15379 12.449 8.1987 12.4518 8.24386L12.4563 8.3116C12.4595 8.37934 12.4617 8.44721 12.4617 8.51547V9.13404H15.7004C15.8656 9.13404 15.9999 9.00372 15.9999 8.84347V7.97715C15.9998 6.42297 14.7013 5.1582 13.1052 5.1582Z" fill="currentColor"/>
<path d="M13.1053 4.50868C13.9493 4.50868 14.636 3.84017 14.636 3.0185C14.636 2.19683 13.9493 1.52832 13.1053 1.52832C12.2613 1.52832 11.5747 2.19683 11.5747 3.0185C11.5747 3.84017 12.2613 4.50868 13.1053 4.50868Z" fill="currentColor"/>
</svg>
