<svg width="780" height="730" viewBox="0 0 780 730" fill="none" xmlns="http://www.w3.org/2000/svg">
<path d="M191.038 262.124C188.257 268.834 183.322 271.698 177.357 272.302L176.775 272.36C172.23 272.709 167.347 272.558 162.279 269.595C153.928 264.727 145.07 252.237 136.365 221.797C122.398 172.867 117.16 126.557 144.843 134.661C156.098 137.96 174.436 173.082 184.876 203.487C188.321 213.514 190.905 223.029 192.098 230.72C194.396 245.69 193.71 255.682 191.038 262.124Z" fill="#DE9244"/>
<path d="M234.806 184.9L210.888 249.37C210.888 249.37 203.444 261.726 193.017 268.375C190.202 270.244 187.055 271.545 183.749 272.205C181.836 272.555 179.879 272.586 177.956 272.298C176.186 272.03 174.464 271.5 172.847 270.725C169.972 269.385 167.509 267.283 165.722 264.644C162.976 260.55 161.754 255.071 162.432 248.37C163.59 236.61 170.611 221.126 185.423 203.051C192.872 193.964 202.286 184.216 213.929 173.953L234.806 184.9Z" fill="#DE9244"/>
<path d="M193.488 268.195C190.564 270.146 187.294 271.503 183.859 272.192C181.872 272.557 179.839 272.59 177.841 272.29L177.239 272.351C172.539 272.717 167.49 272.558 162.248 269.446C162.676 268.458 163.16 267.496 163.698 266.565C164.156 265.778 165.769 264.93 165.149 264.301C155.773 254.792 180.585 252.229 187.235 256.178C189.335 257.447 191 259.339 192.008 261.597C192.927 263.675 193.431 265.918 193.488 268.195Z" fill="white"/>
<path d="M212.544 245.344C212.352 245.344 212.164 245.3 211.995 245.215C211.825 245.131 211.68 245.008 211.571 244.859C211.462 244.709 211.393 244.537 211.37 244.356C211.346 244.176 211.368 243.993 211.435 243.822L234.137 186.176L214.41 176.436C187.999 198.481 170.311 220.504 164.569 238.501C164.477 238.788 164.27 239.028 163.993 239.169C163.716 239.31 163.391 239.341 163.09 239.254C162.789 239.167 162.537 238.97 162.388 238.707C162.24 238.443 162.208 238.134 162.299 237.848C166.483 224.731 178.749 203.053 213.456 174.232C213.636 174.083 213.858 173.988 214.095 173.961C214.332 173.934 214.572 173.976 214.783 174.08L236.158 184.632C236.42 184.754 236.626 184.965 236.736 185.223C236.845 185.481 236.85 185.768 236.75 186.03L213.658 244.612C213.573 244.827 213.421 245.013 213.221 245.144C213.022 245.275 212.786 245.345 212.544 245.344Z" fill="#262424"/>
<path d="M228.025 196.074C225.068 196.074 212.859 195.229 208.666 181.677C208.567 181.355 208.588 181.003 208.726 180.699C208.864 180.394 209.107 180.162 209.401 180.054C209.695 179.945 210.017 179.968 210.295 180.119C210.574 180.27 210.786 180.535 210.885 180.857C215.061 194.352 227.961 193.545 228.511 193.506C228.822 193.482 229.128 193.595 229.363 193.818C229.598 194.041 229.743 194.358 229.764 194.697C229.786 195.037 229.684 195.372 229.479 195.629C229.275 195.886 228.986 196.044 228.675 196.068C228.675 196.068 228.429 196.074 228.025 196.074Z" fill="#262424"/>
<path d="M230.285 152.395C233.25 156.092 222.002 170.728 216.979 167.443C211.957 164.159 222.326 142.485 230.285 152.395Z" fill="white"/>
<path d="M218.653 168.926C217.868 168.931 217.099 168.705 216.445 168.277C214.888 167.257 214.32 165.032 214.838 162.022C215.644 157.36 219.376 150.234 224.3 148.996C226.023 148.565 228.59 148.696 231.057 151.782C233.442 154.77 229.445 161.123 226.36 164.422C223.588 167.366 220.872 168.926 218.653 168.926ZM225.714 150.997C225.412 150.998 225.111 151.036 224.819 151.111C221.297 152 217.781 157.797 216.991 162.388C216.638 164.438 216.881 165.959 217.643 166.461C219.045 167.382 221.888 165.97 224.709 162.944C228.419 158.969 230.229 154.329 229.296 153.129C228.154 151.728 226.978 151.002 225.714 151.002V150.997Z" fill="#262424"/>
<path d="M247.09 169.745C247.09 169.745 241.886 184.649 233.95 188.269C226.013 191.889 213.629 182.021 214.719 172.664C215.808 163.307 225.957 157.261 233.193 160.662C233.193 160.662 224.123 156.78 227.549 151.334C230.975 145.889 247.999 156.5 249.563 161.66C251.126 166.82 247.09 169.745 247.09 169.745Z" fill="white"/>
<path d="M230.173 190.041C226.856 190.041 223.196 188.744 219.897 186.286C214.882 182.556 212.133 177.269 212.712 172.495C213.289 168.839 215.085 165.483 217.812 162.969C220.538 160.456 224.035 158.933 227.737 158.645C226.748 157.778 225.998 156.672 225.561 155.433C225.332 154.659 225.282 153.843 225.416 153.048C225.55 152.252 225.865 151.498 226.336 150.841C227.099 149.692 228.76 148.431 232.355 148.926C239.179 149.869 250.095 156.965 251.52 161.374C252.053 162.99 252.077 164.731 251.588 166.361C251.098 167.991 250.119 169.433 248.782 170.491C247.883 172.802 242.567 185.715 234.502 189.192C233.133 189.767 231.659 190.056 230.173 190.041ZM228.618 160.967C226.318 160.996 224.064 161.615 222.073 162.765C220.202 163.775 218.595 165.208 217.379 166.947C216.162 168.687 215.37 170.685 215.066 172.784C214.587 176.721 216.981 181.171 221.316 184.4C225.455 187.495 230.185 188.526 233.562 187.029C241.326 183.681 246.635 169.483 246.689 169.348C246.768 169.11 246.921 168.904 247.126 168.758C248.144 168.012 248.9 166.963 249.284 165.763C249.668 164.562 249.662 163.272 249.267 162.075C248.214 158.792 238.245 152.103 232.03 151.242C230.723 151.065 229.014 151.071 228.311 152.126C228.032 152.491 227.843 152.915 227.758 153.365C227.673 153.815 227.694 154.279 227.82 154.72C228.506 156.941 231.841 158.845 233.396 159.511L233.721 159.653C234.01 159.775 234.238 160.007 234.355 160.297C234.472 160.588 234.468 160.912 234.345 161.2C234.222 161.487 233.989 161.714 233.698 161.831C233.407 161.948 233.082 161.944 232.793 161.822L232.515 161.704C231.277 161.206 229.953 160.956 228.618 160.967Z" fill="#262424"/>
<path d="M658.062 16.9221V298.79C658.063 300.883 657.651 302.955 656.849 304.888C656.048 306.821 654.873 308.577 653.391 310.057C651.91 311.537 650.15 312.711 648.214 313.511C646.278 314.312 644.203 314.724 642.107 314.724H181.203C176.975 314.718 172.922 313.037 169.934 310.049C166.947 307.061 165.27 303.012 165.271 298.79V16.9221C165.275 12.6997 166.957 8.65126 169.949 5.66665C172.94 2.68205 176.997 1.00549 181.226 1.00549H642.131C646.356 1.01162 650.406 2.69088 653.393 5.67483C656.38 8.65877 658.059 12.7037 658.062 16.9221Z" fill="white"/>
<path d="M640.993 314.725H181.31C176.79 314.712 172.46 312.917 169.266 309.73C166.071 306.543 164.273 302.225 164.264 297.72V17.0043C164.271 12.4949 166.072 8.17242 169.272 4.98481C172.472 1.7972 176.809 0.00457171 181.333 0H641.016C645.536 0.0106665 649.867 1.80598 653.062 4.99293C656.257 8.17989 658.055 12.4988 658.062 17.0043V297.72C658.053 302.229 656.251 306.551 653.052 309.738C649.853 312.925 645.516 314.718 640.993 314.725ZM181.31 2.30567C177.403 2.31634 173.66 3.86873 170.899 6.62329C168.138 9.37785 166.584 13.1103 166.577 17.0043V297.72C166.58 301.621 168.135 305.362 170.902 308.121C173.668 310.879 177.42 312.432 181.333 312.436H641.016C644.925 312.425 648.671 310.871 651.432 308.112C654.194 305.354 655.746 301.617 655.749 297.72V17.0043C655.745 13.1044 654.189 9.36542 651.422 6.60772C648.656 3.85001 644.905 2.29872 640.993 2.29415H181.31V2.30567Z" fill="#262424"/>
<path d="M658.062 17.0991V61.3361H165.271V17.0991C165.275 12.8297 166.957 8.7363 169.949 5.71849C172.94 2.70069 176.997 1.00549 181.226 1.00549H642.131C646.356 1.01169 650.406 2.70963 653.393 5.72676C656.38 8.74389 658.059 12.8338 658.062 17.0991Z" fill="#DE9244"/>
<path d="M656.906 62.3416H165.42C165.113 62.3416 164.819 62.219 164.602 62.0007C164.386 61.7823 164.264 61.4863 164.264 61.1775V17.17C164.271 12.6166 166.072 8.25203 169.272 5.03337C172.472 1.81471 176.809 0.00461625 181.333 0H641.016C645.536 0.0107704 649.867 1.82357 653.062 5.04157C656.257 8.25957 658.054 12.6206 658.062 17.17V61.1659C658.064 61.3197 658.035 61.4724 657.977 61.6149C657.92 61.7575 657.835 61.8872 657.728 61.9965C657.62 62.1059 657.492 62.1927 657.351 62.2519C657.21 62.3111 657.059 62.3416 656.906 62.3416ZM166.577 60.0135H655.749V17.17C655.745 13.232 654.188 9.45665 651.422 6.67208C648.656 3.88751 644.905 2.32112 640.993 2.31649H181.31C177.401 2.32727 173.657 3.89639 170.895 6.68029C168.134 9.46419 166.581 13.236 166.577 17.17V60.0018V60.0135Z" fill="#DE9244"/>
<path d="M296.213 28.1542H207.663C203.73 28.1542 200.542 31.0792 200.542 34.6874V34.6927C200.542 38.3009 203.73 41.2259 207.663 41.2259H296.213C300.145 41.2259 303.333 38.3009 303.333 34.6927V34.6874C303.333 31.0792 300.145 28.1542 296.213 28.1542Z" fill="white"/>
<path d="M296.007 43.2369H206.862C204.651 43.2369 202.531 42.3364 200.968 40.7336C199.405 39.1308 198.527 36.9568 198.527 34.6901C198.527 32.4233 199.405 30.2494 200.968 28.6466C202.531 27.0437 204.651 26.1432 206.862 26.1432H296.007C298.217 26.1432 300.337 27.0437 301.9 28.6466C303.463 30.2494 304.341 32.4233 304.341 34.6901C304.341 36.9568 303.463 39.1308 301.9 40.7336C300.337 42.3364 298.217 43.2369 296.007 43.2369ZM206.862 28.5341C205.268 28.5341 203.74 29.1833 202.613 30.3389C201.486 31.4945 200.853 33.0618 200.853 34.696C200.853 36.3303 201.486 37.8976 202.613 39.0532C203.74 40.2088 205.268 40.858 206.862 40.858H296.007C297.601 40.858 299.129 40.2088 300.256 39.0532C301.383 37.8976 302.016 36.3303 302.016 34.696C302.016 33.0618 301.383 31.4945 300.256 30.3389C299.129 29.1833 297.601 28.5341 296.007 28.5341H206.862Z" fill="#262424"/>
<path d="M456.376 28.1542H366.958C362.987 28.1542 359.768 31.0792 359.768 34.6874V34.6927C359.768 38.3009 362.987 41.2259 366.958 41.2259H456.376C460.347 41.2259 463.566 38.3009 463.566 34.6927V34.6874C463.566 31.0792 460.347 28.1542 456.376 28.1542Z" fill="white"/>
<path d="M456.241 43.2369H367.092C364.882 43.2369 362.763 42.3364 361.2 40.7336C359.638 39.1308 358.76 36.9568 358.76 34.6901C358.76 32.4233 359.638 30.2494 361.2 28.6466C362.763 27.0437 364.882 26.1432 367.092 26.1432H456.241C458.451 26.1432 460.571 27.0437 462.133 28.6466C463.696 30.2494 464.574 32.4233 464.574 34.6901C464.574 36.9568 463.696 39.1308 462.133 40.7336C460.571 42.3364 458.451 43.2369 456.241 43.2369ZM367.092 28.5341C365.499 28.5341 363.971 29.1833 362.844 30.3389C361.718 31.4945 361.085 33.0618 361.085 34.696C361.085 36.3303 361.718 37.8976 362.844 39.0532C363.971 40.2088 365.499 40.858 367.092 40.858H456.241C457.834 40.858 459.363 40.2088 460.489 39.0532C461.616 37.8976 462.249 36.3303 462.249 34.696C462.249 33.0618 461.616 31.4945 460.489 30.3389C459.363 29.1833 457.834 28.5341 456.241 28.5341H367.092Z" fill="#262424"/>
<path d="M614.663 28.1542H526.112C522.18 28.1542 518.992 31.0792 518.992 34.6874V34.6927C518.992 38.3009 522.18 41.2259 526.112 41.2259H614.663C618.595 41.2259 621.783 38.3009 621.783 34.6927V34.6874C621.783 31.0792 618.595 28.1542 614.663 28.1542Z" fill="white"/>
<path d="M614.616 43.2369H527.167C524.999 43.2369 522.92 42.3364 521.387 40.7336C519.853 39.1308 518.992 36.9568 518.992 34.6901C518.992 32.4233 519.853 30.2494 521.387 28.6466C522.92 27.0437 524.999 26.1432 527.167 26.1432H614.616C616.784 26.1432 618.863 27.0437 620.396 28.6466C621.929 30.2494 622.791 32.4233 622.791 34.6901C622.791 36.9568 621.929 39.1308 620.396 40.7336C618.863 42.3364 616.784 43.2369 614.616 43.2369ZM527.178 28.5281C525.615 28.5281 524.116 29.1773 523.011 30.3329C521.906 31.4885 521.285 33.0558 521.285 34.6901C521.285 36.3243 521.906 37.8916 523.011 39.0472C524.116 40.2028 525.615 40.852 527.178 40.852H614.616C616.179 40.852 617.678 40.2028 618.783 39.0472C619.889 37.8916 620.51 36.3243 620.51 34.6901C620.51 33.0558 619.889 31.4885 618.783 30.3329C617.678 29.1773 616.179 28.5281 614.616 28.5281H527.167H527.178Z" fill="#262424"/>
<path d="M323.488 302.658C323.221 302.658 322.965 302.537 322.776 302.32C322.587 302.103 322.48 301.809 322.48 301.502V15.2338C322.48 14.927 322.587 14.6328 322.776 14.4159C322.965 14.199 323.221 14.0771 323.488 14.0771C323.755 14.0771 324.012 14.199 324.201 14.4159C324.39 14.6328 324.496 14.927 324.496 15.2338V301.502C324.496 301.809 324.39 302.103 324.201 302.32C324.012 302.537 323.755 302.658 323.488 302.658Z" fill="#262424"/>
<path d="M499.341 302.658C498.94 302.658 498.556 302.537 498.272 302.32C497.989 302.103 497.83 301.809 497.83 301.502V15.2338C497.83 14.927 497.989 14.6328 498.272 14.4159C498.556 14.199 498.94 14.0771 499.341 14.0771C499.742 14.0771 500.127 14.199 500.41 14.4159C500.694 14.6328 500.853 14.927 500.853 15.2338V301.502C500.853 301.809 500.694 302.103 500.41 302.32C500.127 302.537 499.742 302.658 499.341 302.658Z" fill="#262424"/>
<path d="M642.789 62.3416H179.531C179.224 62.3416 178.929 62.1827 178.712 61.8998C178.494 61.617 178.372 61.2333 178.372 60.8333C178.372 60.4333 178.494 60.0497 178.712 59.7668C178.929 59.484 179.224 59.3251 179.531 59.3251H642.8C643.108 59.3271 643.402 59.4879 643.618 59.7722C643.834 60.0564 643.955 60.4409 643.953 60.8409C643.952 61.2409 643.828 61.6237 643.61 61.9052C643.392 62.1866 643.096 62.3436 642.789 62.3416Z" fill="#262424"/>
<path d="M417.381 95.5234C417.381 95.5234 417.381 120.08 432.326 137.755H388.82C373.876 120.103 373.876 95.5234 373.876 95.5234H417.393H417.381Z" fill="white"/>
<path d="M433.184 138.76H389.159C388.993 138.76 388.828 138.724 388.677 138.655C388.525 138.586 388.39 138.486 388.281 138.36C373.043 120.716 372.868 96.6944 372.868 95.6787C372.868 95.3709 372.991 95.0756 373.209 94.8579C373.427 94.6402 373.723 94.5179 374.031 94.5179H418.05C418.358 94.5179 418.654 94.6402 418.872 94.8579C419.09 95.0756 419.213 95.3709 419.213 95.6787C419.213 95.9167 419.399 119.863 434.062 136.845C434.206 137.013 434.299 137.219 434.33 137.439C434.361 137.658 434.328 137.881 434.236 138.083C434.143 138.284 433.995 138.455 433.809 138.575C433.623 138.695 433.406 138.759 433.184 138.76ZM389.7 136.439H430.725C418.637 121.036 417.102 101.773 416.916 96.8337H375.24C375.467 101.802 377.2 121.639 389.7 136.439Z" fill="#262424"/>
<path d="M433.998 243.333C433.998 243.333 433.998 267.305 449.457 284.559H404.452C388.992 267.328 388.992 243.333 388.992 243.333H434.01H433.998Z" fill="white"/>
<path d="M448.294 285.565H404.276C404.109 285.565 403.944 285.529 403.793 285.46C403.642 285.391 403.507 285.29 403.398 285.164C388.159 267.521 387.984 243.499 387.984 242.483C387.984 242.175 388.107 241.88 388.325 241.662C388.543 241.445 388.839 241.322 389.147 241.322H433.166C433.474 241.322 433.77 241.445 433.988 241.662C434.206 241.88 434.329 242.175 434.329 242.483C434.329 242.721 434.515 266.667 449.178 283.649C449.323 283.818 449.416 284.024 449.446 284.244C449.477 284.464 449.444 284.688 449.351 284.89C449.258 285.091 449.109 285.262 448.921 285.381C448.734 285.501 448.517 285.565 448.294 285.565ZM404.81 283.243H445.835C433.747 267.846 432.218 248.577 432.026 243.644H390.345C390.583 248.612 392.31 268.449 404.81 283.243Z" fill="#262424"/>
<path d="M596.764 243.333C596.764 243.333 596.764 267.305 611.705 284.559H568.197C553.256 267.328 553.256 243.333 553.256 243.333H596.764Z" fill="white"/>
<path d="M612.558 285.565H568.539C568.373 285.565 568.208 285.529 568.057 285.46C567.905 285.391 567.77 285.29 567.661 285.164C552.422 267.521 552.248 243.499 552.248 242.483C552.248 242.175 552.371 241.88 552.589 241.662C552.807 241.445 553.102 241.322 553.411 241.322H597.43C597.738 241.322 598.034 241.445 598.252 241.662C598.47 241.88 598.592 242.175 598.592 242.483C598.592 242.721 598.779 266.667 613.442 283.649C613.586 283.818 613.679 284.024 613.71 284.244C613.74 284.464 613.707 284.688 613.614 284.89C613.521 285.091 613.372 285.262 613.185 285.381C612.998 285.501 612.78 285.565 612.558 285.565ZM569.074 283.243H610.099C598.011 267.846 596.482 248.577 596.29 243.644H554.603C554.847 248.612 556.574 268.449 569.074 283.243Z" fill="#262424"/>
<path d="M437.285 167.54L396.459 172.268L401.197 213.003L442.023 208.275L437.285 167.54Z" fill="#DE9244"/>
<path d="M259.164 95.5234C259.164 95.5234 259.164 120.08 274.109 137.755H230.604C215.659 120.103 215.659 95.5234 215.659 95.5234H259.164Z" fill="#88C0C2"/>
<path d="M266.222 243.333C266.222 243.333 266.222 267.305 281.163 284.559H237.655C222.713 267.328 222.713 243.333 222.713 243.333H266.222Z" fill="#DE9244"/>
<path d="M269.415 167.525L228.589 172.252L233.327 212.988L274.153 208.26L269.415 167.525Z" fill="white"/>
<path d="M233.593 214.173C233.311 214.175 233.037 214.073 232.826 213.886C232.614 213.699 232.48 213.441 232.447 213.161L227.76 172.87C227.742 172.721 227.754 172.569 227.796 172.425C227.837 172.28 227.906 172.145 228 172.027C228.094 171.909 228.21 171.81 228.342 171.737C228.473 171.664 228.618 171.618 228.768 171.601L269.143 166.923C269.444 166.886 269.747 166.969 269.987 167.155C270.226 167.34 270.383 167.613 270.421 167.913L275.109 208.204C275.126 208.353 275.114 208.505 275.073 208.649C275.031 208.794 274.962 208.929 274.868 209.047C274.775 209.165 274.659 209.263 274.527 209.337C274.395 209.41 274.25 209.456 274.1 209.473L233.748 214.168H233.616L233.593 214.173ZM230.155 173.739L234.579 211.76L272.713 207.369L268.29 169.348L230.155 173.739Z" fill="#262424"/>
<path d="M600.678 93.1406L559.852 97.8683L564.59 138.604L605.416 133.876L600.678 93.1406Z" fill="#87BFC1"/>
<path d="M600.669 163.21L559.843 167.938L564.581 208.673L605.407 203.945L600.669 163.21Z" fill="white"/>
<path d="M565.144 209.146C564.862 209.148 564.588 209.046 564.377 208.859C564.165 208.672 564.03 208.414 563.998 208.134L559.31 167.842C559.292 167.693 559.305 167.541 559.346 167.396C559.387 167.252 559.457 167.116 559.55 166.998C559.644 166.88 559.76 166.782 559.892 166.709C560.024 166.636 560.169 166.59 560.319 166.573L600.699 161.895C600.848 161.877 601 161.89 601.145 161.931C601.29 161.972 601.426 162.041 601.544 162.135C601.662 162.228 601.761 162.344 601.834 162.475C601.907 162.607 601.954 162.752 601.971 162.901L606.659 203.193C606.676 203.343 606.664 203.494 606.623 203.639C606.582 203.784 606.512 203.919 606.419 204.037C606.325 204.155 606.209 204.253 606.077 204.326C605.945 204.399 605.8 204.446 605.65 204.463L565.27 209.14H565.138L565.144 209.146ZM561.706 168.711L566.13 206.733L604.235 202.318L599.828 164.314L561.706 168.711Z" fill="#262424"/>
<path d="M180.996 630.455L187.442 668.901L172.322 670.675L162.248 632.431L180.996 630.455Z" fill="white"/>
<path d="M172.76 670.675C172.498 670.675 172.244 670.59 172.037 670.436C171.83 670.281 171.681 670.065 171.614 669.82L161.28 631.847C161.236 631.687 161.228 631.52 161.258 631.357C161.287 631.194 161.352 631.039 161.449 630.903C161.546 630.767 161.673 630.652 161.82 630.568C161.966 630.483 162.131 630.43 162.301 630.412L181.534 628.45C181.834 628.42 182.136 628.501 182.376 628.678C182.617 628.855 182.778 629.114 182.828 629.402L189.441 667.576C189.468 667.73 189.462 667.887 189.424 668.038C189.386 668.189 189.316 668.332 189.22 668.456C189.123 668.581 189.001 668.685 188.862 668.763C188.722 668.84 188.568 668.889 188.408 668.908L172.903 670.641H172.766L172.76 670.675ZM163.927 632.553L173.651 668.271L186.9 666.767L180.679 630.849L163.927 632.553Z" fill="#262424"/>
<path d="M248.915 722.169V728.994H165.357C165.357 728.994 165.085 725.433 164.826 719.441C164.306 707.655 163.706 687.843 165.259 665.939L191.928 661.625C191.928 661.625 214.816 685.675 235.182 704.391C237.295 706.332 239.523 708.226 241.866 710.022C246.363 713.466 248.915 717.745 248.915 722.169Z" fill="#88C0C2"/>
<path d="M210.43 704.862C210.27 704.862 210.113 704.831 209.966 704.771C209.82 704.712 209.687 704.624 209.576 704.513C190.979 685.911 182.605 670.46 182.522 670.306C182.387 670.038 182.366 669.73 182.464 669.447C182.561 669.164 182.769 668.929 183.043 668.792C183.317 668.655 183.636 668.627 183.932 668.713C184.227 668.799 184.476 668.993 184.626 669.254C184.709 669.402 192.923 684.579 211.295 702.924C211.458 703.086 211.567 703.291 211.609 703.513C211.651 703.735 211.624 703.964 211.531 704.171C211.439 704.378 211.285 704.554 211.089 704.677C210.893 704.8 210.664 704.865 210.43 704.862Z" fill="#262424"/>
<path d="M178.876 706.873C183.05 706.873 186.434 703.047 186.434 698.326C186.434 693.606 183.05 689.78 178.876 689.78C174.702 689.78 171.318 693.606 171.318 698.326C171.318 703.047 174.702 706.873 178.876 706.873Z" fill="white"/>
<path d="M178.372 707.879C173.37 707.879 169.302 703.592 169.302 698.326C169.302 693.061 173.37 688.774 178.372 688.774C183.374 688.774 187.442 693.055 187.442 698.326C187.442 703.597 183.374 707.879 178.372 707.879ZM178.372 691.123C174.707 691.123 171.745 694.355 171.745 698.332C171.745 702.309 174.72 705.542 178.372 705.542C182.024 705.542 184.999 702.309 184.999 698.332C184.999 694.355 182.024 691.123 178.372 691.123Z" fill="#262424"/>
<path d="M248.915 722.224V728.994H165.8C165.8 728.994 165.53 725.462 165.271 719.519H209.146C209.146 719.519 211.954 699.862 235.249 704.591C237.351 706.516 239.567 708.395 241.898 710.176C246.377 713.593 248.915 717.836 248.915 722.224Z" fill="white"/>
<path d="M248.784 730H165.936C165.647 730.001 165.368 729.888 165.156 729.685C164.943 729.481 164.813 729.202 164.791 728.903C164.791 728.868 164.517 725.193 164.265 719.152C164.258 718.992 164.282 718.832 164.337 718.682C164.391 718.532 164.474 718.395 164.581 718.279C164.688 718.164 164.817 718.072 164.959 718.009C165.102 717.946 165.255 717.913 165.41 717.914H208.204C208.742 715.543 210.585 709.532 216.04 705.543C220.962 701.951 227.486 700.967 235.391 702.632C235.593 702.675 235.781 702.773 235.934 702.917C238.092 704.95 240.296 706.853 242.482 708.572C247.278 712.342 249.923 717.066 249.923 721.873V728.814C249.923 729.128 249.803 729.428 249.589 729.651C249.376 729.873 249.086 729.998 248.784 730ZM167.006 727.629H247.639V721.873C247.639 717.825 245.315 713.77 241.103 710.463C238.939 708.761 236.764 706.906 234.635 704.891C227.498 703.45 221.689 704.298 217.367 707.481C211.369 711.862 210.293 719.194 210.282 719.265C210.243 719.55 210.105 719.81 209.895 719.998C209.684 720.186 209.415 720.287 209.137 720.285H166.611C166.766 723.735 166.921 726.26 167.006 727.629Z" fill="#262424"/>
<path d="M70.5425 336.472C70.5425 336.472 81.8254 382.323 83.3706 386.731C84.9158 391.139 156.876 645.537 156.876 645.537L193.488 638.328L158.561 332.526C158.561 332.526 155.505 301.117 117.937 301.66C80.3676 302.203 70.5425 336.472 70.5425 336.472Z" fill="#88C0C2"/>
<path d="M162.673 521.215C170.403 520.186 175.472 510.409 173.997 499.377C172.522 488.345 165.06 480.237 157.331 481.266C149.602 482.295 144.532 492.072 146.007 503.104C147.482 514.135 154.944 522.244 162.673 521.215Z" fill="white"/>
<path d="M100.963 371.033C100.725 371.033 100.493 370.964 100.296 370.835C100.099 370.706 99.9458 370.523 99.8561 370.309C99.7664 370.095 99.7442 369.86 99.7925 369.633C99.8407 369.407 99.9571 369.199 100.127 369.038L102.127 367.13C103.971 365.376 105.398 363.25 106.309 360.902C107.22 358.554 107.592 356.04 107.4 353.537L105.925 334.074C105.913 333.922 105.933 333.768 105.983 333.623C106.032 333.477 106.11 333.343 106.213 333.227C106.316 333.111 106.441 333.016 106.582 332.948C106.722 332.879 106.876 332.838 107.032 332.827C107.189 332.816 107.347 332.835 107.496 332.883C107.645 332.931 107.783 333.008 107.902 333.108C108.021 333.208 108.119 333.33 108.189 333.467C108.26 333.604 108.302 333.753 108.313 333.906L109.788 353.368C110.009 356.209 109.588 359.062 108.557 361.728C107.525 364.394 105.908 366.807 103.817 368.799L101.817 370.707C101.703 370.814 101.57 370.897 101.423 370.953C101.277 371.009 101.12 371.036 100.963 371.033Z" fill="#262424"/>
<path d="M164.12 634.477C163.863 634.476 163.613 634.389 163.411 634.228C163.209 634.068 163.066 633.844 163.006 633.592L91.7377 337.268C91.7023 337.121 91.6961 336.968 91.7194 336.817C91.7428 336.667 91.7954 336.523 91.874 336.394C91.9527 336.264 92.0559 336.152 92.1779 336.062C92.2998 335.973 92.4381 335.908 92.5848 335.873C92.7315 335.837 92.8837 335.831 93.0328 335.854C93.1819 335.878 93.3249 335.931 93.4537 336.01C93.5824 336.089 93.6945 336.193 93.7833 336.316C93.8722 336.438 93.9362 336.577 93.9717 336.725L165.24 633.049C165.311 633.346 165.262 633.66 165.103 633.921C164.945 634.182 164.691 634.369 164.396 634.442C164.305 634.465 164.213 634.476 164.12 634.477Z" fill="#262424"/>
<path d="M155.459 635.478C155.15 635.502 154.842 635.416 154.604 635.237C154.366 635.058 154.218 634.801 154.19 634.524C154.163 634.246 154.26 633.971 154.46 633.757C154.66 633.544 154.946 633.411 155.255 633.386L186.07 628.46C186.375 628.411 186.689 628.473 186.943 628.632C187.197 628.791 187.37 629.034 187.424 629.307C187.478 629.58 187.409 629.862 187.232 630.089C187.054 630.317 186.784 630.472 186.479 630.52L155.664 635.447C155.597 635.463 155.528 635.473 155.459 635.478Z" fill="#262424"/>
<path d="M37.2869 630.692L32.8587 668.664L18.1396 666.209L19.1035 627.438L37.2869 630.692Z" fill="white"/>
<path d="M33.5747 670.675H33.3809L18.1126 668.126C17.8358 668.079 17.5847 667.935 17.4048 667.718C17.2249 667.502 17.1281 667.228 17.1319 666.946L18.1244 626.578C18.1285 626.408 18.1692 626.241 18.2436 626.088C18.318 625.936 18.4244 625.801 18.5554 625.693C18.6865 625.586 18.8391 625.508 19.0029 625.465C19.1667 625.422 19.3378 625.415 19.5044 625.445L38.3372 628.832C38.6312 628.886 38.8937 629.05 39.0716 629.291C39.2494 629.532 39.3291 629.832 39.2944 630.131L34.7081 669.666C34.668 669.941 34.5322 670.194 34.3248 670.378C34.1174 670.563 33.8517 670.668 33.5747 670.675ZM19.5338 665.954L32.5529 668.132L36.8691 630.957L20.4675 628.006L19.5338 665.954Z" fill="#262424"/>
<path d="M95.7366 722.169V728.994H12.1785C12.1785 728.994 11.9072 725.433 11.6474 719.441C11.1278 707.655 10.5274 687.843 12.0804 665.939L38.7515 661.625C38.7515 661.625 61.6414 685.675 82.0084 704.391C84.1214 706.332 86.3497 708.226 88.6936 710.022C93.185 713.466 95.7366 717.745 95.7366 722.169Z" fill="#88C0C2"/>
<path d="M56.2846 704.862C56.1308 704.862 55.9786 704.831 55.8371 704.771C55.6955 704.712 55.5675 704.624 55.4606 704.513C37.5045 685.911 29.4191 670.46 29.339 670.306C29.2091 670.038 29.189 669.73 29.283 669.447C29.377 669.164 29.5777 668.929 29.8424 668.792C30.1071 668.655 30.4148 668.627 30.7002 668.713C30.9856 668.799 31.226 668.993 31.3704 669.254C31.4505 669.402 39.3814 684.579 57.12 702.924C57.277 703.086 57.3824 703.291 57.423 703.513C57.4636 703.735 57.4376 703.964 57.3483 704.171C57.259 704.378 57.1104 704.554 56.9211 704.677C56.7318 704.8 56.5104 704.865 56.2846 704.862Z" fill="#262424"/>
<path d="M25.1939 706.873C29.0899 706.873 32.2482 703.047 32.2482 698.326C32.2482 693.606 29.0899 689.78 25.1939 689.78C21.2979 689.78 18.1396 693.606 18.1396 698.326C18.1396 703.047 21.2979 706.873 25.1939 706.873Z" fill="white"/>
<path d="M25.1938 707.879C20.7475 707.879 17.1318 703.592 17.1318 698.326C17.1318 693.061 20.7475 688.774 25.1938 688.774C29.6402 688.774 33.2559 693.055 33.2559 698.326C33.2559 703.597 29.6402 707.879 25.1938 707.879ZM25.1938 691.123C21.9365 691.123 19.3034 694.355 19.3034 698.332C19.3034 702.309 21.9473 705.542 25.1938 705.542C28.4404 705.542 31.0843 702.309 31.0843 698.332C31.0843 694.355 28.4458 691.123 25.1938 691.123Z" fill="#262424"/>
<path d="M95.7366 722.224V728.994H11.6201C11.6201 728.994 11.347 725.462 11.0854 719.519H55.4916C55.4916 719.519 58.3334 699.862 81.9109 704.591C84.0379 706.516 86.2812 708.395 88.6407 710.176C93.1679 713.593 95.7366 717.836 95.7366 722.224Z" fill="white"/>
<path d="M96.5804 730H11.7894C11.4933 730.001 11.2079 729.888 10.9905 729.685C10.7732 729.481 10.64 729.202 10.6178 728.903C10.6178 728.868 10.3366 725.193 10.0788 719.152C10.0717 718.992 10.0967 718.832 10.1524 718.682C10.2081 718.532 10.2933 718.395 10.4028 718.279C10.5123 718.164 10.6439 718.072 10.7896 718.009C10.9353 717.946 11.0921 717.913 11.2505 717.914H55.0519C55.6026 715.543 57.4889 709.526 63.0717 705.543C68.1098 701.951 74.7881 700.967 82.8782 702.632C83.0857 702.675 83.278 702.773 83.4347 702.917C85.6432 704.95 87.8986 706.853 90.1364 708.572C95.0456 712.342 97.7521 717.066 97.7521 721.873V728.814C97.7521 729.129 97.6286 729.43 97.4089 729.653C97.1891 729.875 96.8912 730 96.5804 730ZM12.879 727.629H95.4088V721.873C95.4088 717.825 93.0304 713.77 88.7188 710.463C86.5044 708.761 84.2783 706.906 82.0991 704.891C74.7939 703.45 68.8479 704.298 64.425 707.481C58.2856 711.862 57.1843 719.194 57.1726 719.265C57.1328 719.55 56.992 719.81 56.7764 719.998C56.5609 720.186 56.2852 720.287 56.0009 720.285H12.4748C12.633 723.735 12.7912 726.26 12.879 727.629Z" fill="#262424"/>
<path d="M13.9154 322.023C13.9154 322.023 11.9016 369.272 12.1548 373.967C12.4079 378.662 10.0776 643.365 10.0776 643.365L46.7753 646.543L98.4097 342.55C98.4097 342.55 104.221 311.475 68.49 301.616C32.7591 291.758 13.9154 322.023 13.9154 322.023Z" fill="#88C0C2"/>
<path d="M84.7647 428.347H84.574C84.281 428.295 84.0202 428.126 83.8488 427.877C83.6773 427.627 83.6094 427.318 83.6598 427.018L97.5353 344.873C97.5565 344.721 97.6072 344.574 97.6846 344.442C97.762 344.31 97.8643 344.195 97.9857 344.105C98.107 344.014 98.2449 343.949 98.391 343.914C98.5372 343.879 98.6887 343.875 98.8367 343.901C98.9846 343.927 99.1259 343.984 99.2521 344.067C99.3784 344.15 99.4871 344.258 99.5718 344.386C99.6566 344.513 99.7156 344.656 99.7453 344.807C99.7751 344.958 99.775 345.113 99.7451 345.264L85.8696 427.392C85.8246 427.659 85.6892 427.902 85.487 428.076C85.2849 428.251 85.029 428.347 84.7647 428.347Z" fill="#262424"/>
<path d="M67.5778 507.974C69.2381 496.969 64.333 487.108 56.6221 485.95C48.9112 484.792 41.3144 492.775 39.6541 503.781C37.9939 514.786 42.8989 524.647 50.6098 525.805C58.3207 526.963 65.9175 518.98 67.5778 507.974Z" fill="white"/>
<path d="M33.4521 364.997C33.1841 364.997 32.9237 364.908 32.7123 364.745C32.5008 364.581 32.3504 364.351 32.2847 364.093C32.2191 363.834 32.242 363.562 32.3499 363.317C32.4577 363.073 32.6443 362.872 32.8802 362.745C35.8867 361.14 38.4606 358.837 40.3844 356.033C42.3081 353.229 43.5252 350.005 43.9328 346.634L45.9555 329.864C45.9938 329.547 46.1574 329.257 46.4103 329.059C46.6632 328.862 46.9846 328.772 47.3039 328.81C47.6232 328.848 47.9143 329.011 48.113 329.263C48.3116 329.514 48.4018 329.834 48.3634 330.152L46.3407 346.922C45.8914 350.68 44.5385 354.275 42.3966 357.403C40.2547 360.53 37.3869 363.098 34.036 364.89C33.8535 364.973 33.6527 365.011 33.4521 364.997Z" fill="#262424"/>
<path d="M22.2626 635.482H22.2131C22.0688 635.475 21.9271 635.439 21.7962 635.374C21.6653 635.31 21.5478 635.219 21.4503 635.106C21.3528 634.994 21.2773 634.862 21.2282 634.719C21.179 634.575 21.1571 634.423 21.1638 634.271L34.0802 328.904C34.0933 328.597 34.2216 328.307 34.437 328.1C34.6523 327.892 34.937 327.783 35.2284 327.797C35.5198 327.811 35.7941 327.947 35.9909 328.174C36.1877 328.401 36.2909 328.701 36.2778 329.008L23.3614 634.323C23.3614 634.631 23.2456 634.925 23.0395 635.143C22.8335 635.36 22.554 635.482 22.2626 635.482Z" fill="#262424"/>
<path d="M43.1216 637.491H43L12.1277 633.961C11.8207 633.927 11.5391 633.762 11.3449 633.503C11.1506 633.245 11.0596 632.914 11.0918 632.583C11.124 632.252 11.2769 631.949 11.5167 631.74C11.7566 631.53 12.0637 631.432 12.3707 631.467L43.2431 634.997C43.55 635.014 43.838 635.162 44.0437 635.408C44.2493 635.655 44.3558 635.979 44.3397 636.31C44.3236 636.64 44.1862 636.951 43.9577 637.172C43.7293 637.394 43.4285 637.509 43.1216 637.491Z" fill="#262424"/>
<path d="M0.0154662 346.901H14.7162V329.829C14.7162 328.582 15.2116 327.386 16.0936 326.505C16.9756 325.623 18.1718 325.128 19.4191 325.128C20.6664 325.128 21.8626 325.623 22.7446 326.505C23.6266 327.386 24.122 328.582 24.122 329.829V346.901H164.264C164.264 346.901 156.884 262.942 161.452 209.18C165.99 155.788 144.984 134.699 144.984 134.699C92.1632 122.665 56.4509 128.69 38.5975 134C34.6245 135.181 31.0399 137.403 28.2154 140.435C25.3909 143.468 23.4294 147.2 22.5342 151.246C-1.38762 259.647 0.0154662 346.901 0.0154662 346.901Z" fill="#DE9244"/>
<path d="M160.195 263.444H160.148C159.836 263.43 159.543 263.296 159.332 263.071C159.121 262.846 159.009 262.548 159.022 262.242C159.293 255.983 159.482 249.614 159.658 243.458C160.018 231.332 160.354 219.881 161.267 209.389C164.337 173.991 155.722 152.92 150.313 143.513C150.235 143.381 150.185 143.236 150.165 143.085C150.145 142.934 150.156 142.78 150.196 142.634C150.237 142.487 150.306 142.349 150.401 142.228C150.496 142.108 150.614 142.007 150.749 141.931C150.883 141.855 151.032 141.806 151.186 141.786C151.34 141.767 151.496 141.777 151.646 141.817C151.796 141.857 151.937 141.925 152.06 142.018C152.183 142.111 152.286 142.226 152.363 142.358C157.908 151.996 166.736 173.541 163.613 209.562C162.705 220.008 162.369 231.43 162.016 243.522C161.833 249.689 161.644 256.064 161.373 262.341C161.36 262.638 161.229 262.918 161.01 263.124C160.79 263.329 160.498 263.444 160.195 263.444Z" fill="#262424"/>
<path d="M155.043 338.857L30.3825 338.022C30.0754 338.022 29.7809 337.907 29.5638 337.703C29.3466 337.498 29.2246 337.221 29.2246 336.931C29.2246 336.642 29.3466 336.364 29.5638 336.16C29.7809 335.955 30.0754 335.84 30.3825 335.84L155.043 336.675C155.351 336.675 155.645 336.79 155.862 336.994C156.079 337.199 156.201 337.476 156.201 337.766C156.201 338.055 156.079 338.333 155.862 338.537C155.645 338.742 155.351 338.857 155.043 338.857Z" fill="#262424"/>
<path d="M66.5117 136.124C68.5039 140.823 71.5006 145.025 75.2901 148.434C79.0795 151.844 83.5693 154.377 88.442 155.854C90.0758 146.855 94.5789 135.536 94.5789 135.536C99.5857 142.444 102.227 151.584 102.883 155.754C119.086 151.284 120.93 135.66 120.93 135.66C118.951 120 105.529 108.211 93.9933 108.605C68.5437 109.474 66.5117 136.124 66.5117 136.124Z" fill="white"/>
<path d="M88.4824 155.854C88.3639 155.854 88.2461 155.837 88.1329 155.801C83.1317 154.273 78.524 151.669 74.632 148.172C70.7399 144.674 67.6575 140.368 65.6001 135.552C65.5254 135.38 65.4934 135.192 65.5069 135.004C65.5069 134.73 67.9064 107.48 93.9743 106.594C105.494 106.203 119.804 117.561 121.929 134.485C121.941 134.58 121.941 134.676 121.929 134.771C121.929 134.934 119.809 151.105 103.13 155.714C102.971 155.758 102.805 155.768 102.643 155.743C102.48 155.718 102.325 155.659 102.187 155.57C102.049 155.481 101.931 155.363 101.842 155.225C101.752 155.087 101.693 154.932 101.668 154.769C100.493 148.486 98.1838 142.47 94.8537 137.017C93.5026 140.663 90.777 148.439 89.6122 154.897C89.5637 155.163 89.4245 155.404 89.2184 155.578C89.0123 155.753 88.7522 155.85 88.4824 155.854ZM67.8598 134.905C69.7123 139.147 72.4218 142.959 75.8178 146.101C79.2137 149.243 83.2224 151.646 87.5913 153.159C89.3792 144.484 93.3279 134.491 93.5026 134.077C93.5798 133.882 93.7078 133.712 93.873 133.585C94.0382 133.457 94.2347 133.376 94.4419 133.35C94.649 133.325 94.8592 133.355 95.0505 133.439C95.2419 133.523 95.4072 133.656 95.5293 133.826C100.299 140.4 102.85 148.655 103.753 153.077C117.194 148.69 119.396 136.159 119.617 134.607C117.625 119.44 104.475 108.542 94.0559 108.904C83.9921 109.248 76.5316 113.746 71.8667 122.287C69.7685 126.21 68.4102 130.488 67.8598 134.905Z" fill="#262424"/>
<path d="M79.6123 77.4243L80.0108 92.67L80.6898 118.753C89.3207 124.884 97.716 125.534 105.814 119.323L104.63 107.209L102.834 88.8543L79.6123 77.4243Z" fill="white"/>
<path d="M93.6073 124.683C88.9413 124.683 84.1368 122.982 79.194 119.579C79.0463 119.477 78.925 119.342 78.8398 119.185C78.7547 119.029 78.7082 118.855 78.704 118.677L77.597 77.581C77.5921 77.3867 77.6381 77.1943 77.7306 77.0224C77.8231 76.8506 77.9589 76.705 78.125 76.5996C78.2912 76.4943 78.482 76.4327 78.6793 76.4208C78.8766 76.4089 79.0737 76.4472 79.2517 76.5318L103.109 87.9259C103.286 88.0103 103.439 88.138 103.552 88.2968C103.665 88.4557 103.735 88.6404 103.754 88.8334L106.816 119.131C106.836 119.325 106.804 119.521 106.724 119.7C106.644 119.879 106.519 120.034 106.36 120.152C102.255 123.169 98.0005 124.683 93.6073 124.683ZM80.9755 118.047C89.4044 123.662 97.1184 123.878 104.44 118.717L101.506 89.6954L79.9378 79.3903L80.9755 118.047Z" fill="#262424"/>
<path d="M194.496 170.763C194.496 170.763 197.01 155.733 197.01 151.811C197.01 148.731 202.589 139.809 204.984 136.118C205.291 135.649 205.743 135.288 206.276 135.089C206.808 134.889 207.392 134.862 207.942 135.011C208.574 135.182 209.118 135.575 209.471 136.113C209.825 136.652 209.963 137.298 209.859 137.929L208.084 148.887L221.004 125.431C221.407 124.699 222.075 124.141 222.879 123.866C223.682 123.591 224.562 123.618 225.346 123.943C226.09 124.25 226.698 124.805 227.062 125.508C227.426 126.212 227.522 127.018 227.333 127.784L223.654 142.687L227.617 133.897C227.805 133.486 228.086 133.121 228.44 132.83C228.793 132.54 229.21 132.331 229.658 132.22C230.106 132.109 230.574 132.098 231.027 132.189C231.48 132.28 231.906 132.47 232.273 132.744C232.615 133.002 232.898 133.327 233.102 133.699C233.305 134.071 233.426 134.48 233.456 134.901L234.775 152.278C234.941 154.468 234.441 156.657 233.337 158.571C230.037 164.298 222.831 176.536 220.282 178.647C216.946 181.375 199.081 194.063 199.081 194.063L194.496 170.763Z" fill="white"/>
<path d="M200.214 196.074C199.938 196.079 199.669 195.986 199.455 195.811C199.24 195.636 199.094 195.391 199.041 195.118L194.514 171.291C194.49 171.155 194.49 171.015 194.514 170.878C194.514 170.725 196.989 155.536 196.989 151.677C196.989 148.515 201.387 140.856 205.075 134.996C205.547 134.252 206.259 133.694 207.091 133.416C207.923 133.138 208.825 133.157 209.645 133.469C210.465 133.781 211.153 134.368 211.594 135.131C212.035 135.893 212.201 136.786 212.065 137.657L211.356 141.935L220.914 124.086C221.438 123.103 222.3 122.345 223.338 121.956C224.377 121.566 225.521 121.57 226.556 121.968C227.591 122.366 228.447 123.13 228.963 124.118C229.479 125.105 229.62 126.247 229.359 127.331L228.368 131.462C228.944 130.905 229.666 130.526 230.449 130.366C231.232 130.207 232.043 130.276 232.789 130.563C233.535 130.851 234.184 131.346 234.66 131.991C235.137 132.636 235.421 133.404 235.481 134.205L236.788 151.984C236.968 154.449 236.421 156.912 235.217 159.065C230.555 167.415 224.48 177.812 222.011 179.93C218.692 182.768 201.651 195.272 200.9 195.779C200.709 195.95 200.469 196.054 200.214 196.074ZM196.836 171.055L201.017 192.841C205.351 189.66 217.783 180.496 220.469 178.195C222.14 176.767 226.878 169.208 233.147 157.973C234.128 156.216 234.571 154.206 234.419 152.197L233.112 134.418C233.078 134.002 232.907 133.609 232.626 133.302C232.345 132.995 231.97 132.791 231.561 132.724C231.152 132.656 230.732 132.728 230.368 132.928C230.004 133.128 229.716 133.445 229.552 133.828L225.617 142.82C225.497 143.086 225.283 143.296 225.017 143.412C224.75 143.528 224.451 143.541 224.177 143.447C223.902 143.354 223.671 143.162 223.529 142.908C223.387 142.654 223.343 142.356 223.407 142.071L227.054 126.824C227.189 126.294 227.126 125.733 226.876 125.248C226.627 124.763 226.208 124.387 225.701 124.192C225.193 123.997 224.632 123.997 224.125 124.192C223.617 124.387 223.199 124.763 222.949 125.248L210.183 149.217C210.053 149.464 209.839 149.656 209.581 149.759C209.323 149.863 209.036 149.87 208.773 149.781C208.51 149.692 208.286 149.511 208.143 149.272C207.999 149.032 207.945 148.749 207.99 148.473L209.749 137.262C209.802 136.926 209.738 136.583 209.569 136.289C209.4 135.995 209.135 135.768 208.82 135.647C208.504 135.526 208.157 135.518 207.836 135.624C207.515 135.73 207.24 135.944 207.057 136.229C202.29 143.8 199.334 149.712 199.334 151.654C199.329 155.519 197.171 169.108 196.86 171.038L196.836 171.055Z" fill="#262424"/>
<path d="M204.182 200.836C204.182 200.836 167.887 220.647 134.287 227.196C128.789 228.31 123.209 228.99 117.6 229.229C111.718 229.434 105.475 228.472 99.1097 226.661C65.5092 217.1 28.5982 183.832 24.8687 173.309C19.2657 157.501 22.5414 145.081 33.276 139.859C36.2429 138.458 39.4975 137.738 42.7916 137.755C46.0858 137.772 49.3325 138.525 52.2843 139.956L121.114 172.454L196.269 168.582C196.269 168.582 209.895 177.608 204.182 200.836Z" fill="#DE9244"/>
<path d="M136.046 220.095C136.056 222.571 135.46 225.013 134.307 227.223C128.828 228.322 123.266 228.993 117.676 229.229C111.814 229.432 105.592 228.482 99.248 226.694C98.2601 224.626 97.7495 222.374 97.752 220.095C97.752 210.718 106.334 203.113 116.888 203.113C127.441 203.113 136.046 210.718 136.046 220.095Z" fill="white"/>
<path d="M117.029 230.262C111.193 230.178 105.398 229.281 99.8156 227.599C67.1485 218.217 29.0687 184.876 24.9337 173.083C19.1785 156.694 22.5294 143.565 33.9005 137.975C37.0233 136.492 40.4462 135.729 43.9111 135.744C47.3759 135.759 50.792 136.551 53.9015 138.061L122.343 170.685L197.062 166.8C197.316 166.786 197.566 166.855 197.777 166.995C198.357 167.385 211.976 176.819 206.151 200.726C206.112 200.881 206.039 201.027 205.939 201.154C205.839 201.28 205.714 201.385 205.57 201.46C205.204 201.661 168.803 221.585 135.468 228.144C129.919 229.278 124.287 229.971 118.626 230.216C118.119 230.246 117.587 230.262 117.029 230.262ZM43.692 138.061C40.66 138.048 37.6662 138.73 34.9459 140.053C24.7189 145.085 21.7977 157.159 27.1348 172.355C30.6541 182.38 66.6258 215.663 100.466 225.395C107.011 227.278 113.097 228.133 118.556 227.938C124.092 227.698 129.6 227.021 135.027 225.912C166.015 219.812 199.751 202.005 204.008 199.716C208.712 179.631 198.636 170.604 196.766 169.135L122.175 173.015C121.974 173.027 121.774 172.987 121.594 172.9L52.891 140.15C50.0221 138.781 46.8781 138.067 43.692 138.061Z" fill="#262424"/>
<path d="M192.213 204.118C192.059 204.119 191.907 204.078 191.769 204.001C191.631 203.924 191.51 203.811 191.415 203.672C191.321 203.533 191.255 203.371 191.224 203.198C191.192 203.025 191.195 202.847 191.233 202.676C195.616 182.777 186.839 173.041 186.753 172.943C186.558 172.732 186.443 172.441 186.435 172.134C186.426 171.826 186.524 171.527 186.708 171.303C186.891 171.079 187.145 170.947 187.413 170.937C187.681 170.927 187.942 171.04 188.137 171.251C188.536 171.68 197.864 182.029 193.187 203.238C193.133 203.488 193.008 203.71 192.832 203.87C192.655 204.03 192.437 204.117 192.213 204.118Z" fill="#262424"/>
<path d="M200.543 198.085C202.212 198.085 203.566 197.185 203.566 196.074C203.566 194.964 202.212 194.063 200.543 194.063C198.873 194.063 197.52 194.964 197.52 196.074C197.52 197.185 198.873 198.085 200.543 198.085Z" fill="white"/>
<path d="M200.039 200.096C199.341 200.096 198.659 199.89 198.079 199.503C197.499 199.117 197.047 198.567 196.78 197.924C196.513 197.281 196.443 196.573 196.579 195.891C196.716 195.208 197.052 194.581 197.545 194.089C198.038 193.596 198.667 193.261 199.351 193.125C200.035 192.99 200.744 193.059 201.389 193.326C202.033 193.592 202.584 194.043 202.972 194.622C203.359 195.201 203.566 195.881 203.566 196.577C203.564 197.51 203.192 198.404 202.531 199.064C201.87 199.724 200.974 200.095 200.039 200.096ZM200.039 195.31C199.788 195.31 199.542 195.385 199.333 195.524C199.125 195.663 198.962 195.861 198.866 196.092C198.77 196.324 198.744 196.579 198.793 196.824C198.842 197.07 198.963 197.296 199.141 197.473C199.319 197.65 199.545 197.771 199.791 197.82C200.037 197.869 200.293 197.844 200.525 197.748C200.757 197.652 200.955 197.489 201.095 197.281C201.234 197.073 201.309 196.828 201.309 196.577C201.303 196.245 201.166 195.929 200.929 195.696C200.691 195.463 200.372 195.333 200.039 195.333V195.31Z" fill="#262424"/>
<path d="M124.925 80.0804C124.639 92.5545 122.135 107.653 106.598 106.524C88.1241 105.175 75.3065 93.5987 73.7656 76.8123C72.2246 60.026 79.4623 49.9451 100.422 50.2838C102.204 50.308 103.981 50.476 105.734 50.7861C117.956 52.9931 124.756 62.1257 124.931 73.437C124.96 75.4803 124.984 77.738 124.925 80.0804Z" fill="white"/>
<path d="M108.894 108.595C108.336 108.595 107.769 108.574 107.192 108.531C99.6365 107.944 92.7173 105.598 87.1701 101.762C87.0433 101.674 86.9351 101.561 86.8518 101.432C86.7685 101.302 86.7118 101.157 86.6847 101.005C86.6576 100.854 86.6608 100.698 86.6941 100.548C86.7273 100.397 86.79 100.255 86.8786 100.128C86.9671 100.002 87.0798 99.8943 87.2101 99.8114C87.3405 99.7284 87.4859 99.6718 87.6382 99.6449C87.7905 99.6179 87.9466 99.6211 88.0977 99.6542C88.2487 99.6874 88.3918 99.7498 88.5186 99.838C93.7066 103.457 100.22 105.651 107.363 106.19C111.75 106.519 115.171 105.51 117.833 103.105C123.545 97.9435 124.422 87.3741 124.587 79.8781C124.646 77.4322 124.622 75.045 124.587 72.998C124.416 61.2672 117.362 52.6744 106.185 50.5981C106.028 50.5751 105.878 50.5208 105.743 50.4386C105.607 50.3564 105.49 50.2478 105.398 50.1195C105.306 49.9912 105.241 49.8456 105.207 49.6917C105.173 49.5377 105.17 49.3784 105.199 49.2233C105.228 49.0682 105.288 48.9206 105.375 48.7891C105.463 48.6577 105.576 48.5452 105.708 48.4583C105.84 48.3715 105.989 48.3121 106.144 48.2836C106.3 48.2552 106.46 48.2584 106.615 48.293C118.981 50.5863 126.754 60.0238 126.943 72.9628C126.972 75.0333 127.001 77.444 126.943 79.9309C126.766 87.8609 125.8 99.0696 119.411 104.841C116.649 107.334 113.116 108.595 108.894 108.595Z" fill="#262424"/>
<path d="M68.4625 80.9006C70.4298 83.2742 72.6037 85.4754 74.9596 87.4793L84.2537 87.3297L85.708 80.751C85.708 80.751 91.5718 80.0431 92.4573 76.0602C92.4807 75.9693 92.4983 75.877 92.51 75.7839C92.7153 74.4889 93.4658 68.7103 91.8767 59.956C91.8767 59.956 106.478 64.9749 114.218 65.1763C117.003 65.2512 120.146 63.9561 123.014 62.2698C128.79 58.8912 133.269 48.8707 131.698 42.4532L131.669 42.3324C129.253 32.9335 124.726 39.9265 124.726 39.9265C124.726 39.9265 122.674 32.3579 117.719 32.1795C112.764 32.0011 110.231 39.3337 110.231 39.3337C100.661 37.9111 90.9049 38.2645 81.4684 40.3755C62.7745 44.6749 68.5094 57.107 68.5094 57.107C68.5094 57.107 54.9757 62.5806 68.4625 80.9006Z" fill="#262424"/>
<path d="M81.6221 85.3633C81.8232 78.5506 76.5785 72.6505 69.7687 72.4061C68.3241 72.3473 66.8815 72.5649 65.5186 73.0471C57.3282 75.9645 61.062 95.2728 81.421 92.1706L81.6221 85.3633Z" fill="white"/>
<path d="M77.709 94.5179C67.4898 94.5179 61.4324 88.8803 59.8548 82.619C58.548 77.4287 60.5495 72.615 64.6171 71.1615C66.2346 70.5874 67.9469 70.3277 69.662 70.3965C77.6089 70.679 83.8782 77.517 83.6368 85.6379C83.6322 85.7924 83.5971 85.9446 83.5337 86.0856C83.4702 86.2266 83.3796 86.3537 83.267 86.4597C83.1544 86.5657 83.022 86.6485 82.8774 86.7034C82.7328 86.7583 82.5788 86.7841 82.4242 86.7795C82.2696 86.7749 82.1174 86.7398 81.9763 86.6764C81.8353 86.613 81.7081 86.5224 81.602 86.4098C81.496 86.2972 81.4131 86.1649 81.3583 86.0203C81.3034 85.8758 81.2775 85.7218 81.2822 85.5672C81.4823 78.7351 76.2314 72.9858 69.5796 72.7445C68.1629 72.6884 66.7486 72.9021 65.4118 73.3742C62.5097 74.4099 61.1322 78.0525 62.1388 82.0364C63.5752 87.7269 69.6561 93.7058 82.0651 91.8168C82.2197 91.7936 82.3774 91.8011 82.5291 91.8388C82.6808 91.8765 82.8236 91.9438 82.9493 92.0367C83.075 92.1296 83.1812 92.2463 83.2618 92.3802C83.3424 92.5141 83.3958 92.6626 83.419 92.8172C83.4422 92.9717 83.4347 93.1294 83.397 93.281C83.3592 93.4327 83.292 93.5754 83.1991 93.7011C83.1061 93.8268 82.9894 93.9329 82.8554 94.0135C82.7214 94.0941 82.5729 94.1475 82.4183 94.1707C80.8595 94.4048 79.2853 94.5209 77.709 94.5179Z" fill="#262424"/>
<path d="M552.248 631.767L533.082 682.741L515.969 675.646L527.102 625.427L552.248 631.767Z" fill="white"/>
<path d="M533.09 683.747C532.939 683.747 532.79 683.717 532.651 683.661L515.677 676.725C515.425 676.622 515.218 676.435 515.093 676.197C514.967 675.958 514.93 675.683 514.989 675.42L526.031 626.32C526.065 626.171 526.129 626.03 526.218 625.906C526.308 625.782 526.422 625.676 526.554 625.596C526.685 625.516 526.831 625.463 526.984 625.44C527.136 625.417 527.292 625.424 527.442 625.462L552.383 631.665C552.541 631.705 552.689 631.777 552.817 631.877C552.945 631.977 553.05 632.103 553.125 632.246C553.201 632.389 553.245 632.547 553.254 632.708C553.264 632.869 553.238 633.031 553.18 633.182L534.171 683.014C534.087 683.23 533.939 683.416 533.746 683.546C533.553 683.677 533.324 683.747 533.09 683.747ZM517.48 674.974L532.454 681.091L550.585 633.565L528.037 627.963L517.48 674.974Z" fill="#262424"/>
<path d="M463.566 721.388V728.994H555.271C555.271 728.994 555.271 725.408 554.973 719.761C554.255 706.25 551.819 680.92 543.541 664.642H509.689C509.689 664.642 500.704 691.628 471.815 707.397C469.568 708.624 467.649 710.392 466.227 712.547C464.804 714.702 463.92 717.179 463.652 719.761C463.597 720.302 463.568 720.844 463.566 721.388Z" fill="#87BFC1"/>
<path d="M463.566 721.539V728.994H555.271C555.271 728.994 555.271 725.479 554.973 719.945H463.635C463.585 720.475 463.562 721.007 463.566 721.539Z" fill="white"/>
<path d="M555.098 730H462.708C462.401 730 462.106 729.882 461.889 729.673C461.672 729.463 461.55 729.179 461.55 728.883V721.621C461.552 721.061 461.583 720.502 461.643 719.945C461.672 719.668 461.806 719.412 462.02 719.226C462.234 719.04 462.512 718.938 462.8 718.939H554.82C555.117 718.939 555.402 719.048 555.617 719.245C555.833 719.441 555.962 719.71 555.978 719.995C556.279 725.352 556.279 728.838 556.279 728.871C556.28 729.021 556.251 729.169 556.192 729.308C556.133 729.446 556.046 729.571 555.936 729.677C555.826 729.782 555.695 729.865 555.551 729.92C555.407 729.976 555.253 730.003 555.098 730ZM463.865 727.765H553.929C553.929 726.492 553.854 724.19 553.698 721.185H463.871C463.871 721.336 463.871 721.481 463.871 721.626V727.771L463.865 727.765Z" fill="#262424"/>
<path d="M527.054 600.635L584.046 320.758H665.116L656.152 395.716L567.478 605.317L527.054 600.635Z" fill="#87BFC1"/>
<path d="M586.856 354.945H581.663C581.345 354.945 581.04 354.828 580.816 354.621C580.591 354.414 580.465 354.132 580.465 353.839C580.465 353.546 580.591 353.264 580.816 353.057C581.04 352.85 581.345 352.733 581.663 352.733H586.856C590.701 352.735 594.424 351.49 597.375 349.214C600.326 346.939 602.317 343.779 602.999 340.287L604.287 333.734C604.315 333.591 604.373 333.455 604.458 333.332C604.544 333.21 604.654 333.104 604.783 333.022C604.913 332.939 605.058 332.88 605.212 332.849C605.366 332.818 605.525 332.815 605.68 332.841C605.835 332.867 605.983 332.921 606.115 332.999C606.248 333.078 606.362 333.18 606.452 333.299C606.542 333.419 606.605 333.553 606.639 333.695C606.672 333.837 606.675 333.984 606.647 334.127L605.36 340.679C604.577 344.682 602.295 348.305 598.913 350.912C595.531 353.52 591.263 354.947 586.856 354.945Z" fill="#262424"/>
<path d="M595.88 459.956C599.316 444.781 593.873 430.625 583.724 428.337C573.574 426.049 562.56 436.496 559.125 451.672C555.689 466.847 561.131 481.003 571.281 483.291C581.431 485.579 592.444 475.132 595.88 459.956Z" fill="white"/>
<path d="M563.492 587.218C563.3 587.218 563.111 587.171 562.942 587.082C562.772 586.993 562.628 586.863 562.522 586.705C562.415 586.547 562.35 586.365 562.331 586.176C562.313 585.987 562.342 585.796 562.415 585.621L651.704 372.732V322.916C651.704 322.61 651.827 322.317 652.045 322.101C652.263 321.885 652.559 321.763 652.868 321.763C653.176 321.763 653.472 321.885 653.69 322.101C653.909 322.317 654.031 322.61 654.031 322.916V372.968C654.032 373.12 654.002 373.271 653.944 373.412L564.562 586.509C564.474 586.718 564.325 586.897 564.135 587.023C563.944 587.149 563.721 587.217 563.492 587.218Z" fill="#262424"/>
<path d="M652.755 373.044C652.426 373.045 652.109 372.936 651.869 372.741L645.5 367.53C642.79 365.307 640.629 362.626 639.151 359.653C637.672 356.679 636.906 353.475 636.899 350.236V325.904C636.899 325.606 637.036 325.32 637.278 325.109C637.521 324.898 637.85 324.78 638.193 324.78C638.536 324.78 638.865 324.898 639.107 325.109C639.35 325.32 639.486 325.606 639.486 325.904V350.224C639.489 353.156 640.178 356.056 641.512 358.748C642.846 361.44 644.797 363.868 647.245 365.883L653.615 371.094C653.805 371.246 653.938 371.445 653.997 371.664C654.056 371.883 654.038 372.112 653.946 372.322C653.853 372.532 653.69 372.714 653.478 372.842C653.265 372.971 653.014 373.041 652.755 373.044Z" fill="#262424"/>
<path d="M521.791 631.708L558.385 638.403C559.737 638.65 561.132 638.414 562.328 637.736C563.524 637.058 564.445 635.98 564.931 634.69L575.048 607.839C575.352 607.031 575.475 606.167 575.409 605.306C575.343 604.446 575.089 603.61 574.665 602.859C574.242 602.108 573.659 601.459 572.958 600.959C572.257 600.459 571.455 600.119 570.609 599.964L528.953 592.341C528.194 592.202 527.416 592.214 526.662 592.377C525.908 592.54 525.193 592.851 524.559 593.291C523.925 593.731 523.383 594.292 522.965 594.943C522.547 595.593 522.261 596.319 522.123 597.081L517.067 624.884C516.796 626.417 517.14 627.995 518.026 629.274C518.911 630.553 520.265 631.428 521.791 631.708Z" fill="#DE9244"/>
<path d="M714.496 627.852L725.681 681.736L743.721 677.311L740.378 625.427L714.496 627.852Z" fill="white"/>
<path d="M726.118 682.74C725.84 682.746 725.568 682.655 725.351 682.485C725.133 682.314 724.982 682.073 724.925 681.805L713.513 628.237C713.479 628.075 713.48 627.908 713.516 627.746C713.551 627.584 713.621 627.432 713.721 627.299C713.821 627.165 713.948 627.055 714.094 626.973C714.24 626.892 714.402 626.841 714.569 626.826L741.024 624.427C741.182 624.412 741.342 624.429 741.494 624.476C741.646 624.524 741.786 624.601 741.908 624.703C742.029 624.805 742.128 624.93 742.199 625.07C742.271 625.211 742.313 625.364 742.324 625.52L745.734 677.1C745.752 677.377 745.67 677.65 745.503 677.873C745.336 678.095 745.095 678.253 744.822 678.318L726.416 682.716C726.318 682.736 726.218 682.744 726.118 682.74ZM716.149 629.043L727.036 680.135L743.272 676.253L740.01 626.855L716.149 629.043Z" fill="#262424"/>
<path d="M669.147 721.388V728.994H760.853C760.853 728.994 760.853 725.408 760.554 719.761C759.836 706.25 757.4 680.92 749.123 664.642H715.27C715.27 664.642 706.286 691.628 677.397 707.397C675.149 708.624 673.231 710.392 671.808 712.547C670.385 714.702 669.502 717.179 669.234 719.761C669.178 720.302 669.149 720.844 669.147 721.388Z" fill="#87BFC1"/>
<path d="M669.148 721.539V728.994H760.853C760.853 728.994 760.853 725.479 760.554 719.945H669.217C669.167 720.475 669.144 721.007 669.148 721.539Z" fill="white"/>
<path d="M760.692 730H669.285C668.981 730 668.69 729.882 668.475 729.673C668.26 729.463 668.14 729.179 668.14 728.883V721.621C668.141 721.061 668.172 720.502 668.231 719.945C668.26 719.668 668.393 719.412 668.605 719.226C668.816 719.04 669.092 718.938 669.376 718.939H760.418C760.711 718.939 760.993 719.048 761.206 719.245C761.419 719.441 761.547 719.71 761.563 719.995C761.861 725.352 761.861 728.838 761.861 728.871C761.862 729.021 761.833 729.169 761.775 729.308C761.716 729.446 761.63 729.571 761.521 729.677C761.412 729.782 761.283 729.865 761.14 729.92C760.998 729.976 760.846 730.003 760.692 730ZM670.43 727.765H759.536C759.536 726.492 759.461 724.19 759.307 721.185H670.436C670.436 721.336 670.436 721.481 670.436 721.626V727.771L670.43 727.765Z" fill="#262424"/>
<path d="M745.736 617.383L727.989 330.828C727.777 327.404 726.88 324.055 725.35 320.981C723.821 317.907 721.689 315.168 719.081 312.927C716.474 310.686 713.442 308.987 710.165 307.93C706.889 306.874 703.433 306.481 700.002 306.775L684.848 308.076C665.737 309.717 650.375 303.798 647.984 322.759L649.487 392.127L710.132 616.718L745.736 617.383Z" fill="#87BFC1"/>
<path d="M648.992 380.083C648.725 380.083 648.468 379.963 648.279 379.751C648.091 379.539 647.984 379.251 647.984 378.951L646.977 325.912C646.977 325.611 647.083 325.324 647.272 325.111C647.461 324.899 647.717 324.78 647.984 324.78C648.252 324.78 648.508 324.899 648.697 325.111C648.886 325.324 648.992 325.611 648.992 325.912L650 378.951C650 379.251 649.894 379.539 649.705 379.751C649.516 379.963 649.259 380.083 648.992 380.083Z" fill="#262424"/>
<path d="M724.373 368.016H724.198L719.187 367.269C714.937 366.633 711.05 364.55 708.204 361.384C705.358 358.219 703.734 354.172 703.616 349.95L703.411 343.057C703.402 342.752 703.516 342.457 703.729 342.235C703.942 342.013 704.235 341.883 704.545 341.874C704.856 341.865 705.157 341.977 705.383 342.186C705.609 342.395 705.741 342.684 705.75 342.988L705.955 349.881C706.061 353.566 707.481 357.097 709.968 359.858C712.455 362.618 715.851 364.432 719.561 364.983L724.572 365.73C724.869 365.77 725.139 365.921 725.325 366.151C725.512 366.381 725.602 366.672 725.577 366.965C725.551 367.259 725.412 367.531 725.189 367.727C724.965 367.922 724.673 368.026 724.373 368.016Z" fill="#262424"/>
<path d="M695.723 495.392C706.101 494.646 713.607 481.462 712.486 465.945C711.366 450.427 702.044 438.452 691.666 439.198C681.287 439.944 673.782 453.128 674.902 468.646C676.022 484.163 685.344 496.138 695.723 495.392Z" fill="white"/>
<path d="M738.519 609.333C738.22 609.333 737.932 609.22 737.714 609.016C737.497 608.813 737.367 608.534 737.35 608.238L723.568 366.224C723.551 365.917 723.657 365.615 723.865 365.386C724.072 365.157 724.362 365.019 724.672 365.002C724.982 364.985 725.287 365.091 725.518 365.296C725.749 365.501 725.889 365.789 725.906 366.097L739.688 608.116C739.706 608.423 739.6 608.724 739.394 608.953C739.188 609.182 738.898 609.321 738.589 609.339H738.525L738.519 609.333Z" fill="#262424"/>
<path d="M748.091 649.742L711.098 650.563C709.732 650.594 708.398 650.148 707.329 649.303C706.26 648.458 705.523 647.268 705.247 645.939L699.501 618.25C699.327 617.418 699.341 616.558 699.539 615.731C699.738 614.904 700.118 614.131 700.651 613.466C701.185 612.801 701.859 612.261 702.626 611.884C703.394 611.506 704.235 611.301 705.091 611.282L747.199 610.346C747.966 610.328 748.729 610.461 749.444 610.736C750.16 611.011 750.813 611.424 751.368 611.95C751.923 612.476 752.367 613.105 752.677 613.802C752.986 614.498 753.155 615.249 753.172 616.01L753.797 643.813C753.815 644.575 753.681 645.332 753.404 646.042C753.127 646.752 752.711 647.401 752.181 647.951C751.651 648.502 751.017 648.943 750.315 649.25C749.614 649.558 748.858 649.725 748.091 649.742Z" fill="#DE9244"/>
<path d="M556.279 208.212L518.515 209.141C516.405 209.202 514.317 208.7 512.478 207.689C510.64 206.678 509.118 205.197 508.079 203.405C495.574 181.609 487.491 123.555 487.491 123.555C487.491 123.555 477.492 117.716 478.374 107.156C479.256 96.5965 466.315 90.0002 468.962 85.985C471.609 81.9699 482.05 76.951 485.727 77.3812C489.403 77.8113 495.533 89.484 495.727 89.8453L492.25 79.5608C492.101 79.1191 492.053 78.6508 492.11 78.1889C492.166 77.7271 492.326 77.283 492.578 76.8881C492.83 76.4931 493.168 76.1569 493.567 75.9031C493.967 75.6494 494.419 75.4843 494.891 75.4195C495.04 75.4111 495.19 75.4111 495.338 75.4195C495.978 75.4184 496.604 75.6012 497.137 75.945C497.671 76.2888 498.089 76.7784 498.338 77.3525C500.168 81.5512 503.927 90.4763 504.262 93.6138C504.703 97.7724 504.262 104.369 504.262 104.369L509.474 96.413C509.826 95.8759 510.347 95.4646 510.959 95.2408C511.572 95.0171 512.242 94.9929 512.869 95.1719C513.497 95.3509 514.048 95.7234 514.44 96.2336C514.832 96.7438 515.044 97.3642 515.044 98.0018C515.044 98.4109 514.956 98.8155 514.785 99.1891L505.438 119.838L533.744 172.253L545.732 170.028L556.279 208.212Z" fill="white"/>
<path d="M518.053 211.157C515.838 211.17 513.661 210.581 511.747 209.452C509.834 208.322 508.254 206.693 507.172 204.734C495.506 183.571 487.946 130.299 487.087 124.009C485.043 122.609 477.352 116.633 478.131 106.621C478.572 101.104 475.044 96.6265 472.203 93.0317C469.712 89.8724 467.565 87.1486 469.145 84.6572C472.009 80.1041 482.592 74.9354 486.566 75.4232C488.25 75.6265 490.191 77.6011 491.961 79.988L491.686 79.1517C491.488 78.5429 491.424 77.8974 491.499 77.2608C491.574 76.6242 491.785 76.012 492.119 75.4675C492.453 74.923 492.901 74.4594 493.43 74.1096C493.96 73.7598 494.559 73.5322 495.185 73.4429C495.375 73.4182 495.566 73.4046 495.758 73.4022C496.605 73.4013 497.434 73.6537 498.141 74.1278C498.848 74.6019 499.401 75.2767 499.732 76.0679C501.771 80.9404 505.247 89.5994 505.585 92.8633C505.787 95.1104 505.862 97.3674 505.809 99.6232L508.603 95.1921C509.161 94.3185 510.023 93.6896 511.017 93.4303C512.011 93.1711 513.065 93.3004 513.969 93.7926C514.873 94.2847 515.562 95.1038 515.898 96.0871C516.235 97.0705 516.194 98.1461 515.785 99.1005L506.908 119.508L533.824 171.323L544.665 169.226C544.95 169.171 545.245 169.227 545.49 169.383C545.736 169.54 545.914 169.784 545.988 170.069L556.239 208.758C556.285 208.928 556.291 209.106 556.259 209.279C556.226 209.451 556.155 209.614 556.052 209.755C555.948 209.896 555.814 210.011 555.66 210.092C555.506 210.173 555.336 210.217 555.163 210.222L518.408 211.128H518.076L518.053 211.157ZM485.948 77.6998C482.512 77.6998 473.349 82.3865 471.098 85.9058C470.405 86.9976 472.077 89.1174 474.019 91.574C476.945 95.285 480.96 100.372 480.439 106.807C479.648 116.68 488.674 122.267 488.76 122.319C488.912 122.406 489.043 122.527 489.142 122.673C489.242 122.819 489.307 122.986 489.332 123.161C489.413 123.742 497.287 181.951 509.216 203.595C510.118 205.232 511.447 206.586 513.057 207.508C514.667 208.43 516.497 208.885 518.345 208.822L553.657 207.916L544.058 171.695L533.429 173.751C533.191 173.798 532.943 173.768 532.723 173.663C532.503 173.559 532.321 173.386 532.204 173.17L504.646 120.101C504.566 119.946 504.521 119.774 504.515 119.599C504.509 119.424 504.542 119.25 504.612 119.09L513.712 98.1829C513.813 97.9527 513.866 97.7034 513.866 97.4512C513.867 97.0561 513.741 96.6715 513.508 96.3552C513.274 96.039 512.946 95.8081 512.572 95.6974C512.198 95.5867 511.799 95.6022 511.434 95.7414C511.069 95.8807 510.759 96.1363 510.55 96.4697L505.476 104.525C505.339 104.742 505.135 104.906 504.896 104.993C504.656 105.079 504.395 105.082 504.154 105.002C503.913 104.921 503.705 104.762 503.562 104.548C503.42 104.335 503.352 104.079 503.369 103.822C503.369 103.758 503.787 97.1899 503.369 93.1304C503.151 90.999 501.027 84.9708 497.688 77.0029C497.51 76.5842 497.201 76.2367 496.808 76.0141C496.416 75.7916 495.962 75.7064 495.517 75.7717C495.226 75.8173 494.948 75.9268 494.703 76.0924C494.458 76.258 494.252 76.4758 494.098 76.7306C493.944 76.9854 493.847 77.2712 493.813 77.5679C493.779 77.8647 493.81 78.1653 493.902 78.449L497.287 88.8619C497.374 89.139 497.355 89.4392 497.235 89.7031C497.114 89.967 496.9 90.1754 496.635 90.287C496.371 90.3987 496.074 90.4055 495.804 90.3062C495.535 90.2068 495.312 90.0085 495.18 89.7504C492.734 84.8779 488.307 77.996 486.331 77.7579C486.205 77.7323 486.077 77.7148 485.948 77.7056V77.6998Z" fill="#262424"/>
<path d="M607.675 149.821L524.433 167.747C524.433 167.747 514.799 197.689 533.997 216.185L600.321 212.069L607.675 149.821Z" fill="#DE9244"/>
<path d="M541.035 214.174C540.846 214.174 540.661 214.126 540.496 214.035C540.33 213.944 540.189 213.812 540.086 213.652C527.404 194.097 531.773 173.672 531.966 172.843C532.034 172.544 532.215 172.283 532.47 172.12C532.725 171.956 533.033 171.903 533.327 171.971C533.621 172.04 533.876 172.224 534.037 172.484C534.197 172.745 534.249 173.059 534.182 173.359C534.137 173.562 529.853 193.674 541.983 212.377C542.096 212.552 542.161 212.755 542.17 212.964C542.179 213.173 542.132 213.38 542.035 213.564C541.938 213.748 541.793 213.902 541.617 214.01C541.441 214.117 541.24 214.174 541.035 214.174Z" fill="#262424"/>
<path d="M700.858 65.5342C690.263 67.93 695.182 89.6645 697.706 96.7369C700.23 103.809 692.333 121.557 704.021 129.755C715.709 137.954 687.989 159.16 715.878 189.851C737.393 213.504 782.314 205.323 779.907 183.003C777.499 160.682 744.546 145.331 742.609 124.883C741.377 111.87 749.651 94.6514 729.758 84.7924C714.901 77.4384 709.22 63.644 700.858 65.5342Z" fill="#262424"/>
<path d="M577.442 324.828C577.442 324.828 654.371 337.762 735.659 321.937L714.377 230.41L718.236 152.552L657.573 145.799L607.384 148.996C607.384 148.996 588.757 183.375 588.757 194.291C588.757 205.207 600.822 230.41 600.822 230.41L577.442 324.828Z" fill="#DE9244"/>
<path d="M656.383 323.774C618.571 323.774 586.062 319.965 585.532 319.907C585.226 319.87 584.946 319.699 584.753 319.432C584.56 319.164 584.47 318.822 584.503 318.48C584.536 318.138 584.689 317.825 584.928 317.609C585.167 317.393 585.474 317.293 585.779 317.329C586.638 317.432 672.315 327.474 727.218 314.751C727.366 314.717 727.519 314.716 727.668 314.748C727.816 314.779 727.958 314.844 728.085 314.937C728.211 315.03 728.32 315.15 728.405 315.29C728.491 315.43 728.55 315.588 728.581 315.753C728.611 315.919 728.613 316.09 728.584 316.257C728.556 316.423 728.498 316.582 728.415 316.723C728.332 316.865 728.224 316.987 728.099 317.082C727.974 317.177 727.833 317.243 727.684 317.278C706.288 322.247 680.275 323.774 656.383 323.774Z" fill="#262424"/>
<path d="M597.425 226.24C597.184 226.24 596.949 226.172 596.748 226.045C596.547 225.918 596.389 225.737 596.294 225.524C591.833 215.593 586.512 202.191 586.512 194.713C586.512 185.568 598.992 161.443 604.332 151.494C604.403 151.351 604.504 151.224 604.627 151.12C604.751 151.016 604.894 150.937 605.05 150.887C605.206 150.837 605.371 150.818 605.534 150.83C605.698 150.842 605.858 150.886 606.003 150.959C606.149 151.032 606.278 151.132 606.383 151.253C606.488 151.375 606.567 151.515 606.614 151.667C606.662 151.818 606.677 151.977 606.66 152.134C606.642 152.291 606.593 152.443 606.513 152.581C602.39 160.225 588.945 185.846 588.945 194.713C588.945 202.162 594.949 216.627 598.525 224.59C598.604 224.768 598.637 224.962 598.621 225.155C598.604 225.347 598.539 225.533 598.43 225.696C598.322 225.859 598.173 225.994 597.998 226.088C597.823 226.183 597.626 226.235 597.425 226.24Z" fill="#262424"/>
<path d="M655.818 135.813C642.4 134.8 633.806 145.144 632.915 156.28C632.024 167.417 644.1 172.446 644.1 172.446C644.1 172.446 648.736 160.654 652.957 159.682C657.178 158.711 661.785 173.953 661.785 173.953C661.785 173.953 676.317 170.539 678.908 156.078C681.499 141.616 667.711 136.706 655.818 135.813Z" fill="white"/>
<path d="M662.125 173.953C661.881 173.953 661.644 173.874 661.448 173.728C661.252 173.582 661.108 173.376 661.036 173.141C659.064 166.657 655.609 159.73 653.791 160.139C651.226 160.715 647.64 167.59 645.987 171.782C645.932 171.924 645.849 172.053 645.743 172.162C645.638 172.271 645.512 172.358 645.373 172.417C645.234 172.476 645.085 172.507 644.934 172.508C644.783 172.509 644.633 172.479 644.494 172.421C644.369 172.37 631.999 167.106 632.917 155.642C633.789 144.752 642.322 133.76 656.407 134.808C662.107 135.234 672.368 136.921 677.361 143.445C679.909 146.774 680.781 150.897 679.898 155.705C677.276 170.279 662.529 173.878 662.381 173.913C662.297 173.936 662.211 173.95 662.125 173.953ZM653.905 157.83C658.009 157.83 661.486 167.101 662.883 171.402C666.063 170.377 675.662 166.41 677.658 155.313C678.404 151.179 677.697 147.666 675.56 144.873C671.091 139.04 661.537 137.503 656.242 137.105C643.599 136.155 635.978 146.048 635.197 155.832C634.558 163.83 641.644 168.368 644.351 169.796C645.685 166.686 649.43 158.786 653.301 157.899C653.499 157.85 653.701 157.823 653.905 157.818V157.83Z" fill="#262424"/>
<path d="M649.671 119.346L646.977 147.514C646.977 147.514 650.771 155.541 656.962 155.845C663.154 156.148 669.147 148.943 669.147 148.943V117.645L649.671 119.346Z" fill="white"/>
<path d="M656.845 155.854H656.373C649.391 155.515 645.263 147.505 645.087 147.165C644.986 146.967 644.945 146.743 644.968 146.521L647.753 119.299C647.781 119.032 647.9 118.782 648.09 118.594C648.28 118.406 648.529 118.292 648.794 118.27L668.927 116.643C669.084 116.63 669.242 116.65 669.39 116.702C669.539 116.755 669.675 116.837 669.791 116.945C669.906 117.053 669.998 117.185 670.061 117.33C670.124 117.476 670.156 117.634 670.155 117.793V148.039C670.156 148.324 670.053 148.598 669.865 148.81C669.609 149.086 663.554 155.854 656.845 155.854ZM647.27 146.378C648.026 147.712 651.478 153.278 656.481 153.537C661.485 153.795 666.636 148.856 667.887 147.556V119.023L649.908 120.501L647.27 146.378Z" fill="#262424"/>
<path d="M720.169 159.881C720.169 159.881 729.533 161.194 732.791 163.605C740.21 169.099 782.723 250.921 778.728 269.425C774.734 287.929 731.365 334.189 731.365 334.189C733.491 334.887 735.373 336.192 736.786 337.947C739.068 340.839 740.21 348.356 740.21 348.356C740.21 348.356 748.484 345.465 749.625 347.489C750.767 349.512 739.068 366.86 730.794 364.836C722.52 362.812 713.389 347.489 711.678 341.128C709.966 334.767 746.487 263.642 746.487 263.642C746.487 263.642 715.957 220.563 705.115 194.542C694.273 168.52 709.543 159.627 720.169 159.881Z" fill="white"/>
<path d="M731.677 366.005C731.095 366.007 730.514 365.939 729.948 365.802C720.973 363.621 711.553 347.637 709.785 341.191C709.456 339.984 708.592 336.782 726.786 299.11C734.747 282.621 742.974 266.574 744.691 263.238C740.987 257.987 713.391 218.563 703.211 194.26C697.012 179.471 699.478 170.785 702.635 166.109C706.87 159.843 714.157 157.743 719.498 157.87H719.63C720.028 157.928 729.424 159.257 732.881 161.816C736.885 164.757 749.646 187.03 760.753 210.447C768.876 227.574 782.138 257.975 779.707 269.179C775.974 286.358 739.892 325.805 732.76 333.469C734.455 334.293 735.949 335.481 737.138 336.95C739.011 339.305 740.14 344.214 740.595 346.598C744.092 345.502 748.949 344.463 750.199 346.674C751.27 348.559 747.923 353.404 746.437 355.376C744.524 358.04 738.054 366.005 731.677 366.005ZM719.072 160.191C714.347 160.191 708.189 162.077 704.582 167.42C700.515 173.443 700.786 182.418 705.377 193.36C716.151 219.051 746.713 262.037 747.019 262.466C747.143 262.64 747.217 262.846 747.232 263.06C747.247 263.274 747.203 263.488 747.105 263.678C747.013 263.858 737.789 281.722 728.9 300.131C712.371 334.362 711.83 339.741 712.055 340.582C713.645 346.453 722.494 361.596 730.49 363.545C733.301 364.23 736.585 362.13 738.838 360.244C743.965 355.957 747.935 349.418 748.148 347.794C747.318 347.387 743.579 348.031 740.082 349.238C739.923 349.294 739.753 349.313 739.585 349.295C739.417 349.277 739.255 349.222 739.11 349.134C738.966 349.046 738.842 348.927 738.748 348.786C738.654 348.644 738.592 348.484 738.567 348.316C738.256 346.302 737.081 340.599 735.352 338.418C734.074 336.852 732.383 335.681 730.473 335.041C730.28 334.988 730.105 334.886 729.963 334.744C729.822 334.602 729.72 334.426 729.666 334.232C729.613 334.039 729.61 333.835 729.659 333.64C729.707 333.445 729.805 333.266 729.943 333.121C730.381 332.656 773.554 286.706 777.472 268.72C779.119 261.149 772.097 239.752 758.691 211.485C747.105 187.065 734.805 166.132 731.544 163.73C729.061 161.903 721.992 160.586 719.388 160.214H719.037L719.072 160.191Z" fill="#262424"/>
<path d="M717.502 152.861C729.604 153.337 741.505 164.43 756.278 192.568C771.051 220.706 771.938 223.027 771.938 223.027L726.732 243.333C726.732 243.333 700.436 202.721 697.481 188.217C694.527 173.712 696.175 152.025 717.502 152.861Z" fill="#DE9244"/>
<path d="M712.36 220.207C712.151 220.207 711.946 220.155 711.765 220.054C711.584 219.953 711.434 219.807 711.329 219.631C702.724 204.793 697.749 194.316 696.523 188.488C693.829 175.393 695.161 159.445 706.994 153.967C707.135 153.898 707.289 153.857 707.447 153.846C707.604 153.835 707.762 153.855 707.912 153.905C708.061 153.954 708.199 154.032 708.317 154.134C708.435 154.236 708.531 154.36 708.599 154.499C708.667 154.637 708.706 154.788 708.713 154.941C708.72 155.094 708.696 155.247 708.641 155.391C708.587 155.535 708.503 155.667 708.395 155.78C708.287 155.892 708.157 155.982 708.013 156.044C697.4 160.969 696.441 176.365 698.845 188.056C699.982 193.562 704.998 204.097 713.367 218.55C713.453 218.721 713.495 218.91 713.487 219.101C713.48 219.292 713.424 219.478 713.324 219.642C713.224 219.807 713.083 219.944 712.915 220.043C712.747 220.141 712.556 220.198 712.36 220.207Z" fill="#262424"/>
<path d="M725.752 234.284C725.482 234.284 725.22 234.192 725.01 234.022C724.8 233.852 724.655 233.615 724.599 233.351C724.543 233.087 724.58 232.812 724.703 232.572C724.826 232.332 725.029 232.141 725.276 232.032L763.23 215.28C763.515 215.153 763.839 215.146 764.131 215.258C764.422 215.371 764.657 215.594 764.783 215.879C764.909 216.165 764.917 216.488 764.805 216.779C764.692 217.07 764.468 217.305 764.183 217.431L726.229 234.184C726.079 234.25 725.917 234.284 725.752 234.284Z" fill="#262424"/>
<path d="M691.34 70.0426L695.4 69.4252C696.037 69.3267 696.69 69.3903 697.291 69.6095C697.893 69.8286 698.421 70.1953 698.821 70.6713C699.997 72.0076 700.834 73.5777 701.269 75.2629C701.717 77.3398 700.881 79.31 700.165 80.5281C699.933 80.9166 699.622 81.2581 699.248 81.5327C698.875 81.8073 698.448 82.0096 697.991 82.1279L693.465 83.3291C692.95 83.4659 692.408 83.4936 691.88 83.4102C691.352 83.3267 690.85 83.1342 690.41 82.8465C689.971 82.5587 689.604 82.183 689.337 81.7462C689.071 81.3094 688.91 80.8224 688.868 80.3204L688.307 73.6856C688.232 72.831 688.503 71.9812 689.065 71.306C689.627 70.6307 690.439 70.1796 691.34 70.0426Z" fill="white"/>
<path d="M692.171 84.4622C691.069 84.4547 690.009 84.0275 689.202 83.2652C688.395 82.5029 687.898 81.4608 687.811 80.3449L687.299 73.8036C687.217 72.6859 687.55 71.5776 688.231 70.6961C688.913 69.8145 689.894 69.2235 690.983 69.0388L694.684 68.4301C695.459 68.3048 696.253 68.3927 696.984 68.6847C697.714 68.9767 698.354 69.462 698.837 70.0903C700.013 71.5413 700.85 73.2442 701.284 75.0709C701.61 77.1263 701.213 79.2327 700.161 81.0201C699.882 81.5312 699.504 81.9804 699.051 82.3416C698.598 82.7027 698.079 82.9683 697.523 83.123L693.392 84.3073C692.994 84.4166 692.583 84.4688 692.171 84.4622ZM691.31 71.2248C690.761 71.3184 690.267 71.6164 689.923 72.0606C689.58 72.5048 689.411 73.0631 689.452 73.6266L689.964 80.1678C689.989 80.5004 690.087 80.8231 690.25 81.1126C690.414 81.4021 690.638 81.6512 690.908 81.8418C691.178 82.0325 691.486 82.1599 691.81 82.2149C692.134 82.27 692.466 82.2512 692.782 82.1601L696.913 80.9758C697.191 80.8989 697.451 80.7669 697.678 80.5874C697.906 80.4078 698.096 80.1844 698.237 79.9299C699.032 78.6039 699.348 77.0389 699.131 75.5026C698.766 74.0118 698.075 72.6235 697.109 71.4406C696.864 71.1271 696.54 70.8859 696.172 70.7419C695.805 70.5979 695.405 70.5563 695.016 70.6216L691.31 71.2248Z" fill="#262424"/>
<path d="M633.102 97.8881C630.186 110.451 631.544 126.275 646.649 130.209C657.754 133.099 673.787 123.403 679.569 106.996C685.351 90.5901 686.594 75.4688 666.172 70.6435C663.981 70.1602 661.76 69.8225 659.524 69.6327C647.096 68.8275 642.334 68.582 634.804 91.224C634.134 93.2284 633.629 95.5183 633.102 97.8881Z" fill="white"/>
<path d="M649.736 131.722C648.412 131.729 647.092 131.57 645.809 131.249C630.05 127.266 627.897 111.286 631.133 97.6732L631.344 96.7798C631.829 94.6969 632.292 92.7279 632.9 90.9353C640.9 67.4777 646.289 67.8134 659.333 68.6386C659.487 68.6483 659.637 68.6874 659.775 68.7535C659.913 68.8197 660.037 68.9117 660.138 69.0243C660.24 69.1368 660.318 69.2677 660.367 69.4095C660.417 69.5513 660.437 69.7013 660.427 69.8507C660.417 70.0002 660.377 70.1463 660.309 70.2807C660.241 70.415 660.147 70.535 660.031 70.6339C659.915 70.7327 659.78 70.8084 659.635 70.8566C659.489 70.9048 659.335 70.9246 659.181 70.9149C646.746 70.1296 642.55 69.8621 635.124 91.6523C634.539 93.3596 634.1 95.2546 633.626 97.2862L633.415 98.1854C631.964 104.28 628.611 124.517 646.4 129.035C649.912 129.935 654.412 129.28 660.498 126.987C660.641 126.933 660.794 126.906 660.947 126.91C661.101 126.913 661.253 126.946 661.394 127.006C661.534 127.066 661.661 127.153 661.768 127.261C661.874 127.369 661.958 127.496 662.013 127.635C662.069 127.775 662.096 127.924 662.093 128.073C662.089 128.223 662.056 128.37 661.994 128.507C661.932 128.644 661.842 128.767 661.731 128.871C661.62 128.974 661.489 129.055 661.346 129.109C656.7 130.874 652.96 131.722 649.736 131.722Z" fill="#262424"/>
<path d="M673.266 107.484C671.469 106.05 670.101 104.167 669.306 102.035C668.511 99.9023 668.318 97.5991 668.748 95.3684C669.009 93.8518 669.52 91.8524 669.682 89.9496C658.012 96.0841 639.794 96.2545 631.981 95.9989C630.749 95.9803 629.553 95.5817 628.565 94.8597C627.577 94.1378 626.846 93.1292 626.477 91.9774C622.15 77.2092 639.817 57.2778 655.669 62.8443C677.936 56.3293 696.177 72.0687 694.193 88.0638C691.972 105.791 677.692 111.204 673.266 107.484Z" fill="#262424"/>
<path d="M673.578 105.663C673.578 105.663 684.478 99.3028 692.494 104.8C700.51 110.297 691.2 130.451 670.155 121.351L673.578 105.663Z" fill="white"/>
<path d="M680.907 124.683C677.422 124.617 673.985 123.845 670.802 122.413C670.539 122.288 670.334 122.065 670.23 121.791C670.126 121.516 670.131 121.212 670.245 120.942C670.358 120.672 670.571 120.457 670.839 120.341C671.107 120.226 671.409 120.22 671.681 120.324C682.98 125.143 690.184 120.891 692.916 115.828C694.831 112.257 694.409 108.448 691.902 106.745C684.951 102.039 675.168 107.545 675.072 107.602C674.813 107.753 674.505 107.793 674.216 107.715C673.927 107.637 673.681 107.446 673.531 107.185C673.382 106.924 673.342 106.613 673.419 106.322C673.497 106.031 673.686 105.783 673.945 105.632C674.396 105.371 685.036 99.3881 693.152 104.86C696.645 107.222 697.371 112.291 694.893 116.912C692.527 121.328 687.616 124.683 680.907 124.683Z" fill="#262424"/>
<path d="M519.496 386.116C523.67 386.116 527.054 382.739 527.054 378.574C527.054 374.409 523.67 371.033 519.496 371.033C515.322 371.033 511.938 374.409 511.938 378.574C511.938 382.739 515.322 386.116 519.496 386.116Z" fill="#DE9244"/>
<path d="M231.279 569.118C235.453 569.118 238.837 565.742 238.837 561.577C238.837 557.412 235.453 554.036 231.279 554.036C227.105 554.036 223.721 557.412 223.721 561.577C223.721 565.742 227.105 569.118 231.279 569.118Z" fill="#88C0C2"/>
<path d="M221.201 368.017C220.801 368.017 220.416 367.884 220.133 367.649C219.849 367.413 219.69 367.094 219.69 366.76V358.212C219.69 357.879 219.849 357.559 220.133 357.324C220.416 357.088 220.801 356.956 221.201 356.956C221.602 356.956 221.987 357.088 222.27 357.324C222.554 357.559 222.713 357.879 222.713 358.212V366.735C222.717 366.902 222.681 367.068 222.607 367.224C222.532 367.379 222.422 367.52 222.281 367.64C222.14 367.759 221.972 367.854 221.787 367.919C221.602 367.983 221.402 368.017 221.201 368.017Z" fill="#262424"/>
<path d="M232.651 371.033H224.868C224.564 371.033 224.272 370.927 224.057 370.738C223.842 370.55 223.721 370.294 223.721 370.027C223.721 369.761 223.842 369.505 224.057 369.316C224.272 369.128 224.564 369.022 224.868 369.022H232.651C232.955 369.022 233.247 369.128 233.462 369.316C233.677 369.505 233.798 369.761 233.798 370.027C233.798 370.294 233.677 370.55 233.462 370.738C233.247 370.927 232.955 371.033 232.651 371.033Z" fill="#262424"/>
<path d="M221.202 383.099C220.801 383.099 220.416 382.979 220.133 382.764C219.849 382.55 219.69 382.259 219.69 381.956V374.187C219.69 373.884 219.849 373.593 220.133 373.379C220.416 373.165 220.801 373.044 221.202 373.044C221.602 373.044 221.987 373.165 222.27 373.379C222.554 373.593 222.713 373.884 222.713 374.187V381.956C222.713 382.259 222.554 382.55 222.27 382.764C221.987 382.979 221.602 383.099 221.202 383.099Z" fill="#262424"/>
<path d="M217.536 371.033H209.75C209.446 371.033 209.155 370.927 208.94 370.738C208.725 370.55 208.604 370.294 208.604 370.027C208.604 369.761 208.725 369.505 208.94 369.316C209.155 369.128 209.446 369.022 209.75 369.022H217.536C217.84 369.022 218.132 369.128 218.346 369.316C218.561 369.505 218.682 369.761 218.682 370.027C218.682 370.294 218.561 370.55 218.346 370.738C218.132 370.927 217.84 371.033 217.536 371.033Z" fill="#262424"/>
<path d="M469.612 619.394C469.345 619.394 469.089 619.258 468.9 619.016C468.711 618.774 468.604 618.446 468.604 618.103V610.63C468.604 610.287 468.711 609.959 468.9 609.717C469.089 609.475 469.345 609.339 469.612 609.339C469.88 609.339 470.136 609.475 470.325 609.717C470.514 609.959 470.62 610.287 470.62 610.63V618.103C470.62 618.446 470.514 618.774 470.325 619.016C470.136 619.258 469.88 619.394 469.612 619.394Z" fill="#262424"/>
<path d="M480.404 621.405H472.922C472.579 621.405 472.25 621.299 472.007 621.11C471.764 620.922 471.628 620.666 471.628 620.399C471.628 620.133 471.764 619.877 472.007 619.688C472.25 619.5 472.579 619.394 472.922 619.394H480.417C480.587 619.395 480.756 619.421 480.912 619.472C481.069 619.524 481.211 619.598 481.331 619.692C481.45 619.786 481.545 619.897 481.609 620.019C481.674 620.142 481.706 620.272 481.705 620.404C481.705 620.537 481.67 620.667 481.604 620.789C481.539 620.911 481.443 621.021 481.322 621.114C481.201 621.207 481.058 621.28 480.9 621.33C480.743 621.38 480.574 621.406 480.404 621.405Z" fill="#262424"/>
<path d="M469.612 631.46C469.345 631.46 469.089 631.351 468.9 631.158C468.711 630.964 468.604 630.701 468.604 630.427V624.449C468.604 624.175 468.711 623.912 468.9 623.718C469.089 623.525 469.345 623.416 469.612 623.416C469.88 623.416 470.136 623.525 470.325 623.718C470.514 623.912 470.62 624.175 470.62 624.449V630.427C470.62 630.701 470.514 630.964 470.325 631.158C470.136 631.351 469.88 631.46 469.612 631.46Z" fill="#262424"/>
<path d="M466.3 621.405H458.814C458.47 621.405 458.141 621.299 457.899 621.11C457.656 620.922 457.52 620.666 457.52 620.399C457.52 620.133 457.656 619.877 457.899 619.688C458.141 619.5 458.47 619.394 458.814 619.394H466.306C466.476 619.394 466.644 619.421 466.801 619.471C466.958 619.522 467.1 619.597 467.22 619.69C467.34 619.784 467.435 619.895 467.5 620.017C467.564 620.139 467.597 620.27 467.597 620.402C467.597 620.534 467.563 620.665 467.497 620.787C467.432 620.908 467.336 621.019 467.216 621.112C467.095 621.205 466.952 621.279 466.795 621.329C466.638 621.38 466.47 621.405 466.3 621.405Z" fill="#262424"/>
</svg>
