<svg width="328" height="400" viewBox="0 0 328 400" fill="none" xmlns="http://www.w3.org/2000/svg">
<path d="M327.275 385.669H37.5691C37.3767 385.669 37.1922 385.592 37.0562 385.457C36.9202 385.321 36.8438 385.136 36.8438 384.944C36.8438 384.752 36.9202 384.567 37.0562 384.431C37.1922 384.295 37.3767 384.219 37.5691 384.219H327.275C327.467 384.219 327.651 384.295 327.788 384.431C327.924 384.567 328 384.752 328 384.944C328 385.136 327.924 385.321 327.788 385.457C327.651 385.592 327.467 385.669 327.275 385.669Z" fill="#262424"/>
<path d="M236.514 399.997H128.332C128.237 399.997 128.143 399.978 128.055 399.942C127.967 399.905 127.887 399.852 127.819 399.785C127.752 399.717 127.699 399.637 127.662 399.549C127.626 399.461 127.607 399.367 127.607 399.272C127.607 399.177 127.626 399.082 127.662 398.994C127.699 398.907 127.752 398.827 127.819 398.759C127.887 398.692 127.967 398.639 128.055 398.602C128.143 398.566 128.237 398.547 128.332 398.547H236.514C236.706 398.547 236.891 398.623 237.027 398.759C237.163 398.895 237.239 399.08 237.239 399.272C237.239 399.464 237.163 399.649 237.027 399.785C236.891 399.921 236.706 399.997 236.514 399.997Z" fill="#262424"/>
<path d="M118.406 399.997H77.4383C77.343 399.997 77.2487 399.978 77.1607 399.942C77.0727 399.905 76.9927 399.852 76.9253 399.785C76.858 399.717 76.8046 399.637 76.7681 399.549C76.7317 399.461 76.7129 399.367 76.7129 399.272C76.7129 399.177 76.7317 399.082 76.7681 398.994C76.8046 398.907 76.858 398.827 76.9253 398.759C76.9927 398.692 77.0727 398.639 77.1607 398.602C77.2487 398.566 77.343 398.547 77.4383 398.547H118.406C118.501 398.547 118.596 398.566 118.684 398.602C118.772 398.639 118.852 398.692 118.919 398.759C118.986 398.827 119.04 398.907 119.076 398.994C119.113 399.082 119.132 399.177 119.132 399.272C119.132 399.367 119.113 399.461 119.076 399.549C119.04 399.637 118.986 399.717 118.919 399.785C118.852 399.852 118.772 399.905 118.684 399.942C118.596 399.978 118.501 399.997 118.406 399.997Z" fill="#262424"/>
<path d="M280.605 399.997H270.561C270.466 399.997 270.372 399.978 270.284 399.942C270.196 399.905 270.116 399.852 270.048 399.785C269.981 399.717 269.928 399.637 269.891 399.549C269.855 399.461 269.836 399.367 269.836 399.272C269.836 399.177 269.855 399.082 269.891 398.994C269.928 398.907 269.981 398.827 270.048 398.759C270.116 398.692 270.196 398.639 270.284 398.602C270.372 398.566 270.466 398.547 270.561 398.547H280.608C280.704 398.547 280.798 398.566 280.886 398.603C280.974 398.639 281.054 398.693 281.121 398.76C281.188 398.828 281.241 398.908 281.278 398.996C281.314 399.084 281.332 399.178 281.332 399.274C281.332 399.369 281.313 399.463 281.276 399.551C281.24 399.639 281.186 399.719 281.119 399.786C281.051 399.853 280.971 399.906 280.883 399.942C280.795 399.979 280.701 399.997 280.605 399.997Z" fill="#262424"/>
<path d="M300.716 59.1641C301.773 59.1641 302.786 59.5838 303.533 60.3309C304.281 61.078 304.7 62.0913 304.7 63.1479V108.778C304.7 109.835 304.281 110.848 303.533 111.595C302.786 112.342 301.773 112.762 300.716 112.762V59.1641Z" fill="#DE9244"/>
<path d="M300.716 121.961C301.773 121.961 302.786 122.381 303.533 123.128C304.281 123.875 304.7 124.888 304.7 125.945V136.193C304.7 137.249 304.281 138.262 303.533 139.01C302.786 139.757 301.773 140.176 300.716 140.176V121.961Z" fill="#DE9244"/>
<path d="M299.385 30.168H134.262C133.533 30.168 132.941 30.7592 132.941 31.4885V383.628C132.941 384.357 133.533 384.948 134.262 384.948H299.385C300.115 384.948 300.706 384.357 300.706 383.628V31.4885C300.706 30.7592 300.115 30.168 299.385 30.168Z" fill="white"/>
<path d="M296.68 385.672H136.958C135.698 385.672 134.489 385.171 133.598 384.281C132.707 383.39 132.207 382.181 132.207 380.922V34.1916C132.207 32.9318 132.707 31.7235 133.598 30.8327C134.489 29.9419 135.698 29.4414 136.958 29.4414H296.671C297.931 29.4414 299.139 29.9419 300.03 30.8327C300.921 31.7235 301.422 32.9318 301.422 34.1916V380.922C301.422 382.18 300.923 383.387 300.034 384.277C299.145 385.168 297.939 385.669 296.68 385.672ZM136.958 30.8918C136.084 30.8943 135.246 31.243 134.629 31.8615C134.012 32.4799 133.664 33.3178 133.664 34.1916V380.922C133.664 381.796 134.011 382.634 134.629 383.253C135.246 383.872 136.083 384.221 136.958 384.225H296.671C297.546 384.224 298.385 383.876 299.003 383.257C299.622 382.639 299.97 381.8 299.971 380.925V34.1916C299.97 33.3167 299.622 32.4779 299.003 31.8592C298.385 31.2406 297.546 30.8926 296.671 30.8918H136.958Z" fill="#262424"/>
<path d="M291.042 43.2743V371.855C291.042 372.767 290.68 373.641 290.035 374.285C289.391 374.929 288.517 375.291 287.605 375.291H146.02C145.108 375.291 144.234 374.929 143.59 374.285C142.945 373.641 142.583 372.767 142.583 371.855V43.2648C142.583 42.3544 142.945 41.4813 143.589 40.8375C144.233 40.1937 145.106 39.832 146.017 39.832H187.095C188.187 39.832 189.235 40.2658 190.007 41.0378C190.779 41.8099 191.213 42.857 191.213 43.9489C191.213 45.0407 191.647 46.0879 192.419 46.8599C193.191 47.632 194.239 48.0657 195.331 48.0657H238.316C239.408 48.0657 240.456 47.632 241.228 46.8599C242 46.0879 242.434 45.0407 242.434 43.9489C242.434 42.857 242.868 41.8099 243.64 41.0378C244.412 40.2658 245.46 39.832 246.552 39.832H287.612C288.521 39.8387 289.392 40.2039 290.034 40.8484C290.677 41.4929 291.039 42.3646 291.042 43.2743Z" fill="white"/>
<path d="M287.609 376.011H146.023C144.921 376.01 143.864 375.571 143.084 374.792C142.305 374.012 141.866 372.956 141.864 371.853V43.2596C141.866 42.1573 142.305 41.1007 143.084 40.3213C143.864 39.5419 144.921 39.1032 146.023 39.1016H187.092C188.376 39.1024 189.607 39.6124 190.515 40.5196C191.423 41.4268 191.934 42.6571 191.935 43.9404C191.936 44.8397 192.294 45.7019 192.93 46.3378C193.566 46.9736 194.428 47.3312 195.328 47.3321H238.317C239.216 47.3312 240.078 46.9736 240.714 46.3378C241.35 45.7019 241.708 44.8397 241.709 43.9404C241.711 42.6571 242.222 41.4268 243.13 40.5196C244.037 39.6124 245.268 39.1024 246.552 39.1016H287.612C288.717 39.1032 289.776 39.5429 290.557 40.324C291.339 41.1052 291.779 42.1643 291.78 43.2691V371.85C291.78 372.397 291.672 372.939 291.462 373.444C291.252 373.95 290.944 374.409 290.557 374.795C290.169 375.181 289.71 375.488 289.204 375.697C288.698 375.905 288.156 376.012 287.609 376.011ZM146.023 40.552C145.304 40.5528 144.615 40.8387 144.107 41.3469C143.599 41.855 143.313 42.5441 143.312 43.2627V371.85C143.313 372.569 143.599 373.258 144.107 373.766C144.615 374.274 145.304 374.56 146.023 374.561H287.609C288.327 374.56 289.017 374.274 289.525 373.766C290.033 373.258 290.319 372.569 290.32 371.85V43.2691C290.319 42.5479 290.032 41.8564 289.522 41.3465C289.012 40.8365 288.32 40.5496 287.599 40.5488H246.552C245.653 40.5496 244.79 40.9072 244.154 41.5431C243.518 42.179 243.161 43.0412 243.16 43.9404C243.158 45.2238 242.647 46.4541 241.739 47.3613C240.831 48.2685 239.6 48.7785 238.317 48.7793H195.328C194.045 48.7776 192.815 48.2673 191.907 47.3602C191 46.4531 190.49 45.2233 190.488 43.9404C190.487 43.0412 190.129 42.179 189.493 41.5431C188.857 40.9072 187.995 40.5496 187.096 40.5488H146.033L146.023 40.552Z" fill="#262424"/>
<path d="M291.045 43.2799V65.4032H142.599V43.2578C142.599 42.8074 142.687 42.3614 142.86 41.9453C143.032 41.5292 143.285 41.1511 143.603 40.8326C143.922 40.5142 144.3 40.2615 144.716 40.0892C145.132 39.9168 145.579 39.8281 146.029 39.8281H187.095C188.187 39.8281 189.235 40.2619 190.007 41.0339C190.779 41.806 191.213 42.8531 191.213 43.945C191.213 45.0368 191.647 46.084 192.419 46.856C193.191 47.6281 194.238 48.0618 195.331 48.0618H238.316C239.408 48.0618 240.456 47.6281 241.228 46.856C242 46.084 242.434 45.0368 242.434 43.945C242.434 42.8531 242.868 41.806 243.64 41.0339C244.412 40.2619 245.459 39.8281 246.552 39.8281H287.608C288.521 39.834 289.394 40.2 290.037 40.8466C290.681 41.4931 291.043 42.3677 291.045 43.2799Z" fill="#DE9244"/>
<path d="M291.045 66.1239H142.599C142.407 66.1239 142.222 66.0475 142.086 65.9115C141.95 65.7755 141.874 65.591 141.874 65.3987V43.2564C141.874 42.1547 142.312 41.0984 143.092 40.3194C143.871 39.5404 144.927 39.1024 146.029 39.1016H187.095C188.379 39.1024 189.61 39.6124 190.518 40.5196C191.426 41.4268 191.937 42.6571 191.938 43.9404C191.94 44.8394 192.298 45.7011 192.934 46.3368C193.57 46.9725 194.432 47.3304 195.331 47.3321H238.316C239.216 47.3312 240.078 46.9736 240.714 46.3378C241.35 45.7019 241.708 44.8397 241.709 43.9404C241.712 42.6579 242.224 41.4289 243.131 40.5225C244.039 39.6162 245.269 39.1064 246.552 39.1047H287.608C288.715 39.1056 289.777 39.5456 290.559 40.3281C291.342 41.1107 291.782 42.1719 291.783 43.2786V65.4019C291.783 65.4979 291.763 65.5929 291.726 65.6814C291.688 65.7698 291.634 65.8499 291.565 65.9171C291.496 65.9843 291.415 66.0372 291.326 66.0727C291.237 66.1082 291.141 66.1256 291.045 66.1239ZM143.324 64.6735H290.32V43.2786C290.319 42.5565 290.032 41.8643 289.521 41.3537C289.01 40.8432 288.318 40.556 287.596 40.5551H246.552C245.653 40.5568 244.791 40.9147 244.155 41.5504C243.519 42.1861 243.161 43.0478 243.159 43.9468C243.157 45.2296 242.646 46.4591 241.738 47.3656C240.83 48.2721 239.599 48.7816 238.316 48.7825H195.328C194.045 48.78 192.815 48.2694 191.908 47.3624C191.001 46.4555 190.49 45.2262 190.488 43.9436C190.487 43.0443 190.129 42.1821 189.493 41.5463C188.857 40.9104 187.995 40.5528 187.095 40.552H146.029C145.312 40.5528 144.625 40.838 144.117 41.345C143.61 41.852 143.325 42.5394 143.324 43.2564V64.6735Z" fill="#262424"/>
<path d="M142.599 354.963H291.045V371.838C291.046 372.29 290.957 372.738 290.785 373.156C290.612 373.573 290.359 373.953 290.039 374.272C289.72 374.592 289.34 374.845 288.922 375.018C288.505 375.19 288.057 375.278 287.605 375.278H146.019C145.11 375.274 144.239 374.91 143.598 374.265C142.956 373.621 142.597 372.748 142.599 371.838V354.953V354.963Z" fill="#DE9244"/>
<path d="M287.605 376.014H146.02C144.916 376.009 143.86 375.566 143.082 374.783C142.305 374 141.87 372.941 141.874 371.837V354.952C141.874 354.759 141.95 354.575 142.086 354.439C142.222 354.303 142.407 354.227 142.599 354.227H291.045C291.237 354.227 291.422 354.303 291.558 354.439C291.694 354.575 291.77 354.759 291.77 354.952V371.837C291.772 372.385 291.665 372.928 291.456 373.434C291.247 373.941 290.941 374.401 290.554 374.789C290.167 375.177 289.708 375.485 289.202 375.695C288.696 375.905 288.153 376.014 287.605 376.014ZM143.324 355.686V371.837C143.324 372.555 143.609 373.244 144.116 373.753C144.623 374.262 145.311 374.549 146.029 374.551H287.615C288.334 374.55 289.024 374.264 289.533 373.755C290.042 373.246 290.328 372.557 290.329 371.837V355.686H143.324Z" fill="#262424"/>
<path d="M224.227 112.971L181.912 155.277C181.051 156.138 181.051 157.534 181.912 158.394L206.298 182.776C207.159 183.636 208.555 183.636 209.416 182.776L251.731 140.469C252.592 139.608 252.592 138.213 251.731 137.352L227.345 112.971C226.484 112.11 225.088 112.11 224.227 112.971Z" fill="#88C0C2"/>
<path d="M231.132 116.756L185.699 162.18L191.621 168.1L237.054 122.677L231.132 116.756Z" fill="#DE9244"/>
<path d="M211.775 166.6L205.45 172.924C204.791 173.583 204.791 174.652 205.45 175.311C206.109 175.97 207.178 175.97 207.838 175.311L214.163 168.987C214.822 168.328 214.822 167.259 214.163 166.6C213.503 165.941 212.434 165.941 211.775 166.6Z" fill="white"/>
<path d="M218.472 159.906L215.82 162.557C215.161 163.216 215.161 164.284 215.82 164.943C216.479 165.603 217.548 165.603 218.207 164.943L220.859 162.292C221.518 161.633 221.518 160.565 220.859 159.906C220.2 159.246 219.131 159.246 218.472 159.906Z" fill="white"/>
<path d="M240.936 137.445L238.284 140.096C237.625 140.755 237.625 141.823 238.284 142.482C238.943 143.142 240.012 143.142 240.671 142.482L243.323 139.831C243.982 139.172 243.982 138.104 243.323 137.445C242.664 136.785 241.595 136.785 240.936 137.445Z" fill="white"/>
<path d="M234.886 98.2266H198.755C198.459 98.2266 198.22 98.4661 198.22 98.7617V100.953C198.22 101.248 198.459 101.488 198.755 101.488H234.886C235.182 101.488 235.422 101.248 235.422 100.953V98.7617C235.422 98.4661 235.182 98.2266 234.886 98.2266Z" fill="#DE9244"/>
<path d="M180.52 101.492C186.491 101.492 191.331 96.6526 191.331 90.6833C191.331 84.714 186.491 79.875 180.52 79.875C174.55 79.875 169.709 84.714 169.709 90.6833C169.709 96.6526 174.55 101.492 180.52 101.492Z" fill="#88C0C2"/>
<path d="M185.816 89.0508H175.231C174.935 89.0508 174.695 89.2903 174.695 89.5859V91.7769C174.695 92.0724 174.935 92.312 175.231 92.312H185.816C186.112 92.312 186.352 92.0724 186.352 91.7769V89.5859C186.352 89.2903 186.112 89.0508 185.816 89.0508Z" fill="#DE9244"/>
<path d="M253.122 101.492C259.092 101.492 263.932 96.6526 263.932 90.6833C263.932 84.714 259.092 79.875 253.122 79.875C247.151 79.875 242.311 84.714 242.311 90.6833C242.311 96.6526 247.151 101.492 253.122 101.492Z" fill="#88C0C2"/>
<path d="M258.943 90.6768C258.945 90.891 258.904 91.1035 258.823 91.3019C258.742 91.5003 258.623 91.6807 258.472 91.8326C258.32 91.9846 258.141 92.1051 257.943 92.1871C257.745 92.2692 257.533 92.3113 257.318 92.3109H254.749V94.8791C254.749 95.3108 254.578 95.7249 254.273 96.0301C253.967 96.3354 253.553 96.5069 253.121 96.5069C252.69 96.5069 252.275 96.3354 251.97 96.0301C251.665 95.7249 251.493 95.3108 251.493 94.8791V92.3109H248.924C248.711 92.3109 248.499 92.2688 248.301 92.187C248.104 92.1052 247.924 91.9852 247.773 91.8341C247.622 91.683 247.502 91.5035 247.42 91.306C247.338 91.1085 247.296 90.8969 247.296 90.6831C247.296 90.4694 247.338 90.2577 247.42 90.0602C247.502 89.8627 247.622 89.6833 247.773 89.5321C247.924 89.381 248.104 89.2611 248.301 89.1793C248.499 89.0975 248.711 89.0554 248.924 89.0554H251.493V86.4871C251.493 86.0554 251.665 85.6414 251.97 85.3361C252.275 85.0309 252.69 84.8594 253.121 84.8594C253.553 84.8594 253.967 85.0309 254.273 85.3361C254.578 85.6414 254.749 86.0554 254.749 86.4871V89.0427H257.321C257.535 89.0427 257.747 89.0851 257.945 89.1673C258.143 89.2496 258.322 89.3702 258.473 89.5221C258.623 89.674 258.743 89.8542 258.823 90.0524C258.904 90.2506 258.945 90.4628 258.943 90.6768Z" fill="#DE9244"/>
<path d="M192.1 292.131C196.991 292.131 200.956 288.166 200.956 283.276C200.956 278.386 196.991 274.422 192.1 274.422C187.209 274.422 183.244 278.386 183.244 283.276C183.244 288.166 187.209 292.131 192.1 292.131Z" fill="#88C0C2"/>
<path d="M192.1 286.822C194.058 286.822 195.644 285.235 195.644 283.278C195.644 281.321 194.058 279.734 192.1 279.734C190.143 279.734 188.556 281.321 188.556 283.278C188.556 285.235 190.143 286.822 192.1 286.822Z" fill="white"/>
<path d="M241.541 292.131C246.432 292.131 250.397 288.166 250.397 283.276C250.397 278.386 246.432 274.422 241.541 274.422C236.65 274.422 232.685 278.386 232.685 283.276C232.685 288.166 236.65 292.131 241.541 292.131Z" fill="#88C0C2"/>
<path d="M241.541 286.822C243.499 286.822 245.086 285.235 245.086 283.278C245.086 281.321 243.499 279.734 241.541 279.734C239.584 279.734 237.997 281.321 237.997 283.278C237.997 285.235 239.584 286.822 241.541 286.822Z" fill="white"/>
<path d="M274.958 176.688H265.94C265.293 176.688 264.665 176.905 264.155 177.304C263.645 177.703 263.284 178.26 263.128 178.888L260.239 190.53H171.138H171.084C170.887 190.546 170.69 190.57 170.495 190.602H170.441C170.375 190.618 170.315 190.65 170.251 190.669C170.144 190.699 170.038 190.735 169.935 190.777C169.849 190.815 169.773 190.862 169.694 190.906C169.615 190.951 169.529 190.998 169.45 191.055C169.373 191.113 169.299 191.174 169.228 191.239C169.159 191.299 169.092 191.356 169.029 191.423C168.965 191.489 168.908 191.565 168.851 191.638C168.794 191.711 168.737 191.784 168.687 191.86C168.636 191.936 168.598 192.018 168.557 192.1C168.511 192.184 168.47 192.269 168.433 192.357C168.398 192.446 168.373 192.541 168.348 192.632C168.322 192.724 168.297 192.803 168.281 192.892C168.265 192.997 168.254 193.103 168.249 193.209C168.249 193.275 168.23 193.339 168.23 193.405C168.23 193.424 168.23 193.44 168.23 193.459C168.246 193.656 168.271 193.853 168.303 194.048C168.303 194.067 168.303 194.083 168.303 194.102L177.372 230.596C177.388 230.662 177.419 230.723 177.438 230.786C177.468 230.894 177.504 230.999 177.546 231.103C177.584 231.188 177.631 231.264 177.676 231.343C177.72 231.423 177.768 231.511 177.825 231.587C177.882 231.664 177.943 231.738 178.008 231.809C178.069 231.879 178.126 231.945 178.192 232.008C178.259 232.072 178.335 232.129 178.408 232.186C178.48 232.243 178.553 232.3 178.632 232.35C178.712 232.401 178.791 232.439 178.87 232.48C178.953 232.526 179.039 232.567 179.127 232.604C179.215 232.639 179.307 232.661 179.399 232.689C179.491 232.718 179.573 232.74 179.662 232.759C179.767 232.775 179.873 232.786 179.979 232.791C180.045 232.791 180.112 232.81 180.178 232.81H249.751L243.863 256.561H187.511C186.742 256.561 186.005 256.866 185.461 257.409C184.918 257.953 184.613 258.69 184.613 259.458C184.613 260.227 184.918 260.964 185.461 261.507C186.005 262.051 186.742 262.356 187.511 262.356H246.131C246.778 262.355 247.407 262.138 247.916 261.739C248.426 261.341 248.788 260.783 248.944 260.155L268.205 182.495H274.955C275.725 182.496 276.464 182.19 277.009 181.646C277.554 181.102 277.861 180.363 277.861 179.593C277.861 178.823 277.556 178.084 277.011 177.539C276.467 176.994 275.728 176.688 274.958 176.688ZM219.721 227.008V196.328H236.508L230.715 227.008H219.721ZM202.933 227.008L197.14 196.328H213.927V227.011H202.917L202.933 227.008ZM182.468 227.008L174.866 196.325H191.252L197.042 227.008H182.471H182.468ZM236.632 227.008L242.422 196.325H258.807L251.205 227.008H236.635H236.632Z" fill="#DE9244"/>
<path d="M254.882 308.402H178.759C171.847 308.402 166.244 314.004 166.244 320.914V320.918C166.244 327.828 171.847 333.43 178.759 333.43H254.882C261.794 333.43 267.397 327.828 267.397 320.918V320.914C267.397 314.004 261.794 308.402 254.882 308.402Z" fill="#DE9244"/>
<path d="M239.26 317.672H175.702C173.909 317.672 172.455 319.125 172.455 320.918C172.455 322.711 173.909 324.164 175.702 324.164H239.26C241.053 324.164 242.507 322.711 242.507 320.918C242.507 319.125 241.053 317.672 239.26 317.672Z" fill="white"/>
<path d="M257.942 317.672H251.392C249.599 317.672 248.146 319.125 248.146 320.918C248.146 322.711 249.599 324.164 251.392 324.164H257.942C259.736 324.164 261.189 322.711 261.189 320.918C261.189 319.125 259.736 317.672 257.942 317.672Z" fill="white"/>
<path d="M236.692 39.8281H196.953C195.751 39.8281 194.777 40.802 194.777 42.0033V42.2598C194.777 43.4611 195.751 44.435 196.953 44.435H236.692C237.894 44.435 238.868 43.4611 238.868 42.2598V42.0033C238.868 40.802 237.894 39.8281 236.692 39.8281Z" fill="#DE9244"/>
<path d="M100.177 293.652L113.535 304.039L109.189 311.849L94.894 303.957L100.177 293.652Z" fill="white"/>
<path d="M109.186 312.577C109.064 312.576 108.944 312.545 108.837 312.485L94.5427 304.593C94.3817 304.502 94.2616 304.353 94.2068 304.177C94.1521 304 94.1669 303.809 94.2481 303.643L99.5315 293.338C99.5801 293.244 99.649 293.161 99.7333 293.096C99.8176 293.03 99.9152 292.985 100.019 292.962C100.123 292.939 100.231 292.94 100.335 292.963C100.439 292.987 100.537 293.033 100.621 293.098L113.981 303.485C114.118 303.591 114.212 303.743 114.246 303.913C114.28 304.082 114.253 304.258 114.168 304.41L109.819 312.219C109.755 312.329 109.662 312.42 109.551 312.483C109.44 312.546 109.314 312.578 109.186 312.577ZM95.8572 303.669L108.904 310.87L112.597 304.22L100.418 294.751L95.8572 303.669Z" fill="#262424"/>
<path d="M132.941 303.077V347.273C130.604 347.541 128.236 347.222 126.052 346.345C123.988 345.497 122.224 344.054 120.984 342.199C119.92 340.616 118.415 338.026 116.753 335.042C111.853 326.175 105.641 313.825 105.641 313.825L111.805 301.496C116.562 301.31 121.326 301.472 126.059 301.981C128.37 302.227 130.668 302.592 132.941 303.077Z" fill="#88C0C2"/>
<path d="M117.662 313.518C120.763 313.518 123.278 311.707 123.278 309.474C123.278 307.24 120.763 305.43 117.662 305.43C114.56 305.43 112.046 307.24 112.046 309.474C112.046 311.707 114.56 313.518 117.662 313.518Z" fill="white"/>
<path d="M132.941 303.077V347.273C130.604 347.542 128.236 347.223 126.052 346.345V301.984C128.366 302.229 130.666 302.593 132.941 303.077Z" fill="white"/>
<path d="M131.377 348.086C129.457 348.094 127.554 347.727 125.774 347.006C125.642 346.951 125.529 346.859 125.449 346.74C125.37 346.621 125.327 346.481 125.327 346.338V301.984C125.327 301.882 125.348 301.782 125.39 301.689C125.431 301.596 125.491 301.512 125.567 301.444C125.642 301.376 125.732 301.325 125.828 301.293C125.925 301.262 126.027 301.251 126.129 301.262C128.469 301.509 130.795 301.878 133.097 302.367C133.259 302.402 133.405 302.491 133.509 302.62C133.613 302.749 133.67 302.91 133.67 303.076V347.272C133.67 347.445 133.609 347.612 133.496 347.743C133.384 347.874 133.229 347.961 133.059 347.988C132.501 348.061 131.939 348.094 131.377 348.086ZM126.778 345.844C128.52 346.466 130.37 346.727 132.216 346.61V303.665C130.484 303.311 128.659 303.032 126.778 302.798V345.866V345.844Z" fill="#262424"/>
<path d="M126.053 331.988L132.942 329.727V347.271C130.604 347.539 128.236 347.221 126.053 346.343C123.989 345.495 122.224 344.052 120.985 342.197C119.92 340.614 118.416 338.024 116.753 335.04L126.053 331.988Z" fill="white"/>
<path d="M131.376 348.083C129.456 348.09 127.553 347.723 125.773 347.003C123.581 346.1 121.706 344.566 120.389 342.595C119.416 341.147 117.981 338.722 116.125 335.384C116.073 335.29 116.042 335.186 116.035 335.08C116.028 334.973 116.045 334.866 116.084 334.766C116.123 334.667 116.183 334.577 116.261 334.504C116.339 334.43 116.432 334.375 116.534 334.342L125.83 331.289L132.719 329.028C132.829 328.993 132.944 328.983 133.058 329.001C133.171 329.018 133.279 329.062 133.372 329.129C133.465 329.196 133.541 329.284 133.593 329.386C133.645 329.488 133.673 329.601 133.673 329.715V347.259C133.673 347.432 133.611 347.599 133.499 347.73C133.387 347.861 133.232 347.948 133.062 347.975C132.503 348.051 131.94 348.087 131.376 348.083ZM117.82 335.447C119.451 338.354 120.718 340.485 121.592 341.781C122.755 343.517 124.409 344.868 126.343 345.66C128.21 346.412 130.221 346.736 132.229 346.61V330.722L117.82 335.447Z" fill="#262424"/>
<path d="M103.031 293.975L94.9734 309.112C94.9734 309.112 86.1615 304.045 74.7492 296.949C61.4458 288.652 44.5728 277.561 34.022 268.403C28.6975 263.786 25.4033 260.065 25.606 258.076C25.7802 256.413 27.1897 252.512 29.407 247.198C39.7171 222.624 67.1536 168.072 67.1536 168.072C76.1682 147.301 98.8757 153.264 101.454 164.209C104.032 175.153 98.0712 190.94 98.0712 190.94L96.0978 194.271L86.833 209.874L60.3911 254.368L94.1974 285.782L103.031 293.975Z" fill="#88C0C2"/>
<path d="M103.031 293.974L94.9733 309.111C94.9733 309.111 86.1614 304.044 74.749 296.947L94.1972 285.781L103.031 293.974Z" fill="#262424"/>
<path d="M96.0983 194.272L86.8335 209.875L90.5933 186.672C90.3747 190.339 93.2254 192.765 96.0983 194.272Z" fill="#262424"/>
<path d="M34.0151 268.404C28.6906 263.787 25.3965 260.066 25.5992 258.077C25.7734 256.415 27.1829 252.513 29.4001 247.199C32.6183 248.349 35.507 251.519 36.793 255.75C38.3545 260.842 37.1066 265.912 34.0151 268.404Z" fill="white"/>
<path d="M94.1683 295.906C94.0022 295.907 93.841 295.85 93.7122 295.745L45.5193 256.54C45.3925 256.437 45.3044 256.293 45.2693 256.133C45.2342 255.974 45.2542 255.807 45.3261 255.66L79.3858 185.863C79.4768 185.703 79.6256 185.583 79.8017 185.529C79.9778 185.474 80.1682 185.489 80.334 185.569C80.4998 185.65 80.6287 185.791 80.6944 185.963C80.7601 186.135 80.7576 186.326 80.6876 186.497L46.8813 255.78L94.6245 294.621C94.7398 294.715 94.8231 294.843 94.8631 294.987C94.903 295.131 94.8977 295.283 94.8479 295.424C94.798 295.564 94.706 295.686 94.5844 295.772C94.4628 295.859 94.3175 295.906 94.1683 295.906Z" fill="#262424"/>
<path d="M33.6575 258.956C33.4755 258.956 33.3005 258.887 33.1671 258.763C33.0337 258.639 32.9517 258.47 32.9373 258.289C32.923 258.107 32.9773 257.927 33.0896 257.784C33.2019 257.641 33.3638 257.545 33.5434 257.516L57.3786 253.653C57.4737 253.635 57.5714 253.637 57.666 253.657C57.7606 253.678 57.8501 253.717 57.9292 253.773C58.0084 253.828 58.0757 253.899 58.127 253.981C58.1783 254.063 58.2127 254.155 58.2281 254.25C58.2436 254.346 58.2397 254.443 58.2168 254.537C58.1939 254.631 58.1525 254.72 58.0948 254.797C58.0372 254.875 57.9646 254.941 57.8813 254.99C57.798 255.039 57.7057 255.071 57.6098 255.084L33.7746 258.947C33.7359 258.953 33.6967 258.957 33.6575 258.956Z" fill="#262424"/>
<path d="M91.6631 304.686C91.5374 304.686 91.4139 304.653 91.3049 304.59C91.1958 304.528 91.1049 304.438 91.0411 304.33C90.9772 304.222 90.9425 304.099 90.9405 303.973C90.9385 303.847 90.9692 303.723 91.0296 303.613L97.4722 291.858C97.5133 291.766 97.5728 291.685 97.647 291.617C97.7213 291.55 97.8087 291.499 97.9037 291.467C97.9987 291.435 98.0993 291.424 98.199 291.433C98.2988 291.442 98.3957 291.471 98.4834 291.519C98.5712 291.568 98.6481 291.634 98.7091 291.713C98.7701 291.793 98.814 291.884 98.8381 291.981C98.8621 292.078 98.8657 292.179 98.8487 292.278C98.8317 292.377 98.7944 292.471 98.7392 292.554L92.2966 304.31C92.2346 304.424 92.143 304.519 92.0315 304.585C91.9201 304.651 91.7928 304.686 91.6631 304.686Z" fill="#262424"/>
<path d="M88.1723 341.316L86.0786 360.314L95.2579 363.779L99.9268 341.316H88.1723Z" fill="white"/>
<path d="M95.2582 364.501C95.1705 364.501 95.0836 364.485 95.0017 364.454L85.816 360.993C85.6654 360.936 85.538 360.831 85.4537 360.694C85.3694 360.557 85.3331 360.396 85.3504 360.236L87.4441 341.235C87.4664 341.06 87.5518 340.899 87.6841 340.783C87.8164 340.666 87.9867 340.602 88.1631 340.602H99.9176C100.025 340.602 100.131 340.626 100.228 340.672C100.325 340.718 100.411 340.785 100.479 340.869C100.547 340.952 100.595 341.05 100.621 341.154C100.647 341.258 100.649 341.367 100.627 341.472L95.9678 363.922C95.9342 364.085 95.8453 364.232 95.7161 364.338C95.5868 364.443 95.4251 364.501 95.2582 364.501ZM86.8613 359.837L94.7229 362.801L99.0402 342.042H88.8124L86.8613 359.837Z" fill="#262424"/>
<path d="M96.5444 195.039C96.4351 195.041 96.3269 195.018 96.2276 194.973L94.0104 193.953C92.7708 193.381 91.7206 192.467 90.9837 191.317C90.2468 190.168 89.854 188.832 89.8516 187.467V173.381C89.8516 173.189 89.928 173.005 90.064 172.869C90.2 172.733 90.3845 172.656 90.5769 172.656C90.7693 172.656 90.9538 172.733 91.0898 172.869C91.2258 173.005 91.3022 173.189 91.3022 173.381V187.464C91.3037 188.552 91.6165 189.617 92.2036 190.532C92.7906 191.448 93.6275 192.177 94.6154 192.632L96.8326 193.652C96.9836 193.72 97.1069 193.837 97.1822 193.984C97.2574 194.131 97.2801 194.3 97.2465 194.462C97.2128 194.623 97.1249 194.769 96.9972 194.874C96.8695 194.979 96.7097 195.037 96.5444 195.039Z" fill="#262424"/>
<path d="M94.2919 170.485L94.5326 203.331L81.0044 343.89L103.712 345.581C103.712 345.581 133.169 210.817 134.389 205.263C135.608 199.708 135.596 183.526 134.389 170.969C133.182 158.413 94.2919 142.712 94.2919 170.485Z" fill="#88C0C2"/>
<path d="M85.0947 302.147H85.0123C84.9175 302.138 84.8253 302.11 84.7412 302.065C84.6571 302.02 84.5826 301.959 84.522 301.886C84.4614 301.812 84.4159 301.728 84.3881 301.637C84.3602 301.545 84.3506 301.45 84.3598 301.355L86.3205 280.97C86.3496 280.788 86.4471 280.624 86.5931 280.511C86.7392 280.398 86.9228 280.345 87.1066 280.363C87.2903 280.381 87.4604 280.468 87.5821 280.606C87.7038 280.745 87.768 280.925 87.7617 281.11L85.801 301.494C85.7833 301.671 85.7016 301.834 85.5715 301.954C85.4414 302.074 85.2718 302.143 85.0947 302.147Z" fill="#262424"/>
<path d="M134.389 205.988C134.281 205.988 134.174 205.964 134.076 205.917C133.979 205.871 133.893 205.803 133.825 205.719C133.757 205.635 133.709 205.537 133.683 205.431C133.658 205.326 133.657 205.217 133.68 205.111C134.864 199.664 134.858 183.425 133.68 171.039C133.673 170.855 133.738 170.675 133.859 170.536C133.981 170.397 134.151 170.31 134.335 170.292C134.518 170.275 134.702 170.328 134.848 170.44C134.994 170.553 135.091 170.718 135.12 170.9C136.342 183.627 136.336 199.756 135.12 205.418C135.084 205.584 134.991 205.731 134.858 205.835C134.724 205.939 134.558 205.993 134.389 205.988Z" fill="#262424"/>
<path d="M109.879 318.103C109.771 318.103 109.663 318.079 109.566 318.032C109.468 317.985 109.381 317.917 109.313 317.833C109.245 317.748 109.197 317.649 109.172 317.544C109.147 317.438 109.146 317.328 109.17 317.222L112.369 302.598C112.39 302.505 112.428 302.417 112.483 302.339C112.538 302.261 112.608 302.195 112.688 302.144C112.769 302.093 112.858 302.058 112.952 302.042C113.046 302.026 113.142 302.028 113.235 302.049C113.328 302.07 113.416 302.108 113.494 302.163C113.572 302.218 113.638 302.288 113.689 302.368C113.74 302.448 113.775 302.538 113.791 302.632C113.808 302.726 113.805 302.822 113.785 302.915L110.585 317.539C110.549 317.699 110.459 317.842 110.331 317.944C110.203 318.047 110.043 318.103 109.879 318.103Z" fill="#262424"/>
<path d="M109.855 261.393C111.006 254.96 107.973 249.035 103.081 248.16C98.1885 247.285 93.2895 251.792 92.1386 258.226C90.9877 264.659 94.0206 270.584 98.9129 271.459C103.805 272.334 108.704 267.827 109.855 261.393Z" fill="white"/>
<path d="M129.198 198.982C129.142 198.982 129.087 198.976 129.033 198.963L126.1 198.295C124.54 197.941 123.147 197.067 122.15 195.815C121.154 194.563 120.614 193.01 120.62 191.41V180.643C120.62 180.451 120.697 180.266 120.833 180.13C120.969 179.994 121.153 179.918 121.346 179.918C121.538 179.918 121.722 179.994 121.858 180.13C121.994 180.266 122.071 180.451 122.071 180.643V191.41C122.067 192.682 122.496 193.916 123.287 194.911C124.079 195.906 125.186 196.601 126.426 196.883L129.359 197.56C129.525 197.607 129.668 197.711 129.764 197.854C129.859 197.997 129.901 198.169 129.882 198.34C129.862 198.51 129.783 198.669 129.658 198.786C129.532 198.904 129.369 198.973 129.198 198.982Z" fill="#262424"/>
<path d="M101.78 337.856C101.733 337.86 101.685 337.86 101.638 337.856C101.449 337.818 101.283 337.708 101.176 337.548C101.069 337.388 101.03 337.192 101.067 337.004L128.593 198.298V179.171C128.593 178.978 128.669 178.794 128.805 178.658C128.941 178.522 129.126 178.445 129.318 178.445C129.51 178.445 129.695 178.522 129.831 178.658C129.967 178.794 130.043 178.978 130.043 179.171V198.371C130.048 198.418 130.048 198.466 130.043 198.513L102.505 337.26C102.475 337.43 102.385 337.582 102.252 337.691C102.119 337.8 101.952 337.859 101.78 337.856Z" fill="#262424"/>
<path d="M102.506 341.635H102.433L83.7449 340.024C83.6475 340.019 83.5519 339.995 83.464 339.952C83.3761 339.91 83.2977 339.85 83.2334 339.777C83.1691 339.704 83.1202 339.618 83.0898 339.525C83.0594 339.433 83.048 339.335 83.0564 339.237C83.0647 339.14 83.0925 339.046 83.1382 338.96C83.184 338.873 83.2466 338.797 83.3224 338.736C83.3983 338.675 83.4857 338.629 83.5795 338.602C83.6734 338.575 83.7716 338.568 83.8685 338.58L102.556 340.191C102.737 340.213 102.902 340.302 103.02 340.44C103.138 340.578 103.2 340.755 103.193 340.936C103.187 341.118 103.113 341.29 102.986 341.419C102.858 341.549 102.687 341.626 102.506 341.635Z" fill="#262424"/>
<path d="M97.5099 361.684L83.3957 357.738C83.3957 357.738 72.734 363.869 63.8746 368.768C60.8877 370.431 58.2999 371.935 56.7162 372.999C54.8611 374.238 53.4175 376.003 52.57 378.066C51.692 380.249 51.373 382.616 51.6419 384.954H97.342C97.9977 376.014 97.5099 361.684 97.5099 361.684Z" fill="#88C0C2"/>
<path d="M89.4462 375.284C91.6801 375.284 93.4911 372.77 93.4911 369.669C93.4911 366.569 91.6801 364.055 89.4462 364.055C87.2123 364.055 85.4014 366.569 85.4014 369.669C85.4014 372.77 87.2123 375.284 89.4462 375.284Z" fill="white"/>
<path d="M52.57 378.055C51.692 380.238 51.373 382.605 51.6419 384.942H97.342C97.4972 382.856 97.5859 380.477 97.6366 378.055H52.57Z" fill="white"/>
<path d="M97.3421 385.669H51.642C51.4695 385.669 51.3026 385.608 51.1714 385.496C51.0402 385.384 50.9533 385.229 50.9261 385.058C50.6321 382.587 50.9677 380.082 51.9017 377.775C51.9567 377.643 52.0494 377.53 52.1684 377.45C52.2873 377.371 52.427 377.328 52.57 377.328H97.6367C97.7333 377.328 97.8289 377.347 97.918 377.385C98.007 377.422 98.0877 377.477 98.1553 377.546C98.2228 377.615 98.2759 377.697 98.3114 377.787C98.3469 377.877 98.3641 377.973 98.362 378.069C98.3082 380.745 98.2068 383.076 98.0674 384.995C98.0546 385.178 97.9725 385.35 97.8379 385.475C97.7032 385.601 97.526 385.67 97.3421 385.669ZM52.3008 384.219H96.6674C96.7688 382.636 96.848 380.824 96.8955 378.782H53.0642C52.4464 380.525 52.1868 382.376 52.3008 384.222V384.219Z" fill="#262424"/>
<path d="M66.9288 378.059L69.1745 384.947H51.6268C51.3579 382.61 51.6769 380.242 52.5548 378.059C53.4024 375.996 54.8459 374.232 56.701 372.993C58.2848 371.929 60.8758 370.424 63.8595 368.762L66.9288 378.059Z" fill="white"/>
<path d="M69.1746 385.672H51.6269C51.4543 385.672 51.2875 385.61 51.1563 385.498C51.0251 385.386 50.9381 385.231 50.911 385.061C50.617 382.589 50.9526 380.084 51.8866 377.777C52.789 375.585 54.3239 373.711 56.2957 372.394C57.7527 371.418 60.179 369.984 63.508 368.131C63.6013 368.079 63.7049 368.048 63.8115 368.041C63.918 368.033 64.0249 368.05 64.1245 368.088C64.224 368.127 64.3138 368.187 64.3874 368.265C64.461 368.342 64.5165 368.435 64.5501 368.536L67.6035 377.831L69.8651 384.719C69.9012 384.828 69.9109 384.944 69.8934 385.058C69.8758 385.171 69.8314 385.279 69.764 385.372C69.6965 385.465 69.6079 385.541 69.5054 385.593C69.403 385.645 69.2896 385.672 69.1746 385.672ZM52.2857 384.222H68.1737L63.4732 369.828C60.5718 371.456 58.4401 372.723 57.1382 373.6C55.4012 374.762 54.0502 376.416 53.2581 378.35C52.5093 380.214 52.1826 382.22 52.3015 384.225L52.2857 384.222Z" fill="#262424"/>
<path d="M78.3064 125.805C75.7946 132.249 72.8457 138.732 70.071 144.41C65.0759 154.68 60.689 162.302 60.689 162.302L64.3316 188.115L51.0441 194.876C43.3155 183.282 38.4819 166.375 38.4819 166.375C43.7969 126.524 60.7048 94.6466 60.7048 94.6466C73.7548 85.9569 85.3509 107.694 78.3064 125.805Z" fill="#DE9244"/>
<path d="M70.0739 144.413C65.0788 154.683 60.6919 162.305 60.6919 162.305L62.9091 132.145L70.0739 144.413Z" fill="#262424"/>
<path d="M46.0514 163.983C45.9005 163.983 45.7532 163.936 45.6302 163.849C45.5071 163.762 45.4143 163.638 45.3648 163.496C45.3153 163.353 45.3115 163.199 45.354 163.054C45.3964 162.909 45.483 162.781 45.6016 162.688C45.7885 162.542 50.261 159.132 58.5882 161.602C58.6818 161.627 58.7694 161.67 58.8458 161.73C58.9223 161.789 58.986 161.863 59.0334 161.948C59.0807 162.032 59.1106 162.125 59.1214 162.222C59.1321 162.318 59.1235 162.415 59.096 162.508C59.0685 162.601 59.0227 162.687 58.9613 162.762C58.8998 162.837 58.824 162.899 58.7383 162.944C58.6526 162.989 58.5587 163.016 58.4622 163.025C58.3657 163.033 58.2686 163.022 58.1765 162.992C50.5746 160.738 46.5519 163.799 46.5107 163.828C46.3801 163.931 46.2178 163.986 46.0514 163.983Z" fill="#262424"/>
<path d="M56.5276 177.652C54.776 179.146 57.5728 188.682 63.7747 189.647C69.9766 190.613 60.9557 173.867 56.5276 177.652Z" fill="white"/>
<path d="M64.2674 190.407C64.0647 190.406 63.8625 190.389 63.6624 190.356C59.6239 189.723 56.7542 185.695 55.7026 181.98C55.0469 179.672 55.1799 177.844 56.0573 177.094C56.7858 176.46 58.3632 175.685 60.742 177.411C64.0647 179.817 67.5425 186.255 66.3801 189.071C66.2152 189.489 65.9216 189.843 65.5419 190.084C65.1621 190.324 64.7158 190.437 64.2674 190.407ZM58.0148 177.819C57.6407 177.816 57.2787 177.952 56.9981 178.199C56.7193 178.44 56.5546 179.681 57.0963 181.588C58.0243 184.859 60.4823 188.396 63.8873 188.925C64.8122 189.068 64.9674 188.7 65.0402 188.52C65.7878 186.705 63.0321 180.862 59.89 178.585C59.1836 178.076 58.5565 177.819 58.0148 177.819Z" fill="#262424"/>
<path d="M53.7074 182.316C51.1196 182.734 44.6897 192.782 45.7349 196.076C46.7802 199.369 55.364 203.736 59.1016 197.928C64.1759 190.059 57.7333 181.673 53.7074 182.316Z" fill="white"/>
<path d="M53.844 201.508C53.4477 201.507 53.052 201.48 52.6593 201.426C49.2702 200.976 45.7828 198.63 45.0574 196.305C44.2402 193.728 47.0276 188.908 47.9081 187.492C48.4751 186.571 51.424 181.957 53.6096 181.605C55.6463 181.288 58.0662 182.758 59.7766 185.37C61.0362 187.299 61.703 189.554 61.6945 191.857C61.6861 194.16 61.0028 196.41 59.7291 198.329C59.1119 199.327 58.2436 200.146 57.211 200.704C56.1783 201.262 55.0174 201.539 53.844 201.508ZM54.1607 183.011C54.0472 183.01 53.9339 183.019 53.8218 183.036C53.0236 183.163 51.1073 185.035 49.1213 188.252C47.1036 191.527 46.0203 194.586 46.4258 195.853C46.9357 197.464 49.7928 199.57 52.8494 199.969C54.5598 200.197 56.9291 199.969 58.4906 197.525C59.6218 195.844 60.2305 193.867 60.2401 191.842C60.2496 189.817 59.6597 187.834 58.5445 186.143C57.2997 184.253 55.5544 183.011 54.1607 183.011Z" fill="#262424"/>
<path d="M137.538 163.655L140.186 176.281C140.186 176.281 138.428 177.798 135.539 180.081C130.186 184.312 120.94 191.209 111.682 196.07L95.9806 177.231L78.3474 191.722C78.3474 191.722 67.7174 180.613 62.1616 169.504L68.202 158.876C68.202 158.876 60.2295 132.794 60.7141 94.6343C60.7141 94.6343 84.7551 79.4336 99.6042 77.486C114.453 75.5385 142.729 89.9189 142.729 89.9189L137.044 161.308L137.538 163.655Z" fill="#DE9244"/>
<path d="M140.182 176.278C140.182 176.278 138.424 177.795 135.536 180.078L121.342 161.441L137.538 163.658L140.182 176.278Z" fill="#262424"/>
<path d="M65.5474 148.599C65.3805 148.599 65.2188 148.541 65.0895 148.436C64.9603 148.33 64.8714 148.183 64.8379 148.02C62.6206 137.18 59.9758 119.724 59.9663 98.1236C59.9663 97.9313 60.0427 97.7468 60.1788 97.6108C60.3148 97.4748 60.4993 97.3984 60.6917 97.3984C60.884 97.3984 61.0685 97.4748 61.2046 97.6108C61.3406 97.7468 61.417 97.9313 61.417 98.1236C61.417 119.604 64.0555 136.955 66.2601 147.728C66.2964 147.916 66.2568 148.111 66.15 148.27C66.0432 148.429 65.8778 148.54 65.6899 148.577C65.6432 148.589 65.5955 148.597 65.5474 148.599Z" fill="#262424"/>
<path d="M95.8186 172.583C95.6262 172.583 95.4417 172.506 95.3057 172.37C95.1697 172.234 95.0933 172.05 95.0933 171.858C95.0933 129.739 97.8458 94.2233 97.8743 93.8687C97.8771 93.7704 97.8998 93.6737 97.9412 93.5845C97.9825 93.4953 98.0415 93.4154 98.1147 93.3497C98.1878 93.284 98.2736 93.2339 98.3667 93.2024C98.4598 93.1708 98.5584 93.1586 98.6564 93.1663C98.7544 93.174 98.8499 93.2016 98.9369 93.2474C99.024 93.2931 99.1008 93.3561 99.1627 93.4325C99.2246 93.5088 99.2704 93.597 99.2972 93.6915C99.324 93.7861 99.3313 93.8852 99.3186 93.9827C99.2901 94.3373 96.5408 129.796 96.5408 171.858C96.5408 172.049 96.4648 172.233 96.3294 172.369C96.1941 172.505 96.0104 172.582 95.8186 172.583Z" fill="#262424"/>
<path d="M112.569 85.7913C111.698 88.0068 110.351 90.0041 108.623 91.6419C106.895 93.2797 104.828 94.5181 102.569 95.2695C101.688 91.0957 99.4396 85.88 99.4396 85.88C97.1875 89.1639 96.0694 93.4581 95.816 95.4089C88.1824 93.5341 87.1182 86.2758 87.1182 86.2758C87.8435 78.9542 93.9694 73.2919 99.3604 73.3204C111.28 73.3964 112.569 85.7913 112.569 85.7913Z" fill="white"/>
<path d="M95.8192 96.1304C95.7604 96.1299 95.702 96.1225 95.645 96.1082C87.6313 94.1416 86.415 86.4558 86.4023 86.3766C86.3952 86.3177 86.3952 86.2582 86.4023 86.1993C87.1974 78.1619 93.8363 72.582 99.3192 72.582H99.3731C111.796 72.6612 113.285 85.5659 113.31 85.7021C113.322 85.8183 113.305 85.9356 113.262 86.0441C112.346 88.355 110.936 90.4378 109.131 92.1467C107.325 93.8556 105.168 95.1493 102.81 95.9372C102.712 95.9714 102.609 95.9844 102.506 95.9754C102.403 95.9664 102.303 95.9355 102.213 95.8848C102.123 95.8342 102.045 95.7649 101.984 95.6816C101.923 95.5984 101.881 95.503 101.86 95.402C101.267 92.5836 100.019 89.2426 99.3034 87.4438C97.9201 89.9419 96.9823 92.6616 96.5319 95.4812C96.5132 95.6579 96.4304 95.8216 96.299 95.9413C96.1676 96.061 95.9969 96.1283 95.8192 96.1304ZM87.8625 86.25C88.0019 87.0353 89.1992 92.5836 95.2427 94.4836C95.6481 92.3302 96.7472 88.5332 98.8536 85.4614C98.9268 85.3538 99.0277 85.2678 99.1456 85.2126C99.2635 85.1574 99.3941 85.1349 99.5237 85.1475C99.6533 85.1602 99.7771 85.2074 99.8821 85.2844C99.9872 85.3614 100.07 85.4652 100.121 85.5849C100.209 85.7876 102.138 90.2781 103.111 94.2936C105.074 93.5261 106.862 92.3672 108.363 90.8875C109.865 89.4078 111.05 87.6382 111.847 85.6863C111.641 84.1725 109.88 74.1053 99.3762 74.0356C94.4952 74.0166 88.5974 79.2228 87.8625 86.25Z" fill="#262424"/>
<path d="M103.712 151.527L89.823 112.766H63.1309L77.0202 151.527H103.712Z" fill="#88C0C2"/>
<path d="M63.1309 112.766L66.7924 109.105H93.4846L89.8231 112.766H63.1309Z" fill="white"/>
<path d="M103.712 151.528L107.374 147.867L93.4843 109.105L89.8228 112.766L103.712 151.528Z" fill="white"/>
<path d="M89.8229 113.49H65.3733C65.1809 113.49 64.9964 113.413 64.8604 113.277C64.7244 113.141 64.6479 112.957 64.6479 112.765C64.6479 112.572 64.7244 112.388 64.8604 112.252C64.9964 112.116 65.1809 112.04 65.3733 112.04H89.5125L91.98 109.595C92.1161 109.459 92.3006 109.383 92.4931 109.383C92.6856 109.383 92.8701 109.459 93.0062 109.595C93.1423 109.731 93.2188 109.916 93.2188 110.108C93.2188 110.301 93.1423 110.485 93.0062 110.621L90.3487 113.278C90.2798 113.346 90.1978 113.401 90.1074 113.437C90.0171 113.474 89.9203 113.491 89.8229 113.49Z" fill="#262424"/>
<path d="M97.2091 134.104C97.0599 134.104 96.9144 134.057 96.7925 133.971C96.6706 133.885 96.5783 133.763 96.5281 133.623L89.1289 113.01C89.0928 112.919 89.0752 112.822 89.0773 112.725C89.0794 112.628 89.1012 112.532 89.1413 112.443C89.1814 112.354 89.239 112.274 89.3107 112.208C89.3823 112.142 89.4666 112.091 89.5584 112.058C89.6503 112.025 89.7478 112.011 89.8451 112.017C89.9425 112.023 90.0377 112.048 90.125 112.091C90.2123 112.135 90.29 112.195 90.3535 112.269C90.4169 112.343 90.4647 112.429 90.4941 112.522L97.8806 133.135C97.9194 133.243 97.9318 133.36 97.9167 133.474C97.9015 133.588 97.8594 133.697 97.7938 133.792C97.7282 133.887 97.6409 133.964 97.5392 134.019C97.4375 134.073 97.3244 134.102 97.2091 134.104Z" fill="#262424"/>
<path d="M165.582 158.604C165.389 163.87 163.872 167.829 160.239 169.279C155.225 171.29 150.489 168.506 146.21 163.522C139.175 155.288 133.407 141.037 129.803 132.329C124.006 118.322 120.633 105.278 124.605 95.8598C128.837 85.8432 142.732 89.9379 142.732 89.9379C142.732 89.9379 148.405 97.0663 153.476 111.076C157.166 121.258 166.099 144.578 165.582 158.604Z" fill="#DE9244"/>
<path d="M146.207 164.247C146.102 164.247 145.999 164.224 145.903 164.18C145.808 164.137 145.724 164.073 145.656 163.993C138.754 155.912 133.157 142.355 129.451 133.377L129.134 132.601C122.007 115.377 120.405 103.957 123.94 95.5746C125.881 90.9764 130.069 88.4905 136.049 88.3828C136.24 88.3835 136.423 88.458 136.561 88.5908C136.698 88.7236 136.779 88.9043 136.787 89.0953C136.788 89.1906 136.771 89.2852 136.736 89.3738C136.702 89.4625 136.649 89.5434 136.583 89.6119C136.517 89.6804 136.438 89.7352 136.351 89.7732C136.263 89.8112 136.169 89.8316 136.074 89.8332C130.636 89.9282 126.999 92.05 125.273 96.1383C121.947 104.027 123.601 115.437 130.474 132.047L130.791 132.823C134.459 141.712 140.005 155.142 146.758 163.047C146.849 163.152 146.908 163.281 146.928 163.419C146.948 163.557 146.927 163.698 146.869 163.824C146.811 163.951 146.718 164.058 146.6 164.133C146.483 164.208 146.346 164.247 146.207 164.247Z" fill="#262424"/>
<path d="M165.582 158.603C165.389 163.87 163.872 167.828 160.239 169.279C155.225 171.29 150.489 168.506 146.21 163.521C146.633 161.481 147.621 159.601 149.062 158.095C150.503 156.589 152.338 155.519 154.358 155.006C156.378 154.493 158.502 154.558 160.486 155.194C162.471 155.831 164.237 157.012 165.582 158.603Z" fill="white"/>
<path d="M160.239 169.278C156.559 171.308 152.286 172.02 147.785 171.827C128.191 171.017 104.074 153.213 104.074 153.213L108.423 142.585C108.423 142.585 126.936 141.803 138.571 142.072C146.397 142.256 156.625 147.019 160.36 155.151C162.19 159.106 162.488 163.869 160.239 169.278Z" fill="#DE9244"/>
<path d="M138.972 171.21C138.914 171.209 138.855 171.202 138.798 171.187C121.529 166.896 103.826 153.922 103.639 153.792C103.51 153.696 103.415 153.56 103.372 153.404C103.328 153.249 103.338 153.083 103.399 152.934L107.748 142.306C107.8 142.179 107.887 142.069 107.999 141.989C108.111 141.91 108.244 141.864 108.381 141.856C108.568 141.856 127.053 141.081 138.577 141.343C144.756 141.489 151.741 144.339 156.368 148.608C156.496 148.741 156.568 148.918 156.57 149.103C156.572 149.288 156.503 149.466 156.378 149.602C156.253 149.738 156.08 149.821 155.896 149.834C155.712 149.847 155.529 149.789 155.386 149.672C151.003 145.631 144.392 142.93 138.542 142.794C128.089 142.547 111.85 143.167 108.907 143.288L104.967 152.959C107.833 154.999 123.693 165.943 139.147 169.784C139.315 169.83 139.462 169.935 139.559 170.08C139.656 170.224 139.698 170.399 139.677 170.572C139.656 170.746 139.573 170.905 139.444 171.022C139.314 171.139 139.147 171.206 138.972 171.21Z" fill="#262424"/>
<path d="M160.239 169.281C156.558 171.311 152.285 172.023 147.784 171.83C146.539 169.917 145.913 167.667 145.992 165.386C146.07 163.105 146.85 160.904 148.225 159.081C149.6 157.259 151.503 155.905 153.676 155.203C155.848 154.5 158.184 154.485 160.365 155.157C162.19 159.109 162.488 163.872 160.239 169.281Z" fill="white"/>
<path d="M113.557 157.684C113.41 157.683 113.267 157.638 113.147 157.554C113.026 157.47 112.934 157.352 112.882 157.215C112.83 157.077 112.821 156.928 112.856 156.785C112.891 156.643 112.969 156.514 113.078 156.417C118.194 151.914 115.327 144.383 115.296 144.304C115.235 144.127 115.245 143.934 115.324 143.764C115.402 143.595 115.543 143.462 115.717 143.394C115.891 143.326 116.085 143.327 116.258 143.398C116.43 143.469 116.569 143.604 116.645 143.775C116.781 144.123 119.901 152.325 114.032 157.503C113.9 157.619 113.732 157.683 113.557 157.684Z" fill="#262424"/>
<path d="M110.536 154.658C111.402 154.658 112.104 153.956 112.104 153.091C112.104 152.225 111.402 151.523 110.536 151.523C109.67 151.523 108.968 152.225 108.968 153.091C108.968 153.956 109.67 154.658 110.536 154.658Z" fill="white"/>
<path d="M110.535 155.382C110.081 155.382 109.638 155.247 109.261 154.995C108.884 154.743 108.59 154.385 108.416 153.966C108.243 153.548 108.197 153.087 108.286 152.642C108.374 152.197 108.593 151.789 108.913 151.468C109.234 151.148 109.643 150.929 110.088 150.841C110.532 150.752 110.993 150.798 111.413 150.971C111.832 151.145 112.19 151.439 112.442 151.816C112.694 152.193 112.828 152.636 112.828 153.089C112.827 153.697 112.585 154.279 112.156 154.709C111.726 155.139 111.143 155.381 110.535 155.382ZM110.535 152.247C110.368 152.247 110.205 152.296 110.067 152.389C109.928 152.481 109.82 152.613 109.757 152.767C109.693 152.921 109.676 153.09 109.709 153.254C109.741 153.417 109.821 153.567 109.939 153.685C110.057 153.803 110.207 153.883 110.371 153.915C110.534 153.948 110.703 153.931 110.857 153.867C111.011 153.804 111.143 153.696 111.235 153.557C111.328 153.419 111.377 153.256 111.377 153.089C111.377 152.866 111.288 152.652 111.13 152.495C110.972 152.337 110.758 152.248 110.535 152.247Z" fill="#262424"/>
<path d="M109.429 144.882C109.429 144.882 107.184 134.007 105.644 131.841C104.377 130.039 92.8826 131.841 88.9772 132.5C88.6158 132.562 88.2881 132.75 88.0522 133.03C87.8162 133.311 87.6872 133.666 87.688 134.032C87.6861 134.426 87.8339 134.806 88.1014 135.095C88.3689 135.385 88.7363 135.562 89.1292 135.59L95.4325 136.116L90.0478 137.411C89.4034 137.566 88.8407 137.958 88.4711 138.508C88.1016 139.058 87.9521 139.727 88.0523 140.382C88.4482 142.956 89.069 146.757 89.3858 147.384C89.8704 148.349 97.6782 147.384 97.6782 147.384C97.6782 147.384 98.0203 153.825 101.714 154.227C105.407 154.629 110.155 151.162 109.429 144.882Z" fill="white"/>
<path d="M102.312 154.979C102.085 154.979 101.857 154.966 101.631 154.941C98.1753 154.564 97.2568 150.036 97.0224 148.186C89.4205 149.064 88.92 148.079 88.7299 147.702C88.6159 147.471 88.3087 146.86 87.3299 140.485C87.2024 139.65 87.3915 138.797 87.8603 138.094C88.3291 137.391 89.0437 136.888 89.8639 136.685L90.8712 136.441L89.0467 136.289C88.4938 136.243 87.9767 135.997 87.592 135.597C87.2074 135.197 86.9818 134.671 86.9573 134.117C86.9328 133.563 87.1112 133.019 87.4591 132.587C87.807 132.155 88.3005 131.864 88.8471 131.77C99.2998 129.984 105.141 129.87 106.227 131.409C107.811 133.625 109.895 143.591 110.129 144.709C110.129 144.731 110.129 144.75 110.129 144.773C110.484 147.86 109.61 150.638 107.668 152.595C106.267 154.064 104.342 154.921 102.312 154.979ZM97.6812 146.654C97.8672 146.653 98.0461 146.725 98.1811 146.853C98.3161 146.98 98.3968 147.155 98.4065 147.341C98.4065 147.398 98.8088 153.177 101.796 153.503C103.459 153.684 105.321 152.956 106.667 151.603C108.289 149.973 109.018 147.629 108.723 145.001C108.089 141.992 106.243 133.936 105.061 132.261C104.583 131.627 99.9428 131.364 89.11 133.211C88.9168 133.244 88.7416 133.344 88.6157 133.495C88.4898 133.645 88.4214 133.835 88.4227 134.031C88.4235 134.239 88.5022 134.44 88.6435 134.594C88.7847 134.747 88.9782 134.842 89.1861 134.861L95.4893 135.386C95.6596 135.402 95.8188 135.478 95.9388 135.599C96.0589 135.721 96.1319 135.882 96.1452 136.052C96.1585 136.223 96.111 136.392 96.0113 136.531C95.9116 136.67 95.766 136.769 95.6002 136.811L90.2155 138.107C89.7487 138.221 89.3414 138.506 89.0732 138.904C88.8049 139.303 88.695 139.788 88.7648 140.263C89.525 145.213 89.8671 146.571 89.9874 146.939C90.8078 147.233 94.4916 147.04 97.5893 146.66L97.6812 146.654Z" fill="#262424"/>
<path d="M104.967 59.5703L105.245 66.8065L105.721 79.1855C101.752 82.3523 97.7259 82.9286 93.6367 80.2559L93.8331 74.4765L94.134 65.7266L104.967 59.5703Z" fill="white"/>
<path d="M98.8792 82.6793C96.9787 82.6793 95.0983 82.0723 93.2379 80.8584C93.1354 80.7887 93.0524 80.6939 92.997 80.583C92.9415 80.4721 92.9154 80.3489 92.9212 80.225L93.4185 65.6957C93.4227 65.5719 93.4586 65.4511 93.523 65.3452C93.5873 65.2393 93.6779 65.1517 93.7859 65.0909L104.619 58.9346C104.727 58.8731 104.849 58.8405 104.974 58.8399C105.098 58.8392 105.221 58.8707 105.329 58.9311C105.438 58.9915 105.53 59.079 105.595 59.185C105.66 59.2909 105.697 59.4119 105.702 59.5363L106.456 79.1515C106.46 79.2646 106.437 79.3771 106.39 79.4799C106.343 79.5827 106.272 79.6731 106.183 79.7437C103.729 81.7008 101.29 82.6793 98.8792 82.6793ZM94.3719 79.8577C97.8561 81.9731 101.34 81.6374 104.98 78.838L104.286 60.7872L94.8312 66.1517L94.3719 79.8577Z" fill="#262424"/>
<path d="M101.222 61.6875C101.377 64.9556 102.397 76.0489 93.7153 77.8192L94.1303 65.7188L101.222 61.6875Z" fill="#262424"/>
<path d="M83.111 61.8776C84.2861 67.7457 86.6965 74.6683 93.703 72.8727C102.03 70.7383 106.918 64.2274 106.211 56.1742C105.505 48.121 101.352 43.944 91.8057 45.8061C90.9934 45.962 90.1956 46.1855 89.4206 46.4743C84.0359 48.5074 81.6793 53.3747 82.5503 58.733C82.7024 59.6988 82.8798 60.7692 83.111 61.8776Z" fill="white"/>
<path d="M91.5523 73.8856C90.2181 73.901 88.9095 73.5196 87.7925 72.7899C83.9916 70.2944 82.7246 64.2838 81.8314 58.8559C80.7164 51.9935 84.6821 46.4642 91.6505 45.1025C91.7457 45.0794 91.8446 45.0758 91.9413 45.092C92.0379 45.1081 92.1303 45.1437 92.2128 45.1965C92.2953 45.2493 92.3663 45.3183 92.4214 45.3993C92.4765 45.4803 92.5146 45.5716 92.5335 45.6678C92.5523 45.7639 92.5515 45.8628 92.531 45.9586C92.5106 46.0544 92.4709 46.1451 92.4144 46.2252C92.358 46.3052 92.2859 46.373 92.2025 46.4244C92.1191 46.4759 92.0261 46.5099 91.9292 46.5244C85.6608 47.7468 82.2526 52.4938 83.2504 58.6248C83.8522 62.3331 84.9735 69.2336 88.5749 71.5897C89.9464 72.489 91.5618 72.6822 93.5066 72.1818C96.6107 71.387 99.208 69.9809 101.257 68.008C101.397 67.8841 101.58 67.819 101.766 67.8263C101.953 67.8335 102.13 67.9126 102.26 68.0469C102.39 68.1813 102.463 68.3606 102.464 68.5474C102.465 68.7343 102.393 68.9143 102.265 69.0499C99.9071 71.2561 97.0188 72.815 93.8804 73.5752C93.1205 73.776 92.3383 73.8802 91.5523 73.8856Z" fill="#262424"/>
<path d="M109.527 56.9785C108.821 58.2481 108.006 59.4539 107.092 60.5823L103.291 61.2695L102.34 58.3339C102.34 58.3339 98.8562 58.4605 98.1181 56.6713C98.0997 56.6301 98.0838 56.5878 98.0706 56.5446C97.8679 55.9556 97.0475 53.3176 97.0475 49.0963C97.0475 49.0963 90.7665 52.6305 87.2284 53.3556C85.9614 53.6185 84.4094 53.2701 82.946 52.7223C80.0161 51.6139 77.1274 47.2944 77.3143 44.1719V44.1118C77.631 39.5231 80.3012 42.4207 80.3012 42.4207C80.3012 42.4207 80.6179 38.7219 82.87 38.2373C85.1221 37.7528 86.9117 40.9608 86.9117 40.9608C91.1836 39.5168 95.6886 38.8873 100.193 39.105C109.125 39.5927 107.526 45.8662 107.526 45.8662C107.526 45.8662 114.196 47.3197 109.527 56.9785Z" fill="#262424"/>
<path d="M102.059 57.5416C102.059 57.5416 105.365 52.9751 109.638 53.694C113.911 54.4128 113.756 64.2141 103.503 64.4611L102.059 57.5416Z" fill="white"/>
<path d="M103.5 65.1924C103.334 65.1923 103.172 65.135 103.043 65.03C102.914 64.9251 102.825 64.7789 102.791 64.616L101.35 57.6903C101.329 57.5914 101.329 57.4893 101.351 57.3906C101.372 57.2919 101.414 57.1987 101.473 57.1171C101.619 56.9144 105.09 52.1958 109.759 52.978C111.815 53.3232 113.174 55.426 112.993 57.9784C112.746 61.4619 109.721 65.0341 103.519 65.1892H103.5V65.1924ZM102.835 57.7283L104.083 63.7072C109.294 63.3683 111.368 60.3915 111.542 57.8708C111.669 56.0784 110.817 54.6216 109.515 54.3873C106.291 53.8648 103.567 56.8415 102.835 57.7283Z" fill="#262424"/>
<path d="M14.2919 39.9536C19.7621 39.9536 24.1965 35.5201 24.1965 30.051C24.1965 24.582 19.7621 20.1484 14.2919 20.1484C8.82168 20.1484 4.38721 24.582 4.38721 30.051C4.38721 35.5201 8.82168 39.9536 14.2919 39.9536Z" fill="#88C0C2"/>
<path d="M9.38177 30.1847L13.3379 34.14C13.7912 34.5931 14.4058 34.8477 15.0468 34.8477C15.6877 34.8477 16.3024 34.5931 16.7556 34.14L30.3123 20.5861C30.7421 20.1287 30.9769 19.5221 30.9672 18.8946C30.9576 18.2672 30.7041 17.6681 30.2605 17.2241C29.8168 16.7802 29.2179 16.5262 28.5903 16.5159C27.9627 16.5057 27.3557 16.7399 26.8978 17.1691L15.0484 29.0162L12.7995 26.7677C12.5777 26.5317 12.3109 26.3427 12.0147 26.2118C11.7184 26.081 11.399 26.011 11.0752 26.006C10.7514 26.001 10.4298 26.0611 10.1297 26.1828C9.82963 26.3044 9.55704 26.4851 9.32816 26.7142C9.09928 26.9432 8.91877 27.2159 8.79736 27.5161C8.67596 27.8162 8.61612 28.1377 8.62142 28.4615C8.62671 28.7852 8.69703 29.1046 8.82819 29.4006C8.95935 29.6966 9.14868 29.9633 9.38493 30.1847H9.38177Z" fill="white"/>
<path d="M15.0457 35.5701C14.2147 35.5666 13.4184 35.2368 12.8285 34.6518L8.8723 30.6964C8.3282 30.0999 8.03498 29.3167 8.05357 28.5096C8.07216 27.7024 8.40114 26.9336 8.97212 26.3627C9.5431 25.7918 10.3122 25.4629 11.1194 25.4443C11.9267 25.4258 12.7101 25.7189 13.3067 26.2629L15.0425 27.9983L26.3789 16.6643C26.6648 16.3508 27.0114 16.0985 27.3976 15.9227C27.7838 15.7469 28.2017 15.6512 28.626 15.6415C29.0502 15.6317 29.4721 15.708 29.866 15.8659C30.2599 16.0237 30.6177 16.2598 30.9178 16.5598C31.2179 16.8598 31.454 17.2176 31.6119 17.6114C31.7698 18.0052 31.8461 18.427 31.8364 18.8512C31.8266 19.2754 31.7309 19.6931 31.5551 20.0793C31.3792 20.4655 31.1269 20.812 30.8133 21.0978L17.2566 34.6518C16.6682 35.2353 15.8744 35.565 15.0457 35.5701ZM11.0895 26.7854C10.7555 26.7862 10.4292 26.8857 10.1518 27.0716C9.87433 27.2575 9.65811 27.5213 9.5304 27.8298C9.40269 28.1384 9.3692 28.4778 9.43415 28.8054C9.4991 29.1329 9.6596 29.4339 9.89539 29.6704L13.8484 33.6194C14.1724 33.9231 14.5999 34.0921 15.0441 34.0921C15.4883 34.0921 15.9158 33.9231 16.2398 33.6194L29.7965 20.0655C29.9594 19.9098 30.0895 19.7231 30.1792 19.5165C30.2689 19.3099 30.3165 19.0874 30.319 18.8621C30.3215 18.6369 30.279 18.4134 30.1939 18.2048C30.1089 17.9962 29.983 17.8067 29.8237 17.6474C29.6644 17.4881 29.4748 17.3623 29.2662 17.2772C29.0575 17.1922 28.834 17.1497 28.6087 17.1522C28.3834 17.1547 28.1609 17.2022 27.9542 17.2919C27.7475 17.3816 27.5608 17.5117 27.4051 17.6745L15.5556 29.5215C15.4882 29.5889 15.4082 29.6422 15.3202 29.6787C15.2321 29.7151 15.1378 29.7338 15.0425 29.7337C14.9472 29.7338 14.8529 29.7151 14.7648 29.6787C14.6768 29.6422 14.5968 29.5889 14.5294 29.5215L12.2868 27.2858C12.1301 27.1275 11.9437 27.0019 11.7382 26.916C11.5327 26.8301 11.3122 26.7857 11.0895 26.7854Z" fill="#262424"/>
<path d="M61.8984 26.6484H32.8718C31.5266 26.6484 30.436 27.7385 30.436 29.0832C30.436 30.428 31.5266 31.5181 32.8718 31.5181H61.8984C63.2437 31.5181 64.3342 30.428 64.3342 29.0832C64.3342 27.7385 63.2437 26.6484 61.8984 26.6484Z" fill="#DE9244"/>
<path d="M14.2919 64.5317C19.7621 64.5317 24.1965 60.0982 24.1965 54.6292C24.1965 49.1601 19.7621 44.7266 14.2919 44.7266C8.82168 44.7266 4.38721 49.1601 4.38721 54.6292C4.38721 60.0982 8.82168 64.5317 14.2919 64.5317Z" fill="#88C0C2"/>
<path d="M9.38224 54.7628L13.3384 58.7182C13.7916 59.1713 14.4063 59.4258 15.0472 59.4258C15.6882 59.4258 16.3029 59.1713 16.7561 58.7182L30.3128 45.1642C30.7425 44.7068 30.9774 44.1002 30.9677 43.4728C30.958 42.8453 30.7046 42.2462 30.2609 41.8023C29.8173 41.3583 29.2183 41.1043 28.5908 41.0941C27.9632 41.0838 27.3562 41.3181 26.8983 41.7473L15.0488 53.5943L12.7936 51.3553C12.5719 51.1194 12.305 50.9303 12.0088 50.7995C11.7126 50.6686 11.3931 50.5986 11.0693 50.5936C10.7455 50.5886 10.424 50.6487 10.1239 50.7704C9.82377 50.892 9.55118 51.0728 9.3223 51.3018C9.09342 51.5309 8.91291 51.8036 8.7915 52.1037C8.6701 52.4039 8.61026 52.7254 8.61556 53.0491C8.62085 53.3728 8.69117 53.6922 8.82233 53.9882C8.95349 54.2842 9.14282 54.5509 9.37907 54.7723L9.38224 54.7628Z" fill="white"/>
<path d="M15.0457 60.1548C14.2147 60.1513 13.4184 59.8215 12.8285 59.2364L8.8723 55.2811C8.3282 54.6846 8.03498 53.9013 8.05357 53.0942C8.07216 52.2871 8.40114 51.5182 8.97212 50.9474C9.5431 50.3765 10.3122 50.0476 11.1194 50.029C11.9267 50.0104 12.7101 50.3036 13.3067 50.8476L15.0425 52.583L26.382 41.2268C26.668 40.9133 27.0145 40.661 27.4008 40.4852C27.787 40.3094 28.2049 40.2137 28.6292 40.204C29.0534 40.1942 29.4753 40.2705 29.8692 40.4284C30.2631 40.5862 30.6209 40.8223 30.921 41.1223C31.2211 41.4223 31.4572 41.7801 31.6151 42.1739C31.7729 42.5677 31.8493 42.9895 31.8395 43.4137C31.8298 43.8379 31.7341 44.2556 31.5582 44.6418C31.3824 45.028 31.13 45.3744 30.8165 45.6603L17.2597 59.2142C16.6741 59.8067 15.8787 60.1446 15.0457 60.1548ZM11.0895 51.3606C10.7555 51.3613 10.4292 51.4609 10.1518 51.6468C9.87433 51.8326 9.65811 52.0965 9.5304 52.405C9.40269 52.7136 9.3692 53.053 9.43415 53.3805C9.4991 53.7081 9.6596 54.0091 9.89539 54.2455L13.8515 58.2009C14.176 58.5039 14.6033 58.6724 15.0473 58.6724C15.4912 58.6724 15.9186 58.5039 16.243 58.2009L29.7997 44.647C30.1052 44.3275 30.2734 43.9012 30.2685 43.4593C30.2635 43.0174 30.0857 42.595 29.7732 42.2825C29.4606 41.9701 29.0381 41.7923 28.5961 41.7873C28.1541 41.7824 27.7278 41.9506 27.4083 42.256L15.5588 54.103C15.4914 54.1704 15.4114 54.2237 15.3234 54.2602C15.2353 54.2966 15.141 54.3153 15.0457 54.3152C14.9504 54.3153 14.856 54.2966 14.768 54.2602C14.68 54.2237 14.5999 54.1704 14.5325 54.103L12.2868 51.8546C12.1296 51.6975 11.9429 51.573 11.7374 51.4882C11.532 51.4035 11.3118 51.3601 11.0895 51.3606Z" fill="#262424"/>
<path d="M61.8984 51.2266H32.8718C31.5266 51.2266 30.436 52.3167 30.436 53.6614C30.436 55.0061 31.5266 56.0962 32.8718 56.0962H61.8984C63.2437 56.0962 64.3342 55.0061 64.3342 53.6614C64.3342 52.3167 63.2437 51.2266 61.8984 51.2266Z" fill="#DE9244"/>
<path d="M25.1812 87.1637L26.6889 87.0591C27.4597 87.0046 28.1849 86.6738 28.7313 86.1276C29.2777 85.5813 29.6086 84.8562 29.6631 84.0855L29.7676 82.5781L29.8722 84.0855C29.9267 84.8562 30.2576 85.5813 30.804 86.1276C31.3504 86.6738 32.0756 87.0046 32.8464 87.0591L34.3541 87.1637L32.8464 87.2682C32.0756 87.3227 31.3504 87.6535 30.804 88.1998C30.2576 88.7461 29.9267 89.4711 29.8722 90.2418L29.7676 91.7492L29.6631 90.2418C29.6086 89.4711 29.2777 88.7461 28.7313 88.1998C28.1849 87.6535 27.4597 87.3227 26.6889 87.2682L25.1812 87.1637Z" fill="#DE9244"/>
<path d="M179.443 6.75795L181.66 6.60278C182.799 6.52524 183.871 6.03842 184.678 5.23223C185.486 4.42605 185.974 3.35495 186.053 2.21676L186.209 0L186.364 2.21676C186.443 3.35394 186.93 4.42422 187.737 5.23026C188.543 6.03631 189.613 6.52377 190.751 6.60278L192.968 6.75795L190.751 6.91313C189.614 6.9936 188.545 7.48171 187.741 8.28762C186.936 9.09352 186.449 10.163 186.37 11.2992L186.215 13.5159L186.06 11.2992C185.981 10.162 185.493 9.09169 184.687 8.28565C183.881 7.4796 182.81 6.99214 181.673 6.91313L179.443 6.75795Z" fill="#DE9244"/>
<path d="M0 167.931L1.68193 167.814C2.54151 167.753 3.35035 167.384 3.95966 166.775C4.56898 166.166 4.9378 165.357 4.99826 164.498L5.11546 162.816L5.23265 164.498C5.29311 165.357 5.66192 166.166 6.27124 166.775C6.88056 167.384 7.6894 167.753 8.54898 167.814L10.2309 167.931L8.54898 168.048C7.68794 168.11 6.87822 168.48 6.26928 169.092C5.66033 169.704 5.29326 170.515 5.23582 171.376L5.11862 173.058L4.99826 171.376C4.9378 170.517 4.56898 169.708 3.95966 169.099C3.35035 168.49 2.54151 168.121 1.68193 168.061L0 167.931Z" fill="#DE9244"/>
<path d="M47.1035 313.516L48.7854 313.399C49.6455 313.338 50.4548 312.969 51.0642 312.359C51.6735 311.749 52.042 310.94 52.1018 310.08L52.219 308.398L52.3362 310.08C52.3966 310.939 52.7654 311.748 53.3747 312.357C53.9841 312.966 54.7929 313.335 55.6525 313.396L57.3344 313.513L55.6525 313.63C54.7929 313.69 53.9841 314.059 53.3747 314.668C52.7654 315.278 52.3966 316.086 52.3362 316.946L52.219 318.627L52.1018 316.946C52.0413 316.086 51.6725 315.278 51.0632 314.668C50.4539 314.059 49.645 313.69 48.7854 313.63L47.1035 313.516Z" fill="#DE9244"/>
<path d="M24.618 182.882C25.4682 182.882 26.1574 182.193 26.1574 181.343C26.1574 180.494 25.4682 179.805 24.618 179.805C23.7678 179.805 23.0786 180.494 23.0786 181.343C23.0786 182.193 23.7678 182.882 24.618 182.882Z" fill="#88C0C2"/>
<path d="M7.6286 119.163C10.1302 119.163 12.1581 117.135 12.1581 114.634C12.1581 112.133 10.1302 110.105 7.6286 110.105C5.12704 110.105 3.09912 112.133 3.09912 114.634C3.09912 117.135 5.12704 119.163 7.6286 119.163Z" fill="#88C0C2"/>
<path d="M39.3366 338.323C41.8382 338.323 43.8661 336.295 43.8661 333.794C43.8661 331.293 41.8382 329.266 39.3366 329.266C36.835 329.266 34.8071 331.293 34.8071 333.794C34.8071 336.295 36.835 338.323 39.3366 338.323Z" fill="#88C0C2"/>
<path d="M126.799 20.3864C128.967 20.3864 130.724 18.6297 130.724 16.4627C130.724 14.2957 128.967 12.5391 126.799 12.5391C124.632 12.5391 122.875 14.2957 122.875 16.4627C122.875 18.6297 124.632 20.3864 126.799 20.3864Z" fill="#88C0C2"/>
</svg>
