<svg width="780" height="855" viewBox="0 0 780 855" fill="none" xmlns="http://www.w3.org/2000/svg">
<path d="M499.073 4.61816H109.435C93.7783 4.61816 81.0864 17.3101 81.0864 32.9664V422.605C81.0864 438.261 93.7783 450.953 109.435 450.953H499.073C514.729 450.953 527.421 438.261 527.421 422.605V32.9664C527.421 17.3101 514.729 4.61816 499.073 4.61816Z" fill="white"/>
<path d="M499.073 452.802H109.414C101.408 452.791 93.734 449.606 88.0733 443.945C82.4127 438.285 79.2277 430.61 79.2168 422.605V32.9458C79.2277 24.9404 82.4127 17.2661 88.0733 11.6054C93.734 5.94476 101.408 2.75981 109.414 2.7489H499.073C507.078 2.75981 514.752 5.94476 520.413 11.6054C526.074 17.2661 529.259 24.9404 529.27 32.9458V422.605C529.259 430.61 526.074 438.285 520.413 443.945C514.752 449.606 507.078 452.791 499.073 452.802ZM109.414 6.46681C102.39 6.4759 95.6569 9.27001 90.6905 14.2364C85.7242 19.2028 82.93 25.936 82.921 32.9595V422.619C82.93 429.642 85.7242 436.375 90.6905 441.342C95.6569 446.308 102.39 449.102 109.414 449.111H499.073C506.096 449.102 512.83 446.308 517.796 441.342C522.762 436.375 525.556 429.642 525.565 422.619V32.9595C525.556 25.936 522.762 19.2028 517.796 14.2364C512.83 9.27001 506.096 6.4759 499.073 6.46681H109.414Z" fill="#262424"/>
<path d="M482.696 251.052H140.683C132.967 251.052 126.711 257.307 126.711 265.023V377.275C126.711 384.991 132.967 391.247 140.683 391.247H482.696C490.413 391.247 496.668 384.991 496.668 377.275V265.023C496.668 257.307 490.413 251.052 482.696 251.052Z" fill="white"/>
<path d="M482.696 393.095H140.683C136.493 393.086 132.478 391.418 129.516 388.456C126.554 385.493 124.886 381.478 124.876 377.289V265.023C124.886 260.834 126.554 256.819 129.516 253.856C132.478 250.894 136.493 249.226 140.683 249.217H482.696C486.886 249.226 490.901 250.894 493.863 253.856C496.825 256.819 498.493 260.834 498.503 265.023V377.275C498.497 381.467 496.83 385.485 493.868 388.451C490.905 391.416 486.888 393.086 482.696 393.095ZM140.683 252.9C137.469 252.904 134.387 254.182 132.115 256.455C129.842 258.728 128.564 261.809 128.56 265.023V377.275C128.564 380.489 129.842 383.571 132.115 385.843C134.387 388.116 137.469 389.394 140.683 389.398H482.696C485.91 389.394 488.992 388.116 491.264 385.843C493.537 383.571 494.815 380.489 494.819 377.275V265.023C494.815 261.809 493.537 258.728 491.264 256.455C488.992 254.182 485.91 252.904 482.696 252.9H140.683Z" fill="#262424"/>
<path d="M215.817 387.144C215.575 387.144 215.334 387.096 215.11 387.003C214.886 386.91 214.682 386.774 214.51 386.602C214.339 386.431 214.202 386.227 214.109 386.003C214.017 385.778 213.969 385.538 213.969 385.295V257.01C213.969 256.519 214.164 256.048 214.511 255.7C214.859 255.353 215.33 255.158 215.821 255.158C216.312 255.158 216.783 255.353 217.13 255.7C217.478 256.048 217.673 256.519 217.673 257.01V385.288C217.674 385.532 217.626 385.774 217.534 385.999C217.441 386.225 217.304 386.43 217.131 386.602C216.959 386.775 216.754 386.911 216.529 387.004C216.303 387.097 216.061 387.145 215.817 387.144Z" fill="#262424"/>
<path d="M311.686 387.144C311.443 387.144 311.203 387.096 310.979 387.003C310.754 386.91 310.551 386.774 310.379 386.602C310.207 386.431 310.071 386.227 309.978 386.003C309.885 385.778 309.837 385.538 309.837 385.295V257.01C309.837 256.519 310.033 256.048 310.38 255.7C310.727 255.353 311.198 255.158 311.689 255.158C312.181 255.158 312.652 255.353 312.999 255.7C313.346 256.048 313.542 256.519 313.542 257.01V385.288C313.542 385.532 313.495 385.774 313.402 385.999C313.309 386.225 313.173 386.43 313 386.602C312.828 386.775 312.623 386.911 312.397 387.004C312.172 387.097 311.93 387.145 311.686 387.144Z" fill="#262424"/>
<path d="M407.555 387.144C407.064 387.144 406.594 386.949 406.248 386.602C405.901 386.256 405.706 385.785 405.706 385.295V257.01C405.706 256.519 405.901 256.048 406.249 255.7C406.596 255.353 407.067 255.158 407.558 255.158C408.049 255.158 408.52 255.353 408.868 255.7C409.215 256.048 409.41 256.519 409.41 257.01V385.288C409.411 385.532 409.364 385.774 409.271 385.999C409.178 386.225 409.041 386.43 408.869 386.602C408.696 386.775 408.491 386.911 408.266 387.004C408.04 387.097 407.799 387.145 407.555 387.144Z" fill="#262424"/>
<path d="M488.82 322.998H134.553C134.062 322.998 133.59 322.803 133.243 322.455C132.896 322.108 132.701 321.637 132.701 321.146C132.701 320.655 132.896 320.184 133.243 319.836C133.59 319.489 134.062 319.294 134.553 319.294H488.82C489.311 319.294 489.782 319.489 490.129 319.836C490.477 320.184 490.672 320.655 490.672 321.146C490.672 321.637 490.477 322.108 490.129 322.455C489.782 322.803 489.311 322.998 488.82 322.998Z" fill="#262424"/>
<path d="M211.529 223.357L134.56 177.999V96.6177L211.529 141.975V223.357Z" fill="#DC9044"/>
<path d="M211.522 225.205C211.192 225.206 210.866 225.118 210.581 224.951L133.611 179.594C133.333 179.431 133.102 179.198 132.942 178.918C132.782 178.638 132.697 178.322 132.697 177.999V96.6176C132.697 96.2907 132.784 95.9696 132.948 95.687C133.113 95.4045 133.349 95.1706 133.633 95.0092C133.918 94.8478 134.24 94.7648 134.567 94.7684C134.894 94.7721 135.214 94.8624 135.494 95.0301L212.464 140.387C212.742 140.55 212.973 140.783 213.133 141.063C213.294 141.343 213.378 141.659 213.378 141.982V223.356C213.378 223.6 213.33 223.841 213.237 224.065C213.143 224.29 213.006 224.494 212.834 224.666C212.662 224.838 212.457 224.974 212.232 225.066C212.007 225.159 211.766 225.206 211.522 225.205ZM136.408 176.941L209.674 220.106V143.033L136.408 99.8407V176.941Z" fill="#DC9044"/>
<path d="M211.529 223.357L288.499 177.999V96.6177L211.529 141.975V223.357Z" fill="#86BEC0"/>
<path d="M211.522 225.205C211.032 225.205 210.562 225.01 210.215 224.664C209.869 224.317 209.674 223.847 209.674 223.356V141.975C209.674 141.652 209.758 141.336 209.919 141.056C210.079 140.776 210.31 140.543 210.588 140.38L287.558 95.0232C287.839 94.8569 288.159 94.768 288.485 94.7656C288.811 94.7631 289.133 94.8471 289.416 95.0091C289.7 95.1711 289.935 95.4052 290.099 95.6878C290.262 95.9703 290.348 96.2911 290.348 96.6176V177.999C290.348 178.322 290.263 178.638 290.103 178.918C289.943 179.198 289.712 179.431 289.434 179.594L212.464 224.951C212.179 225.118 211.853 225.206 211.522 225.205ZM213.371 143.026V220.106L286.637 176.927V99.8407L213.371 143.026Z" fill="#86BEC0"/>
<path d="M288.499 96.6176L258.412 114.348L241.616 124.244L211.529 141.975L134.56 96.6176L164.646 78.8871L181.442 68.991L211.529 51.2605L288.499 96.6176Z" fill="white"/>
<path d="M211.522 143.823C211.191 143.824 210.866 143.737 210.581 143.569L133.611 98.2119C133.333 98.0488 133.103 97.8159 132.943 97.5362C132.782 97.2565 132.698 96.9398 132.698 96.6176C132.698 96.2953 132.782 95.9786 132.943 95.6989C133.103 95.4193 133.333 95.1863 133.611 95.0232L210.581 49.666C210.866 49.4973 211.191 49.4083 211.522 49.4083C211.854 49.4083 212.179 49.4973 212.464 49.666L289.434 95.0232C289.712 95.1863 289.942 95.4193 290.102 95.6989C290.262 95.9786 290.347 96.2953 290.347 96.6176C290.347 96.9398 290.262 97.2565 290.102 97.5362C289.942 97.8159 289.712 98.0488 289.434 98.2119L212.464 143.569C212.179 143.737 211.853 143.824 211.522 143.823ZM138.202 96.6176L211.522 139.824L284.843 96.6176L211.522 53.4114L138.202 96.6176Z" fill="#262424"/>
<path d="M258.412 114.348L241.616 124.244L164.646 78.8869L181.442 68.9908L258.412 114.348Z" fill="white"/>
<path d="M241.609 126.093C241.278 126.094 240.953 126.006 240.668 125.839L163.698 80.4815C163.42 80.3184 163.19 80.0854 163.03 79.8057C162.869 79.5261 162.785 79.2094 162.785 78.8871C162.785 78.5648 162.869 78.2481 163.03 77.9685C163.19 77.6888 163.42 77.4559 163.698 77.2927L180.494 67.3966C180.779 67.2279 181.104 67.1389 181.436 67.1389C181.767 67.1389 182.092 67.2279 182.377 67.3966L259.347 112.754C259.625 112.917 259.855 113.15 260.015 113.43C260.175 113.709 260.26 114.026 260.26 114.348C260.26 114.67 260.175 114.987 260.015 115.267C259.855 115.546 259.625 115.779 259.347 115.943L242.551 125.839C242.265 126.006 241.94 126.094 241.609 126.093ZM168.275 78.8871L241.596 122.093L254.742 114.348L181.436 71.1352L168.275 78.8871Z" fill="#262424"/>
<path d="M241.616 140.854V124.244L258.412 114.348V130.958L241.616 140.854Z" fill="white"/>
<path d="M241.609 142.71C241.367 142.71 241.126 142.662 240.902 142.569C240.678 142.477 240.474 142.34 240.302 142.169C240.131 141.997 239.994 141.793 239.901 141.569C239.809 141.345 239.761 141.104 239.761 140.861V124.244C239.761 123.922 239.845 123.605 240.006 123.325C240.166 123.046 240.397 122.813 240.675 122.65L257.471 112.754C257.752 112.588 258.072 112.499 258.398 112.496C258.725 112.494 259.046 112.578 259.329 112.74C259.613 112.902 259.848 113.136 260.012 113.418C260.176 113.701 260.261 114.022 260.261 114.348V130.965C260.261 131.288 260.176 131.605 260.016 131.884C259.856 132.164 259.625 132.397 259.347 132.56L242.551 142.449C242.266 142.619 241.941 142.709 241.609 142.71ZM243.465 125.268V137.638L256.557 129.921V117.585L243.465 125.268Z" fill="#262424"/>
<path d="M510.639 187.353L475.783 161.1V169.567H399.287C390.697 169.575 382.39 166.501 375.875 160.903C369.359 155.306 365.069 147.556 363.783 139.063C362.498 130.57 364.302 121.897 368.869 114.622C373.436 107.347 380.461 101.952 388.668 99.4173C396.876 96.8829 405.72 97.3776 413.594 100.811C421.467 104.245 427.847 110.39 431.574 118.13C435.301 125.869 436.127 134.688 433.902 142.985C431.677 151.282 426.549 158.504 419.45 163.341H464.285C464.56 162.745 464.826 162.143 465.083 161.533C471.069 147.39 472.341 131.695 468.709 116.773C465.078 101.851 456.736 88.4951 444.921 78.6845C433.105 68.874 418.443 63.1304 403.107 62.3046C387.772 61.4788 372.578 65.6148 359.777 74.0998C346.976 82.5848 337.248 94.9675 332.036 109.414C326.823 123.86 326.402 139.601 330.835 154.305C335.268 169.009 344.32 181.894 356.649 191.051C368.978 200.208 383.929 205.15 399.287 205.145H475.776V213.612L510.639 187.353Z" fill="#DC9044"/>
<path d="M330.399 169.567H304.477V205.145H368.795C352.274 198.072 338.709 185.502 330.399 169.567Z" fill="#DC9044"/>
<path d="M635.289 852.598C633.39 852.6 631.55 851.938 630.087 850.728C628.613 849.516 627.605 847.831 627.234 845.959L569.012 563.178H210.595L152.373 845.959C152.002 847.831 150.994 849.516 149.521 850.728C148.057 851.938 146.217 852.6 144.318 852.598C143.122 852.593 141.94 852.329 140.856 851.822C139.771 851.315 138.81 850.579 138.039 849.663C137.268 848.748 136.706 847.675 136.391 846.521C136.076 845.366 136.016 844.156 136.216 842.976L186.384 541.468H593.292L643.426 842.976C643.626 844.159 643.565 845.372 643.248 846.529C642.931 847.686 642.366 848.76 641.591 849.676C640.816 850.592 639.851 851.328 638.763 851.833C637.674 852.337 636.489 852.598 635.289 852.598Z" fill="white"/>
<path d="M635.289 854.453C632.957 854.447 630.699 853.634 628.899 852.152C627.099 850.67 625.867 848.61 625.413 846.323L567.5 565.033H212.107L154.187 846.33C153.731 848.616 152.499 850.674 150.699 852.155C148.899 853.635 146.642 854.447 144.311 854.453C142.856 854.454 141.418 854.137 140.097 853.526C138.776 852.915 137.604 852.024 136.662 850.914C135.705 849.788 135.004 848.467 134.609 847.043C134.213 845.619 134.133 844.126 134.374 842.667L184.542 541.145C184.614 540.711 184.838 540.316 185.174 540.031C185.51 539.747 185.936 539.591 186.377 539.592H593.285C593.725 539.592 594.151 539.749 594.487 540.033C594.823 540.317 595.047 540.711 595.12 541.145L645.288 842.653C645.528 844.112 645.448 845.605 645.053 847.029C644.657 848.453 643.957 849.774 642.999 850.9C642.052 852.02 640.871 852.919 639.539 853.533C638.206 854.147 636.756 854.461 635.289 854.453ZM210.581 561.315H568.999C569.427 561.315 569.842 561.462 570.174 561.733C570.506 562.003 570.734 562.38 570.82 562.8L629.042 845.581C629.33 847.033 630.109 848.341 631.248 849.285C632.527 850.344 634.173 850.856 635.828 850.71C637.482 850.563 639.012 849.77 640.086 848.502C640.693 847.788 641.137 846.95 641.387 846.047C641.638 845.144 641.688 844.197 641.536 843.272L591.677 543.324H187.923L138.037 843.286C137.885 844.209 137.937 845.155 138.187 846.057C138.437 846.959 138.881 847.795 139.487 848.509C140.079 849.207 140.816 849.769 141.646 850.155C142.477 850.54 143.382 850.741 144.298 850.742C145.766 850.748 147.189 850.237 148.318 849.299C149.46 848.355 150.241 847.047 150.531 845.595L208.753 562.807C208.839 562.383 209.07 562.002 209.406 561.73C209.742 561.458 210.162 561.312 210.595 561.315H210.581Z" fill="#262424"/>
<path d="M534.094 852.598C532.195 852.6 530.355 851.938 528.892 850.728C527.418 849.516 526.41 847.831 526.04 845.959L467.818 563.178H109.4L51.1779 845.959C50.8076 847.831 49.7997 849.516 48.3259 850.728C46.8625 851.938 45.0225 852.6 43.1236 852.598C41.9267 852.593 40.7451 852.329 39.6608 851.822C38.5765 851.315 37.6156 850.579 36.8446 849.663C36.0736 848.748 35.5112 847.675 35.1963 846.521C34.8814 845.366 34.8216 844.156 35.0211 842.976L85.1889 541.468H492.097L542.231 842.976C542.431 844.159 542.37 845.372 542.053 846.529C541.737 847.686 541.171 848.76 540.396 849.676C539.622 850.592 538.656 851.328 537.568 851.833C536.479 852.337 535.294 852.598 534.094 852.598Z" fill="white"/>
<path d="M534.094 854.453C531.763 854.447 529.505 853.634 527.705 852.152C525.904 850.67 524.673 848.61 524.219 846.323L466.306 565.033H110.919L52.9994 846.33C52.5367 848.616 51.3016 850.674 49.5014 852.158C47.4682 853.834 44.8566 854.643 42.2317 854.409C39.6067 854.175 37.1795 852.917 35.475 850.907C34.5173 849.781 33.8164 848.46 33.4211 847.036C33.0259 845.612 32.9459 844.118 33.1865 842.66L83.3543 541.138C83.426 540.704 83.65 540.309 83.9862 540.024C84.3224 539.74 84.7488 539.584 85.1892 539.585H492.098C492.538 539.585 492.963 539.742 493.299 540.026C493.635 540.31 493.86 540.704 493.933 541.138L544.1 842.646C544.341 844.105 544.26 845.598 543.865 847.022C543.47 848.446 542.769 849.767 541.812 850.893C540.865 852.015 539.683 852.916 538.349 853.531C537.015 854.146 535.563 854.461 534.094 854.453ZM109.387 561.315H467.825C468.253 561.314 468.668 561.462 469 561.732C469.332 562.003 469.56 562.38 469.646 562.8L527.868 845.581C528.156 847.032 528.935 848.34 530.074 849.285C531.354 850.344 532.999 850.856 534.654 850.709C536.309 850.563 537.839 849.769 538.912 848.502C539.519 847.787 539.963 846.95 540.213 846.046C540.464 845.143 540.514 844.196 540.362 843.272L490.49 543.324H86.7355L36.8563 843.285C36.7048 844.209 36.756 845.155 37.0064 846.057C37.2568 846.958 37.7004 847.795 38.3064 848.508C38.8983 849.207 39.6352 849.769 40.4659 850.155C41.2965 850.54 42.2012 850.741 43.117 850.742C44.585 850.748 46.0084 850.237 47.1373 849.299C48.279 848.355 49.0605 847.047 49.3502 845.595L107.572 562.806C107.658 562.385 107.887 562.006 108.22 561.735C108.553 561.463 108.97 561.315 109.4 561.315H109.387Z" fill="#262424"/>
<path d="M628.726 518.329H51.1851V544.1H628.726V518.329Z" fill="#86BEC0"/>
<path d="M480.964 543.317C480.722 543.317 480.481 543.269 480.257 543.176C480.033 543.083 479.829 542.947 479.657 542.775C479.486 542.604 479.349 542.4 479.256 542.176C479.164 541.951 479.116 541.711 479.116 541.468V522.569C479.116 522.078 479.311 521.607 479.658 521.26C480.006 520.912 480.477 520.717 480.968 520.717C481.459 520.717 481.93 520.912 482.277 521.26C482.625 521.607 482.82 522.078 482.82 522.569V541.468C482.82 541.712 482.772 541.952 482.679 542.177C482.585 542.402 482.448 542.606 482.276 542.778C482.104 542.95 481.899 543.086 481.674 543.178C481.449 543.271 481.208 543.318 480.964 543.317Z" fill="#262424"/>
<path d="M476.236 514.034H373.543C372.849 514.035 372.164 513.874 371.543 513.564C370.922 513.255 370.381 512.805 369.964 512.25C369.547 511.695 369.264 511.051 369.139 510.368C369.013 509.686 369.048 508.983 369.241 508.316L400.854 398.992C401.352 397.268 402.397 395.752 403.831 394.673C405.265 393.593 407.01 393.008 408.805 393.006H511.498C512.192 393.005 512.877 393.166 513.498 393.476C514.119 393.785 514.66 394.235 515.077 394.79C515.495 395.345 515.777 395.989 515.903 396.672C516.028 397.354 515.993 398.057 515.8 398.724L484.194 508.055C483.694 509.779 482.648 511.294 481.213 512.372C479.778 513.45 478.031 514.034 476.236 514.034Z" fill="white"/>
<path d="M476.236 515.889H373.544C372.562 515.89 371.594 515.662 370.716 515.223C369.837 514.785 369.073 514.148 368.483 513.364C367.893 512.579 367.494 511.668 367.316 510.703C367.139 509.737 367.189 508.744 367.462 507.801L399.074 398.476C399.692 396.371 400.972 394.521 402.726 393.202C404.479 391.884 406.612 391.166 408.806 391.157H511.498C512.48 391.157 513.448 391.385 514.326 391.823C515.205 392.262 515.969 392.898 516.559 393.683C517.149 394.467 517.548 395.378 517.726 396.344C517.903 397.309 517.853 398.303 517.58 399.246L485.968 508.57C485.35 510.676 484.07 512.525 482.316 513.844C480.563 515.163 478.43 515.88 476.236 515.889ZM408.806 394.861C407.412 394.866 406.056 395.32 404.942 396.157C403.827 396.995 403.013 398.17 402.62 399.507L371.008 508.832C370.895 509.223 370.875 509.634 370.948 510.035C371.022 510.435 371.187 510.813 371.432 511.138C371.677 511.463 371.993 511.727 372.358 511.909C372.722 512.091 373.123 512.185 373.53 512.185H476.236C477.63 512.181 478.986 511.726 480.1 510.889C481.215 510.052 482.029 508.877 482.422 507.54L514.034 398.215C514.147 397.824 514.168 397.412 514.094 397.012C514.02 396.612 513.855 396.234 513.61 395.909C513.365 395.583 513.049 395.32 512.684 395.138C512.32 394.956 511.919 394.861 511.512 394.861H408.806Z" fill="#262424"/>
<path d="M473.968 505.787H381.007C380.632 505.787 380.263 505.7 379.928 505.533C379.594 505.365 379.302 505.122 379.078 504.823C378.853 504.524 378.701 504.176 378.634 503.808C378.567 503.44 378.586 503.061 378.691 502.702L407.169 404.187C407.414 403.341 407.927 402.597 408.631 402.068C409.335 401.538 410.192 401.252 411.073 401.253H504.034C504.409 401.253 504.778 401.34 505.113 401.507C505.447 401.675 505.739 401.918 505.963 402.217C506.188 402.516 506.34 402.864 506.407 403.232C506.474 403.6 506.455 403.979 506.35 404.338L477.872 502.853C477.627 503.699 477.114 504.443 476.41 504.972C475.706 505.501 474.849 505.788 473.968 505.787Z" fill="white"/>
<path d="M473.968 507.643H381.007C380.343 507.646 379.688 507.495 379.094 507.201C378.499 506.907 377.981 506.479 377.581 505.95C377.18 505.421 376.909 504.806 376.788 504.154C376.667 503.502 376.7 502.83 376.883 502.193L405.369 403.679C405.729 402.449 406.477 401.368 407.501 400.598C408.525 399.827 409.771 399.409 411.052 399.404H504.035C504.698 399.401 505.353 399.552 505.947 399.845C506.542 400.139 507.06 400.568 507.46 401.097C507.861 401.626 508.132 402.241 508.253 402.893C508.374 403.545 508.342 404.216 508.158 404.854L479.652 503.368C479.292 504.598 478.544 505.679 477.52 506.449C476.495 507.219 475.25 507.638 473.968 507.643ZM411.073 403.108C410.594 403.111 410.128 403.268 409.746 403.557C409.363 403.845 409.084 404.25 408.949 404.709L380.471 503.244C380.452 503.326 380.452 503.411 380.471 503.493C380.49 503.575 380.526 503.652 380.578 503.717C380.63 503.783 380.696 503.837 380.772 503.874C380.847 503.911 380.93 503.931 381.014 503.932H473.968C474.446 503.929 474.911 503.773 475.294 503.486C475.676 503.198 475.956 502.796 476.092 502.337L504.571 403.823C504.589 403.741 504.589 403.656 504.57 403.574C504.552 403.492 504.515 403.416 504.463 403.35C504.411 403.284 504.345 403.231 504.27 403.194C504.194 403.156 504.112 403.137 504.028 403.136H411.073V403.108Z" fill="#262424"/>
<path d="M384.306 759.402L385.453 789.469H366.039L362.431 759.402H384.306Z" fill="white"/>
<path d="M385.44 791.324H366.039C365.587 791.324 365.151 791.158 364.813 790.858C364.474 790.558 364.258 790.144 364.204 789.695L360.596 759.629C360.566 759.37 360.591 759.108 360.67 758.859C360.748 758.611 360.878 758.382 361.052 758.187C361.225 757.992 361.437 757.836 361.675 757.73C361.913 757.623 362.171 757.568 362.431 757.567H384.299C384.777 757.567 385.238 757.752 385.582 758.084C385.927 758.416 386.13 758.869 386.148 759.347L387.302 789.414C387.31 789.663 387.268 789.911 387.178 790.143C387.088 790.376 386.952 790.587 386.778 790.766C386.604 790.944 386.396 791.086 386.166 791.182C385.936 791.278 385.689 791.326 385.44 791.324ZM367.668 787.62H383.515L382.505 761.258H364.5L367.668 787.62Z" fill="#262424"/>
<path d="M387.171 637.103V745.046H349.374L330.289 658.682L190.266 638.292C190.266 638.292 152.469 634.285 152.469 552.849H209.193L218.127 555.597L258.9 568.194L363.015 608.349L369.063 610.686C374.395 612.746 378.979 616.373 382.211 621.088C385.443 625.803 387.173 631.386 387.171 637.103Z" fill="#86BEC0"/>
<path d="M170.247 582.42C170.639 586.585 171.581 594.886 173.628 605.477C173.731 605.97 173.969 606.424 174.316 606.788C174.664 607.153 175.106 607.413 175.594 607.538L192.039 611.833C192.678 611.999 193.355 611.926 193.943 611.627L203.894 606.583C204.391 606.331 204.797 605.932 205.058 605.439C205.319 604.947 205.421 604.387 205.351 603.834L202.76 581.801C202.683 581.145 202.367 580.539 201.873 580.1C201.379 579.66 200.741 579.417 200.08 579.417H172.934C172.554 579.415 172.177 579.494 171.829 579.649C171.481 579.804 171.17 580.031 170.916 580.314C170.662 580.598 170.471 580.933 170.356 581.296C170.241 581.658 170.204 582.042 170.247 582.42Z" fill="white"/>
<path d="M367.572 738.188C367.13 738.188 366.703 738.03 366.368 737.743C366.032 737.455 365.811 737.057 365.744 736.621L351.999 648.119L237.232 610.686C233.032 609.313 229.281 606.83 226.377 603.499C223.474 600.169 221.525 596.115 220.738 591.767L216.285 567.267C216.24 567.028 216.242 566.782 216.292 566.544C216.342 566.305 216.438 566.079 216.575 565.878C216.713 565.677 216.888 565.505 217.092 565.372C217.296 565.239 217.523 565.147 217.763 565.102C218.002 565.057 218.247 565.059 218.486 565.109C218.724 565.159 218.95 565.255 219.151 565.392C219.352 565.53 219.524 565.705 219.657 565.909C219.79 566.112 219.882 566.34 219.927 566.58L224.381 591.079C225.049 594.774 226.705 598.218 229.173 601.047C231.642 603.876 234.83 605.984 238.4 607.147L354.212 644.944C354.538 645.051 354.827 645.245 355.049 645.506C355.271 645.766 355.417 646.084 355.47 646.422L369.407 736.05C369.445 736.291 369.435 736.537 369.378 736.773C369.321 737.01 369.217 737.233 369.074 737.43C368.93 737.627 368.749 737.793 368.541 737.92C368.332 738.046 368.101 738.13 367.86 738.167C367.765 738.181 367.668 738.188 367.572 738.188Z" fill="#262424"/>
<path d="M221.831 589.217C221.414 589.221 221.008 589.083 220.678 588.827C220.349 588.571 220.116 588.211 220.017 587.806C219.919 587.4 219.96 586.974 220.134 586.595C220.309 586.216 220.607 585.907 220.979 585.719L226.978 582.626C228.494 581.84 229.735 580.61 230.535 579.102C231.336 577.593 231.658 575.876 231.459 574.18L229.555 558.278C229.526 558.036 229.545 557.792 229.611 557.557C229.677 557.323 229.788 557.105 229.938 556.913C230.089 556.722 230.275 556.563 230.487 556.444C230.699 556.324 230.932 556.248 231.174 556.219C231.415 556.191 231.66 556.21 231.894 556.275C232.128 556.341 232.347 556.452 232.538 556.602C232.729 556.753 232.889 556.939 233.008 557.151C233.127 557.363 233.203 557.596 233.232 557.838L235.136 573.74C235.422 576.187 234.956 578.662 233.801 580.837C232.646 583.013 230.856 584.785 228.669 585.918L222.669 589.011C222.41 589.145 222.123 589.215 221.831 589.217Z" fill="#262424"/>
<path d="M387.171 637.103V649.59C386.601 649.624 386.03 649.645 385.453 649.645C380.641 649.644 375.919 648.345 371.783 645.886C367.648 643.427 364.252 639.897 361.953 635.67C359.655 631.443 358.539 626.674 358.724 621.866C358.908 617.058 360.386 612.388 363.001 608.349L369.049 610.686C374.384 612.744 378.971 616.37 382.205 621.085C385.44 625.8 387.171 631.385 387.171 637.103Z" fill="white"/>
<path d="M386.333 767.828H350.254C349.26 767.828 348.303 767.46 347.565 766.795C346.828 766.129 346.363 765.215 346.261 764.227L343.429 736.861C343.372 736.302 343.432 735.737 343.606 735.203C343.781 734.669 344.065 734.178 344.442 733.76C344.818 733.343 345.278 733.01 345.791 732.781C346.305 732.553 346.86 732.435 347.422 732.435H387.756C388.3 732.436 388.839 732.547 389.339 732.761C389.839 732.976 390.29 733.291 390.665 733.685C391.039 734.08 391.33 734.547 391.519 735.057C391.707 735.568 391.79 736.111 391.762 736.655L390.347 764.02C390.294 765.049 389.848 766.017 389.101 766.726C388.354 767.435 387.363 767.829 386.333 767.828Z" fill="#DC9044"/>
<path d="M449.084 852.597H354.514C354.514 852.597 353.827 848.261 353.394 840.379C352.517 822.161 353.324 803.902 355.806 785.833H394.291C394.291 785.833 403.912 810.759 419.1 820.387C431.278 828.105 444.631 827.617 448.307 840.379C449.215 843.533 449.524 847.498 449.084 852.597Z" fill="#86BEC0"/>
<path d="M449.084 852.597H354.514C354.514 852.597 353.827 848.261 353.394 840.378H448.3C449.214 843.533 449.524 847.498 449.084 852.597Z" fill="white"/>
<path d="M449.084 854.419H354.514C354.072 854.419 353.645 854.261 353.31 853.974C352.975 853.686 352.753 853.288 352.686 852.852C352.686 852.673 351.999 848.33 351.552 840.482C351.537 840.23 351.574 839.978 351.66 839.74C351.746 839.503 351.88 839.286 352.053 839.103C352.226 838.919 352.435 838.773 352.667 838.674C352.899 838.574 353.148 838.523 353.401 838.523H448.3C448.702 838.523 449.094 838.653 449.415 838.895C449.736 839.137 449.97 839.477 450.08 839.863C451.097 843.375 451.372 847.595 450.932 852.756C450.885 853.212 450.669 853.635 450.328 853.943C449.986 854.25 449.543 854.42 449.084 854.419ZM356.102 850.715H447.359C447.569 847.867 447.4 845.003 446.857 842.2H355.332C355.593 846.213 355.889 849.106 356.102 850.749V850.715Z" fill="#262424"/>
<path d="M436.418 759.402L437.573 789.469H418.159L414.551 759.402H436.418Z" fill="white"/>
<path d="M437.566 791.324H418.151C417.699 791.324 417.263 791.158 416.925 790.858C416.587 790.558 416.37 790.144 416.317 789.695L412.709 759.629C412.679 759.37 412.704 759.108 412.782 758.859C412.861 758.611 412.991 758.382 413.164 758.187C413.337 757.992 413.55 757.836 413.788 757.73C414.025 757.623 414.283 757.568 414.543 757.567H436.418C436.896 757.569 437.355 757.755 437.7 758.086C438.044 758.418 438.247 758.87 438.267 759.347L439.414 789.414C439.423 789.662 439.381 789.909 439.292 790.14C439.203 790.371 439.068 790.583 438.895 790.761C438.723 790.939 438.516 791.081 438.288 791.178C438.059 791.274 437.814 791.324 437.566 791.324ZM419.801 787.62H435.648L434.638 761.258H416.633L419.801 787.62Z" fill="#262424"/>
<path d="M439.284 637.103V745.046H401.486L382.416 658.682L242.393 638.292C242.393 638.292 204.595 634.285 204.595 552.849H261.319L270.253 555.597L311.026 568.194L415.142 608.349L421.189 610.686C426.519 612.749 431.1 616.376 434.33 621.091C437.559 625.806 439.286 631.388 439.284 637.103Z" fill="#86BEC0"/>
<path d="M385.213 673.182C384.792 673.182 384.383 673.038 384.055 672.774C383.727 672.511 383.497 672.143 383.405 671.732L380.883 660.331L242.152 640.127C241.321 640.031 231.665 638.649 222.078 627.303C209.248 612.122 202.74 587.073 202.74 552.849C202.74 552.357 202.935 551.886 203.282 551.539C203.63 551.192 204.101 550.996 204.592 550.996C205.083 550.996 205.554 551.192 205.901 551.539C206.249 551.886 206.444 552.357 206.444 552.849C206.444 631.708 242.221 636.416 242.585 636.45H242.654L382.691 656.847C383.062 656.901 383.408 657.066 383.683 657.322C383.958 657.577 384.149 657.91 384.23 658.276L387.02 670.928C387.081 671.199 387.08 671.48 387.018 671.751C386.955 672.021 386.833 672.274 386.659 672.49C386.485 672.707 386.265 672.881 386.015 673.001C385.765 673.121 385.49 673.183 385.213 673.182Z" fill="#262424"/>
<path d="M222.367 582.42C222.759 586.585 223.7 594.886 225.748 605.477C225.85 605.97 226.089 606.424 226.436 606.788C226.784 607.153 227.226 607.413 227.714 607.538L244.159 611.834C244.797 612 245.475 611.926 246.063 611.627L256.014 606.583C256.51 606.331 256.917 605.932 257.178 605.439C257.439 604.947 257.541 604.387 257.471 603.834L254.866 581.857C254.789 581.2 254.473 580.594 253.979 580.155C253.485 579.715 252.847 579.472 252.186 579.472H225.04C224.666 579.473 224.296 579.552 223.954 579.705C223.611 579.857 223.305 580.079 223.053 580.356C222.802 580.634 222.611 580.96 222.493 581.316C222.374 581.671 222.332 582.047 222.367 582.42Z" fill="white"/>
<path d="M419.705 738.187C419.263 738.188 418.836 738.03 418.501 737.742C418.165 737.455 417.944 737.057 417.877 736.621L404.132 648.119L289.365 610.686C285.164 609.313 281.412 606.829 278.509 603.497C275.605 600.164 273.657 596.109 272.871 591.759L268.418 567.26C268.373 567.021 268.375 566.775 268.425 566.537C268.475 566.298 268.571 566.072 268.708 565.871C268.846 565.67 269.021 565.498 269.225 565.365C269.428 565.232 269.656 565.14 269.895 565.095C270.135 565.05 270.38 565.052 270.619 565.102C270.857 565.152 271.083 565.248 271.284 565.385C271.485 565.523 271.657 565.698 271.79 565.902C271.923 566.105 272.015 566.333 272.06 566.573L276.513 591.072C277.182 594.767 278.838 598.211 281.306 601.04C283.775 603.869 286.963 605.977 290.533 607.14L406.345 644.937C406.67 645.044 406.96 645.238 407.182 645.499C407.404 645.759 407.55 646.076 407.602 646.415L421.54 736.043C421.578 736.284 421.568 736.53 421.511 736.766C421.453 737.003 421.35 737.226 421.206 737.423C421.063 737.62 420.882 737.786 420.673 737.913C420.465 738.039 420.234 738.123 419.993 738.16C419.898 738.176 419.801 738.186 419.705 738.187Z" fill="#262424"/>
<path d="M273.944 589.217C273.527 589.221 273.12 589.083 272.791 588.827C272.462 588.571 272.229 588.211 272.13 587.806C272.031 587.401 272.073 586.974 272.247 586.595C272.422 586.216 272.719 585.907 273.092 585.719L279.091 582.626C280.607 581.84 281.848 580.61 282.648 579.102C283.448 577.593 283.771 575.876 283.572 574.18L281.668 558.285C281.639 558.043 281.658 557.799 281.724 557.564C281.79 557.33 281.901 557.111 282.051 556.92C282.201 556.729 282.388 556.57 282.6 556.45C282.812 556.331 283.045 556.255 283.287 556.226C283.528 556.197 283.773 556.216 284.007 556.282C284.241 556.348 284.46 556.459 284.651 556.609C284.842 556.76 285.002 556.946 285.121 557.158C285.24 557.37 285.316 557.603 285.345 557.845L287.248 573.747C287.534 576.194 287.069 578.669 285.914 580.844C284.758 583.02 282.968 584.792 280.782 585.925L274.796 589.011C274.533 589.147 274.24 589.218 273.944 589.217Z" fill="#262424"/>
<path d="M439.284 637.103V649.59C438.713 649.624 438.143 649.645 437.566 649.645C432.754 649.644 428.032 648.345 423.896 645.886C419.76 643.427 416.365 639.897 414.066 635.67C411.768 631.443 410.652 626.674 410.837 621.866C411.021 617.058 412.499 612.388 415.114 608.349L421.162 610.686C426.497 612.744 431.083 616.37 434.318 621.085C437.553 625.8 439.284 631.385 439.284 637.103Z" fill="white"/>
<path d="M438.452 767.828H402.373C401.38 767.828 400.422 767.46 399.684 766.795C398.947 766.129 398.482 765.215 398.38 764.227L395.549 736.861C395.491 736.302 395.551 735.737 395.725 735.203C395.9 734.669 396.184 734.178 396.561 733.76C396.937 733.343 397.397 733.01 397.91 732.781C398.424 732.553 398.98 732.435 399.541 732.435H439.868C440.412 732.436 440.951 732.547 441.451 732.761C441.951 732.976 442.402 733.291 442.777 733.685C443.152 734.08 443.442 734.547 443.631 735.057C443.82 735.568 443.903 736.111 443.875 736.655L442.479 764.02C442.426 765.051 441.978 766.022 441.229 766.731C440.479 767.44 439.484 767.833 438.452 767.828Z" fill="#DC9044"/>
<path d="M501.203 852.597H406.599C406.599 852.597 405.912 848.261 405.479 840.379C404.602 822.161 405.409 803.902 407.891 785.833H446.376C446.376 785.833 455.997 810.759 471.185 820.387C483.363 828.105 496.716 827.617 500.392 840.379C501.327 843.533 501.643 847.498 501.203 852.597Z" fill="#86BEC0"/>
<path d="M501.203 852.597H406.599C406.599 852.597 405.912 848.261 405.479 840.378H500.42C501.327 843.533 501.643 847.498 501.203 852.597Z" fill="white"/>
<path d="M501.203 854.419H406.599C406.157 854.419 405.73 854.261 405.395 853.974C405.06 853.686 404.838 853.288 404.771 852.852C404.771 852.673 404.084 848.33 403.63 840.482C403.615 840.23 403.652 839.978 403.738 839.74C403.824 839.503 403.958 839.286 404.131 839.103C404.304 838.919 404.513 838.773 404.745 838.674C404.977 838.574 405.227 838.523 405.479 838.523H500.42C500.822 838.523 501.213 838.653 501.534 838.895C501.855 839.137 502.089 839.477 502.2 839.863C503.217 843.375 503.492 847.595 503.052 852.756C503.004 853.212 502.789 853.635 502.447 853.943C502.106 854.25 501.662 854.42 501.203 854.419ZM408.221 850.715H499.478C499.688 847.867 499.519 845.003 498.976 842.2H407.431C407.712 846.213 408.022 849.106 408.221 850.749V850.715Z" fill="#262424"/>
<path d="M246.619 321.273C246.619 321.273 250.323 331.458 265.504 336.825C282.41 342.804 290.684 318.868 290.87 297.763C291.055 276.658 237.733 277.95 246.619 321.273Z" fill="white"/>
<path d="M270.624 339.622C268.666 339.603 266.725 339.25 264.886 338.577C249.08 332.983 245.045 322.359 244.881 321.912C244.849 321.827 244.824 321.74 244.805 321.651C240.853 302.408 249.114 292.725 254.426 288.664C263.986 281.317 276.699 281.31 284.321 285.111C289.818 287.86 292.794 292.34 292.753 297.783C292.636 311.473 288.953 329.932 279.008 336.955C276.565 338.707 273.63 339.64 270.624 339.622ZM248.406 320.751C248.873 321.884 252.729 330.372 266.123 335.079C270.136 336.502 273.641 336.11 276.816 333.883C285.063 328.097 288.898 311.562 289.014 297.749C289.063 292.423 285.042 289.619 282.637 288.423C276.204 285.221 264.913 285.248 256.646 291.598C251.066 295.893 245.107 304.436 248.406 320.751Z" fill="#262424"/>
<path d="M248.413 324.173L243.231 346.886L267.669 348.735L269.023 324.915L248.413 324.173Z" fill="white"/>
<path d="M267.662 350.59H267.525L243.087 348.742C242.821 348.722 242.563 348.644 242.329 348.515C242.096 348.386 241.893 348.208 241.735 347.993C241.577 347.779 241.468 347.532 241.414 347.271C241.36 347.01 241.364 346.74 241.424 346.481L246.605 323.802C246.704 323.384 246.943 323.012 247.284 322.75C247.625 322.489 248.045 322.353 248.475 322.366L269.092 323.108C269.338 323.117 269.58 323.175 269.804 323.278C270.028 323.382 270.228 323.53 270.394 323.712C270.56 323.895 270.688 324.108 270.77 324.341C270.852 324.574 270.886 324.82 270.872 325.066L269.497 348.886C269.461 349.348 269.252 349.78 268.912 350.096C268.572 350.412 268.126 350.588 267.662 350.59ZM245.513 345.182L265.923 346.728L267.064 326.675L249.884 326.056L245.513 345.182Z" fill="#262424"/>
<path d="M260.508 267.958C260.508 267.958 247.918 261.085 234.586 273.696C221.254 286.307 234.029 316.833 246.269 327.939H269.222L284.218 300.91L291.331 308.071C294.754 304.21 297.042 299.477 297.941 294.396C298.84 289.315 298.314 284.084 296.423 279.283C289.915 262.219 265.69 266.102 260.508 267.958Z" fill="#262424"/>
<path d="M284.121 301.165L284.204 300.91C284.204 300.91 289.757 291.289 298.086 297.021C306.415 302.752 296.423 324.792 283.09 316.648C282.178 311.479 282.532 306.167 284.121 301.165Z" fill="white"/>
<path d="M288.953 320.27C286.531 320.229 284.168 319.515 282.128 318.208C281.904 318.071 281.711 317.889 281.563 317.672C281.415 317.455 281.315 317.209 281.269 316.95C280.313 311.495 280.686 305.889 282.355 300.608L282.438 300.354C282.477 300.227 282.53 300.105 282.596 299.989C282.719 299.776 285.681 294.725 290.76 293.578C293.55 292.945 296.368 293.578 299.137 295.502C304.491 299.185 303.721 307.748 299.941 313.569C297.089 317.961 293.138 320.27 288.953 320.27ZM284.781 315.459C291.351 318.895 295.653 313.397 296.842 311.528C299.687 307.144 300.45 300.876 297.041 298.526C295.138 297.213 293.351 296.766 291.585 297.151C288.513 297.838 286.362 300.938 285.901 301.653C284.481 306.114 284.098 310.841 284.781 315.473V315.459Z" fill="#262424"/>
<path d="M233.355 353.923L236.792 340.962C236.792 340.962 252.22 334.543 273.82 342.075L276.568 355.133L233.355 353.923Z" fill="#86BEC0"/>
<path d="M197.249 356.823C197.249 356.823 220.202 347.381 255.753 349.951C291.303 352.521 312.793 362.912 312.793 362.912C312.793 362.912 325.568 423.017 325.816 440.054C326.063 457.09 305.329 471.405 305.329 471.405L314.092 568.785H149.301C149.301 568.785 151.892 416.99 197.249 356.823Z" fill="#DC9044"/>
<path d="M158.572 471.941C158.471 471.949 158.37 471.949 158.269 471.941C158.029 471.903 157.799 471.817 157.591 471.69C157.384 471.562 157.204 471.395 157.062 471.198C156.92 471 156.818 470.777 156.762 470.54C156.706 470.303 156.697 470.058 156.737 469.818C165.348 417.052 178.481 378.664 195.764 355.738C195.911 355.544 196.094 355.38 196.303 355.257C196.512 355.134 196.744 355.053 196.984 355.019C197.225 354.985 197.47 354.999 197.705 355.06C197.94 355.121 198.161 355.227 198.355 355.373C198.549 355.52 198.713 355.703 198.836 355.912C198.959 356.121 199.04 356.353 199.074 356.593C199.108 356.834 199.094 357.079 199.033 357.314C198.972 357.549 198.866 357.77 198.719 357.964C181.8 380.409 168.901 418.248 160.386 470.416C160.31 470.842 160.087 471.229 159.755 471.507C159.424 471.786 159.005 471.94 158.572 471.941Z" fill="#262424"/>
<path d="M309.632 559.913H154.73C154.239 559.913 153.768 559.718 153.42 559.371C153.073 559.024 152.878 558.553 152.878 558.061C152.878 557.57 153.073 557.099 153.42 556.752C153.768 556.404 154.239 556.209 154.73 556.209H309.632C310.123 556.209 310.594 556.404 310.941 556.752C311.288 557.099 311.484 557.57 311.484 558.061C311.484 558.553 311.288 559.024 310.941 559.371C310.594 559.718 310.123 559.913 309.632 559.913Z" fill="#262424"/>
<path d="M225.363 280.121L223.68 290.203C223.559 290.955 223.734 291.725 224.166 292.352C224.599 292.979 225.257 293.416 226.003 293.571L233.954 295.11C234.351 295.186 234.76 295.181 235.156 295.093C235.551 295.005 235.924 294.837 236.252 294.599C236.58 294.362 236.855 294.059 237.062 293.711C237.268 293.363 237.401 292.976 237.452 292.574L238.778 282.073C238.874 281.304 238.665 280.527 238.194 279.91C237.724 279.293 237.031 278.886 236.263 278.775L228.669 277.682C227.909 277.582 227.141 277.781 226.524 278.235C225.908 278.69 225.492 279.366 225.363 280.121Z" fill="white"/>
<path d="M234.545 297.014C234.24 297.013 233.936 296.983 233.638 296.924L225.686 295.385C224.459 295.146 223.373 294.438 222.658 293.412C221.944 292.386 221.657 291.121 221.858 289.887L223.542 279.833C223.75 278.594 224.435 277.485 225.449 276.744C226.464 276.003 227.728 275.689 228.971 275.868L236.565 276.96C237.815 277.14 238.944 277.803 239.708 278.807C240.473 279.811 240.813 281.075 240.654 282.328L239.328 292.828C239.176 293.988 238.606 295.053 237.726 295.823C236.845 296.594 235.715 297.017 234.545 297.014ZM228.284 279.503C228.022 279.504 227.768 279.598 227.569 279.768C227.369 279.937 227.235 280.172 227.191 280.431L225.508 290.485C225.457 290.77 225.522 291.063 225.686 291.301C225.851 291.539 226.103 291.703 226.387 291.756L234.339 293.296C234.488 293.325 234.641 293.324 234.789 293.291C234.938 293.259 235.078 293.196 235.201 293.107C235.324 293.018 235.428 292.905 235.505 292.774C235.583 292.643 235.632 292.498 235.651 292.347L236.998 281.84C237.034 281.551 236.955 281.261 236.779 281.03C236.603 280.799 236.344 280.645 236.057 280.603L228.463 279.51L228.284 279.503Z" fill="#262424"/>
<path d="M195.764 414.97C147.363 437.841 133.288 385.165 146.614 379.433C159.939 373.702 180.109 361.847 169.98 339.622C159.85 317.397 153.369 280.747 180.206 266.033C207.042 251.32 229.947 281.084 229.954 281.097C230.043 281.345 230.16 285.379 227.789 291.097C216.897 292.842 211.296 302.044 217.818 323.651C224.759 346.728 244.173 392.099 195.764 414.97Z" fill="#262424"/>
<path d="M462.306 521.312C458.369 525.435 438.783 523.071 438.783 523.071C438.783 523.071 430.797 525.435 427.271 524.445C423.746 523.456 419.025 518.061 419.025 518.061C419.025 518.061 321.562 530.775 316.813 509.814L291.977 461.22L336.646 437.573L353.676 479.659L422.55 495.245L425.76 494.441C428.88 493.605 432.089 493.143 435.319 493.067C440.315 492.968 445.238 494.284 449.517 496.865C453.797 499.446 457.258 503.184 459.503 507.65C462.327 513.113 464.471 519.051 462.306 521.312Z" fill="white"/>
<path d="M429.367 526.548C428.497 526.564 427.629 526.467 426.783 526.26C423.546 525.38 419.822 521.69 418.282 520.075C413.472 520.666 391.714 523.215 369.723 523.703C335.396 524.466 317.493 520.157 315.047 510.515L290.306 462.079C290.084 461.646 290.041 461.142 290.188 460.678C290.335 460.213 290.659 459.825 291.09 459.598L335.76 435.951C335.989 435.829 336.241 435.757 336.5 435.738C336.758 435.72 337.018 435.757 337.262 435.846C337.505 435.934 337.728 436.073 337.914 436.254C338.101 436.434 338.247 436.652 338.344 436.892L355.009 478.078L422.55 493.341L425.299 492.654C428.549 491.774 431.891 491.283 435.257 491.19C440.602 491.088 445.867 492.497 450.445 495.256C455.024 498.014 458.731 502.011 461.138 506.784C465.309 514.975 466.093 519.999 463.605 522.59C459.392 526.981 443.057 525.428 438.865 524.947C437.511 525.353 432.975 526.548 429.367 526.548ZM419.011 516.24C419.271 516.242 419.529 516.3 419.766 516.409C420.003 516.518 420.214 516.676 420.385 516.872C422.076 518.81 425.574 522.095 427.739 522.686C429.903 523.277 435.346 522.143 438.239 521.312C438.48 521.24 438.733 521.219 438.982 521.25C446.74 522.178 458.678 522.418 460.973 520.047C461.165 519.848 462.657 517.862 457.88 508.474C455.79 504.324 452.571 500.849 448.593 498.448C444.615 496.047 440.04 494.817 435.394 494.901C432.308 494.996 429.245 495.458 426.268 496.276L423.024 497.059C422.742 497.126 422.448 497.126 422.165 497.059L353.291 481.466C353 481.4 352.729 481.264 352.501 481.07C352.274 480.876 352.097 480.63 351.985 480.353L335.725 440.17L294.45 462.011L318.442 509.017C318.512 509.154 318.565 509.3 318.6 509.45C321.788 523.518 381.729 521.133 418.763 516.267L419.011 516.24Z" fill="#262424"/>
<path d="M314.38 364.651L345.188 439.744C336.646 467.508 320.008 480.566 289.104 467.79C289.104 467.79 270.39 416.509 271.318 386.814C272.246 357.119 302.766 351.903 314.38 364.651Z" fill="#DC9044"/>
<path d="M284.843 457.001C284.45 457.001 284.068 456.877 283.751 456.646C283.433 456.415 283.197 456.089 283.077 455.716C277.716 438.92 268.817 407.61 269.463 386.766C269.854 374.066 275.758 364.005 285.654 359.174C286.095 358.959 286.603 358.928 287.067 359.087C287.531 359.247 287.913 359.585 288.128 360.026C288.343 360.467 288.374 360.975 288.214 361.439C288.054 361.903 287.717 362.285 287.275 362.5C282.211 364.974 273.641 371.434 273.16 386.876C272.528 407.177 281.31 438.013 286.602 454.582C286.692 454.859 286.715 455.154 286.669 455.442C286.624 455.73 286.51 456.003 286.339 456.239C286.167 456.475 285.942 456.667 285.682 456.8C285.422 456.932 285.134 457.001 284.843 457.001Z" fill="#262424"/>
<path d="M309.336 465.385C302.939 465.282 296.662 463.631 291.041 460.574C290.618 460.326 290.31 459.92 290.185 459.445C290.061 458.971 290.13 458.466 290.378 458.042C290.626 457.618 291.032 457.31 291.507 457.186C291.982 457.061 292.487 457.131 292.911 457.379C293.034 457.454 305.631 464.636 318.077 460.203C326.468 457.2 332.99 449.641 337.471 437.724C337.535 437.471 337.651 437.235 337.813 437.031C337.974 436.827 338.177 436.659 338.408 436.538C338.639 436.418 338.893 436.347 339.153 436.332C339.413 436.316 339.673 436.356 339.917 436.448C340.16 436.54 340.382 436.683 340.566 436.866C340.751 437.05 340.895 437.271 340.988 437.514C341.082 437.757 341.123 438.017 341.109 438.277C341.095 438.537 341.026 438.791 340.907 439.023C336.021 452.039 328.736 460.327 319.245 463.715C316.061 464.832 312.71 465.397 309.336 465.385Z" fill="#262424"/>
<path d="M401.83 852.597C402.984 852.597 404.125 852.347 405.174 851.864C406.223 851.382 407.155 850.679 407.907 849.804C408.66 848.928 409.214 847.901 409.533 846.791C409.851 845.681 409.927 844.516 409.754 843.375L379.516 644.243H245.19L214.952 843.375C214.778 844.516 214.854 845.681 215.172 846.791C215.491 847.901 216.045 848.928 216.798 849.804C217.55 850.679 218.482 851.382 219.531 851.864C220.58 852.347 221.721 852.597 222.875 852.597C224.71 852.597 226.489 851.968 227.916 850.815C229.343 849.662 230.331 848.055 230.717 846.261L269.414 665.781H355.298L393.995 846.261C394.38 848.054 395.368 849.66 396.793 850.813C398.219 851.966 399.996 852.596 401.83 852.597Z" fill="#DC9044"/>
<path d="M376.313 765.684C375.89 765.682 375.48 765.536 375.152 765.27C374.823 765.004 374.595 764.633 374.506 764.22L368.444 735.94C368.394 735.702 368.39 735.457 368.434 735.218C368.478 734.979 368.568 734.75 368.7 734.546C368.832 734.342 369.003 734.166 369.204 734.028C369.404 733.889 369.629 733.792 369.867 733.741C370.105 733.69 370.35 733.687 370.59 733.73C370.829 733.774 371.057 733.865 371.261 733.997C371.465 734.129 371.642 734.3 371.78 734.5C371.918 734.7 372.015 734.926 372.066 735.164L378.128 763.443C378.185 763.713 378.181 763.993 378.117 764.262C378.052 764.53 377.928 764.781 377.754 764.996C377.58 765.21 377.361 765.384 377.112 765.503C376.862 765.622 376.59 765.683 376.313 765.684Z" fill="#262424"/>
<path d="M310.497 852.597C311.651 852.597 312.792 852.347 313.841 851.864C314.89 851.382 315.822 850.679 316.575 849.804C317.327 848.928 317.881 847.901 318.2 846.791C318.518 845.681 318.594 844.516 318.421 843.375L288.183 644.243H153.843L123.605 843.375C123.432 844.516 123.507 845.681 123.826 846.791C124.144 847.901 124.699 848.928 125.451 849.804C126.203 850.679 127.136 851.382 128.185 851.864C129.234 852.347 130.374 852.597 131.529 852.597C133.363 852.597 135.142 851.968 136.569 850.815C137.996 849.662 138.985 848.055 139.37 846.261L178.068 665.781H263.965L302.662 846.261C303.047 848.054 304.035 849.66 305.46 850.813C306.886 851.966 308.663 852.596 310.497 852.597Z" fill="#DC9044"/>
<path d="M291.076 665.032C290.634 665.032 290.206 664.873 289.87 664.584C289.535 664.296 289.314 663.896 289.248 663.458L286.376 644.525C286.302 644.039 286.424 643.544 286.715 643.149C287.006 642.753 287.443 642.489 287.929 642.415C288.414 642.342 288.91 642.464 289.305 642.755C289.701 643.046 289.965 643.483 290.038 643.968L292.911 662.902C292.948 663.142 292.937 663.388 292.879 663.624C292.821 663.861 292.717 664.083 292.573 664.279C292.428 664.475 292.247 664.641 292.038 664.766C291.83 664.892 291.599 664.975 291.358 665.011C291.265 665.026 291.171 665.033 291.076 665.032Z" fill="#262424"/>
<path d="M265.669 675.622C265.246 675.621 264.836 675.475 264.508 675.209C264.179 674.942 263.951 674.572 263.862 674.158L262.487 667.636H245.245C244.753 667.636 244.282 667.441 243.935 667.094C243.588 666.747 243.393 666.276 243.393 665.784C243.393 665.293 243.588 664.822 243.935 664.475C244.282 664.127 244.753 663.932 245.245 663.932H263.951C264.374 663.932 264.785 664.078 265.114 664.344C265.443 664.611 265.67 664.982 265.758 665.396L267.47 673.382C267.527 673.651 267.523 673.929 267.459 674.197C267.396 674.465 267.273 674.715 267.101 674.929C266.928 675.144 266.711 675.317 266.463 675.437C266.215 675.557 265.944 675.62 265.669 675.622Z" fill="#262424"/>
<path d="M150.978 456.41H271.848C275.923 456.411 279.868 457.85 282.987 460.474C286.106 463.097 288.199 466.737 288.898 470.752L314.05 615.545C314.439 617.791 315.61 619.827 317.356 621.294C319.101 622.76 321.309 623.562 323.589 623.558H373.001C376.725 623.558 380.296 625.037 382.929 627.67C385.562 630.303 387.041 633.874 387.041 637.598C387.041 639.442 386.678 641.267 385.972 642.971C385.267 644.674 384.232 646.222 382.929 647.526C381.625 648.829 380.077 649.864 378.374 650.569C376.67 651.275 374.845 651.638 373.001 651.638H154.572C150.598 651.642 146.744 650.278 143.658 647.775C140.571 645.272 138.441 641.782 137.625 637.893C131.852 609.765 121.207 542.506 133.914 470.642C134.631 466.642 136.735 463.023 139.855 460.421C142.976 457.818 146.914 456.398 150.978 456.41Z" fill="white"/>
<path d="M372.987 653.486H154.572C150.173 653.47 145.912 651.947 142.499 649.171C139.087 646.395 136.728 642.534 135.817 638.23C130.402 612.04 119.193 543.255 132.12 470.312C132.907 465.887 135.23 461.881 138.679 458.999C142.128 456.117 146.483 454.543 150.977 454.554H271.847C276.363 454.547 280.734 456.138 284.189 459.044C287.645 461.951 289.96 465.986 290.726 470.436L315.885 615.263C316.197 617.077 317.141 618.723 318.549 619.907C319.958 621.092 321.741 621.74 323.582 621.736H372.994C377.064 621.945 380.899 623.709 383.706 626.664C386.513 629.619 388.078 633.539 388.077 637.615C388.076 641.69 386.509 645.61 383.701 648.564C380.893 651.518 377.057 653.28 372.987 653.486ZM151.012 458.258C147.384 458.24 143.866 459.503 141.078 461.823C138.29 464.144 136.41 467.374 135.769 470.945C122.918 543.276 134.065 611.504 139.411 637.481C140.144 640.951 142.045 644.066 144.796 646.305C147.548 648.543 150.983 649.771 154.53 649.782H372.987C374.612 649.821 376.228 649.534 377.741 648.939C379.253 648.344 380.631 647.452 381.794 646.317C382.957 645.181 383.881 643.824 384.512 642.327C385.143 640.829 385.468 639.22 385.468 637.594C385.468 635.969 385.143 634.36 384.512 632.862C383.881 631.364 382.957 630.008 381.794 628.872C380.631 627.736 379.253 626.845 377.741 626.25C376.228 625.654 374.612 625.368 372.987 625.406H323.589C320.877 625.41 318.251 624.455 316.176 622.709C314.101 620.963 312.71 618.54 312.25 615.868L287.097 471.075C286.479 467.486 284.611 464.231 281.824 461.887C279.037 459.542 275.51 458.259 271.868 458.265H150.977L151.012 458.258Z" fill="#262424"/>
<path d="M729.075 747.967L737.679 783.847L757.368 782.418L754.509 743.032L729.075 747.967Z" fill="white"/>
<path d="M737.672 785.696C737.255 785.695 736.851 785.555 736.523 785.297C736.195 785.039 735.963 784.679 735.865 784.273L727.268 748.393C727.209 748.149 727.201 747.895 727.243 747.647C727.286 747.399 727.378 747.163 727.514 746.952C727.65 746.74 727.827 746.559 728.035 746.418C728.243 746.277 728.478 746.18 728.725 746.132L754.152 741.198C754.41 741.147 754.676 741.152 754.931 741.213C755.187 741.273 755.427 741.386 755.636 741.546C755.844 741.706 756.017 741.908 756.141 742.14C756.266 742.371 756.34 742.626 756.358 742.888L759.217 782.273C759.251 782.764 759.09 783.249 758.768 783.621C758.446 783.993 757.99 784.223 757.499 784.26L737.803 785.689H737.666L737.672 785.696ZM731.336 749.41L739.116 781.868L755.382 780.686L752.805 745.245L731.336 749.41Z" fill="#262424"/>
<path d="M771.188 852.598H682.79C681.948 848.223 681.687 843.756 682.014 839.313C682.515 833.403 684.453 827.101 689.91 824.098C693.704 821.922 697.238 819.321 700.445 816.346C710.252 807.474 720.979 793.393 729.034 775.429H763.753C767.493 796.559 769.88 817.906 770.9 839.341C771.085 843.725 771.188 848.172 771.188 852.598Z" fill="#86BEC0"/>
<path d="M771.188 852.598H682.79C681.948 848.223 681.687 843.756 682.014 839.313H770.907C771.085 843.725 771.188 848.172 771.188 852.598Z" fill="white"/>
<path d="M771.188 854.46H682.79C682.365 854.46 681.953 854.313 681.622 854.046C681.292 853.778 681.064 853.405 680.976 852.989C680.091 848.435 679.818 843.782 680.165 839.155C680.204 838.691 680.417 838.259 680.761 837.944C681.105 837.63 681.554 837.456 682.02 837.458H770.907C771.385 837.459 771.845 837.645 772.191 837.976C772.536 838.308 772.741 838.759 772.762 839.238C772.948 843.822 773.044 848.316 773.044 852.597C773.045 852.842 772.997 853.084 772.905 853.31C772.812 853.536 772.675 853.741 772.503 853.914C772.33 854.087 772.126 854.224 771.9 854.318C771.674 854.412 771.433 854.46 771.188 854.46ZM684.343 850.742H769.326C769.326 847.643 769.237 844.44 769.12 841.176H683.759C683.651 844.376 683.849 847.579 684.35 850.742H684.343Z" fill="#262424"/>
<path d="M700.727 852.598H682.797C681.955 848.223 681.694 843.756 682.02 839.313C682.522 833.403 684.46 827.101 689.917 824.098C693.711 821.922 697.245 819.321 700.452 816.346C698.816 821.768 696.844 833.479 700.727 852.598Z" fill="white"/>
<path d="M700.727 854.46H682.797C682.372 854.46 681.959 854.314 681.629 854.046C681.299 853.778 681.071 853.405 680.983 852.989C680.098 848.435 679.825 843.782 680.172 839.155C680.859 831.053 683.917 825.287 689.023 822.469C692.692 820.364 696.109 817.846 699.208 814.965C699.509 814.694 699.891 814.53 700.294 814.496C700.698 814.461 701.102 814.56 701.445 814.776C701.787 814.992 702.05 815.314 702.193 815.693C702.337 816.071 702.352 816.487 702.238 816.875C700.72 821.995 698.734 833.369 702.555 852.227C702.611 852.497 702.606 852.777 702.54 853.046C702.474 853.315 702.349 853.566 702.174 853.78C701.999 853.994 701.778 854.166 701.527 854.284C701.277 854.401 701.003 854.462 700.727 854.46ZM684.35 850.742H698.472C695.985 837.3 696.411 827.596 697.442 821.308C695.351 822.95 693.136 824.428 690.817 825.727C686.796 827.947 684.46 832.599 683.876 839.472C683.598 843.234 683.758 847.016 684.35 850.742Z" fill="#262424"/>
<path d="M734.415 821.439C739.216 821.439 743.108 815.559 743.108 808.306C743.108 801.052 739.216 795.173 734.415 795.173C729.613 795.173 725.721 801.052 725.721 808.306C725.721 815.559 729.613 821.439 734.415 821.439Z" fill="white"/>
<path d="M734.415 823.301C728.498 823.301 723.859 816.717 723.859 808.306C723.859 799.894 728.498 793.317 734.415 793.317C740.332 793.317 744.971 799.901 744.971 808.306C744.971 816.71 740.332 823.301 734.415 823.301ZM734.415 797.035C730.711 797.035 727.577 802.196 727.577 808.306C727.577 814.415 730.711 819.583 734.415 819.583C738.119 819.583 741.253 814.422 741.253 808.306C741.253 802.189 738.119 797.035 734.415 797.035Z" fill="#262424"/>
<path d="M753.575 837.602C753.096 837.603 752.636 837.417 752.291 837.085C751.947 836.753 751.744 836.301 751.726 835.822C750.414 800.774 745.74 778.782 745.692 778.542C745.641 778.304 745.637 778.058 745.68 777.819C745.724 777.58 745.814 777.351 745.946 777.147C746.077 776.942 746.248 776.766 746.448 776.627C746.648 776.488 746.874 776.391 747.111 776.339C747.349 776.288 747.595 776.284 747.834 776.327C748.074 776.371 748.302 776.461 748.507 776.593C748.711 776.724 748.888 776.895 749.026 777.095C749.165 777.295 749.263 777.521 749.314 777.758C749.362 777.978 754.125 800.245 755.423 835.685C755.433 835.928 755.394 836.17 755.309 836.398C755.225 836.626 755.096 836.835 754.931 837.013C754.766 837.191 754.567 837.334 754.346 837.436C754.125 837.537 753.886 837.593 753.644 837.602H753.575Z" fill="#262424"/>
<path d="M764.44 837.602C763.961 837.603 763.501 837.417 763.156 837.085C762.811 836.753 762.609 836.301 762.591 835.822C761.278 800.774 756.605 778.782 756.557 778.542C756.453 778.062 756.544 777.56 756.81 777.147C757.077 776.734 757.496 776.443 757.976 776.339C758.456 776.235 758.958 776.326 759.371 776.593C759.784 776.859 760.075 777.278 760.179 777.758C760.227 777.978 764.989 800.245 766.288 835.685C766.297 835.928 766.259 836.17 766.174 836.398C766.09 836.626 765.961 836.835 765.796 837.013C765.63 837.191 765.432 837.334 765.211 837.436C764.99 837.537 764.751 837.593 764.508 837.602H764.44Z" fill="#262424"/>
<path d="M655.94 384.869C655.94 384.869 668.193 561.295 675.595 591.079C682.996 620.864 724.718 751.506 724.718 751.506L778.7 742.07L744.387 578.613C744.387 578.613 753.602 470.718 752.07 438.081C750.537 405.445 745.624 323.96 698.83 329.293C652.037 334.626 655.94 384.869 655.94 384.869Z" fill="#86BEC0"/>
<path d="M700.912 405.142L728.752 401.967C729.865 401.84 730.984 402.16 731.862 402.857C732.739 403.554 733.304 404.572 733.432 405.685L736.284 430.714C736.381 431.574 736.213 432.442 735.801 433.203C735.39 433.964 734.755 434.58 733.982 434.968L720.656 441.662C719.753 442.115 718.716 442.23 717.735 441.985L703.207 438.363C702.372 438.155 701.621 437.696 701.054 437.049C700.486 436.402 700.13 435.597 700.032 434.741L697.194 409.816C697.069 408.703 697.389 407.586 698.087 406.71C698.784 405.834 699.8 405.27 700.912 405.142Z" fill="white"/>
<path d="M678.199 426.886C677.964 426.887 677.731 426.843 677.512 426.756L671.89 424.522C670.342 423.908 668.99 422.885 667.978 421.562C666.966 420.239 666.333 418.666 666.145 417.011L663.176 390.972C663.121 390.484 663.261 389.995 663.567 389.611C663.872 389.226 664.318 388.979 664.805 388.924C665.293 388.868 665.782 389.009 666.166 389.314C666.551 389.62 666.798 390.065 666.853 390.553L669.822 416.592C669.934 417.582 670.312 418.523 670.918 419.315C671.523 420.107 672.332 420.719 673.258 421.086L678.88 423.32C679.279 423.478 679.611 423.771 679.818 424.148C680.025 424.525 680.094 424.962 680.013 425.384C679.933 425.806 679.707 426.187 679.376 426.462C679.045 426.736 678.629 426.886 678.199 426.886Z" fill="#262424"/>
<path d="M736.476 738.401C736.074 738.401 735.683 738.271 735.362 738.029C735.041 737.787 734.807 737.447 734.696 737.061L690.171 582.915C690.137 582.801 690.113 582.683 690.102 582.564L673.231 389.776C673.188 389.287 673.341 388.8 673.657 388.424C673.973 388.048 674.425 387.812 674.914 387.769C675.404 387.726 675.89 387.88 676.266 388.196C676.643 388.511 676.878 388.964 676.921 389.453L693.779 582.063L738.256 736.002C738.341 736.28 738.36 736.574 738.311 736.86C738.261 737.147 738.145 737.418 737.972 737.651C737.799 737.884 737.573 738.074 737.313 738.204C737.054 738.334 736.767 738.402 736.476 738.401Z" fill="#262424"/>
<path d="M727.824 740.119C727.357 740.129 726.904 739.963 726.555 739.654C726.206 739.344 725.987 738.914 725.941 738.45C725.896 737.985 726.028 737.521 726.311 737.15C726.594 736.779 727.007 736.528 727.466 736.449L770.494 727.9C770.976 727.804 771.476 727.904 771.885 728.177C772.293 728.45 772.577 728.875 772.672 729.357C772.768 729.839 772.668 730.339 772.395 730.748C772.122 731.156 771.698 731.439 771.216 731.535L728.188 740.084C728.068 740.108 727.946 740.119 727.824 740.119Z" fill="#262424"/>
<path d="M621.668 746.991L627.647 783.4H647.391V743.912L621.668 746.991Z" fill="white"/>
<path d="M647.391 785.263H627.647C627.205 785.264 626.778 785.107 626.442 784.821C626.105 784.535 625.882 784.139 625.812 783.703L619.833 747.28C619.792 747.032 619.802 746.779 619.862 746.535C619.922 746.291 620.031 746.062 620.182 745.862C620.333 745.662 620.523 745.494 620.74 745.369C620.958 745.244 621.199 745.165 621.448 745.135L647.171 742.057C647.431 742.028 647.694 742.054 647.943 742.134C648.192 742.213 648.421 742.345 648.616 742.519C648.81 742.694 648.966 742.907 649.072 743.146C649.178 743.385 649.233 743.644 649.232 743.905V783.394C649.234 783.637 649.188 783.879 649.096 784.105C649.005 784.331 648.87 784.536 648.699 784.71C648.528 784.883 648.324 785.021 648.1 785.116C647.875 785.211 647.634 785.261 647.391 785.263ZM629.227 781.545H645.535V746.008L623.819 748.606L629.227 781.545Z" fill="#262424"/>
<path d="M662.606 852.598H574.208C573.366 848.223 573.105 843.756 573.431 839.313C573.933 833.403 575.871 827.101 581.327 824.098C585.121 821.922 588.656 819.321 591.863 816.346C601.669 807.474 612.397 793.393 620.451 775.429H655.17C658.91 796.559 661.297 817.906 662.317 839.341C662.503 843.725 662.606 848.172 662.606 852.598Z" fill="#86BEC0"/>
<path d="M662.606 852.598H574.208C573.366 848.223 573.105 843.756 573.431 839.313H662.324C662.503 843.725 662.606 848.172 662.606 852.598Z" fill="white"/>
<path d="M662.606 854.46H574.208C573.783 854.46 573.37 854.313 573.04 854.046C572.71 853.778 572.482 853.405 572.393 852.989C571.509 848.435 571.236 843.782 571.582 839.155C571.622 838.691 571.835 838.259 572.179 837.944C572.523 837.63 572.972 837.456 573.438 837.458H662.324C662.803 837.459 663.263 837.645 663.608 837.976C663.954 838.308 664.159 838.759 664.18 839.238C664.365 843.822 664.462 848.316 664.462 852.597C664.462 852.842 664.415 853.084 664.322 853.31C664.229 853.536 664.093 853.741 663.921 853.914C663.748 854.087 663.543 854.224 663.318 854.318C663.092 854.412 662.85 854.46 662.606 854.46ZM575.761 850.742H660.737C660.737 847.643 660.647 844.44 660.531 841.176H575.177C575.067 844.376 575.262 847.579 575.761 850.742Z" fill="#262424"/>
<path d="M592.137 852.598H574.208C573.366 848.223 573.105 843.756 573.431 839.313C573.933 833.403 575.871 827.101 581.327 824.098C585.121 821.922 588.656 819.321 591.863 816.346C590.234 821.768 588.261 833.479 592.137 852.598Z" fill="white"/>
<path d="M592.138 854.46H574.201C573.776 854.46 573.364 854.314 573.033 854.046C572.703 853.778 572.475 853.405 572.387 852.989C571.502 848.435 571.229 843.782 571.576 839.155C572.263 831.053 575.321 825.287 580.427 822.469C584.096 820.364 587.514 817.846 590.612 814.965C590.913 814.694 591.295 814.53 591.699 814.496C592.102 814.461 592.506 814.56 592.849 814.776C593.191 814.992 593.454 815.314 593.597 815.693C593.741 816.071 593.757 816.487 593.643 816.875C592.124 822.002 590.145 833.403 593.959 852.227C594.015 852.497 594.01 852.776 593.945 853.045C593.879 853.313 593.755 853.563 593.58 853.777C593.406 853.991 593.186 854.163 592.936 854.282C592.686 854.4 592.414 854.461 592.138 854.46ZM575.761 850.742H589.883C587.396 837.3 587.822 827.596 588.853 821.308C586.762 822.95 584.547 824.428 582.228 825.727C578.207 827.947 575.871 832.599 575.287 839.472C575.012 843.234 575.173 847.016 575.768 850.742H575.761Z" fill="#262424"/>
<path d="M625.833 821.439C630.634 821.439 634.526 815.559 634.526 808.306C634.526 801.052 630.634 795.173 625.833 795.173C621.031 795.173 617.139 801.052 617.139 808.306C617.139 815.559 621.031 821.439 625.833 821.439Z" fill="white"/>
<path d="M625.832 823.301C619.915 823.301 615.276 816.717 615.276 808.306C615.276 799.894 619.915 793.317 625.832 793.317C631.749 793.317 636.388 799.901 636.388 808.306C636.388 816.71 631.749 823.301 625.832 823.301ZM625.832 797.035C622.128 797.035 618.994 802.196 618.994 808.306C618.994 814.415 622.128 819.583 625.832 819.583C629.536 819.583 632.67 814.422 632.67 808.306C632.67 802.189 629.536 797.035 625.832 797.035Z" fill="#262424"/>
<path d="M644.985 837.602C644.507 837.603 644.047 837.417 643.702 837.085C643.357 836.753 643.155 836.301 643.137 835.822C641.824 800.705 637.151 778.782 637.11 778.542C637.058 778.304 637.054 778.058 637.098 777.819C637.141 777.58 637.231 777.351 637.363 777.147C637.495 776.942 637.666 776.766 637.866 776.627C638.066 776.488 638.291 776.391 638.529 776.339C638.767 776.288 639.012 776.284 639.252 776.327C639.491 776.371 639.72 776.461 639.924 776.593C640.129 776.724 640.305 776.895 640.444 777.095C640.582 777.295 640.68 777.521 640.731 777.758C640.78 777.978 645.542 800.245 646.841 835.685C646.85 835.928 646.811 836.17 646.727 836.398C646.642 836.626 646.514 836.835 646.348 837.013C646.183 837.191 645.984 837.334 645.763 837.436C645.543 837.537 645.304 837.593 645.061 837.602H644.992H644.985Z" fill="#262424"/>
<path d="M655.857 837.602C655.379 837.603 654.919 837.417 654.574 837.085C654.229 836.753 654.027 836.301 654.009 835.822C652.696 800.705 648.023 778.782 647.982 778.542C647.93 778.304 647.926 778.058 647.97 777.819C648.013 777.58 648.103 777.351 648.235 777.147C648.367 776.942 648.538 776.766 648.738 776.627C648.938 776.488 649.163 776.391 649.401 776.339C649.639 776.288 649.884 776.284 650.124 776.327C650.363 776.371 650.592 776.461 650.796 776.593C651.001 776.724 651.177 776.895 651.316 777.095C651.454 777.295 651.552 777.521 651.604 777.758C651.652 777.978 656.414 800.245 657.713 835.685C657.722 835.928 657.683 836.17 657.599 836.398C657.514 836.626 657.386 836.835 657.221 837.013C657.055 837.191 656.856 837.334 656.635 837.436C656.415 837.537 656.176 837.593 655.933 837.602H655.864H655.857Z" fill="#262424"/>
<path d="M589.059 379.09C589.059 379.09 581.245 555.762 585.231 586.2C589.217 616.637 615.868 751.135 615.868 751.135L670.571 747.877L654.992 581.568C654.992 581.568 676.364 475.418 678.543 442.809C680.721 410.2 685.065 328.688 637.996 328.688C590.928 328.688 589.059 379.09 589.059 379.09Z" fill="#86BEC0"/>
<path d="M669.409 507.12C669.302 507.13 669.194 507.13 669.087 507.12C668.847 507.079 668.617 506.99 668.412 506.86C668.206 506.73 668.028 506.56 667.889 506.361C667.749 506.162 667.65 505.937 667.597 505.699C667.544 505.462 667.539 505.216 667.582 504.976C672.887 474.807 675.952 453.874 676.694 442.754C678.144 420.976 682 363.132 660.531 340.179C654.593 333.829 646.999 330.612 637.969 330.612C637.478 330.612 637.006 330.417 636.659 330.07C636.312 329.723 636.117 329.251 636.117 328.76C636.117 328.269 636.312 327.798 636.659 327.451C637.006 327.103 637.478 326.908 637.969 326.908C648.064 326.908 656.565 330.523 663.238 337.65C685.807 361.778 681.876 420.804 680.419 443.002C679.67 454.252 676.584 475.302 671.258 505.615C671.176 506.043 670.946 506.429 670.608 506.704C670.27 506.979 669.845 507.127 669.409 507.12Z" fill="#262424"/>
<path d="M631.468 404.332H659.486C660.607 404.332 661.682 404.777 662.474 405.569C663.267 406.362 663.712 407.437 663.712 408.558V433.745C663.714 434.607 663.451 435.45 662.959 436.158C662.468 436.867 661.772 437.409 660.964 437.71L646.972 442.858C646.023 443.21 644.979 443.21 644.03 442.858L630.011 437.614C629.204 437.313 628.508 436.772 628.017 436.065C627.525 435.358 627.262 434.517 627.262 433.656V408.572C627.258 407.452 627.699 406.377 628.487 405.582C629.276 404.787 630.348 404.337 631.468 404.332Z" fill="white"/>
<path d="M606.603 423.375C606.299 423.374 605.999 423.299 605.731 423.155L600.405 420.296C598.935 419.51 597.707 418.34 596.852 416.91C595.996 415.481 595.544 413.846 595.546 412.18V385.976C595.546 385.484 595.741 385.013 596.088 384.666C596.436 384.319 596.907 384.124 597.398 384.124C597.889 384.124 598.36 384.319 598.708 384.666C599.055 385.013 599.25 385.484 599.25 385.976V412.187C599.25 413.183 599.52 414.16 600.032 415.015C600.544 415.87 601.278 416.569 602.157 417.038L607.483 419.897C607.846 420.092 608.134 420.403 608.3 420.78C608.467 421.158 608.502 421.58 608.401 421.979C608.3 422.379 608.068 422.734 607.742 422.986C607.417 423.239 607.016 423.376 606.603 423.375Z" fill="#262424"/>
<path d="M629.241 739.48C628.804 739.479 628.381 739.323 628.047 739.04C627.714 738.757 627.491 738.365 627.42 737.933L600.618 579.74C600.607 579.621 600.607 579.501 600.618 579.383L605.69 385.921C605.693 385.677 605.745 385.437 605.843 385.213C605.941 384.99 606.082 384.789 606.259 384.621C606.436 384.453 606.644 384.323 606.872 384.237C607.1 384.151 607.343 384.111 607.586 384.12C607.829 384.126 608.068 384.18 608.29 384.279C608.512 384.378 608.712 384.519 608.88 384.695C609.047 384.872 609.178 385.079 609.265 385.306C609.352 385.532 609.393 385.774 609.387 386.017L604.322 579.3L631.069 737.315C631.11 737.555 631.104 737.801 631.05 738.039C630.996 738.276 630.895 738.501 630.754 738.699C630.613 738.898 630.434 739.067 630.227 739.196C630.021 739.325 629.791 739.412 629.55 739.452C629.448 739.47 629.345 739.479 629.241 739.48Z" fill="#262424"/>
<path d="M620.472 740.208C619.982 740.228 619.504 740.052 619.143 739.72C618.782 739.387 618.568 738.925 618.548 738.435C618.528 737.945 618.703 737.466 619.036 737.106C619.369 736.745 619.831 736.531 620.321 736.511L664.036 732.889C664.525 732.848 665.011 733.003 665.386 733.32C665.761 733.637 665.995 734.09 666.036 734.58C666.077 735.069 665.921 735.555 665.604 735.93C665.287 736.305 664.834 736.538 664.345 736.579L620.63 740.201H620.472V740.208Z" fill="#262424"/>
<path d="M701.916 321.665L693.401 327.101C693.401 327.101 678.728 325.108 674.742 326.015C670.757 326.922 656.448 335.636 656.448 340.144C656.448 344.652 671.121 337.395 671.121 337.395C671.121 337.395 658.957 344.494 657.534 345.182C656.112 345.869 650.105 345.182 646.662 346.267C643.219 347.353 653.363 368.005 657.713 370.905C662.063 373.805 681.264 370.362 686.15 369.09C691.037 367.819 709.881 345.36 710.602 344.996C711.324 344.632 723.103 336.303 723.103 336.303L701.916 321.665Z" fill="white"/>
<path d="M664.455 373.894C661.101 373.894 658.27 373.509 656.703 372.478C652.421 369.626 643.419 352.418 644.181 347.051C644.221 346.486 644.427 345.946 644.773 345.499C645.119 345.051 645.59 344.716 646.126 344.536C648.263 343.848 651.005 343.807 653.425 343.759C654.542 343.782 655.66 343.709 656.765 343.539L657.197 343.305C656.804 343.226 656.428 343.079 656.084 342.872C655.618 342.585 655.236 342.179 654.978 341.696C654.72 341.214 654.594 340.671 654.614 340.124C654.614 333.939 670.605 325.039 674.351 324.187C678.096 323.335 689.8 324.736 692.995 325.156L700.94 320.084C701.248 319.885 701.61 319.783 701.977 319.79C702.344 319.798 702.701 319.914 703.001 320.125L724.195 334.798C724.439 334.968 724.638 335.195 724.776 335.458C724.913 335.722 724.985 336.015 724.985 336.313C724.985 336.61 724.913 336.903 724.776 337.167C724.638 337.431 724.439 337.658 724.195 337.828C720.072 340.742 713.262 345.546 711.715 346.515C711.331 346.893 710.032 348.35 708.657 349.889C697.661 362.184 690.157 369.984 686.666 370.898C684.439 371.482 672.853 373.894 664.455 373.894ZM647.789 347.93C647.721 351.538 655.053 366.96 658.744 369.413C661.994 371.585 679.271 369.015 685.69 367.352C688.831 366.534 701.661 352.178 705.874 347.456C709.159 343.78 709.31 343.628 709.777 343.395C710.361 343.051 715.626 339.368 719.873 336.371L701.874 323.877L694.397 328.688C694.028 328.924 693.587 329.021 693.153 328.963C687.387 328.18 677.842 327.238 675.155 327.85C671.21 328.743 659.218 336.598 658.352 339.828C660.084 339.993 665.375 338.227 670.303 335.794C670.735 335.562 671.242 335.51 671.711 335.651C672.181 335.793 672.576 336.115 672.808 336.547C673.04 336.979 673.092 337.485 672.95 337.955C672.809 338.425 672.487 338.819 672.055 339.052C670.805 339.78 659.823 346.164 658.366 346.9C657.383 347.388 655.94 347.443 653.48 347.491C651.573 347.461 649.668 347.608 647.789 347.93ZM711.605 346.611L711.434 346.707L711.605 346.611Z" fill="#262424"/>
<path d="M718.134 158.674C718.134 158.674 735.425 164.248 747.747 190.699C760.069 217.151 779.263 272.94 779.992 298.663C780.72 324.386 733.453 345.037 718.141 350.831C718.141 350.831 696.218 342.859 696.947 319.314L734.745 285.262C734.745 285.262 708.3 235.988 698.878 206.643C689.456 177.298 718.134 158.674 718.134 158.674Z" fill="#DC9044"/>
<path d="M721.295 345.8C720.948 345.801 720.607 345.703 720.312 345.518C701.07 333.437 702.713 318.105 702.795 317.459C702.824 317.217 702.901 316.984 703.02 316.772C703.14 316.56 703.3 316.374 703.491 316.224C703.683 316.074 703.902 315.964 704.136 315.898C704.37 315.833 704.615 315.814 704.857 315.844C705.098 315.873 705.331 315.95 705.543 316.069C705.755 316.189 705.941 316.349 706.091 316.54C706.241 316.732 706.352 316.951 706.417 317.185C706.483 317.419 706.501 317.664 706.472 317.905C706.41 318.469 705.132 331.65 722.278 342.385C722.618 342.598 722.88 342.916 723.023 343.291C723.167 343.665 723.184 344.077 723.073 344.463C722.962 344.848 722.729 345.188 722.408 345.429C722.087 345.67 721.697 345.801 721.295 345.8Z" fill="#262424"/>
<path d="M653.212 125.406C653.212 125.406 642.766 140.429 627.351 140.429C611.937 140.429 600.446 77.0866 627.874 71.7056C655.301 66.3246 672.805 97.5867 653.212 125.406Z" fill="white"/>
<path d="M627.344 142.277C618.012 142.277 611.339 125.282 609.792 109.29C608.143 92.2468 611.936 72.9494 627.516 69.905C640.058 67.4584 651.507 72.1247 658.16 82.385C664.558 92.2537 667.011 109.015 654.723 126.464C654.235 127.172 643.508 142.277 627.344 142.277ZM633.928 72.9769C632.01 72.9805 630.098 73.1692 628.217 73.5404C615.07 76.1038 611.978 93.5044 613.469 108.933C614.995 124.739 621.475 138.573 627.337 138.573C641.577 138.573 651.583 124.485 651.679 124.347C662.908 108.404 660.771 93.2639 655.033 84.4124C652.786 80.8627 649.667 77.9479 645.973 75.9461C642.28 73.9442 638.135 72.9219 633.935 72.9769H633.928Z" fill="#262424"/>
<path d="M668.296 160.145L663.396 128.801L642.415 134.525L643.02 160.145H668.296Z" fill="white"/>
<path d="M668.297 162.001H643.027C642.544 162.001 642.08 161.812 641.734 161.474C641.389 161.136 641.189 160.676 641.179 160.193L640.567 134.573C640.558 134.159 640.688 133.753 640.937 133.421C641.187 133.09 641.54 132.852 641.941 132.745L662.929 127.021C663.18 126.952 663.443 126.937 663.701 126.976C663.958 127.016 664.204 127.11 664.423 127.251C664.641 127.393 664.828 127.579 664.969 127.797C665.111 128.016 665.205 128.262 665.245 128.519L670.145 159.863C670.187 160.129 670.171 160.401 670.097 160.66C670.023 160.918 669.894 161.158 669.717 161.361C669.541 161.565 669.323 161.728 669.078 161.838C668.832 161.948 668.566 162.004 668.297 162.001ZM644.835 158.296H666.139L661.892 131.13L644.299 135.941L644.835 158.296Z" fill="#262424"/>
<path d="M620.554 108.424C620.554 108.424 623.427 95.7584 632.306 98.8922C641.185 102.026 640.663 116.265 634.265 120.313L642.401 134.525H664.283C664.283 134.525 681.938 110.905 684.027 96.0402C686.116 81.1754 671.753 79.9728 671.753 79.9728C671.753 79.9728 669.141 67.1766 658.696 64.9499C648.25 62.7233 619.523 68.7366 619.523 68.7366C619.523 68.7366 613.943 59.8576 609.215 59.9538C604.487 60.05 604.611 69.8499 604.611 69.8499C604.611 69.8499 598.426 61.8162 594.618 64.2696C590.811 66.723 597.264 99.7306 616.562 93.6555C616.575 93.6555 613.964 107.153 620.554 108.424Z" fill="#262424"/>
<path d="M683.099 156.592C683.099 156.592 677.855 143.054 657.548 143.054C637.24 143.054 630.134 160.145 630.134 160.145H683.106V156.592H683.099Z" fill="white"/>
<path d="M683.099 162.001H630.127C629.822 162.002 629.521 161.927 629.252 161.784C628.983 161.64 628.753 161.432 628.584 161.178C628.414 160.924 628.31 160.633 628.281 160.329C628.252 160.025 628.298 159.719 628.416 159.437C628.492 159.252 636.244 141.205 657.541 141.205C678.838 141.205 684.59 155.328 684.824 155.925C684.908 156.145 684.95 156.378 684.948 156.613V160.166C684.944 160.654 684.748 161.12 684.401 161.464C684.055 161.808 683.587 162.001 683.099 162.001ZM633.206 158.296H681.25V156.977C680.364 155.06 674.839 144.909 657.548 144.909C643.253 144.902 635.983 153.774 633.206 158.296Z" fill="#262424"/>
<path d="M580.936 387.481C589.412 390.415 598.086 392.744 606.892 394.449V372.066C607.019 370.518 607.723 369.075 608.865 368.022C610.007 366.97 611.504 366.386 613.057 366.386C614.61 366.386 616.106 366.97 617.248 368.022C618.39 369.075 619.094 370.518 619.221 372.066V396.49C697.627 407.245 753.781 381.866 753.781 381.866C739.775 234.05 718.134 158.674 718.134 158.674C646.064 146.38 591.601 162.557 591.601 162.557C580.936 207 580.936 387.481 580.936 387.481Z" fill="#DC9044"/>
<path d="M748.297 332.516C747.844 332.516 747.406 332.349 747.068 332.047C746.73 331.746 746.514 331.331 746.462 330.88C735.727 240.51 723.096 185.566 718.169 166.145C718.047 165.669 718.12 165.165 718.371 164.742C718.621 164.32 719.03 164.015 719.505 163.894C719.981 163.773 720.485 163.845 720.907 164.096C721.329 164.347 721.635 164.755 721.756 165.231C726.704 184.727 739.37 239.85 750.132 330.441C750.161 330.683 750.143 330.928 750.077 331.163C750.012 331.398 749.9 331.617 749.75 331.809C749.599 332.001 749.412 332.16 749.199 332.279C748.986 332.398 748.752 332.474 748.51 332.502L748.297 332.516Z" fill="#262424"/>
<path d="M659.012 391.102C647.993 391.103 636.982 390.52 626.025 389.357C625.536 389.305 625.089 389.061 624.78 388.679C624.471 388.297 624.327 387.808 624.379 387.319C624.431 386.831 624.675 386.383 625.057 386.074C625.439 385.766 625.928 385.621 626.417 385.673C655.239 388.745 699.4 389.219 746.07 374.066C746.538 373.915 747.046 373.955 747.484 374.179C747.921 374.403 748.252 374.791 748.403 375.258C748.555 375.726 748.514 376.234 748.29 376.672C748.067 377.109 747.678 377.44 747.211 377.591C715.31 387.948 684.591 391.102 659.012 391.102Z" fill="#262424"/>
<path d="M598.137 384.979C598.008 384.979 597.879 384.965 597.752 384.938C590.88 383.488 587.066 382.361 586.908 382.313C586.437 382.172 586.042 381.851 585.809 381.419C585.576 380.987 585.523 380.481 585.664 380.01C585.804 379.54 586.125 379.145 586.557 378.912C586.989 378.678 587.496 378.626 587.966 378.767C588 378.767 591.814 379.9 598.522 381.316C598.976 381.405 599.38 381.66 599.655 382.031C599.93 382.403 600.055 382.864 600.007 383.324C599.959 383.784 599.74 384.209 599.394 384.515C599.048 384.821 598.599 384.987 598.137 384.979Z" fill="#262424"/>
<path d="M489.253 252.467L471.501 242.503C471.501 242.503 468.065 211.165 465.708 206.636C463.894 203.152 447.304 191.785 440.727 187.442C440.305 187.163 439.831 186.971 439.334 186.876C438.837 186.781 438.326 186.786 437.831 186.89C437.335 186.995 436.865 187.196 436.448 187.483C436.032 187.77 435.676 188.137 435.401 188.562C434.956 189.252 434.745 190.066 434.798 190.886C434.851 191.705 435.166 192.485 435.697 193.111L447.05 205.55L433.092 199.255C431.865 198.7 430.472 198.631 429.196 199.064C427.92 199.496 426.856 200.398 426.22 201.585L417.829 217.206C417.2 218.376 417.033 219.739 417.36 221.026C417.687 222.314 418.484 223.432 419.595 224.16L438.714 236.709C438.714 236.709 438.349 256.453 443.064 258.811C447.778 261.168 463.681 263.518 463.681 263.518L482.518 280.362L489.253 252.467Z" fill="white"/>
<path d="M482.545 282.218C482.088 282.218 481.648 282.049 481.308 281.743L462.883 265.25C459.963 264.803 446.685 262.68 442.225 260.439C437.215 257.931 436.796 243.492 436.844 237.678L418.571 225.686C417.067 224.709 415.986 223.2 415.546 221.461C415.105 219.722 415.336 217.881 416.193 216.305L424.612 200.712C425.473 199.117 426.906 197.906 428.623 197.324C430.34 196.741 432.214 196.83 433.869 197.572L439.655 200.183L434.343 194.362C433.442 193.326 432.946 191.999 432.949 190.626C432.951 189.253 433.452 187.927 434.357 186.895C435.262 185.862 436.51 185.192 437.871 185.01C439.232 184.828 440.613 185.145 441.758 185.902C447.208 189.504 465.172 201.571 467.364 205.784C469.646 210.175 472.587 235.424 473.254 241.355L490.18 250.852C490.535 251.05 490.815 251.359 490.976 251.732C491.138 252.105 491.172 252.52 491.074 252.914L484.373 280.809C484.273 281.216 484.038 281.578 483.706 281.834C483.374 282.09 482.964 282.225 482.545 282.218ZM430.907 200.643C430.28 200.643 429.665 200.812 429.126 201.132C428.588 201.453 428.146 201.913 427.849 202.465L419.457 218.085C419.043 218.846 418.93 219.735 419.143 220.575C419.356 221.415 419.878 222.143 420.605 222.614L439.731 235.163C439.992 235.334 440.206 235.569 440.353 235.846C440.5 236.122 440.574 236.431 440.569 236.744C440.404 245.719 441.703 256.062 443.895 257.154C447.545 258.976 459.633 261.044 463.99 261.69C464.348 261.744 464.682 261.902 464.952 262.144L481.48 276.926L487.15 253.402L470.622 244.125C470.364 243.98 470.145 243.776 469.982 243.53C469.82 243.284 469.719 243.002 469.687 242.709C468.368 230.724 465.687 210.567 464.086 207.495C462.842 205.097 450.603 196.177 439.724 188.995C439.328 188.729 438.849 188.615 438.376 188.675C437.902 188.735 437.467 188.964 437.15 189.321C436.832 189.677 436.655 190.137 436.651 190.614C436.647 191.091 436.816 191.554 437.126 191.916L448.431 204.286C448.721 204.6 448.894 205.005 448.919 205.432C448.945 205.859 448.821 206.281 448.57 206.627C448.319 206.973 447.955 207.222 447.541 207.33C447.128 207.438 446.689 207.399 446.301 207.22L432.343 200.925C431.892 200.73 431.405 200.634 430.914 200.643H430.907Z" fill="#262424"/>
<path d="M618.046 229.225C607.339 253.966 587.224 293.138 568.806 314.861C560.656 324.482 552.835 330.667 546.313 330.667C540.018 330.667 530.589 326.489 520.446 320.593C496.393 306.628 468.299 283.084 468.299 283.084C466.794 262.968 471.501 249.079 487.383 246.372L532.788 266.418C532.788 266.418 571.871 169.251 591.608 162.564C622.389 157.609 633.529 193.476 618.046 229.225Z" fill="#DC9044"/>
<path d="M586.722 291.427C586.393 291.427 586.068 291.34 585.784 291.173C585.499 291.006 585.264 290.766 585.104 290.478C584.943 290.189 584.863 289.864 584.871 289.534C584.879 289.204 584.975 288.882 585.149 288.602C596.917 269.305 607.342 249.22 616.349 228.49C624.17 210.395 625.283 191.187 619.222 178.364C615.95 171.443 610.789 166.791 604.288 164.914C603.816 164.779 603.417 164.461 603.179 164.031C602.942 163.601 602.884 163.095 603.02 162.623C603.156 162.151 603.474 161.752 603.903 161.514C604.333 161.276 604.84 161.219 605.312 161.355C612.871 163.533 618.837 168.866 622.568 176.776C629.159 190.741 628.107 210.615 619.751 229.954C610.675 250.848 600.17 271.091 588.31 290.54C588.144 290.812 587.911 291.037 587.633 291.192C587.355 291.347 587.041 291.428 586.722 291.427Z" fill="#262424"/>
<path d="M568.799 314.861C560.649 324.482 552.828 330.667 546.306 330.667C540.011 330.667 530.582 326.489 520.439 320.593C522.013 308.972 532.596 299.976 545.406 299.976C556.031 299.989 565.102 306.147 568.799 314.861Z" fill="white"/>
<path d="M476.841 285.18C476.389 285.179 475.952 285.014 475.614 284.714C475.276 284.413 475.06 284 475.006 283.551C474.876 282.472 472.01 257.017 489.5 250.674C489.961 250.506 490.47 250.529 490.914 250.736C491.359 250.944 491.703 251.319 491.871 251.78C492.038 252.241 492.016 252.75 491.809 253.195C491.601 253.64 491.225 253.984 490.764 254.151C476.044 259.491 478.655 282.871 478.69 283.104C478.748 283.592 478.611 284.082 478.308 284.469C478.005 284.855 477.562 285.106 477.075 285.166L476.841 285.18Z" fill="#262424"/>
<path d="M51.1848 598.302C44.3973 598.302 37.8878 600.998 33.0883 605.798C28.2888 610.597 25.5924 617.107 25.5924 623.894C25.5924 617.107 22.8961 610.597 18.0966 605.798C13.2971 600.998 6.78753 598.302 0 598.302C6.78753 598.302 13.2971 595.606 18.0966 590.806C22.8961 586.007 25.5924 579.497 25.5924 572.71C25.5924 579.497 28.2888 586.007 33.0883 590.806C37.8878 595.606 44.3973 598.302 51.1848 598.302Z" fill="#86BEC0"/>
<path d="M604.666 18.0604C599.876 18.0622 595.284 19.9656 591.897 23.3522C588.511 26.7388 586.607 31.3314 586.605 36.1208C586.605 33.747 586.136 31.3967 585.226 29.2041C584.317 27.0115 582.984 25.0197 581.304 23.3425C579.624 21.6652 577.63 20.3354 575.436 19.4291C573.242 18.5228 570.891 18.0577 568.518 18.0604C573.307 18.0586 577.9 16.1552 581.286 12.7686C584.673 9.38203 586.576 4.78936 586.578 0C586.579 2.37378 587.047 4.72412 587.957 6.91669C588.867 9.10927 590.2 11.1011 591.879 12.7783C593.559 14.4556 595.553 15.7854 597.747 16.6917C599.941 17.598 602.292 18.0631 604.666 18.0604Z" fill="#DC9044"/>
<path d="M51.178 477.638C55.0759 477.638 58.2358 474.478 58.2358 470.58C58.2358 466.682 55.0759 463.523 51.178 463.523C47.28 463.523 44.1201 466.682 44.1201 470.58C44.1201 474.478 47.28 477.638 51.178 477.638Z" fill="#DC9044"/>
</svg>
